<?xml version="1.0" encoding="utf-8"?>
<!-- Generator: Adobe Illustrator 22.0.1, SVG Export Plug-In . SVG Version: 6.00 Build 0)  -->
<svg version="1.1" id="Layer_1" xmlns="http://www.w3.org/2000/svg" xmlns:xlink="http://www.w3.org/1999/xlink" x="0px" y="0px"
	 viewBox="0 0 48 48" style="enable-background:new 0 0 48 48;" xml:space="preserve">
<style type="text/css">
	.st0{clip-path:url(#SVGID_2_);}
	.st1{fill-rule:evenodd;clip-rule:evenodd;fill:#49A9F6;}
	.st2{fill-rule:evenodd;clip-rule:evenodd;fill:#F0F0F0;}
	.st3{fill-rule:evenodd;clip-rule:evenodd;fill:#FFC703;stroke:#853409;stroke-width:5.220200e-02;stroke-miterlimit:2.4142;}
	.st4{fill-rule:evenodd;clip-rule:evenodd;fill:#853409;}
	.st5{fill-rule:evenodd;clip-rule:evenodd;fill:#FFC703;stroke:#853409;stroke-width:8.700400e-02;stroke-miterlimit:2.4142;}
</style>
<g>
	<defs>
		<path id="SVGID_1_" d="M47.8,24c0,13.1-10.6,23.8-23.8,23.8C10.9,47.8,0.2,37.1,0.2,24C0.2,10.9,10.9,0.2,24,0.2
			C37.1,0.2,47.8,10.9,47.8,24z"/>
	</defs>
	<clipPath id="SVGID_2_">
		<use xlink:href="#SVGID_1_"  style="overflow:visible;"/>
	</clipPath>
	<g class="st0">
		<path class="st1" d="M-11.6,0.2h71.3v15.8h-71.3V0.2L-11.6,0.2z M59.6,31.9v15.8h-71.3V31.9H59.6L59.6,31.9z"/>
		<polygon class="st2" points="-11.6,16.1 59.6,16.1 59.6,31.9 -11.6,31.9 -11.6,16.1 		"/>
		<g>
			<g>
				<g>
					<g>
						<path class="st3" d="M24.1,18l0.1,2.1l0.1,2l0,0l0,0c0,0,0,0,0,0.1c0,0,0,0,0,0l0,0H24h-0.1c0,0,0,0-0.1,0l0,0c0,0,0,0,0-0.1
							c0,0,0,0,0,0l0,0c0,0,0,0,0,0l0.1-2.1l0.1-2l0,0l0,0c0,0,0,0,0-0.1C24,18,24,17.9,24.1,18C24,17.9,24,18,24.1,18
							C24.1,18,24.1,18,24.1,18L24.1,18z"/>
						<polygon class="st4" points="24,19.9 24,20.9 24,21.9 24,21.9 23.9,21.9 24,20.9 24,19.9 						"/>
					</g>
					<g>
						<path class="st3" d="M24.1,21.8c0.1-0.3,0.2-0.3,0.2-0.6c0-0.3,0-0.4,0.1-0.8c0.1-0.3,0.3-0.6,0.4-0.9c0.1-0.3,0.1-0.6,0-0.8
							c0-0.2,0.2-0.5,0.3-0.6c0.1-0.1,0.1,0,0.1,0.1c-0.1,0.1-0.2,0.2-0.2,0.4c0,0.3,0.1,0.4,0.1,0.8c0,0.4-0.2,0.6-0.3,0.8
							c-0.1,0.2-0.1,0.7-0.1,0.9c0,0.2-0.1,0.6-0.1,0.7C24.6,21.9,24.1,21.8,24.1,21.8L24.1,21.8z"/>
						<path class="st4" d="M24.4,21.8c0,0,0.1-0.4,0.1-0.6c0-0.3,0-0.6,0.1-0.7c0.1-0.2,0.2-0.3,0.2-0.3s-0.1,0.2-0.1,0.3
							c0,0.1,0,0.6,0,0.7c0,0.2-0.1,0.6-0.1,0.6L24.4,21.8L24.4,21.8z"/>
					</g>
				</g>
				<g>
					<g>
						<path class="st3" d="M21.8,18.5l0.9,1.9l0.8,1.8l0,0l0,0c0,0,0,0,0,0.1c0,0,0,0,0,0l0,0l-0.1,0.1l-0.1,0.1c0,0,0,0-0.1,0l0,0
							c0,0,0,0,0,0c0,0,0,0,0,0l0,0c0,0,0,0,0,0l-0.7-1.9l-0.7-1.9h0l0,0c0,0,0,0,0-0.1c0,0,0,0,0,0C21.7,18.4,21.7,18.4,21.8,18.5
							C21.8,18.4,21.8,18.4,21.8,18.5L21.8,18.5z"/>
						<polygon class="st4" points="22.4,20.2 22.8,21.1 23.2,22 23.2,22 23.1,22.1 22.8,21.2 22.4,20.2 						"/>
					</g>
					<g>
						<path class="st3" d="M23.3,21.9c0-0.3,0.1-0.4,0-0.6c-0.1-0.3-0.1-0.4-0.2-0.7c-0.1-0.3,0.1-0.7,0-1c-0.1-0.3-0.2-0.6-0.3-0.8
							c-0.1-0.2,0-0.5,0.1-0.7c0.1-0.1,0.1-0.1,0.1,0.1c0,0.1-0.1,0.2,0,0.5c0.1,0.2,0.2,0.3,0.3,0.7c0.1,0.4,0,0.7,0,0.9
							c0,0.2,0.2,0.7,0.2,0.9c0.1,0.2,0.2,0.6,0.2,0.7C23.8,21.8,23.3,21.9,23.3,21.9L23.3,21.9z"/>
						<path class="st4" d="M23.5,21.8c0,0,0-0.4-0.1-0.6c-0.1-0.2-0.2-0.5-0.2-0.7c0-0.2,0-0.4,0-0.4s0,0.2,0,0.4
							c0,0.1,0.2,0.5,0.2,0.7c0.1,0.2,0.2,0.6,0.2,0.6L23.5,21.8L23.5,21.8z"/>
					</g>
				</g>
				<g>
					<g>
						<path class="st3" d="M19.8,19.7l1.5,1.4l1.5,1.4h0l0,0c0,0,0,0,0,0.1c0,0,0,0,0,0l0,0l-0.1,0.1l-0.1,0.1c0,0,0,0-0.1,0l0,0
							c0,0,0,0-0.1,0c0,0,0,0,0,0l0,0c0,0,0,0,0,0l-1.4-1.5l-1.4-1.5h0l0,0c0,0,0,0,0-0.1c0,0,0,0,0-0.1
							C19.7,19.7,19.8,19.7,19.8,19.7C19.8,19.7,19.8,19.7,19.8,19.7L19.8,19.7z"/>
						<polygon class="st4" points="21.1,21.1 21.8,21.8 22.5,22.5 22.5,22.5 22.5,22.5 21.8,21.8 21.1,21.1 						"/>
					</g>
					<g>
						<path class="st3" d="M22.5,22.4c-0.1-0.3-0.1-0.4-0.3-0.6c-0.2-0.2-0.3-0.3-0.5-0.6c-0.2-0.3-0.2-0.6-0.4-0.9
							c-0.2-0.3-0.4-0.4-0.5-0.6c-0.2-0.2-0.2-0.5-0.2-0.6c0.1-0.2,0.1-0.1,0.1,0c0,0.1,0,0.2,0.2,0.4c0.2,0.2,0.3,0.2,0.6,0.5
							c0.2,0.3,0.3,0.6,0.4,0.8c0.1,0.2,0.4,0.6,0.6,0.7c0.1,0.1,0.4,0.5,0.4,0.5C23,22.1,22.5,22.4,22.5,22.4L22.5,22.4z"/>
						<path class="st4" d="M22.7,22.2c0,0-0.2-0.4-0.4-0.5c-0.2-0.2-0.4-0.4-0.5-0.6c-0.1-0.2-0.1-0.4-0.1-0.4s0.1,0.2,0.2,0.3
							c0.1,0.1,0.4,0.4,0.5,0.5c0.1,0.1,0.4,0.5,0.4,0.5L22.7,22.2L22.7,22.2z"/>
					</g>
				</g>
				<g>
					<g>
						<path class="st3" d="M18.5,21.6l1.9,0.7l1.9,0.7v0l0,0c0,0,0,0,0,0c0,0,0,0,0,0l0,0l-0.1,0.1l-0.1,0.1c0,0,0,0,0,0l0,0
							c0,0,0,0-0.1,0c0,0,0,0,0,0l0,0c0,0,0,0,0,0l-1.9-0.9l-1.9-0.8h0l0,0c0,0,0,0,0,0c0,0,0,0,0-0.1
							C18.4,21.7,18.4,21.6,18.5,21.6C18.5,21.6,18.5,21.6,18.5,21.6L18.5,21.6z"/>
						<polygon class="st4" points="20.2,22.4 21.2,22.8 22.1,23.1 22,23.2 22,23.2 21.1,22.8 20.2,22.4 						"/>
					</g>
					<g>
						<path class="st3" d="M22,23.1c-0.2-0.2-0.2-0.3-0.5-0.4c-0.2-0.1-0.4-0.2-0.7-0.4c-0.3-0.2-0.4-0.5-0.7-0.7
							c-0.3-0.2-0.5-0.3-0.7-0.4c-0.2-0.1-0.4-0.3-0.4-0.5c0-0.2,0.1-0.1,0.1,0c0.1,0.1,0.1,0.2,0.3,0.3c0.3,0.1,0.4,0.1,0.7,0.2
							c0.3,0.2,0.5,0.5,0.6,0.6c0.1,0.1,0.6,0.4,0.8,0.4c0.2,0.1,0.6,0.3,0.6,0.3C22.3,22.6,22,23.1,22,23.1L22,23.1z"/>
						<path class="st4" d="M22.1,22.8c0,0-0.3-0.3-0.5-0.4c-0.2-0.1-0.5-0.2-0.6-0.4c-0.1-0.1-0.2-0.3-0.2-0.3s0.2,0.2,0.3,0.3
							c0.1,0.1,0.5,0.3,0.7,0.3c0.1,0.1,0.6,0.3,0.6,0.3L22.1,22.8L22.1,22.8z"/>
					</g>
				</g>
				<g>
					<g>
						<path class="st3" d="M18,23.9l2.1-0.1l2-0.1v0l0,0c0,0,0,0,0.1,0c0,0,0,0,0,0l0,0V24v0.1c0,0,0,0,0,0.1l0,0c0,0,0,0-0.1,0
							c0,0,0,0,0,0l0,0c0,0,0,0,0,0l-2.1-0.1l-2-0.1h0l0,0c0,0,0,0-0.1,0C18,24,17.9,24,18,23.9C17.9,24,18,24,18,23.9
							C18,23.9,18,23.9,18,23.9L18,23.9z"/>
						<polygon class="st4" points="19.9,24 20.9,24 21.9,24 21.9,24 21.9,24.1 20.9,24 19.9,24 						"/>
					</g>
					<g>
						<path class="st3" d="M21.8,23.9c-0.3-0.2-0.3-0.2-0.6-0.2c-0.3,0-0.4,0-0.8-0.1c-0.3-0.1-0.6-0.3-0.9-0.4
							c-0.3-0.1-0.6-0.1-0.8,0c-0.2,0-0.5-0.2-0.6-0.3c-0.1-0.1,0-0.1,0.1-0.1c0.1,0.1,0.2,0.2,0.4,0.2c0.3,0,0.4-0.1,0.8-0.1
							c0.4,0,0.6,0.2,0.8,0.3c0.2,0.1,0.7,0.1,0.9,0.1c0.2,0,0.6,0.1,0.7,0.1C21.9,23.4,21.8,23.9,21.8,23.9L21.8,23.9z"/>
						<path class="st4" d="M21.8,23.6c0,0-0.4-0.1-0.6-0.1c-0.3,0-0.6,0-0.7-0.1c-0.2-0.1-0.3-0.2-0.3-0.2s0.2,0.1,0.3,0.1
							c0.1,0,0.6,0,0.7,0c0.2,0,0.6,0.1,0.6,0.1L21.8,23.6L21.8,23.6z"/>
					</g>
				</g>
				<g>
					<g>
						<path class="st3" d="M18.5,26.2l1.9-0.9l1.8-0.8v0l0,0c0,0,0,0,0.1,0c0,0,0,0,0,0l0,0l0.1,0.1l0.1,0.1c0,0,0,0,0,0.1v0
							c0,0,0,0,0,0c0,0,0,0,0,0l0,0c0,0,0,0,0,0l-1.9,0.7l-1.9,0.7v0l0,0c0,0,0,0-0.1,0c0,0,0,0,0,0C18.4,26.3,18.4,26.3,18.5,26.2
							C18.4,26.2,18.4,26.2,18.5,26.2L18.5,26.2z"/>
						<polygon class="st4" points="20.2,25.6 21.1,25.2 22,24.8 22,24.8 22.1,24.9 21.2,25.2 20.2,25.6 						"/>
					</g>
					<g>
						<path class="st3" d="M21.9,24.7c-0.3,0-0.4-0.1-0.6,0c-0.3,0.1-0.4,0.1-0.7,0.2c-0.3,0.1-0.7-0.1-1,0
							c-0.3,0.1-0.6,0.2-0.8,0.3c-0.2,0.1-0.5,0-0.7-0.1c-0.1-0.1-0.1-0.1,0.1-0.1c0.1,0,0.2,0.1,0.5,0c0.2-0.1,0.3-0.2,0.7-0.3
							c0.4-0.1,0.7,0,0.9,0c0.2,0,0.7-0.2,0.9-0.2c0.2-0.1,0.6-0.2,0.7-0.2C21.8,24.2,21.9,24.7,21.9,24.7L21.9,24.7z"/>
						<path class="st4" d="M21.8,24.5c0,0-0.4,0-0.6,0.1c-0.2,0.1-0.5,0.2-0.7,0.2c-0.2,0-0.4,0-0.4,0s0.2,0,0.4,0
							c0.1,0,0.5-0.2,0.7-0.2c0.2-0.1,0.6-0.2,0.6-0.2L21.8,24.5L21.8,24.5z"/>
					</g>
				</g>
				<g>
					<g>
						<path class="st3" d="M19.7,28.2l1.4-1.5l1.4-1.5l0,0l0,0c0,0,0,0,0.1,0c0,0,0,0,0,0l0,0l0.1,0.1l0.1,0.1c0,0,0,0,0,0.1l0,0
							c0,0,0,0,0,0.1c0,0,0,0,0,0l0,0c0,0,0,0,0,0l-1.5,1.4l-1.5,1.4l0,0l0,0c0,0,0,0-0.1,0c0,0,0,0-0.1,0
							C19.7,28.3,19.7,28.2,19.7,28.2C19.7,28.2,19.7,28.2,19.7,28.2L19.7,28.2z"/>
						<polygon class="st4" points="21.1,26.9 21.8,26.2 22.5,25.5 22.5,25.5 22.5,25.5 21.8,26.2 21.1,26.9 						"/>
					</g>
					<g>
						<path class="st3" d="M22.4,25.5c-0.3,0.1-0.4,0.1-0.6,0.3c-0.2,0.2-0.3,0.3-0.6,0.5c-0.3,0.2-0.6,0.2-0.9,0.4
							c-0.3,0.2-0.4,0.4-0.6,0.5c-0.2,0.2-0.5,0.2-0.6,0.2c-0.2-0.1-0.1-0.1,0-0.1c0.1,0,0.2,0,0.4-0.2c0.2-0.2,0.2-0.3,0.5-0.6
							c0.3-0.2,0.6-0.3,0.8-0.4c0.2-0.1,0.6-0.4,0.7-0.6c0.1-0.1,0.5-0.4,0.5-0.4C22.1,25,22.4,25.5,22.4,25.5L22.4,25.5z"/>
						<path class="st4" d="M22.2,25.3c0,0-0.4,0.2-0.5,0.4c-0.2,0.2-0.4,0.4-0.6,0.5c-0.2,0.1-0.4,0.1-0.4,0.1s0.2-0.1,0.3-0.2
							c0.1-0.1,0.4-0.4,0.5-0.5c0.1-0.1,0.5-0.4,0.5-0.4L22.2,25.3L22.2,25.3z"/>
					</g>
				</g>
				<g>
					<g>
						<path class="st3" d="M21.6,29.5l0.7-1.9l0.7-1.9h0l0,0c0,0,0,0,0,0c0,0,0,0,0,0l0,0l0.1,0.1l0.1,0.1c0,0,0,0,0,0l0,0
							c0,0,0,0,0,0.1c0,0,0,0,0,0l0,0c0,0,0,0,0,0l-0.9,1.9l-0.8,1.9l0,0l0,0c0,0,0,0,0,0c0,0,0,0-0.1,0
							C21.7,29.6,21.6,29.6,21.6,29.5C21.6,29.5,21.6,29.5,21.6,29.5L21.6,29.5z"/>
						<polygon class="st4" points="22.4,27.8 22.8,26.8 23.1,25.9 23.2,26 23.2,26 22.8,26.9 22.4,27.8 						"/>
					</g>
					<g>
						<path class="st3" d="M23.1,26c-0.2,0.2-0.3,0.2-0.4,0.5c-0.1,0.2-0.2,0.4-0.4,0.7c-0.2,0.3-0.5,0.4-0.7,0.7
							c-0.2,0.3-0.3,0.5-0.4,0.7c-0.1,0.2-0.3,0.4-0.5,0.4c-0.2,0-0.1-0.1,0-0.1c0.1-0.1,0.2-0.1,0.3-0.3c0.1-0.3,0.1-0.4,0.2-0.7
							s0.5-0.5,0.6-0.6c0.1-0.1,0.4-0.6,0.4-0.8c0.1-0.2,0.3-0.6,0.3-0.6C22.6,25.7,23.1,26,23.1,26L23.1,26z"/>
						<path class="st4" d="M22.8,25.9c0,0-0.3,0.3-0.4,0.5c-0.1,0.2-0.2,0.5-0.4,0.6c-0.1,0.1-0.3,0.2-0.3,0.2s0.2-0.2,0.3-0.3
							c0.1-0.1,0.3-0.5,0.3-0.7c0.1-0.1,0.3-0.6,0.3-0.6L22.8,25.9L22.8,25.9z"/>
					</g>
				</g>
				<g>
					<g>
						<path class="st3" d="M23.9,30l-0.1-2.1l-0.1-2h0l0,0c0,0,0,0,0-0.1c0,0,0,0,0,0l0,0H24h0.1c0,0,0,0,0.1,0h0c0,0,0,0,0,0.1
							c0,0,0,0,0,0l0,0c0,0,0,0,0,0l-0.1,2.1l-0.1,2v0l0,0c0,0,0,0,0,0.1C24,30,24,30.1,23.9,30C24,30.1,24,30,23.9,30
							C23.9,30,23.9,30,23.9,30L23.9,30z"/>
						<polygon class="st4" points="24,28.1 24,27.1 24,26.1 24,26.1 24.1,26.1 24,27.1 24,28.1 						"/>
					</g>
					<g>
						<path class="st3" d="M23.9,26.2c-0.2,0.3-0.2,0.3-0.2,0.6c0,0.3,0,0.4-0.1,0.8c-0.1,0.3-0.3,0.6-0.4,0.9
							c-0.1,0.3-0.1,0.6,0,0.8c0,0.2-0.2,0.5-0.3,0.6c-0.1,0.1-0.1,0-0.1-0.1c0.1-0.1,0.2-0.2,0.2-0.4c0-0.3-0.1-0.4-0.1-0.8
							c0-0.4,0.2-0.6,0.3-0.8c0.1-0.2,0.1-0.7,0.1-0.9c0-0.2,0.1-0.6,0.1-0.7C23.4,26.1,23.9,26.2,23.9,26.2L23.9,26.2z"/>
						<path class="st4" d="M23.6,26.2c0,0-0.1,0.4-0.1,0.6c0,0.3,0,0.6-0.1,0.7c-0.1,0.2-0.2,0.3-0.2,0.3s0.1-0.2,0.1-0.3
							c0-0.1,0-0.6,0-0.7c0-0.2,0.1-0.6,0.1-0.6L23.6,26.2L23.6,26.2z"/>
					</g>
				</g>
				<g>
					<g>
						<path class="st3" d="M26.2,29.5l-0.9-1.9l-0.8-1.8l0,0l0,0c0,0,0,0,0-0.1c0,0,0,0,0,0l0,0l0.1-0.1l0.1-0.1c0,0,0,0,0.1,0l0,0
							c0,0,0,0,0,0c0,0,0,0,0,0l0,0c0,0,0,0,0,0l0.7,1.9l0.7,1.9h0l0,0c0,0,0,0,0,0.1c0,0,0,0,0,0C26.3,29.6,26.3,29.6,26.2,29.5
							C26.2,29.6,26.2,29.6,26.2,29.5L26.2,29.5z"/>
						<polygon class="st4" points="25.6,27.8 25.2,26.9 24.8,26 24.8,26 24.9,25.9 25.2,26.8 25.6,27.8 						"/>
					</g>
					<g>
						<path class="st3" d="M24.7,26.1c0,0.3-0.1,0.4,0,0.6c0.1,0.3,0.1,0.4,0.2,0.7c0.1,0.3-0.1,0.7,0,1c0.1,0.3,0.2,0.6,0.3,0.8
							c0.1,0.2,0,0.5-0.1,0.7c-0.1,0.1-0.1,0.1-0.1-0.1c0-0.1,0.1-0.2,0-0.5c-0.1-0.2-0.2-0.3-0.3-0.7c-0.1-0.4,0-0.7,0-0.9
							c0-0.2-0.2-0.7-0.2-0.9c-0.1-0.2-0.2-0.6-0.2-0.7C24.2,26.2,24.7,26.1,24.7,26.1L24.7,26.1z"/>
						<path class="st4" d="M24.5,26.2c0,0,0,0.4,0.1,0.6c0.1,0.2,0.2,0.5,0.2,0.7c0,0.2,0,0.4,0,0.4s0-0.2,0-0.4
							c0-0.1-0.2-0.5-0.2-0.7c-0.1-0.2-0.2-0.6-0.2-0.6L24.5,26.2L24.5,26.2z"/>
					</g>
				</g>
				<g>
					<g>
						<path class="st3" d="M28.2,28.3l-1.5-1.4l-1.5-1.4v0l0,0c0,0,0,0,0-0.1c0,0,0,0,0,0l0,0l0.1-0.1l0.1-0.1c0,0,0,0,0.1,0h0
							c0,0,0,0,0.1,0c0,0,0,0,0,0l0,0c0,0,0,0,0,0l1.4,1.5l1.4,1.5l0,0l0,0c0,0,0,0,0,0.1c0,0,0,0,0,0.1
							C28.3,28.3,28.2,28.3,28.2,28.3C28.2,28.3,28.2,28.3,28.2,28.3L28.2,28.3z"/>
						<polygon class="st4" points="26.9,26.9 26.2,26.2 25.5,25.5 25.5,25.5 25.5,25.5 26.2,26.2 26.9,26.9 						"/>
					</g>
					<g>
						<path class="st3" d="M25.5,25.6c0.1,0.3,0.1,0.4,0.3,0.6c0.2,0.2,0.3,0.3,0.5,0.6c0.2,0.3,0.2,0.6,0.4,0.9
							c0.2,0.3,0.4,0.4,0.5,0.6c0.2,0.2,0.2,0.5,0.2,0.6c-0.1,0.2-0.1,0.1-0.1,0c0-0.1,0-0.2-0.2-0.4c-0.2-0.2-0.3-0.2-0.6-0.5
							c-0.2-0.3-0.3-0.6-0.4-0.8c-0.1-0.2-0.4-0.6-0.6-0.7c-0.1-0.1-0.4-0.5-0.4-0.5C25,25.9,25.5,25.6,25.5,25.6L25.5,25.6z"/>
						<path class="st4" d="M25.3,25.8c0,0,0.2,0.4,0.4,0.5c0.2,0.2,0.4,0.4,0.5,0.6c0.1,0.2,0.1,0.4,0.1,0.4s-0.1-0.2-0.2-0.3
							c-0.1-0.1-0.4-0.4-0.5-0.5c-0.1-0.1-0.4-0.5-0.4-0.5L25.3,25.8L25.3,25.8z"/>
					</g>
				</g>
				<g>
					<g>
						<path class="st3" d="M29.5,26.4l-1.9-0.7l-1.9-0.7l0,0l0,0c0,0,0,0,0,0c0,0,0,0,0,0l0,0l0.1-0.1l0.1-0.1c0,0,0,0,0,0h0
							c0,0,0,0,0.1,0c0,0,0,0,0,0l0,0c0,0,0,0,0,0l1.9,0.9l1.9,0.8h0l0,0c0,0,0,0,0,0c0,0,0,0,0,0.1C29.6,26.3,29.6,26.4,29.5,26.4
							C29.5,26.4,29.5,26.4,29.5,26.4L29.5,26.4z"/>
						<polygon class="st4" points="27.8,25.6 26.8,25.2 25.9,24.9 26,24.8 26,24.8 26.9,25.2 27.8,25.6 						"/>
					</g>
					<g>
						<path class="st3" d="M26,24.9c0.2,0.2,0.2,0.3,0.5,0.4c0.2,0.1,0.4,0.2,0.7,0.4c0.3,0.2,0.4,0.5,0.7,0.7
							c0.3,0.2,0.5,0.3,0.7,0.4c0.2,0.1,0.4,0.3,0.4,0.5c0,0.2-0.1,0.1-0.1,0c-0.1-0.1-0.1-0.2-0.3-0.3c-0.3-0.1-0.4-0.1-0.7-0.2
							c-0.3-0.2-0.5-0.5-0.6-0.6c-0.1-0.1-0.6-0.4-0.8-0.4c-0.2-0.1-0.6-0.3-0.6-0.3C25.7,25.4,26,24.9,26,24.9L26,24.9z"/>
						<path class="st4" d="M25.9,25.2c0,0,0.3,0.3,0.5,0.4c0.2,0.1,0.5,0.2,0.6,0.4c0.1,0.1,0.2,0.3,0.2,0.3s-0.2-0.2-0.3-0.3
							c-0.1-0.1-0.5-0.3-0.7-0.3c-0.1-0.1-0.6-0.3-0.6-0.3L25.9,25.2L25.9,25.2z"/>
					</g>
				</g>
				<g>
					<g>
						<path class="st3" d="M30,24.1l-2.1,0.1l-2,0.1l0,0l0,0c0,0,0,0-0.1,0c0,0,0,0,0,0l0,0V24v-0.1c0,0,0,0,0-0.1l0,0
							c0,0,0,0,0.1,0c0,0,0,0,0,0l0,0c0,0,0,0,0,0l2.1,0.1l2,0.1h0h0c0,0,0,0,0.1,0C30,24,30.1,24,30,24.1C30.1,24,30,24,30,24.1
							C30,24.1,30,24.1,30,24.1L30,24.1z"/>
						<polygon class="st4" points="28.1,24 27.1,24 26.1,24 26.1,24 26.1,23.9 27.1,24 28.1,24 						"/>
					</g>
					<g>
						<path class="st3" d="M26.2,24.1c0.3,0.2,0.3,0.2,0.6,0.2c0.3,0,0.4,0,0.8,0.1c0.3,0.1,0.6,0.3,0.9,0.4c0.3,0.1,0.6,0.1,0.8,0
							c0.2,0,0.5,0.2,0.6,0.3c0.1,0.1,0,0.1-0.1,0.1c-0.1-0.1-0.2-0.2-0.4-0.2c-0.3,0-0.4,0.1-0.8,0.1c-0.4,0-0.6-0.2-0.8-0.3
							s-0.7-0.1-0.9-0.1c-0.2,0-0.6-0.1-0.7-0.1C26.1,24.6,26.2,24.1,26.2,24.1L26.2,24.1z"/>
						<path class="st4" d="M26.2,24.4c0,0,0.4,0.1,0.6,0.1c0.3,0,0.6,0,0.7,0.1c0.2,0.1,0.3,0.2,0.3,0.2s-0.2-0.1-0.3-0.1
							c-0.1,0-0.6,0-0.7,0c-0.2,0-0.6-0.1-0.6-0.1L26.2,24.4L26.2,24.4z"/>
					</g>
				</g>
				<g>
					<g>
						<path class="st3" d="M29.5,21.8l-1.9,0.9l-1.8,0.8l0,0l0,0c0,0,0,0-0.1,0c0,0,0,0,0,0l0,0l-0.1-0.1l-0.1-0.1c0,0,0,0,0-0.1h0
							c0,0,0,0,0,0c0,0,0,0,0,0l0,0c0,0,0,0,0,0l1.9-0.7l1.9-0.7l0,0l0,0c0,0,0,0,0.1,0c0,0,0,0,0,0C29.6,21.7,29.6,21.7,29.5,21.8
							C29.6,21.8,29.6,21.8,29.5,21.8L29.5,21.8z"/>
						<polygon class="st4" points="27.8,22.4 26.9,22.8 26,23.2 26,23.2 25.9,23.1 26.8,22.8 27.8,22.4 						"/>
					</g>
					<g>
						<path class="st3" d="M26.1,23.3c0.3,0,0.4,0.1,0.6,0c0.3-0.1,0.4-0.1,0.7-0.2c0.3-0.1,0.7,0.1,1,0c0.3-0.1,0.6-0.2,0.8-0.3
							c0.2-0.1,0.5,0,0.7,0.1c0.1,0.1,0.1,0.1-0.1,0.1c-0.1,0-0.2-0.1-0.5,0c-0.2,0.1-0.3,0.2-0.7,0.3c-0.4,0.1-0.7,0-0.9,0
							c-0.2,0-0.7,0.2-0.9,0.2c-0.2,0.1-0.6,0.2-0.7,0.2C26.2,23.8,26.1,23.3,26.1,23.3L26.1,23.3z"/>
						<path class="st4" d="M26.2,23.5c0,0,0.4,0,0.6-0.1c0.2-0.1,0.5-0.2,0.7-0.2c0.2,0,0.4,0,0.4,0s-0.2,0-0.4,0
							c-0.1,0-0.5,0.2-0.7,0.2c-0.2,0.1-0.6,0.2-0.6,0.2L26.2,23.5L26.2,23.5z"/>
					</g>
				</g>
				<g>
					<g>
						<path class="st3" d="M28.3,19.8l-1.4,1.5l-1.4,1.5v0l0,0c0,0,0,0-0.1,0c0,0,0,0,0,0l0,0l-0.1-0.1l-0.1-0.1c0,0,0,0,0-0.1v0
							c0,0,0,0,0-0.1c0,0,0,0,0,0l0,0c0,0,0,0,0,0l1.5-1.4l1.5-1.4l0,0l0,0c0,0,0,0,0.1,0c0,0,0,0,0.1,0
							C28.3,19.7,28.3,19.8,28.3,19.8C28.3,19.8,28.3,19.8,28.3,19.8L28.3,19.8z"/>
						<polygon class="st4" points="26.9,21.1 26.2,21.8 25.5,22.5 25.5,22.5 25.5,22.5 26.2,21.8 26.9,21.1 						"/>
					</g>
					<g>
						<path class="st3" d="M25.6,22.5c0.3-0.1,0.4-0.1,0.6-0.3c0.2-0.2,0.3-0.3,0.6-0.5c0.3-0.2,0.6-0.2,0.9-0.4
							c0.3-0.2,0.4-0.4,0.6-0.5c0.2-0.2,0.5-0.2,0.6-0.2c0.2,0.1,0.1,0.1,0,0.1c-0.1,0-0.2,0-0.4,0.2c-0.2,0.2-0.2,0.3-0.5,0.6
							c-0.3,0.2-0.6,0.3-0.8,0.4c-0.2,0.1-0.6,0.4-0.7,0.6c-0.1,0.1-0.5,0.4-0.5,0.4C25.9,23,25.6,22.5,25.6,22.5L25.6,22.5z"/>
						<path class="st4" d="M25.8,22.7c0,0,0.4-0.2,0.5-0.4c0.2-0.2,0.4-0.4,0.6-0.5c0.2-0.1,0.4-0.1,0.4-0.1s-0.2,0.1-0.3,0.2
							c-0.1,0.1-0.4,0.4-0.5,0.5c-0.1,0.1-0.5,0.4-0.5,0.4L25.8,22.7L25.8,22.7z"/>
					</g>
				</g>
				<g>
					<g>
						<path class="st3" d="M26.4,18.5l-0.7,1.9l-0.7,1.9l0,0l0,0c0,0,0,0,0,0c0,0,0,0,0,0l0,0l-0.1-0.1l-0.1-0.1c0,0,0,0,0,0l0,0
							c0,0,0,0,0-0.1c0,0,0,0,0,0l0,0c0,0,0,0,0,0l0.9-1.9l0.8-1.9v0l0,0c0,0,0,0,0,0c0,0,0,0,0.1,0C26.3,18.4,26.4,18.4,26.4,18.5
							C26.4,18.5,26.4,18.5,26.4,18.5L26.4,18.5z"/>
						<polygon class="st4" points="25.6,20.2 25.2,21.2 24.9,22.1 24.8,22 24.8,22 25.2,21.1 25.6,20.2 						"/>
					</g>
					<g>
						<path class="st3" d="M24.9,22c0.2-0.2,0.3-0.2,0.4-0.5c0.1-0.2,0.2-0.4,0.4-0.7c0.2-0.3,0.5-0.4,0.7-0.7
							c0.2-0.3,0.3-0.5,0.4-0.7c0.1-0.2,0.3-0.4,0.5-0.4c0.2,0,0.1,0.1,0,0.1c-0.1,0.1-0.2,0.1-0.3,0.3c-0.1,0.3-0.1,0.4-0.2,0.7
							c-0.2,0.3-0.5,0.5-0.6,0.6c-0.1,0.1-0.4,0.6-0.4,0.8c-0.1,0.2-0.3,0.6-0.3,0.6C25.4,22.3,24.9,22,24.9,22L24.9,22z"/>
						<path class="st4" d="M25.2,22.1c0,0,0.3-0.3,0.4-0.5c0.1-0.2,0.2-0.5,0.4-0.6c0.1-0.1,0.3-0.2,0.3-0.2s-0.2,0.2-0.3,0.3
							c-0.1,0.1-0.3,0.5-0.3,0.7c-0.1,0.1-0.3,0.6-0.3,0.6L25.2,22.1L25.2,22.1z"/>
					</g>
				</g>
			</g>
			<path class="st5" d="M24,21.5c1.4,0,2.5,1.1,2.5,2.5c0,1.4-1.1,2.5-2.5,2.5c-1.4,0-2.5-1.1-2.5-2.5C21.5,22.6,22.6,21.5,24,21.5z
				"/>
			<path class="st4" d="M24.1,23.8c0,0.2,0.2,0.5,0.2,0.5l0,0v0c0,0,0,0,0,0c0,0,0,0,0,0c0,0,0,0,0,0c0,0,0,0,0,0c0,0,0,0,0,0
				C24.2,24.2,24.1,24,24.1,23.8c-0.1-0.2,0.1-0.5,0.1-0.5l0,0l0,0c0.2-0.2,0.5-0.2,0.7-0.2c0.2,0,0.5,0.2,0.6,0.4l0,0l0,0
				c0,0-0.6-0.5-1.2-0.1c-0.1,0-0.1,0.1-0.1,0.2C24.1,23.5,24.1,23.6,24.1,23.8L24.1,23.8z M24,25.4c0.1,0,0.2,0,0.2,0.1
				c0.1,0.1,0.1,0.1,0.1,0.2c0,0,0,0,0,0c0,0,0,0,0,0l0,0.1l0-0.1c0-0.1,0-0.2-0.1-0.2C24.2,25.5,24.1,25.4,24,25.4
				c-0.1,0.1-0.2,0.1-0.2,0.1c-0.1,0.1-0.1,0.1-0.1,0.2l0,0.1l0-0.1c0,0,0,0,0,0c0,0,0,0,0,0c0-0.1,0-0.2,0.1-0.2
				C23.8,25.4,23.9,25.4,24,25.4L24,25.4z M23.6,25c0,0,0.1,0,0.2,0c0,0,0.1,0,0.1,0c0.1,0,0.1,0,0.1,0c0,0,0.1,0,0.1,0
				c0,0,0.1,0,0.1,0c0.1,0,0.1,0,0.2,0l0.1,0l-0.1,0c-0.1,0-0.1,0-0.2,0c0,0-0.1,0-0.1,0c0,0-0.1,0-0.1,0c0,0-0.1,0-0.1,0
				c0,0,0,0-0.1,0C23.8,25,23.7,25,23.6,25L23.6,25L23.6,25L23.6,25z M23.7,25.2c-0.1-0.1-0.1-0.1-0.2-0.1l0,0l0,0
				C23.6,25.1,23.7,25.1,23.7,25.2c0.1,0,0.1,0.1,0.2,0.1l0,0c0,0,0,0,0,0c0,0,0,0,0,0h0h0c0,0,0,0,0,0c0,0,0,0,0,0
				c0.1,0,0.1-0.1,0.2-0.1c0.1-0.1,0.1-0.1,0.3-0.1l0,0l0,0c-0.1,0-0.2,0.1-0.2,0.1c-0.1,0.1-0.1,0.1-0.2,0.1c0,0,0,0,0,0
				c0,0,0,0,0,0c0,0,0,0,0,0c0,0,0,0,0,0C23.8,25.3,23.8,25.3,23.7,25.2L23.7,25.2z M23.5,25C23.5,25,23.5,25,23.5,25
				c0.1-0.1,0.2-0.2,0.3-0.2c0.1,0,0.1,0,0.2,0c0,0,0,0,0.1,0c0,0,0,0,0.1,0c0,0,0.1,0,0.2,0c0.1,0,0.2,0.1,0.3,0.2c0,0,0,0,0.1,0.1
				l0,0l-0.1,0c-0.1,0-0.1-0.1-0.2-0.1c-0.1,0-0.2-0.1-0.2,0c0,0,0,0,0,0c0,0,0,0-0.1,0c0,0,0,0-0.1,0c0,0,0,0,0,0
				c-0.1,0-0.1,0-0.2,0C23.6,25,23.5,25,23.5,25L23.5,25L23.5,25L23.5,25z M22.6,23.6C22.6,23.6,22.6,23.6,22.6,23.6
				c0.1-0.1,0.2-0.2,0.2-0.2c0.1,0,0.2-0.1,0.2-0.1c0.1,0,0.2,0,0.2,0c0.1,0,0.2,0.1,0.2,0.1l0,0c0,0,0.1,0.1,0.2,0.1l0,0
				c0,0,0,0,0,0l0,0c0,0,0,0,0,0l0,0c0,0,0,0,0,0l0,0c0,0,0,0,0,0c-0.1,0-0.1-0.1-0.2-0.1l0,0c-0.1-0.1-0.1-0.1-0.2-0.1
				c-0.1,0-0.2,0-0.2,0c-0.1,0-0.2,0-0.2,0.1C22.8,23.5,22.7,23.6,22.6,23.6C22.6,23.7,22.6,23.7,22.6,23.6
				C22.6,23.7,22.6,23.7,22.6,23.6C22.6,23.6,22.6,23.6,22.6,23.6L22.6,23.6z M25.4,23.6C25.4,23.6,25.4,23.6,25.4,23.6
				C25.4,23.6,25.4,23.6,25.4,23.6C25.4,23.7,25.4,23.7,25.4,23.6C25.4,23.7,25.4,23.7,25.4,23.6c-0.1,0-0.2-0.1-0.2-0.1
				c-0.1,0-0.2-0.1-0.2-0.1c-0.1,0-0.2,0-0.2,0c-0.1,0-0.1,0.1-0.2,0.1l0,0c-0.1,0-0.1,0.1-0.2,0.1c0,0,0,0,0,0l0,0c0,0,0,0,0,0l0,0
				c0,0,0,0,0,0l0,0c0,0,0,0,0,0l0,0c0.1,0,0.1-0.1,0.2-0.1l0,0c0.1-0.1,0.1-0.1,0.2-0.1c0.1,0,0.2,0,0.2,0c0.1,0,0.2,0,0.2,0.1
				C25.2,23.5,25.3,23.5,25.4,23.6L25.4,23.6z M25.3,23.7L25.3,23.7L25.3,23.7L25.3,23.7L25.3,23.7L25.3,23.7L25.3,23.7L25.3,23.7
				L25.3,23.7L25.3,23.7c0,0-0.2,0.1-0.4,0.1c-0.3,0-0.4-0.1-0.4-0.1l0,0l0,0l0,0l0,0l0,0l0,0l0,0l0,0l0,0l0,0c0,0,0.1-0.2,0.4-0.2
				C25.1,23.5,25.3,23.7,25.3,23.7L25.3,23.7z M24.7,23.5C24.7,23.5,24.8,23.5,24.7,23.5C24.7,23.5,24.7,23.5,24.7,23.5
				c-0.1,0-0.1,0-0.1,0c0,0-0.1,0-0.1,0.1c0,0,0,0,0,0c0,0,0,0,0,0c0,0,0.1,0,0.1,0.1c0,0,0,0,0.1,0c0,0,0,0,0,0c0,0,0,0-0.1,0
				C24.7,23.7,24.7,23.7,24.7,23.5C24.7,23.6,24.7,23.6,24.7,23.5L24.7,23.5z M25,23.7C25,23.7,25,23.8,25,23.7
				C25,23.8,25,23.8,25,23.7c0.1,0,0.1,0,0.2,0c0,0,0,0,0.1,0c0,0,0,0,0,0c0,0,0,0,0,0c0,0,0,0-0.1,0c0,0-0.1,0-0.1-0.1l0,0
				c0,0-0.1,0-0.1,0c0,0,0,0,0,0C25,23.6,25,23.6,25,23.7C25,23.7,25,23.7,25,23.7L25,23.7z M25.2,23.8
				C25.2,23.8,25.2,23.8,25.2,23.8L25.2,23.8C25.3,23.8,25.3,23.8,25.2,23.8C25.3,23.8,25.3,23.8,25.2,23.8L25.2,23.8
				C25.3,23.8,25.3,23.8,25.2,23.8c-0.1,0.1-0.1,0.1-0.2,0.1c-0.1,0-0.2,0-0.2,0c-0.1,0-0.2,0-0.2-0.1c-0.1,0-0.1-0.1-0.2-0.1l0,0
				c0,0,0,0,0,0c0,0,0,0,0,0l0,0c0,0,0,0,0,0c0,0,0,0,0,0l0,0c0.1,0.1,0.1,0.1,0.2,0.1c0.1,0,0.1,0,0.2,0c0.1,0,0.1,0,0.2,0
				C25.1,23.8,25.2,23.8,25.2,23.8L25.2,23.8L25.2,23.8z M22.7,23.7L22.7,23.7L22.7,23.7c0,0,0.2-0.2,0.4-0.2s0.4,0.2,0.4,0.2l0,0
				l0,0l0,0l0,0l0,0l0,0l0,0l0,0l0,0l0,0c0,0-0.1,0.1-0.4,0.1C22.9,23.8,22.8,23.7,22.7,23.7L22.7,23.7L22.7,23.7L22.7,23.7
				L22.7,23.7L22.7,23.7L22.7,23.7L22.7,23.7L22.7,23.7z M23.3,23.5C23.3,23.5,23.3,23.5,23.3,23.5c0.1,0.1,0.1,0.1,0.1,0.1
				c0,0,0,0.1,0,0.1c0,0,0,0-0.1,0c0,0,0,0,0,0c0,0,0,0,0.1,0c0,0,0.1,0,0.1-0.1c0,0,0,0,0,0c0,0,0,0,0,0c0,0,0,0-0.1-0.1
				C23.4,23.5,23.4,23.5,23.3,23.5C23.3,23.5,23.3,23.5,23.3,23.5L23.3,23.5z M23.1,23.8C23.1,23.8,23.1,23.7,23.1,23.8
				C23,23.7,23,23.7,23,23.6c0,0,0-0.1,0-0.1c0,0,0,0,0,0c0,0-0.1,0-0.1,0c0,0-0.1,0-0.1,0.1c0,0,0,0-0.1,0c0,0,0,0,0,0c0,0,0,0,0,0
				c0,0,0,0,0.1,0c0,0,0.1,0,0.1,0C23,23.8,23.1,23.8,23.1,23.8L23.1,23.8z M22.8,23.8C22.8,23.8,22.8,23.8,22.8,23.8L22.8,23.8
				c0.1,0,0.2,0.1,0.2,0.1c0.1,0,0.1,0,0.2,0c0.1,0,0.1,0,0.2,0c0.1,0,0.1-0.1,0.2-0.1l0,0c0,0,0,0,0,0c0,0,0,0,0,0l0,0c0,0,0,0,0,0
				c0,0,0,0,0,0l0,0c-0.1,0.1-0.1,0.1-0.2,0.1c-0.1,0-0.1,0-0.2,0.1c-0.1,0-0.2,0-0.2,0C22.9,23.9,22.9,23.9,22.8,23.8
				C22.8,23.8,22.8,23.8,22.8,23.8L22.8,23.8C22.8,23.8,22.8,23.8,22.8,23.8C22.8,23.8,22.8,23.8,22.8,23.8L22.8,23.8L22.8,23.8z
				 M24.4,24.5C24.4,24.5,24.4,24.5,24.4,24.5L24.4,24.5c0.1-0.1,0.1-0.1,0.1-0.1c0,0,0,0,0-0.1c0,0,0,0,0,0l0,0l0,0
				c0,0,0,0,0.1,0.1c0,0,0,0.1,0,0.1c0,0,0,0.1,0,0.1C24.5,24.6,24.4,24.6,24.4,24.5C24.3,24.6,24.3,24.6,24.4,24.5
				c-0.1,0-0.1,0-0.1,0c0,0-0.1,0-0.1,0.1c0,0-0.1,0-0.1,0c0,0-0.1,0-0.1,0c0,0-0.1,0-0.1-0.1c0,0,0,0-0.1,0.1c0,0-0.1,0-0.1,0
				c0,0-0.1,0-0.1,0c0,0,0-0.1,0-0.1c0,0,0-0.1,0-0.1c0,0,0,0,0.1-0.1l0,0l0,0c0,0,0,0,0,0c0,0,0,0,0,0.1c0,0,0,0.1,0,0.1
				c0,0,0.1,0,0.1,0c0,0,0.1,0,0.1,0c0,0,0,0,0-0.1l0,0l0,0c0,0,0.1,0.1,0.1,0.1c0,0,0.1,0,0.1,0c0,0,0.1,0,0.1,0
				c0,0,0.1-0.1,0.1-0.1l0,0l0,0C24.3,24.5,24.3,24.5,24.4,24.5C24.3,24.5,24.3,24.5,24.4,24.5L24.4,24.5z M23.7,24.3
				c0,0,0.2-0.3,0.2-0.5c0-0.1,0-0.2,0-0.3c0-0.1-0.1-0.1-0.1-0.2c-0.6-0.4-1.2,0.1-1.2,0.1l0,0l0,0c0.2-0.2,0.4-0.3,0.6-0.4
				c0.2,0,0.5,0,0.7,0.2l0,0l0,0c0,0,0.1,0.3,0.1,0.5C23.9,24,23.9,24.2,23.7,24.3C23.8,24.3,23.8,24.3,23.7,24.3
				C23.8,24.3,23.8,24.3,23.7,24.3C23.8,24.3,23.8,24.3,23.7,24.3C23.7,24.3,23.7,24.3,23.7,24.3C23.7,24.3,23.7,24.3,23.7,24.3
				L23.7,24.3L23.7,24.3L23.7,24.3z"/>
		</g>
	</g>
</g>
</svg>
