<?xml version="1.0" encoding="utf-8"?>
<!-- Generator: Adobe Illustrator 22.0.1, SVG Export Plug-In . SVG Version: 6.00 Build 0)  -->
<svg version="1.1" id="Layer_1" xmlns="http://www.w3.org/2000/svg" xmlns:xlink="http://www.w3.org/1999/xlink" x="0px" y="0px"
	 viewBox="0 0 48 48" style="enable-background:new 0 0 48 48;" xml:space="preserve">
<style type="text/css">
	.st0{clip-path:url(#SVGID_2_);}
	.st1{fill-rule:evenodd;clip-rule:evenodd;fill:#0437A0;}
	.st2{fill-rule:evenodd;clip-rule:evenodd;fill:#F4F4F4;}
	.st3{fill-rule:evenodd;clip-rule:evenodd;fill:#FF1612;}
</style>
<g>
	<defs>
		<path id="SVGID_1_" d="M47.8,24c0,13.1-10.6,23.8-23.8,23.8C10.9,47.8,0.2,37.1,0.2,24C0.2,10.9,10.9,0.2,24,0.2
			C37.1,0.2,47.8,10.9,47.8,24z"/>
	</defs>
	<clipPath id="SVGID_2_">
		<use xlink:href="#SVGID_1_"  style="overflow:visible;"/>
	</clipPath>
	<g class="st0">
		<polygon class="st1" points="-11.6,0.2 24,0.2 59.6,0.2 59.6,47.8 24,47.8 -11.6,47.8 -11.6,0.2 		"/>
		<polygon class="st2" points="3.2,0.2 6.2,0.2 9.1,0.2 9.1,7.2 19.6,0.2 24,0.2 24,3.2 16.5,8.2 24,8.2 24,16 16.5,16 24,21.1 
			24,24 19.6,24 9.1,17 9.1,24 6.2,24 3.2,24 3.2,17 -7.2,24 -11.6,24 -11.6,21.1 -4.1,16 -11.6,16 -11.6,8.2 -4.1,8.2 -11.6,3.2 
			-11.6,0.2 -7.2,0.2 3.2,7.2 3.2,0.2 		"/>
		<path class="st3" d="M8,0.2v9.4h16v4.9H8V24H6.2H4.3v-9.4h-16V9.7h16V0.2h1.8H8L8,0.2z M24,22.9L13.7,16h-3.3l11.9,8H24V22.9
			L24,22.9z M13.7,8.2L24,1.3V0.2h-1.7l-11.9,8H13.7L13.7,8.2z M2,8.2l-11.9-8h-1.7v1.1l10.3,6.9H2L2,8.2z M-1.4,16l-10.3,6.9V24
			h1.7L2,16H-1.4L-1.4,16z"/>
		<polygon class="st2" points="41.8,31.3 42.3,32.8 43.8,32.2 42.9,33.6 44.3,34.4 42.7,34.5 42.9,36.1 41.8,35 40.7,36.1 
			40.9,34.5 39.3,34.4 40.7,33.6 39.8,32.2 41.3,32.8 41.8,31.3 		"/>
		<polygon class="st2" points="32.9,17.2 33.4,18.7 34.9,18.1 34,19.5 35.4,20.3 33.8,20.4 34,22 32.9,20.9 31.8,22 32,20.4 
			30.4,20.3 31.8,19.5 30.9,18.1 32.4,18.7 32.9,17.2 		"/>
		<polygon class="st2" points="41.8,7.5 42.3,9.1 43.8,8.5 42.9,9.8 44.3,10.6 42.7,10.8 42.9,12.4 41.8,11.2 40.7,12.4 40.9,10.8 
			39.3,10.6 40.7,9.8 39.8,8.5 41.3,9.1 41.8,7.5 		"/>
		<polygon class="st2" points="49.7,14.8 50.2,16.3 51.7,15.8 50.8,17.1 52.2,17.9 50.6,18.1 50.8,19.6 49.7,18.5 48.6,19.6 
			48.8,18.1 47.3,17.9 48.6,17.1 47.7,15.8 49.2,16.3 49.7,14.8 		"/>
		<polygon class="st2" points="45.4,22 45.8,22.9 46.8,23 46,23.6 46.3,24.6 45.4,24.1 44.5,24.6 44.8,23.6 44,23 45,22.9 45.4,22 
					"/>
		<polygon class="st2" points="6.2,30.2 7.2,33.4 10.4,32.3 8.5,35.1 11.4,36.8 8,37.1 8.5,40.4 6.2,38 3.9,40.4 4.3,37.1 1,36.8 
			3.9,35.1 2,32.3 5.2,33.4 6.2,30.2 		"/>
	</g>
</g>
</svg>
