<?xml version="1.0" encoding="utf-8"?>
<!-- Generator: Adobe Illustrator 19.2.1, SVG Export Plug-In . SVG Version: 6.00 Build 0)  -->
<svg version="1.1" id="Layer_1" xmlns="http://www.w3.org/2000/svg" xmlns:xlink="http://www.w3.org/1999/xlink" x="0px" y="0px"
	 viewBox="0 0 24 24" style="enable-background:new 0 0 24 24;" xml:space="preserve">
<style type="text/css">
	.st0{fill:#ED1C24;}
	.st1{fill:#FCD116;}
</style>
<g id="Belgium">
	<g>
		<path class="st0" d="M24,12c0-5.2-3.4-9.7-8-11.3v22.6C20.6,21.7,24,17.2,24,12z"/>
		<path d="M0,12c0,5.2,3.3,9.6,8,11.3V0.7C3.3,2.3,0,6.8,0,12z"/>
		<path class="st1" d="M8,0.7v22.6c1.2,0.4,2.6,0.7,4,0.7c1.4,0,2.8-0.2,4-0.7V0.7C14.7,0.2,13.4,0,12,0C10.6,0,9.2,0.2,8,0.7z"/>
	</g>
</g>
</svg>
