<?xml version="1.0" encoding="utf-8"?>
<!-- Generator: Adobe Illustrator 22.0.1, SVG Export Plug-In . SVG Version: 6.00 Build 0)  -->
<svg version="1.1" id="Layer_1" xmlns="http://www.w3.org/2000/svg" xmlns:xlink="http://www.w3.org/1999/xlink" x="0px" y="0px"
	 viewBox="0 0 48 48" style="enable-background:new 0 0 48 48;" xml:space="preserve">
<style type="text/css">
	.st0{clip-path:url(#SVGID_2_);}
	.st1{fill:#47B71D;}
	.st2{fill:#FFF200;}
	.st3{fill:#FFFFFF;}
	.st4{fill:#0F33AF;}
	.st5{fill:#26B516;}
</style>
<g>
	<defs>
		<path id="SVGID_1_" d="M47.8,24c0,13.1-10.6,23.8-23.8,23.8C10.9,47.8,0.2,37.1,0.2,24C0.2,10.9,10.9,0.2,24,0.2
			C37.1,0.2,47.8,10.9,47.8,24z"/>
	</defs>
	<clipPath id="SVGID_2_">
		<use xlink:href="#SVGID_1_"  style="overflow:visible;"/>
	</clipPath>
	<g class="st0">
		<path class="st1" d="M-11.6,0.2v47.5h71.3V0.2H-11.6L-11.6,0.2z M53.6,24L24,42.9L-5.6,24L24,5.1L53.6,24L53.6,24z"/>
		<path class="st2" d="M53.6,24L24,42.9L-5.6,24L24,5.1L53.6,24L53.6,24z M12.1,20.9c-0.3,1-0.4,2-0.4,3.1c0,6.8,5.5,12.3,12.3,12.3
			c5.5,0,10.2-3.6,11.8-8.6v0c0.2-0.6,0.3-1.3,0.4-1.9c0.1-0.6,0.1-1.2,0.1-1.8c0-6.8-5.5-12.3-12.3-12.3c-5,0-9.4,3-11.3,7.4
			C12.4,19.6,12.2,20.3,12.1,20.9L12.1,20.9z"/>
		<polygon class="st3" points="11.3,21.1 11.3,21.1 11.3,21.1 		"/>
		<path class="st4" d="M12.1,20.9c-0.3,1-0.4,2-0.4,3.1c0,6.8,5.5,12.3,12.3,12.3c5.5,0,10.2-3.6,11.8-8.6
			c-1.3-1.2-5.3-4.5-11.3-6.2C18.8,20,13.9,20.6,12.1,20.9L12.1,20.9z M24.9,19.8c6.1,1.7,9.6,4.5,11.3,6c0.1-0.6,0.1-1.2,0.1-1.8
			c0-6.8-5.5-12.3-12.3-12.3c-5,0-9.4,3-11.3,7.4C14.3,18.8,19.2,18.2,24.9,19.8L24.9,19.8z"/>
		<path class="st3" d="M24.9,19.8c-5.6-1.6-10.6-1-12.2-0.8c-0.3,0.6-0.5,1.2-0.7,1.9c1.8-0.3,6.7-1,12.4,0.5c6.1,1.7,10,5,11.3,6.2
			c0.2-0.6,0.3-1.3,0.4-1.9C34.5,24.3,31,21.5,24.9,19.8L24.9,19.8z"/>
		<path class="st5" d="M13.4,19.2c0.1,0,0.2,0,0.2,0c0.1,0,0.1,0.1,0.2,0.1c0.1,0.1,0.1,0.1,0.1,0.2c0,0.1,0.1,0.2,0.1,0.3
			c0,0.1,0,0.2,0,0.2c0,0.1-0.1,0.1-0.1,0.2c0,0.1-0.1,0.1-0.2,0.1c-0.1,0-0.1,0.1-0.2,0.1c-0.1,0-0.2,0-0.2,0c-0.1,0-0.1,0-0.2-0.1
			c-0.1,0-0.1-0.1-0.1-0.2c0-0.1-0.1-0.1-0.1-0.2c0-0.1,0-0.2,0-0.3c0-0.1,0.1-0.2,0.1-0.2c0-0.1,0.1-0.1,0.2-0.2
			C13.2,19.2,13.3,19.2,13.4,19.2L13.4,19.2z M35.6,25.6c0-0.1-0.1-0.1-0.2-0.2c-0.1-0.1-0.1-0.1-0.2-0.1c-0.1,0-0.2,0-0.2,0
			c-0.1,0-0.1,0-0.2,0.1c-0.1,0-0.1,0.1-0.2,0.2c-0.1,0.1-0.1,0.2-0.1,0.2c0,0.1,0,0.2,0,0.2c0,0.1,0,0.2,0.1,0.2
			c0,0.1,0.1,0.1,0.2,0.2c0.1,0.1,0.1,0.1,0.2,0.1c0.1,0,0.1,0,0.2,0c0.1,0,0.1,0,0.2-0.1c0.1,0,0.1-0.1,0.2-0.2
			c0.1-0.1,0.1-0.2,0.1-0.2c0-0.1,0-0.2,0-0.2C35.7,25.8,35.7,25.7,35.6,25.6L35.6,25.6z M35.5,26L35.5,26c0,0.1,0,0.1-0.1,0.2
			c0,0.1-0.1,0.1-0.1,0.1c0,0-0.1,0.1-0.1,0.1c0,0-0.1,0-0.1,0c0,0-0.1,0-0.1-0.1c0,0-0.1-0.1-0.1-0.1c0,0,0-0.1,0-0.1
			c0,0,0-0.1,0-0.2c0-0.1,0-0.1,0.1-0.2c0-0.1,0.1-0.1,0.1-0.1c0,0,0.1-0.1,0.1-0.1c0,0,0.1,0,0.1,0c0,0,0.1,0,0.1,0.1
			c0,0,0.1,0.1,0.1,0.1c0,0,0,0.1,0,0.1C35.5,25.9,35.5,26,35.5,26L35.5,26z M34.3,24.6c0-0.1-0.1-0.1-0.1-0.1
			c-0.1,0-0.1-0.1-0.2-0.1c-0.1,0-0.1,0-0.2,0c-0.1,0-0.1,0-0.1,0s-0.1,0.1-0.1,0.1c0,0,0,0.1-0.1,0.1c0,0,0,0.1,0,0.1
			c0,0,0,0.1,0.1,0.1c0,0,0.1,0.1,0.1,0.2c0,0,0.1,0.1,0.1,0.1c0,0,0,0.1,0.1,0.1c0,0,0,0.1,0,0.1c0,0,0,0,0,0.1c0,0,0,0-0.1,0
			c0,0,0,0-0.1,0c0,0-0.1,0-0.1,0c0,0-0.1,0-0.1,0c0,0-0.1,0-0.1-0.1c0,0,0-0.1,0-0.1c0,0,0-0.1,0-0.1c0,0,0-0.1,0-0.1
			c-0.1-0.1-0.1-0.1-0.2-0.1c0,0.1-0.1,0.1-0.1,0.2c0,0.1,0,0.1,0,0.2c0,0.1,0,0.1,0.1,0.2c0,0.1,0.1,0.1,0.2,0.2
			c0.1,0,0.1,0.1,0.2,0.1c0.1,0,0.1,0,0.2,0c0.1,0,0.1,0,0.1,0c0,0,0.1-0.1,0.1-0.1c0,0,0-0.1,0.1-0.1c0,0,0-0.1,0-0.1
			c0,0,0-0.1,0-0.1c0,0,0-0.1-0.1-0.1c0,0,0-0.1-0.1-0.1c0,0-0.1-0.1-0.1-0.1c0,0-0.1-0.1-0.1-0.1c0,0,0,0,0-0.1c0,0,0,0,0-0.1
			c0,0,0,0,0,0c0,0,0.1-0.1,0.1-0.1c0,0,0.1,0,0.2,0.1c0.1,0.1,0.2,0.2,0.1,0.3c0.1,0.1,0.1,0.1,0.2,0.1c0-0.1,0.1-0.1,0.1-0.2
			c0-0.1,0-0.1,0-0.2C34.4,24.7,34.4,24.6,34.3,24.6L34.3,24.6z M33.1,23.7c0,0-0.1-0.1-0.1-0.1c-0.1,0-0.1-0.1-0.2-0.1
			c-0.1,0-0.1,0-0.2,0c0,0-0.1,0-0.1,0.1c0,0-0.1,0.1-0.1,0.1c0,0,0,0.1,0,0.1c0,0,0,0.1,0,0.1c0,0,0,0.1,0.1,0.1
			c0,0,0.1,0.1,0.1,0.1c0,0,0.1,0.1,0.1,0.1c0,0,0.1,0.1,0.1,0.1c0,0,0,0,0,0.1s0,0,0,0.1c0,0,0,0-0.1,0c0,0,0,0-0.1,0
			c0,0-0.1,0-0.1,0c0,0-0.1,0-0.1,0c0,0-0.1,0-0.1-0.1c0,0,0-0.1-0.1-0.1c0,0,0-0.1,0-0.1c0,0,0-0.1,0-0.1c-0.1,0-0.1-0.1-0.2-0.1
			c0,0.1-0.1,0.1-0.1,0.2c0,0.1,0,0.1,0,0.2c0,0.1,0,0.1,0.1,0.2c0,0.1,0.1,0.1,0.2,0.2c0.1,0,0.1,0.1,0.2,0.1c0.1,0,0.1,0,0.2,0
			c0.1,0,0.1,0,0.1-0.1c0,0,0.1-0.1,0.1-0.1c0,0,0-0.1,0.1-0.1c0,0,0-0.1,0-0.1c0,0,0-0.1,0-0.1c0,0,0-0.1-0.1-0.1
			c0,0,0-0.1-0.1-0.1c0,0-0.1-0.1-0.1-0.1c0,0-0.1-0.1-0.1-0.1c0,0,0,0,0-0.1c0,0,0,0,0-0.1c0,0,0,0,0,0c0,0,0.1-0.1,0.1-0.1
			c0,0,0.1,0,0.2,0.1c0.1,0.1,0.2,0.2,0.1,0.3c0.1,0,0.1,0.1,0.2,0.1c0-0.1,0.1-0.1,0.1-0.2c0-0.1,0-0.1,0-0.2
			C33.2,23.8,33.1,23.8,33.1,23.7L33.1,23.7z M31.9,23.3c0-0.1,0.1-0.1,0.1-0.2c-0.3-0.2-0.5-0.3-0.8-0.4c-0.2,0.4-0.4,0.6-0.6,1.1
			c0.3,0.2,0.5,0.3,0.8,0.5c0-0.1,0.1-0.1,0.1-0.2c-0.2-0.1-0.4-0.2-0.6-0.4c0.1-0.1,0.1-0.2,0.2-0.3c0.2,0.1,0.3,0.2,0.5,0.3
			c0-0.1,0.1-0.1,0.1-0.2c-0.2-0.1-0.3-0.2-0.6-0.3c0.1-0.1,0.1-0.1,0.1-0.2C31.5,23.1,31.6,23.1,31.9,23.3L31.9,23.3z M30.6,22.4
			C30.5,22.4,30.5,22.3,30.6,22.4c-0.1-0.1-0.1-0.1-0.1-0.1c0,0,0,0-0.1,0c0,0-0.1,0-0.1,0c-0.2-0.1-0.3-0.1-0.5-0.2
			c-0.2,0.4-0.3,0.6-0.5,1.1c0.1,0,0.1,0.1,0.2,0.1c0.1-0.2,0.1-0.3,0.2-0.4c0.1,0,0.1,0.1,0.2,0.1c0,0,0,0,0.1,0c0,0,0,0,0,0.1
			c0,0,0,0,0,0.1c0,0,0,0,0,0.1c0,0.1,0,0.2-0.1,0.3c0.1,0,0.1,0.1,0.2,0.1c0-0.2,0-0.2,0.1-0.4c0-0.1,0-0.2,0-0.2c0,0,0.1,0,0.2,0
			c0.1,0,0.1-0.1,0.1-0.1c0,0,0,0,0-0.1c0,0,0,0,0-0.1C30.6,22.5,30.6,22.5,30.6,22.4C30.6,22.4,30.6,22.4,30.6,22.4L30.6,22.4z
			 M30.3,22.6L30.3,22.6C30.3,22.6,30.3,22.6,30.3,22.6c-0.1,0.1-0.1,0.1-0.1,0.1c0,0,0,0-0.1,0c0,0-0.1,0-0.1,0
			c-0.1-0.1-0.2-0.1-0.3-0.1c0.1-0.1,0.1-0.2,0.1-0.3c0.1,0.1,0.2,0.1,0.3,0.1c0.1,0,0.1,0.1,0.1,0.1C30.4,22.5,30.3,22.5,30.3,22.6
			L30.3,22.6z M29,21.6c-0.1,0-0.1-0.1-0.2-0.1c-0.1,0-0.2-0.1-0.2-0.1c-0.1,0-0.2,0-0.2,0c-0.1,0-0.1,0.1-0.2,0.1
			c-0.1,0.1-0.1,0.1-0.1,0.2C28,21.9,28,22,28,22c0,0.1,0,0.2,0,0.2c0,0.1,0.1,0.1,0.1,0.2c0.1,0.1,0.1,0.1,0.2,0.1
			c0.1,0,0.1,0,0.2,0.1c0.1,0,0.1,0,0.2,0c0,0,0,0.1,0,0.1c0.1,0,0.1,0,0.2,0.1c0.1-0.2,0.2-0.3,0.3-0.6c-0.2-0.1-0.3-0.1-0.5-0.2
			c0,0.1-0.1,0.1-0.1,0.2c0.1,0,0.2,0.1,0.3,0.1c0,0,0,0.1-0.1,0.1c-0.1,0-0.1,0-0.2,0c-0.1,0-0.1,0-0.2,0c0,0-0.1,0-0.1-0.1
			c0,0-0.1-0.1-0.1-0.1c0,0,0-0.1,0-0.1c0-0.1,0-0.1,0-0.2c0-0.1,0.1-0.1,0.1-0.2c0,0,0.1-0.1,0.1-0.1c0,0,0.1,0,0.1,0
			c0,0,0.1,0,0.1,0c0,0,0.1,0,0.1,0.1c0,0,0.1,0.1,0.1,0.1c0,0,0,0.1,0,0.1c0,0,0,0.1,0,0.1c0.1,0,0.1,0.1,0.2,0.1
			c0-0.1,0-0.1,0-0.2c0-0.1,0-0.1,0-0.2C29.1,21.7,29.1,21.6,29,21.6L29,21.6z M27.6,21c-0.1-0.1-0.1-0.1-0.2-0.1
			c-0.1,0-0.2,0-0.2,0c-0.1,0-0.2,0-0.2,0.1c-0.1,0-0.1,0.1-0.2,0.1c-0.1,0.1-0.1,0.1-0.1,0.2c0,0.1,0,0.2,0,0.2c0,0.1,0,0.2,0,0.2
			c0,0.1,0.1,0.1,0.1,0.2C26.8,22,26.9,22,27,22c0.1,0,0.2,0,0.2,0c0.1,0,0.1,0,0.2-0.1c0.1,0,0.1-0.1,0.2-0.1
			c0.1-0.1,0.1-0.1,0.1-0.2c0-0.1,0.1-0.2,0.1-0.2c0-0.1,0-0.2,0-0.2C27.7,21.1,27.7,21.1,27.6,21L27.6,21z M27.5,21.6L27.5,21.6
			c0,0.1-0.1,0.1-0.1,0.2c0,0-0.1,0.1-0.1,0.1c0,0-0.1,0-0.1,0c0,0-0.1,0-0.1,0c0,0-0.1,0-0.1-0.1c0,0-0.1-0.1-0.1-0.1
			c0,0,0-0.1,0-0.1c0-0.1,0-0.1,0-0.2c0-0.1,0.1-0.1,0.1-0.2c0,0,0.1-0.1,0.1-0.1c0,0,0.1,0,0.1,0c0,0,0.1,0,0.1,0
			c0,0,0.1,0,0.1,0.1c0,0,0.1,0.1,0.1,0.1c0,0,0,0.1,0,0.1C27.5,21.5,27.5,21.5,27.5,21.6L27.5,21.6z M26.2,20.6
			C26.2,20.5,26.2,20.5,26.2,20.6c-0.1-0.1-0.1-0.1-0.1-0.1c0,0-0.1,0-0.1,0c0,0-0.1,0-0.1,0c-0.2-0.1-0.3-0.1-0.5-0.2
			c-0.1,0.5-0.2,0.7-0.3,1.1c0.1,0,0.1,0,0.2,0.1c0.1-0.2,0.1-0.3,0.1-0.5c0.1,0,0.1,0,0.2,0.1c0,0,0,0,0.1,0c0,0,0,0,0,0
			c0,0,0,0,0,0.1c0,0,0,0,0,0.1c0,0.1,0,0.2,0,0.3c0.1,0,0.1,0,0.2,0.1c0-0.1,0-0.2,0-0.4c0-0.1-0.1-0.2-0.1-0.2c0,0,0.1,0,0.2-0.1
			c0,0,0.1-0.1,0.1-0.2c0,0,0,0,0-0.1c0,0,0,0,0-0.1C26.3,20.7,26.3,20.7,26.2,20.6C26.3,20.6,26.2,20.6,26.2,20.6L26.2,20.6z
			 M26,20.8L26,20.8C26,20.8,26,20.8,26,20.8c0,0.1-0.1,0.1-0.1,0.1c0,0,0,0-0.1,0c0,0-0.1,0-0.1,0c-0.1,0-0.2-0.1-0.3-0.1
			c0-0.1,0.1-0.2,0.1-0.3c0.1,0,0.2,0.1,0.3,0.1c0.1,0,0.1,0,0.1,0.1C26.1,20.7,26.1,20.7,26,20.8L26,20.8z M24.8,20.1
			C24.7,20.1,24.7,20,24.8,20.1C24.6,20,24.6,20,24.6,20c0,0-0.1,0-0.1,0c-0.2,0-0.3-0.1-0.5-0.1c-0.1,0.5-0.2,0.7-0.3,1.2
			c0.1,0,0.1,0,0.2,0.1c0-0.2,0.1-0.3,0.1-0.4c0.1,0,0.2,0,0.3,0.1c0.2,0,0.3,0,0.4,0c0.1,0,0.2-0.1,0.2-0.2c0,0,0-0.1,0-0.1
			C24.9,20.2,24.8,20.2,24.8,20.1C24.8,20.1,24.8,20.1,24.8,20.1L24.8,20.1z M24.6,20.4L24.6,20.4C24.6,20.4,24.6,20.4,24.6,20.4
			c0,0.1-0.1,0.1-0.1,0.1c0,0-0.1,0-0.1,0s-0.1,0-0.1,0c-0.1,0-0.2,0-0.3-0.1c0-0.1,0.1-0.2,0.1-0.3c0.1,0,0.2,0,0.3,0.1
			c0,0,0.1,0,0.1,0c0,0,0.1,0,0.1,0C24.6,20.2,24.6,20.2,24.6,20.4C24.6,20.3,24.6,20.3,24.6,20.4L24.6,20.4z M22.3,20.7
			c-0.3-0.1-0.5-0.1-0.8-0.1c0.1-0.4,0.1-0.6,0.2-1c0.3,0.1,0.5,0.1,0.8,0.1c0,0.1,0,0.1,0,0.2c-0.3,0-0.4-0.1-0.6-0.1
			c0,0.1,0,0.1,0,0.2c0.2,0,0.3,0.1,0.6,0.1c0,0.1,0,0.1,0,0.2c-0.2,0-0.3-0.1-0.6-0.1c0,0.1,0,0.2,0,0.3c0.3,0,0.4,0.1,0.6,0.1
			C22.3,20.6,22.3,20.6,22.3,20.7L22.3,20.7z M20,20.4c-0.1,0-0.1,0-0.2,0c0-0.3,0-0.4,0.1-0.7c-0.1,0.3-0.2,0.4-0.3,0.7
			c-0.1,0-0.1,0-0.2,0c-0.1-0.3-0.1-0.5-0.2-0.8c0,0.3,0,0.5-0.1,0.7c-0.1,0-0.1,0-0.2,0c0-0.5,0-0.7,0.1-1.2c0.1,0,0.2,0,0.3,0
			c0.1,0.4,0.1,0.5,0.2,0.9c0.1-0.3,0.2-0.5,0.3-0.8c0.1,0,0.2,0,0.3,0C20.1,19.7,20.1,19.9,20,20.4L20,20.4z M18.4,20.3
			c-0.4,0-0.5,0-0.9,0c0-0.4,0-0.7,0-1.2c0.4,0,0.5,0,0.9,0c0,0.1,0,0.1,0,0.2c-0.3,0-0.4,0-0.7,0c0,0.1,0,0.2,0,0.3
			c0.3,0,0.4,0,0.6,0c0,0.1,0,0.1,0,0.2c-0.2,0-0.4,0-0.6,0c0,0.1,0,0.2,0,0.3c0.3,0,0.4,0,0.7,0C18.4,20.1,18.4,20.2,18.4,20.3
			L18.4,20.3z M17,19.6c0,0.4-0.2,0.6-0.6,0.6c-0.2,0-0.2,0-0.4,0c0-0.4,0-0.7,0-1.2c0.2,0,0.2,0,0.4,0C16.8,19,17,19.3,17,19.6
			L17,19.6z M16.8,19.6L16.8,19.6c0-0.1,0-0.1,0-0.2c0,0,0-0.1-0.1-0.1c0,0-0.1-0.1-0.1-0.1c0,0-0.1,0-0.2,0c-0.1,0-0.1,0-0.2,0
			c0,0.3,0,0.5,0,0.8c0.1,0,0.1,0,0.2,0c0.1,0,0.1,0,0.2,0c0,0,0.1,0,0.1-0.1c0,0,0.1-0.1,0.1-0.1C16.8,19.8,16.8,19.7,16.8,19.6
			L16.8,19.6z M15.5,20.3c-0.1,0-0.1,0-0.2,0c-0.1-0.1-0.1-0.2-0.1-0.3c0,0,0,0,0-0.1c0,0,0,0,0,0c0,0,0,0-0.1,0c0,0,0,0-0.1,0
			c-0.1,0-0.1,0-0.2,0c0,0.2,0,0.3,0,0.4c-0.1,0-0.1,0-0.2,0c0-0.4,0-0.6-0.1-1.2c0.2,0,0.3,0,0.5,0c0,0,0.1,0,0.1,0
			c0,0,0.1,0,0.1,0c0,0,0.1,0,0.1,0c0,0,0,0,0.1,0c0,0,0,0,0.1,0.1c0,0,0,0,0,0.1c0,0,0,0.1,0,0.1c0,0,0,0.1,0,0.1
			c0,0.1,0,0.1,0,0.2c0,0.1-0.1,0.1-0.1,0.1c0,0,0.1,0.1,0.1,0.2C15.4,20.1,15.5,20.1,15.5,20.3L15.5,20.3z M14.7,19.7L14.7,19.7
			c0.1,0,0.2,0,0.3,0c0,0,0.1,0,0.1,0c0,0,0.1,0,0.1,0c0,0,0,0,0-0.1c0,0,0,0,0-0.1c0-0.1,0-0.1-0.1-0.1c0,0-0.1,0-0.2,0
			c-0.1,0-0.2,0-0.3,0C14.7,19.5,14.7,19.5,14.7,19.7L14.7,19.7z M13.5,20.3L13.5,20.3c0,0,0.1,0,0.1,0c0,0,0.1-0.1,0.1-0.1
			c0,0,0-0.1,0.1-0.1c0-0.1,0-0.1,0-0.2c0-0.1,0-0.1,0-0.2c0-0.1,0-0.1-0.1-0.1c0,0-0.1-0.1-0.1-0.1c0,0-0.1,0-0.1,0
			c-0.1,0-0.1,0-0.1,0c0,0-0.1,0.1-0.1,0.1c0,0,0,0.1-0.1,0.2c0,0.1,0,0.1,0,0.2c0,0.1,0,0.1,0,0.2c0,0,0.1,0.1,0.1,0.1
			c0,0,0.1,0,0.1,0.1C13.4,20.3,13.5,20.3,13.5,20.3L13.5,20.3z"/>
		<path class="st3" d="M15,26.4l0.1,0.4h0.4L15.2,27l0.1,0.4L15,27.2l-0.3,0.2l0.1-0.4l-0.3-0.2h0.4L15,26.4L15,26.4z M24,33.5
			l0,0.1h0.1l-0.1,0.1l0,0.1L24,33.7l-0.1,0.1l0-0.1l-0.1-0.1H24L24,33.5L24,33.5z M26.7,30.6l0.1,0.2H27L26.8,31l0.1,0.2L26.7,31
			l-0.2,0.1l0.1-0.2l-0.2-0.1h0.2L26.7,30.6L26.7,30.6z M28.7,30.9l0.1,0.2h0.2l-0.2,0.1l0.1,0.2l-0.2-0.1l-0.2,0.1l0.1-0.2
			l-0.2-0.1h0.2L28.7,30.9L28.7,30.9z M30.1,30.5l0.1,0.2h0.2l-0.2,0.1l0.1,0.2l-0.2-0.1l-0.2,0.1l0.1-0.2l-0.2-0.1H30L30.1,30.5
			L30.1,30.5z M34.3,28.1l0.1,0.2h0.2l-0.2,0.1l0.1,0.2l-0.2-0.1l-0.2,0.1l0.1-0.2L34,28.3h0.2L34.3,28.1L34.3,28.1z M30.1,32.9
			l0.1,0.2h0.2l-0.2,0.1l0.1,0.2l-0.2-0.1l-0.2,0.1l0.1-0.2l-0.2-0.1h0.2L30.1,32.9L30.1,32.9z M31.4,30.7l0.1,0.2h0.2l-0.2,0.1
			l0.1,0.2l-0.2-0.1l-0.2,0.1l0.1-0.2l-0.2-0.1h0.2L31.4,30.7L31.4,30.7z M27.4,23.1l0.1,0.2h0.2l-0.2,0.1l0.1,0.2l-0.2-0.1
			l-0.2,0.1l0.1-0.2L27,23.3h0.2L27.4,23.1L27.4,23.1z M22.8,26.8l0.1,0.2h0.2l-0.2,0.1l0.1,0.2l-0.2-0.1l-0.2,0.1l0.1-0.2L22.4,27
			h0.2L22.8,26.8L22.8,26.8z M13.5,27.7l0.1,0.2h0.2l-0.2,0.1l0.1,0.2l-0.2-0.1l-0.2,0.1l0.1-0.2L13.2,28h0.2L13.5,27.7L13.5,27.7z
			 M33.1,29l0.1,0.3h0.3l-0.3,0.2l0.1,0.3l-0.3-0.2l-0.3,0.2l0.1-0.3l-0.3-0.2H33L33.1,29L33.1,29z M32.4,30l0.1,0.3h0.3l-0.3,0.2
			l0.1,0.3l-0.3-0.2l-0.3,0.2l0.1-0.3L32,30.3h0.3L32.4,30L32.4,30z M27.7,31.9l0.1,0.3h0.3l-0.3,0.2l0.1,0.3l-0.3-0.2l-0.3,0.2
			l0.1-0.3l-0.3-0.2h0.3L27.7,31.9L27.7,31.9z M30.2,31.6l0.1,0.3h0.3l-0.3,0.2l0.1,0.3l-0.3-0.2l-0.3,0.2l0.1-0.3l-0.3-0.2h0.3
			L30.2,31.6L30.2,31.6z M17.2,29l0.1,0.3h0.3l-0.3,0.2l0.1,0.3l-0.3-0.2L17,29.8l0.1-0.3l-0.3-0.2h0.3L17.2,29L17.2,29z M25.4,26.7
			l0.1,0.3h0.3l-0.3,0.2l0.1,0.3l-0.3-0.2l-0.3,0.2l0.1-0.3L25,27h0.3L25.4,26.7L25.4,26.7z M24,25.6l0.1,0.3h0.3L24.2,26l0.1,0.3
			L24,26.2l-0.3,0.2l0.1-0.3l-0.3-0.2h0.3L24,25.6L24,25.6z M19.3,24.1l0.1,0.3h0.3l-0.3,0.2l0.1,0.3l-0.3-0.2L19,24.8l0.1-0.3
			l-0.3-0.2h0.3L19.3,24.1L19.3,24.1z M17.6,27.8l0.1,0.3H18l-0.3,0.2l0.1,0.3l-0.3-0.2l-0.3,0.2l0.1-0.3l-0.3-0.2h0.3L17.6,27.8
			L17.6,27.8z M23.4,27.7l0.1,0.2h0.2L23.5,28l0.1,0.2L23.4,28l-0.1,0.1l0.1-0.2l-0.1-0.1h0.2L23.4,27.7L23.4,27.7z M16.2,26
			l0.1,0.2h0.2l-0.1,0.1l0.1,0.2l-0.1-0.1l-0.1,0.1l0.1-0.2L16,26.1h0.2L16.2,26L16.2,26z M27.8,19.6L28,20h0.4L28,20.2l0.1,0.4
			l-0.3-0.2l-0.3,0.2l0.1-0.4L27.3,20h0.4L27.8,19.6L27.8,19.6z M32.6,27.8l0.1,0.4h0.4l-0.3,0.2l0.1,0.4l-0.3-0.2l-0.3,0.2l0.1-0.4
			l-0.3-0.2h0.4L32.6,27.8L32.6,27.8z M13.9,21.3l0.1,0.4h0.4l-0.3,0.2l0.1,0.4L13.9,22l-0.3,0.2l0.1-0.4l-0.3-0.2h0.4L13.9,21.3
			L13.9,21.3z M24,29l0.1,0.4h0.4l-0.3,0.2l0.1,0.4L24,29.7L23.7,30l0.1-0.4l-0.3-0.2h0.4L24,29L24,29z M19,30l0.1,0.4h0.4l-0.3,0.2
			l0.1,0.4L19,30.7L18.7,31l0.1-0.4l-0.3-0.2h0.4L19,30L19,30z"/>
	</g>
</g>
</svg>
