<?xml version="1.0" encoding="utf-8"?>
<!-- Generator: Adobe Illustrator 19.2.1, SVG Export Plug-In . SVG Version: 6.00 Build 0)  -->
<svg version="1.1" id="Layer_1" xmlns="http://www.w3.org/2000/svg" xmlns:xlink="http://www.w3.org/1999/xlink" x="0px" y="0px"
	 viewBox="0 0 24 24" style="enable-background:new 0 0 24 24;" xml:space="preserve">
<style type="text/css">
	.st0{fill:#FF0000;}
	.st1{fill:#171796;}
	.st2{fill:#FFFFFF;}
	.st3{enable-background:new    ;}
	.st4{clip-path:url(#SVGID_2_);}
	.st5{clip-path:url(#SVGID_4_);fill:#FF0000;}
	.st6{clip-path:url(#SVGID_6_);}
	.st7{clip-path:url(#SVGID_8_);fill:#FFFFFF;}
	.st8{clip-path:url(#SVGID_10_);}
	.st9{clip-path:url(#SVGID_12_);fill:#FF0000;}
	.st10{clip-path:url(#SVGID_14_);}
	.st11{clip-path:url(#SVGID_16_);fill:#FF0000;}
	.st12{clip-path:url(#SVGID_18_);}
	.st13{clip-path:url(#SVGID_20_);fill:#FF0000;}
	.st14{clip-path:url(#SVGID_22_);}
	.st15{clip-path:url(#SVGID_24_);fill:#FF0000;}
	.st16{clip-path:url(#SVGID_26_);}
	.st17{clip-path:url(#SVGID_28_);fill:#FF0000;}
	.st18{clip-path:url(#SVGID_30_);}
	.st19{clip-path:url(#SVGID_32_);fill:#FF0000;}
	.st20{clip-path:url(#SVGID_34_);}
	.st21{clip-path:url(#SVGID_36_);fill:#FF0000;}
	.st22{clip-path:url(#SVGID_38_);}
	.st23{clip-path:url(#SVGID_40_);fill:#FF0000;}
	.st24{clip-path:url(#SVGID_42_);}
	.st25{clip-path:url(#SVGID_44_);fill:#FF0000;}
	.st26{clip-path:url(#SVGID_46_);}
	.st27{clip-path:url(#SVGID_48_);fill:#FF0000;}
	.st28{clip-path:url(#SVGID_50_);}
	.st29{clip-path:url(#SVGID_52_);fill:#FF0000;}
	.st30{clip-path:url(#SVGID_54_);}
	.st31{clip-path:url(#SVGID_56_);fill:#FF0000;}
	.st32{clip-path:url(#SVGID_58_);}
	.st33{clip-path:url(#SVGID_60_);fill:#FF0000;}
	.st34{clip-path:url(#SVGID_62_);}
	.st35{clip-path:url(#SVGID_64_);fill:#FFFFFF;}
	.st36{clip-path:url(#SVGID_66_);}
	.st37{clip-path:url(#SVGID_68_);fill:#0093DD;}
	.st38{clip-path:url(#SVGID_70_);}
	.st39{clip-path:url(#SVGID_72_);fill:#FFFFFF;}
	.st40{clip-path:url(#SVGID_74_);}
	.st41{clip-path:url(#SVGID_76_);}
	.st42{clip-path:url(#SVGID_78_);}
	.st43{clip-path:url(#SVGID_80_);fill:#171796;}
	.st44{clip-path:url(#SVGID_82_);}
	.st45{clip-path:url(#SVGID_84_);fill:#FF0000;}
	.st46{clip-path:url(#SVGID_86_);}
	.st47{clip-path:url(#SVGID_88_);fill:#FF0000;}
	.st48{clip-path:url(#SVGID_90_);}
	.st49{clip-path:url(#SVGID_92_);fill:#0093DD;}
	.st50{clip-path:url(#SVGID_94_);}
	.st51{clip-path:url(#SVGID_96_);}
	.st52{clip-path:url(#SVGID_98_);}
	.st53{clip-path:url(#SVGID_100_);fill:#F7DB17;}
	.st54{clip-path:url(#SVGID_102_);}
	.st55{clip-path:url(#SVGID_104_);}
	.st56{clip-path:url(#SVGID_106_);}
	.st57{clip-path:url(#SVGID_108_);fill:#F7DB17;}
	.st58{clip-path:url(#SVGID_110_);}
	.st59{clip-path:url(#SVGID_112_);}
	.st60{clip-path:url(#SVGID_114_);}
	.st61{clip-path:url(#SVGID_116_);fill:#F7DB17;}
	.st62{clip-path:url(#SVGID_118_);}
	.st63{clip-path:url(#SVGID_120_);fill:#171796;}
	.st64{clip-path:url(#SVGID_122_);}
	.st65{clip-path:url(#SVGID_124_);}
	.st66{clip-path:url(#SVGID_126_);}
	.st67{clip-path:url(#SVGID_128_);fill:#F7DB17;}
	.st68{clip-path:url(#SVGID_130_);}
	.st69{clip-path:url(#SVGID_132_);fill:#0093DD;}
	.st70{clip-path:url(#SVGID_134_);}
	.st71{clip-path:url(#SVGID_136_);fill:#FFFFFF;}
	.st72{clip-path:url(#SVGID_138_);}
	.st73{clip-path:url(#SVGID_140_);fill:#FF0000;}
	.st74{clip-path:url(#SVGID_142_);}
	.st75{clip-path:url(#SVGID_144_);}
	.st76{clip-path:url(#SVGID_146_);}
	.st77{clip-path:url(#SVGID_148_);}
</style>
<g id="Croatia">
	<g>
		<path class="st0" d="M12.03,0C6.82,0,2.37,3.36,0.72,8h22.63C21.69,3.36,17.25,0,12.03,0z"/>
		<path class="st1" d="M12.06,24c5.21,0,9.64-3.33,11.29-7.97H0.72C2.37,20.67,6.84,24,12.06,24z"/>
		<path class="st2" d="M0.72,16h22.63c0.44-1.24,0.69-2.57,0.69-3.96c0-1.41-0.24-2.77-0.69-4.03H0.72
			c-0.45,1.26-0.68,2.61-0.68,4.03C0.03,13.42,0.28,14.75,0.72,16z"/>
	</g>
	<g>
		<g>
			<g>
				<g>
					<g class="st3">
						<g>
							<g>
								<defs>
									<path id="SVGID_1_" d="M12.03,20.37L12.03,20.37c2.88,0,5.24-2.36,5.24-5.25V8.89H6.8v6.23
										C6.8,18.01,9.15,20.37,12.03,20.37L12.03,20.37z"/>
								</defs>
								<clipPath id="SVGID_2_">
									<use xlink:href="#SVGID_1_"  style="overflow:visible;"/>
								</clipPath>
								<g class="st4">
									<defs>
										<rect id="SVGID_3_" x="-1.39" y="-0.11" width="26.85" height="26.85"/>
									</defs>
									<clipPath id="SVGID_4_">
										<use xlink:href="#SVGID_3_"  style="overflow:visible;"/>
									</clipPath>
									<rect x="1.2" y="3.29" class="st5" width="21.66" height="22.67"/>
								</g>
							</g>
							<g>
								<defs>
									<path id="SVGID_5_" d="M12.03,20.28L12.03,20.28c2.83,0,5.14-2.32,5.14-5.15V8.99H6.9v6.15
										C6.9,17.97,9.21,20.28,12.03,20.28"/>
								</defs>
								<clipPath id="SVGID_6_">
									<use xlink:href="#SVGID_5_"  style="overflow:visible;"/>
								</clipPath>
								<g class="st6">
									<defs>
										<rect id="SVGID_7_" x="-1.39" y="-0.11" width="26.85" height="26.85"/>
									</defs>
									<clipPath id="SVGID_8_">
										<use xlink:href="#SVGID_7_"  style="overflow:visible;"/>
									</clipPath>
									<rect x="1.3" y="3.39" class="st7" width="21.46" height="22.48"/>
								</g>
							</g>
							<g>
								<defs>
									<rect id="SVGID_9_" x="7.09" y="9.18" width="1.98" height="2.18"/>
								</defs>
								<clipPath id="SVGID_10_">
									<use xlink:href="#SVGID_9_"  style="overflow:visible;"/>
								</clipPath>
								<g class="st8">
									<defs>
										<rect id="SVGID_11_" x="-1.39" y="-0.11" width="26.85" height="26.85"/>
									</defs>
									<clipPath id="SVGID_12_">
										<use xlink:href="#SVGID_11_"  style="overflow:visible;"/>
									</clipPath>
									<rect x="1.49" y="3.59" class="st9" width="13.17" height="13.36"/>
								</g>
							</g>
							<g>
								<defs>
									<rect id="SVGID_13_" x="9.07" y="11.36" width="1.98" height="2.18"/>
								</defs>
								<clipPath id="SVGID_14_">
									<use xlink:href="#SVGID_13_"  style="overflow:visible;"/>
								</clipPath>
								<g class="st10">
									<defs>
										<rect id="SVGID_15_" x="-1.39" y="-0.11" width="26.85" height="26.85"/>
									</defs>
									<clipPath id="SVGID_16_">
										<use xlink:href="#SVGID_15_"  style="overflow:visible;"/>
									</clipPath>
									<rect x="3.47" y="5.76" class="st11" width="13.17" height="13.36"/>
								</g>
							</g>
							<g>
								<defs>
									<path id="SVGID_17_" d="M7.09,15.12c0,0.2,0.01,0.39,0.03,0.58h1.94v-2.18H7.09V15.12z"/>
								</defs>
								<clipPath id="SVGID_18_">
									<use xlink:href="#SVGID_17_"  style="overflow:visible;"/>
								</clipPath>
								<g class="st12">
									<defs>
										<rect id="SVGID_19_" x="-1.39" y="-0.11" width="26.85" height="26.85"/>
									</defs>
									<clipPath id="SVGID_20_">
										<use xlink:href="#SVGID_19_"  style="overflow:visible;"/>
									</clipPath>
									<rect x="1.49" y="7.94" class="st13" width="13.17" height="13.36"/>
								</g>
							</g>
							<g>
								<defs>
									<rect id="SVGID_21_" x="11.04" y="13.53" width="1.98" height="2.18"/>
								</defs>
								<clipPath id="SVGID_22_">
									<use xlink:href="#SVGID_21_"  style="overflow:visible;"/>
								</clipPath>
								<g class="st14">
									<defs>
										<rect id="SVGID_23_" x="-1.39" y="-0.11" width="26.85" height="26.85"/>
									</defs>
									<clipPath id="SVGID_24_">
										<use xlink:href="#SVGID_23_"  style="overflow:visible;"/>
									</clipPath>
									<rect x="5.45" y="7.94" class="st15" width="13.17" height="13.36"/>
								</g>
							</g>
							<g>
								<defs>
									<rect id="SVGID_25_" x="13.02" y="15.71" width="1.98" height="2.18"/>
								</defs>
								<clipPath id="SVGID_26_">
									<use xlink:href="#SVGID_25_"  style="overflow:visible;"/>
								</clipPath>
								<g class="st16">
									<defs>
										<rect id="SVGID_27_" x="-1.39" y="-0.11" width="26.85" height="26.85"/>
									</defs>
									<clipPath id="SVGID_28_">
										<use xlink:href="#SVGID_27_"  style="overflow:visible;"/>
									</clipPath>
									<rect x="7.43" y="10.11" class="st17" width="13.17" height="13.36"/>
								</g>
							</g>
							<g>
								<defs>
									<path id="SVGID_29_" d="M15,19.07c0.44-0.33,0.82-0.73,1.13-1.19H15V19.07z"/>
								</defs>
								<clipPath id="SVGID_30_">
									<use xlink:href="#SVGID_29_"  style="overflow:visible;"/>
								</clipPath>
								<g class="st18">
									<defs>
										<rect id="SVGID_31_" x="-1.39" y="-0.11" width="26.85" height="26.85"/>
									</defs>
									<clipPath id="SVGID_32_">
										<use xlink:href="#SVGID_31_"  style="overflow:visible;"/>
									</clipPath>
									<rect x="9.4" y="12.29" class="st19" width="12.32" height="12.38"/>
								</g>
							</g>
							<g>
								<defs>
									<rect id="SVGID_33_" x="9.07" y="15.71" width="1.98" height="2.18"/>
								</defs>
								<clipPath id="SVGID_34_">
									<use xlink:href="#SVGID_33_"  style="overflow:visible;"/>
								</clipPath>
								<g class="st20">
									<defs>
										<rect id="SVGID_35_" x="-1.39" y="-0.11" width="26.85" height="26.85"/>
									</defs>
									<clipPath id="SVGID_36_">
										<use xlink:href="#SVGID_35_"  style="overflow:visible;"/>
									</clipPath>
									<rect x="3.47" y="10.11" class="st21" width="13.17" height="13.36"/>
								</g>
							</g>
							<g>
								<defs>
									<path id="SVGID_37_" d="M7.93,17.88c0.31,0.46,0.69,0.86,1.13,1.19v-1.19H7.93z"/>
								</defs>
								<clipPath id="SVGID_38_">
									<use xlink:href="#SVGID_37_"  style="overflow:visible;"/>
								</clipPath>
								<g class="st22">
									<defs>
										<rect id="SVGID_39_" x="-1.39" y="-0.11" width="26.85" height="26.85"/>
									</defs>
									<clipPath id="SVGID_40_">
										<use xlink:href="#SVGID_39_"  style="overflow:visible;"/>
									</clipPath>
									<rect x="2.34" y="12.29" class="st23" width="12.32" height="12.38"/>
								</g>
							</g>
							<g>
								<defs>
									<path id="SVGID_41_" d="M12.38,20.06c0.22-0.02,0.43-0.04,0.64-0.09v-2.09h-1.98v2.09c0.21,0.04,0.42,0.07,0.64,0.09
										C11.92,20.07,12.15,20.07,12.38,20.06L12.38,20.06z"/>
								</defs>
								<clipPath id="SVGID_42_">
									<use xlink:href="#SVGID_41_"  style="overflow:visible;"/>
								</clipPath>
								<g class="st24">
									<defs>
										<rect id="SVGID_43_" x="-1.39" y="-0.11" width="26.85" height="26.85"/>
									</defs>
									<clipPath id="SVGID_44_">
										<use xlink:href="#SVGID_43_"  style="overflow:visible;"/>
									</clipPath>
									<rect x="5.45" y="12.29" class="st25" width="13.17" height="13.37"/>
								</g>
							</g>
							<g>
								<defs>
									<path id="SVGID_45_" d="M16.94,15.71c0.02-0.19,0.04-0.39,0.04-0.59v-1.59H15v2.18L16.94,15.71L16.94,15.71z"/>
								</defs>
								<clipPath id="SVGID_46_">
									<use xlink:href="#SVGID_45_"  style="overflow:visible;"/>
								</clipPath>
								<g class="st26">
									<defs>
										<rect id="SVGID_47_" x="-1.39" y="-0.11" width="26.85" height="26.85"/>
									</defs>
									<clipPath id="SVGID_48_">
										<use xlink:href="#SVGID_47_"  style="overflow:visible;"/>
									</clipPath>
									<rect x="9.4" y="7.94" class="st27" width="13.16" height="13.36"/>
								</g>
							</g>
							<g>
								<defs>
									<rect id="SVGID_49_" x="13.02" y="11.36" width="1.98" height="2.18"/>
								</defs>
								<clipPath id="SVGID_50_">
									<use xlink:href="#SVGID_49_"  style="overflow:visible;"/>
								</clipPath>
								<g class="st28">
									<defs>
										<rect id="SVGID_51_" x="-1.39" y="-0.11" width="26.85" height="26.85"/>
									</defs>
									<clipPath id="SVGID_52_">
										<use xlink:href="#SVGID_51_"  style="overflow:visible;"/>
									</clipPath>
									<rect x="7.43" y="5.76" class="st29" width="13.17" height="13.36"/>
								</g>
							</g>
							<g>
								<defs>
									<rect id="SVGID_53_" x="11.04" y="9.18" width="1.98" height="2.18"/>
								</defs>
								<clipPath id="SVGID_54_">
									<use xlink:href="#SVGID_53_"  style="overflow:visible;"/>
								</clipPath>
								<g class="st30">
									<defs>
										<rect id="SVGID_55_" x="-1.39" y="-0.11" width="26.85" height="26.85"/>
									</defs>
									<clipPath id="SVGID_56_">
										<use xlink:href="#SVGID_55_"  style="overflow:visible;"/>
									</clipPath>
									<rect x="5.45" y="3.59" class="st31" width="13.17" height="13.36"/>
								</g>
							</g>
							<g>
								<defs>
									<rect id="SVGID_57_" x="15" y="9.18" width="1.98" height="2.18"/>
								</defs>
								<clipPath id="SVGID_58_">
									<use xlink:href="#SVGID_57_"  style="overflow:visible;"/>
								</clipPath>
								<g class="st32">
									<defs>
										<rect id="SVGID_59_" x="-1.39" y="-0.11" width="26.85" height="26.85"/>
									</defs>
									<clipPath id="SVGID_60_">
										<use xlink:href="#SVGID_59_"  style="overflow:visible;"/>
									</clipPath>
									<rect x="9.4" y="3.59" class="st33" width="13.16" height="13.36"/>
								</g>
							</g>
							<g>
								<defs>
									<path id="SVGID_61_" d="M17.08,8.82l1.23-2.78l-0.93-1.51L15.83,5.1l-1.09-1.24l-1.43,0.82l-1.28-1.05l-1.28,1.05
										L9.33,3.86L8.24,5.1L6.69,4.53L5.76,6.04l1.22,2.78c1.54-0.7,3.25-1.09,5.05-1.09C13.83,7.73,15.54,8.12,17.08,8.82
										L17.08,8.82z"/>
								</defs>
								<clipPath id="SVGID_62_">
									<use xlink:href="#SVGID_61_"  style="overflow:visible;"/>
								</clipPath>
								<g class="st34">
									<defs>
										<rect id="SVGID_63_" x="-1.39" y="-0.11" width="26.85" height="26.85"/>
									</defs>
									<clipPath id="SVGID_64_">
										<use xlink:href="#SVGID_63_"  style="overflow:visible;"/>
									</clipPath>
									<rect x="0.16" y="-1.96" class="st35" width="23.74" height="16.38"/>
								</g>
							</g>
							<g>
								<defs>
									<path id="SVGID_65_" d="M8.27,5.23L8.27,5.23L6.74,4.66L5.88,6.05L6.21,6.8l0.83,1.89c0.62-0.28,1.27-0.5,1.94-0.67
										L8.27,5.23L8.27,5.23z"/>
								</defs>
								<clipPath id="SVGID_66_">
									<use xlink:href="#SVGID_65_"  style="overflow:visible;"/>
								</clipPath>
								<g class="st36">
									<defs>
										<rect id="SVGID_67_" x="-1.39" y="-0.11" width="26.85" height="26.85"/>
									</defs>
									<clipPath id="SVGID_68_">
										<use xlink:href="#SVGID_67_"  style="overflow:visible;"/>
									</clipPath>
									<rect x="0.28" y="-0.94" class="st37" width="14.29" height="15.22"/>
								</g>
							</g>
							<g>
								<defs>
									<path id="SVGID_69_" d="M8.18,6.6c0.05,0.1,0.09,0.22,0.09,0.35c0,0.41-0.34,0.75-0.75,0.75c-0.36,0-0.67-0.26-0.74-0.61
										c0.13,0.23,0.38,0.38,0.66,0.38c0.42,0,0.75-0.34,0.75-0.75C8.19,6.68,8.19,6.64,8.18,6.6L8.18,6.6z"/>
								</defs>
								<clipPath id="SVGID_70_">
									<use xlink:href="#SVGID_69_"  style="overflow:visible;"/>
								</clipPath>
								<g class="st38">
									<defs>
										<rect id="SVGID_71_" x="-1.39" y="-0.11" width="26.85" height="26.85"/>
									</defs>
									<clipPath id="SVGID_72_">
										<use xlink:href="#SVGID_71_"  style="overflow:visible;"/>
									</clipPath>
									<rect x="1.19" y="1" class="st39" width="12.67" height="12.29"/>
								</g>
							</g>
							<g>
								<defs>
									<polygon id="SVGID_73_" points="7.5,5.56 7.49,5.57 7.44,5.84 7.65,6.02 7.66,6.03 7.65,6.03 7.39,6.12 7.33,6.39 
										7.33,6.41 7.32,6.4 7.12,6.22 6.86,6.31 6.84,6.31 6.85,6.3 6.9,6.03 6.69,5.85 6.68,5.84 6.69,5.83 6.95,5.75 7.01,5.48 
										7.01,5.46 7.02,5.47 7.23,5.65 7.48,5.56 									"/>
								</defs>
								<clipPath id="SVGID_74_">
									<use xlink:href="#SVGID_73_"  style="overflow:visible;"/>
								</clipPath>
								<g class="st40">
									<defs>
										<rect id="SVGID_75_" x="-1.39" y="-0.11" width="26.85" height="26.85"/>
									</defs>
									<clipPath id="SVGID_76_">
										<use xlink:href="#SVGID_75_"  style="overflow:visible;"/>
									</clipPath>
									<rect x="1.09" y="-0.13" class="st41" width="12.16" height="12.13"/>
								</g>
							</g>
							<g>
								<defs>
									<path id="SVGID_77_" d="M10.77,4.81L10.77,4.81L9.35,3.99L8.27,5.23l0.71,2.79c0.66-0.17,1.33-0.28,2.03-0.34L10.77,4.81
										L10.77,4.81z"/>
								</defs>
								<clipPath id="SVGID_78_">
									<use xlink:href="#SVGID_77_"  style="overflow:visible;"/>
								</clipPath>
								<g class="st42">
									<defs>
										<rect id="SVGID_79_" x="-1.39" y="-0.11" width="26.85" height="26.85"/>
									</defs>
									<clipPath id="SVGID_80_">
										<use xlink:href="#SVGID_79_"  style="overflow:visible;"/>
									</clipPath>
									<rect x="2.68" y="-1.6" class="st43" width="13.92" height="15.21"/>
								</g>
							</g>
							<g>
								<defs>
									<path id="SVGID_81_" d="M8.8,7.33c0.69-0.18,1.41-0.3,2.14-0.36l-0.06-0.73C10.12,6.3,9.36,6.43,8.63,6.62L8.8,7.33
										L8.8,7.33z"/>
								</defs>
								<clipPath id="SVGID_82_">
									<use xlink:href="#SVGID_81_"  style="overflow:visible;"/>
								</clipPath>
								<g class="st44">
									<defs>
										<rect id="SVGID_83_" x="-1.39" y="-0.11" width="26.85" height="26.85"/>
									</defs>
									<clipPath id="SVGID_84_">
										<use xlink:href="#SVGID_83_"  style="overflow:visible;"/>
									</clipPath>
									<rect x="3.03" y="0.65" class="st45" width="13.51" height="12.27"/>
								</g>
							</g>
							<g>
								<defs>
									<path id="SVGID_85_" d="M8.45,5.92c0.77-0.2,1.57-0.33,2.38-0.4l-0.06-0.71c-0.85,0.07-1.69,0.21-2.5,0.42L8.45,5.92z"/>
								</defs>
								<clipPath id="SVGID_86_">
									<use xlink:href="#SVGID_85_"  style="overflow:visible;"/>
								</clipPath>
								<g class="st46">
									<defs>
										<rect id="SVGID_87_" x="-1.39" y="-0.11" width="26.85" height="26.85"/>
									</defs>
									<clipPath id="SVGID_88_">
										<use xlink:href="#SVGID_87_"  style="overflow:visible;"/>
									</clipPath>
									<rect x="2.68" y="-0.78" class="st47" width="13.74" height="12.3"/>
								</g>
							</g>
							<g>
								<defs>
									<path id="SVGID_89_" d="M13.3,4.81L13.3,4.81l-1.27-1.04l-1.26,1.04l0.24,2.87c0.34-0.03,0.68-0.04,1.03-0.04
										c0.35,0,0.69,0.02,1.03,0.04L13.3,4.81L13.3,4.81z"/>
								</defs>
								<clipPath id="SVGID_90_">
									<use xlink:href="#SVGID_89_"  style="overflow:visible;"/>
								</clipPath>
								<g class="st48">
									<defs>
										<rect id="SVGID_91_" x="-1.39" y="-0.11" width="26.85" height="26.85"/>
									</defs>
									<clipPath id="SVGID_92_">
										<use xlink:href="#SVGID_91_"  style="overflow:visible;"/>
									</clipPath>
									<rect x="5.18" y="-1.82" class="st49" width="13.72" height="15.1"/>
								</g>
							</g>
							<g>
								<defs>
									<path id="SVGID_93_" d="M12.03,6.1C12.03,6.1,12.02,6.1,12.03,6.1C12,6.14,11.97,6.17,11.95,6.2
										c-0.03,0.01-0.03,0.02-0.02,0.05c-0.03,0-0.04,0.03-0.04,0.06c-0.03-0.05-0.07-0.06-0.11-0.04c0-0.03-0.02-0.05-0.06-0.05
										c-0.02,0-0.04-0.01-0.06-0.02c-0.01-0.01-0.01-0.01-0.02-0.01c-0.02-0.01-0.03,0-0.02,0.01c0.04,0.06,0.07,0.12,0.11,0.17
										c0,0.01,0,0.02,0.01,0.03c0.01,0.02,0.01,0.04,0.02,0.05c0,0.01,0,0.01,0,0.02c-0.03-0.01-0.06-0.02-0.09-0.02
										c-0.02,0-0.04-0.01-0.05-0.02c-0.01-0.01-0.01,0-0.01,0.01c0,0.07,0.02,0.14,0.08,0.2c-0.03,0-0.06,0-0.09,0
										c-0.01,0-0.01,0.01-0.01,0.01c0.02,0.04,0.05,0.08,0.11,0.1c-0.03,0.01-0.04,0.04-0.05,0.07c0,0.03-0.01,0.05-0.03,0.06
										c-0.01,0-0.01,0.01,0,0.01c0.03,0.02,0.08,0.03,0.12,0.01c-0.02,0.04-0.03,0.07-0.03,0.11c0.03,0.01,0.05,0,0.08-0.01
										c0,0.01-0.01,0.02-0.01,0.04c0,0.02-0.01,0.03-0.01,0.05c0,0-0.01,0.01,0,0.01c0.04,0.01,0.09,0.01,0.12-0.01
										c0,0.03,0,0.06,0.01,0.1c0,0.01,0.01,0.01,0.02,0c0.02-0.03,0.04-0.05,0.07-0.07c0,0.01,0.01,0.02,0.02,0.03
										c0.01,0.01,0.02,0.02,0.02,0.05c0,0,0,0.01,0,0.01c0.02,0,0.07-0.05,0.08-0.08c0.03,0.02,0.04,0.03,0.06,0.06
										c0.01,0.01,0.01,0,0.02,0c0.01-0.03,0.01-0.06,0.01-0.1c0.04,0.01,0.08,0.02,0.12,0.01c0.01,0,0-0.01,0-0.01
										C12.3,7.09,12.3,7.07,12.3,7.05c0-0.02,0-0.03-0.01-0.04c0.03,0.01,0.05,0.01,0.08,0.01c0-0.04-0.01-0.08-0.03-0.11
										c0.04,0.01,0.09,0.01,0.12-0.01c0.01-0.01,0-0.01,0-0.01c-0.02-0.01-0.03-0.03-0.03-0.06c0-0.03-0.02-0.05-0.05-0.07
										c0.06-0.02,0.09-0.06,0.11-0.1c0-0.01,0-0.01-0.01-0.01c-0.03,0-0.06,0-0.09,0c0.06-0.06,0.08-0.13,0.08-0.2
										c0-0.01-0.01-0.02-0.01-0.01c-0.01,0.01-0.02,0.02-0.05,0.02c-0.03,0-0.06,0-0.09,0.02c0-0.01,0-0.01,0-0.02
										c0.01-0.02,0.01-0.03,0.02-0.05c0.01-0.01,0.01-0.02,0.01-0.03c0.04-0.06,0.07-0.12,0.1-0.17
										c0.01-0.01-0.01-0.02-0.02-0.01c-0.01,0.01-0.01,0.01-0.02,0.01c-0.02,0.01-0.03,0.02-0.06,0.02
										c-0.03,0.01-0.06,0.02-0.06,0.05c-0.04-0.02-0.08-0.01-0.11,0.04c0-0.03-0.01-0.06-0.04-0.06c0.01-0.02,0-0.04-0.02-0.05
										C12.1,6.17,12.06,6.14,12.03,6.1C12.04,6.1,12.03,6.1,12.03,6.1L12.03,6.1z"/>
								</defs>
								<clipPath id="SVGID_94_">
									<use xlink:href="#SVGID_93_"  style="overflow:visible;"/>
								</clipPath>
								<g class="st50">
									<defs>
										<rect id="SVGID_95_" x="-1.39" y="-0.11" width="26.85" height="26.85"/>
									</defs>
									<clipPath id="SVGID_96_">
										<use xlink:href="#SVGID_95_"  style="overflow:visible;"/>
									</clipPath>
									<rect x="5.98" y="0.51" class="st51" width="12.11" height="12.32"/>
								</g>
							</g>
							<g>
								<defs>
									<path id="SVGID_97_" d="M12.32,6.48C12.32,6.48,12.32,6.48,12.32,6.48c-0.01,0-0.01,0.01-0.02,0.02
										c-0.01,0.01-0.02,0.02-0.03,0.03c0,0,0,0-0.01,0c0,0,0,0,0-0.01c0.01-0.01,0.02-0.02,0.03-0.02c0,0,0.01-0.01,0.01-0.01
										c-0.01,0-0.03,0-0.04,0c-0.01,0-0.02,0.01-0.03,0.01c-0.01,0-0.01,0.01-0.02,0.02c0,0,0,0-0.01,0c0,0,0,0,0-0.01
										c0-0.01,0.01-0.01,0.02-0.02c0,0,0.01-0.01,0.01-0.01c-0.01,0-0.03,0-0.04,0c0,0-0.01,0-0.01,0.01c0,0-0.01,0.01-0.01,0.01
										c0,0,0,0-0.01,0c0,0,0,0,0-0.01c0,0,0.01-0.01,0.01-0.01l0,0c-0.01,0-0.02,0-0.03,0l0,0c0,0-0.01,0.01-0.01,0.01
										c0,0,0,0.01-0.01,0.01c0,0,0,0-0.01,0c0,0,0,0,0-0.01c0,0,0-0.01,0.01-0.01c0,0,0,0,0,0c-0.02,0-0.03,0-0.05,0c0,0,0,0,0,0
										c0,0-0.01,0-0.01,0.01c0,0,0,0.01-0.01,0.01c0,0,0,0-0.01,0c0,0,0,0,0-0.01c0,0,0-0.01,0.01-0.01c0,0,0,0,0,0
										c-0.02,0-0.03,0-0.05,0c-0.02,0-0.03,0-0.05,0c0,0,0,0,0,0c0,0,0.01,0.01,0.01,0.01c0,0,0,0,0,0.01c0,0,0,0-0.01,0
										c0,0,0-0.01-0.01-0.01c0,0-0.01,0-0.01-0.01c0,0,0,0,0,0c-0.02,0-0.03,0-0.05,0c0,0,0,0,0,0c0,0,0,0.01,0.01,0.01
										c0,0,0,0,0,0.01c0,0,0,0-0.01,0c0,0,0-0.01-0.01-0.01c0,0,0-0.01-0.01-0.01c0,0,0,0,0,0c-0.01,0-0.02,0-0.03,0c0,0,0,0,0,0
										c0,0,0.01,0.01,0.01,0.01c0,0,0,0,0,0.01c0,0,0,0-0.01,0c0,0,0-0.01-0.01-0.01c0,0-0.01,0-0.01-0.01l0,0
										c-0.01,0-0.03,0-0.04,0c0.01,0,0.01,0.01,0.02,0.01c0.01,0.01,0.02,0.01,0.02,0.02c0,0,0,0,0,0.01c0,0,0,0-0.01,0
										c0-0.01-0.01-0.01-0.02-0.02c-0.01-0.01-0.02-0.01-0.03-0.01h0c-0.01,0-0.02,0-0.04,0c0,0,0.01,0.01,0.01,0.01
										c0.01,0.01,0.02,0.02,0.03,0.02c0,0,0,0,0,0.01c0,0,0,0-0.01,0c-0.01-0.01-0.02-0.02-0.03-0.03c0-0.01-0.01-0.01-0.02-0.02
										c-0.03-0.01-0.05-0.02-0.08-0.02c-0.02,0-0.04,0-0.06-0.01c0,0.01,0.01,0.02,0.02,0.03c0.01,0.01,0.02,0.02,0.03,0.02
										c0,0,0,0,0,0c0,0.02,0.01,0.04,0.02,0.05c0.01,0.01,0.02,0.01,0.03,0.02c-0.01-0.01-0.02-0.02-0.02-0.03
										c-0.01-0.02-0.01-0.04-0.01-0.06c0,0,0,0,0,0c0,0,0,0,0,0c0,0.02,0,0.03,0.01,0.05c0.01,0.02,0.02,0.03,0.04,0.05
										c0,0,0,0.01,0,0.01c-0.02-0.01-0.04-0.02-0.05-0.03c-0.01-0.01-0.02-0.03-0.02-0.05c-0.01,0-0.02-0.01-0.03-0.02
										c-0.01-0.01-0.01-0.02-0.02-0.03c0,0.06,0.02,0.11,0.06,0.15c0.01,0.01,0.02,0.02,0.03,0.03c0.01,0,0.01,0.01,0,0.01
										c0,0-0.01,0-0.01,0c0.01,0,0.02,0.01,0.03,0.01c0.02,0.01,0.03,0.02,0.03,0.04c0,0,0,0,0,0c0,0,0,0,0,0
										c0-0.01-0.01-0.02-0.03-0.03c-0.01-0.01-0.03-0.02-0.05-0.02c-0.02,0-0.04,0-0.06,0c0.01,0,0.01,0.01,0.02,0.01
										c0.01,0.01,0.03,0.01,0.05,0.02c0.01,0,0.02,0.01,0.03,0.01c0.01,0.01,0.02,0.01,0.02,0.02c0,0,0,0,0,0.01c0,0,0,0-0.01,0
										C11.71,6.71,11.7,6.7,11.7,6.69c-0.01,0-0.02-0.01-0.03-0.01c-0.02-0.01-0.04-0.01-0.05-0.02
										c-0.01-0.01-0.02-0.01-0.02-0.02c0.02,0.05,0.06,0.08,0.11,0.09c0,0,0.01,0,0.01,0l0,0c0.01,0,0.02,0.01,0.04,0.01
										c0.01,0,0.02,0,0.03,0c0,0,0,0,0,0c0,0,0,0,0,0c-0.01,0-0.02,0-0.04-0.01c-0.01,0-0.02,0-0.02,0c0,0-0.01,0-0.01,0
										c-0.03,0-0.06,0.03-0.06,0.07c0,0,0,0,0,0c0.01-0.01,0.02-0.02,0.04-0.03c0.02-0.01,0.03-0.01,0.05-0.01c0,0,0,0,0,0.01
										c0,0,0,0-0.01,0c-0.01,0-0.03,0-0.04,0.01c-0.01,0.01-0.03,0.02-0.04,0.03c0,0.02-0.01,0.04-0.03,0.05
										c0.01,0,0.01,0.01,0.02,0.01c0.01-0.01,0.02-0.01,0.03-0.01c0.01,0,0.02-0.01,0.04-0.01c0,0,0,0,0,0c0,0,0,0,0,0
										c-0.01,0-0.02,0-0.04,0.01c-0.01,0-0.02,0.01-0.03,0.01c0.03,0.01,0.06,0,0.09-0.01c0.01,0,0.01-0.01,0.02-0.01
										c0.01,0,0.01-0.01,0.02-0.01c0.01,0,0.02-0.01,0.02-0.01c0,0,0,0,0,0c0,0,0,0,0,0c-0.01,0-0.02,0-0.03,0.01
										c0,0-0.01,0.01-0.02,0.01c0,0-0.01,0.01-0.01,0.01c-0.01,0.01-0.02,0.02-0.03,0.04c0,0.01-0.01,0.02-0.01,0.03
										c0.01-0.01,0.02-0.03,0.03-0.04c0.01-0.01,0.03-0.03,0.05-0.04c0,0,0,0,0.01,0c0,0,0,0,0,0.01
										c-0.02,0.01-0.03,0.02-0.04,0.03c-0.01,0.01-0.02,0.03-0.03,0.05c0,0.01,0,0-0.01,0.01c0.01-0.02,0.03-0.03,0.04-0.04
										c0.02-0.01,0.04-0.02,0.06-0.02c0,0,0,0,0,0c0,0,0,0,0,0c-0.02,0-0.03,0-0.05,0.02c-0.02,0.01-0.03,0.03-0.05,0.05
										c0.02,0,0.05,0,0.07-0.01c0.01,0,0.02-0.02,0.03-0.02c0,0,0.01-0.01,0.01-0.01c0,0,0.01-0.01,0.01-0.01c0,0,0,0,0.01,0
										c0,0,0,0,0,0.01c0,0-0.01,0.01-0.01,0.01c0,0-0.01,0.01-0.01,0.02c0,0,0,0,0,0C11.81,7,11.8,7.01,11.79,7.03
										c-0.01,0.03,0,0.05-0.02,0.08c0.01-0.01,0.02-0.01,0.02-0.02c0.01-0.01,0.01-0.02,0.02-0.03c0-0.01,0.01-0.03,0.02-0.04
										c0.01-0.01,0.02-0.02,0.03-0.02c0,0,0,0,0.01,0c0,0,0,0,0,0.01c-0.01,0-0.02,0.01-0.03,0.02
										c-0.01,0.01-0.02,0.02-0.02,0.03c0,0.01-0.01,0.02-0.02,0.03C11.8,7.1,11.8,7.1,11.79,7.11c0.01,0,0.01,0,0.02,0
										c0.01,0,0.03-0.01,0.04-0.02c0.01-0.01,0.02-0.02,0.02-0.03c0,0,0,0,0.01,0c0,0,0,0,0,0.01c-0.01,0.01-0.01,0.02-0.02,0.03
										c-0.01,0.01-0.02,0.01-0.03,0.01c0.02,0,0.04-0.01,0.06-0.01c0.01,0,0.01-0.02,0.02-0.03c0-0.01,0.01-0.01,0.01-0.02
										c0.01-0.01,0.01-0.01,0.02-0.02c0,0,0,0,0.01,0c0,0,0,0,0,0.01c-0.01,0-0.01,0.01-0.02,0.01c0,0.01-0.01,0.01-0.01,0.02
										c0,0.01-0.01,0.03-0.01,0.04c0,0.03,0,0.05,0.01,0.08c0.01-0.01,0.01-0.02,0.02-0.03c0,0,0,0,0,0c0-0.01,0-0.03,0.01-0.04
										c0-0.01,0-0.03,0-0.04c0,0,0,0,0,0c0,0,0,0,0,0c0,0.01,0,0.03,0,0.05c0,0.01,0,0.02,0,0.04c0.01-0.01,0.01-0.01,0.01-0.01
										c0-0.01,0.01-0.02,0.01-0.03c0-0.01,0-0.02,0-0.03c0,0,0,0,0-0.01c0,0,0,0,0.01,0c0,0.01,0,0.02,0,0.03
										c0,0.01,0,0.02-0.01,0.03c0.01-0.01,0.02-0.01,0.02-0.02c0-0.01,0-0.02,0-0.03c0-0.01,0-0.02,0-0.03c0,0,0-0.01,0.01,0
										c0.01,0,0,0,0,0.01c0,0.01,0,0.01,0,0.02c0,0.01,0,0.02,0,0.03c0,0.01,0.01,0.02,0.02,0.03c0.01,0.01,0.02,0.02,0.02,0.04
										c0-0.02,0-0.04,0-0.05c0-0.02-0.01-0.04-0.02-0.05c0,0,0,0,0-0.01c0,0,0,0,0.01,0c0.01,0.01,0.01,0.03,0.02,0.05
										c0,0.02,0,0.04,0,0.07c0.01-0.01,0.05-0.03,0.05-0.08c0,0,0-0.01,0-0.01c0,0,0,0,0-0.01c0,0,0,0,0.01,0
										c0,0,0,0.01,0.01,0.01c0,0,0,0.01,0,0.01c0,0,0.01-0.01,0.01-0.01c0,0,0.01,0.01,0.01,0.01c0-0.01,0-0.02-0.01-0.02
										c0-0.01,0-0.02,0-0.03c0,0,0,0,0.01,0c0,0,0,0,0,0.01c0,0.01,0,0.02,0,0.03c0,0.01,0,0.02,0.01,0.03c0,0,0,0,0,0
										c0,0,0.01,0.01,0.01,0.01c0-0.01,0-0.02,0-0.03c0-0.02,0-0.03,0-0.05c0,0,0,0,0,0c0,0,0,0,0,0c0,0.01,0,0.03,0,0.04
										c0,0.01,0,0.03,0.01,0.04l0,0c0.01,0.01,0.01,0.02,0.02,0.03c0.01-0.03,0.01-0.05,0.01-0.08c0-0.01-0.01-0.03-0.01-0.04
										c0-0.01-0.01-0.01-0.01-0.02c-0.01-0.01-0.01-0.01-0.02-0.01c0,0,0,0,0-0.01c0,0,0,0,0.01,0c0.01,0,0.02,0.01,0.02,0.02
										c0.01,0.01,0.01,0.01,0.01,0.02c0.01,0,0.01,0.02,0.02,0.03c0.02,0.01,0.04,0.01,0.06,0.01c-0.01,0-0.02-0.01-0.03-0.01
										c-0.01-0.01-0.02-0.02-0.02-0.03c0,0,0,0,0-0.01c0,0,0,0,0.01,0c0.01,0.01,0.01,0.02,0.02,0.03
										c0.01,0.01,0.04,0.02,0.05,0.02c-0.01,0-0.01-0.01-0.02-0.02c-0.01-0.01-0.01-0.02-0.02-0.03c0-0.01-0.01-0.02-0.02-0.03
										C12.22,7.01,12.21,7.01,12.2,7c0,0,0,0,0-0.01c0,0,0,0,0.01,0c0.01,0,0.02,0.01,0.03,0.02c0.01,0.01,0.02,0.02,0.02,0.04
										c0,0.01,0.01,0.02,0.02,0.03c0.01,0.01,0.01,0.01,0.02,0.02c-0.01-0.03-0.01-0.05-0.02-0.08c0-0.02-0.03-0.04-0.03-0.04
										c0.01-0.01,0.02,0.01,0.03,0.02c0.02,0.01,0.05,0.01,0.07,0.01c-0.02-0.02-0.03-0.04-0.05-0.05
										c-0.02-0.01-0.03-0.02-0.05-0.02c0,0,0,0,0,0c0,0,0,0,0,0c0.02,0,0.04,0,0.05,0.02c0.01,0.01,0.03,0.02,0.04,0.04
										c0-0.01,0,0,0-0.01c-0.01-0.02-0.02-0.03-0.03-0.05c-0.01-0.01-0.03-0.03-0.04-0.03c0,0,0,0,0-0.01c0,0,0,0,0.01,0
										c0.02,0.01,0.03,0.02,0.05,0.04c0.01,0.01,0.02,0.03,0.03,0.04c0-0.01-0.01-0.02-0.01-0.03c-0.01-0.01-0.01-0.03-0.03-0.04
										c-0.01-0.01-0.03-0.02-0.03-0.02c0,0,0,0-0.01,0c-0.01,0-0.02-0.01-0.02-0.01c0,0,0,0,0,0c0,0,0,0,0,0
										c0.01,0,0.02,0,0.02,0.01c0,0,0.01,0.01,0.01,0.01c0.01,0,0.02,0.01,0.03,0.01c0.03,0.01,0.06,0.02,0.09,0.01
										c-0.01,0-0.02-0.01-0.03-0.01c-0.01,0-0.02-0.01-0.04-0.01c0,0,0,0,0,0s0,0,0,0c0.01,0,0.03,0,0.04,0.01
										c0.01,0,0.02,0.01,0.03,0.01c0.01,0,0.01,0,0.02-0.01c-0.02-0.01-0.02-0.03-0.03-0.05l0,0c-0.01-0.01-0.03-0.03-0.04-0.03
										c-0.01-0.01-0.03-0.01-0.04-0.01c0,0,0,0-0.01,0c0,0,0,0,0-0.01c0.02,0,0.03,0,0.05,0.01c0.01,0.01,0.02,0.02,0.04,0.03
										c0,0,0,0,0,0c0-0.04-0.03-0.06-0.06-0.07c-0.01,0-0.03,0-0.02,0c0-0.01,0.01-0.01,0.03-0.01c0.05-0.02,0.09-0.04,0.11-0.09
										c-0.01,0.01-0.01,0.01-0.02,0.02c-0.01,0.01-0.03,0.01-0.05,0.02c-0.01,0-0.02,0.01-0.03,0.01
										c-0.01,0.01-0.02,0.01-0.02,0.02c0,0,0,0-0.01,0c0,0,0,0,0-0.01c0.01-0.01,0.01-0.01,0.02-0.02
										c0.01-0.01,0.02-0.01,0.03-0.01c0.02,0,0.03-0.01,0.05-0.02c0.01,0,0.01-0.01,0.02-0.01c-0.02,0-0.04,0-0.06,0
										c-0.02,0.01-0.04,0.01-0.05,0.02c-0.01,0.01-0.02,0.02-0.03,0.03c0,0,0,0,0,0c0,0,0,0,0,0c0-0.01,0.01-0.03,0.03-0.04
										c0.01-0.01,0.02-0.01,0.03-0.01c0,0-0.01,0-0.01,0c-0.02,0-0.01-0.01,0-0.01c0.01,0,0.03-0.02,0.03-0.03
										c0.04-0.04,0.05-0.1,0.06-0.15c0,0.01-0.01,0.02-0.02,0.03c-0.01,0.01-0.02,0.02-0.03,0.02c0,0.02-0.01,0.04-0.02,0.05
										c-0.01,0.01-0.03,0.02-0.05,0.03c0,0-0.01,0,0-0.01c0.02-0.01,0.03-0.03,0.04-0.05c0.01-0.02,0.01-0.04,0.01-0.05
										c0,0,0,0,0,0c0,0,0,0,0,0c0,0.02,0,0.04-0.01,0.06c-0.01,0.01-0.01,0.02-0.02,0.03c0.01-0.01,0.02-0.01,0.02-0.02
										c0.01-0.01,0.02-0.03,0.02-0.05c0,0,0,0,0,0c0.01,0,0.02-0.01,0.03-0.02c0.01-0.01,0.01-0.02,0.02-0.03
										c-0.02,0.01-0.04,0.01-0.06,0.01C12.36,6.46,12.34,6.46,12.32,6.48L12.32,6.48z"/>
								</defs>
								<clipPath id="SVGID_98_">
									<use xlink:href="#SVGID_97_"  style="overflow:visible;"/>
								</clipPath>
								<g class="st52">
									<defs>
										<rect id="SVGID_99_" x="-1.39" y="-0.11" width="26.85" height="26.85"/>
									</defs>
									<clipPath id="SVGID_100_">
										<use xlink:href="#SVGID_99_"  style="overflow:visible;"/>
									</clipPath>
									<rect x="6" y="0.85" class="st53" width="12.07" height="11.95"/>
								</g>
							</g>
							<g>
								<defs>
									<path id="SVGID_101_" d="M11.45,4.81C11.45,4.81,11.45,4.81,11.45,4.81c-0.03,0.04-0.05,0.07-0.08,0.1
										c-0.03,0.01-0.03,0.03-0.02,0.05c-0.03,0-0.04,0.03-0.04,0.06c-0.04-0.05-0.07-0.06-0.11-0.04c0-0.03-0.03-0.04-0.06-0.05
										c-0.02,0-0.04-0.01-0.06-0.02c-0.01-0.01-0.01-0.01-0.02-0.01c-0.02-0.01-0.03,0-0.02,0.01c0.04,0.06,0.08,0.11,0.11,0.17
										c0,0.01,0,0.02,0.01,0.03c0.01,0.02,0.01,0.03,0.02,0.05c0,0.01,0,0.01,0,0.02c-0.03-0.01-0.06-0.01-0.09-0.01
										c-0.02,0-0.04-0.01-0.05-0.02c-0.01-0.01-0.01,0-0.01,0.01c0,0.07,0.03,0.13,0.09,0.2c-0.03,0-0.06,0-0.09,0.01
										c-0.01,0-0.01,0.01-0.01,0.01c0.02,0.04,0.05,0.08,0.11,0.1c-0.03,0.02-0.04,0.04-0.04,0.07c0,0.03-0.01,0.05-0.03,0.06
										c-0.01,0-0.01,0.01,0,0.01c0.03,0.02,0.08,0.02,0.12,0.01c-0.02,0.04-0.03,0.07-0.02,0.11c0.03,0.01,0.05,0,0.08-0.01
										c0,0.01-0.01,0.02-0.01,0.04c0,0.02,0,0.03-0.01,0.05c0,0-0.01,0.01,0,0.01c0.05,0.01,0.09,0,0.12-0.01
										c0,0.03,0,0.06,0.01,0.1c0,0.01,0.01,0.01,0.02,0c0.02-0.03,0.04-0.05,0.07-0.07c0,0.01,0.01,0.02,0.02,0.03
										c0.01,0.01,0.02,0.02,0.02,0.04c0,0,0,0.01,0.01,0.01c0.02,0,0.07-0.05,0.08-0.08c0.03,0.02,0.04,0.03,0.06,0.06
										c0.01,0.01,0.01,0,0.02,0c0.01-0.03,0.01-0.06,0.01-0.1c0.04,0.01,0.08,0.02,0.12,0c0.01,0,0-0.01,0-0.01
										c-0.01-0.01-0.02-0.03-0.02-0.05c0-0.02,0-0.03-0.01-0.04c0.03,0.01,0.05,0.01,0.08,0c0-0.04-0.01-0.08-0.03-0.11
										c0.04,0.01,0.09,0.01,0.12-0.02c0.01-0.01,0-0.01,0-0.01c-0.02-0.01-0.03-0.03-0.03-0.06c-0.01-0.03-0.02-0.05-0.05-0.07
										c0.06-0.03,0.09-0.07,0.11-0.11c0-0.01,0-0.01-0.01-0.01c-0.03,0-0.06,0-0.09,0c0.06-0.07,0.08-0.13,0.07-0.2
										c0-0.01-0.01-0.02-0.01-0.01c-0.01,0.01-0.02,0.02-0.05,0.02c-0.03,0-0.06,0.01-0.09,0.02c0-0.01,0-0.01,0-0.01
										c0.01-0.02,0.01-0.04,0.02-0.05c0.01-0.01,0.01-0.02,0.01-0.03c0.03-0.06,0.06-0.12,0.1-0.18
										c0.01-0.01-0.01-0.02-0.02-0.01c-0.01,0.01-0.01,0.01-0.02,0.01C11.82,4.9,11.8,4.9,11.78,4.91
										c-0.03,0.01-0.05,0.02-0.05,0.05c-0.04-0.02-0.08-0.01-0.11,0.04c0-0.03-0.01-0.06-0.04-0.06c0.01-0.02,0-0.04-0.03-0.05
										C11.53,4.87,11.49,4.84,11.45,4.81C11.46,4.81,11.45,4.81,11.45,4.81L11.45,4.81z"/>
								</defs>
								<clipPath id="SVGID_102_">
									<use xlink:href="#SVGID_101_"  style="overflow:visible;"/>
								</clipPath>
								<g class="st54">
									<defs>
										<rect id="SVGID_103_" x="-1.39" y="-0.11" width="26.85" height="26.85"/>
									</defs>
									<clipPath id="SVGID_104_">
										<use xlink:href="#SVGID_103_"  style="overflow:visible;"/>
									</clipPath>
									<rect x="5.43" y="-0.79" class="st55" width="12.11" height="12.32"/>
								</g>
							</g>
							<g>
								<defs>
									<path id="SVGID_105_" d="M11.75,5.17C11.75,5.17,11.75,5.17,11.75,5.17c-0.01,0-0.01,0.01-0.02,0.02
										c-0.01,0.01-0.02,0.02-0.03,0.03c0,0,0,0-0.01,0c0,0,0,0,0-0.01c0.01-0.01,0.02-0.02,0.03-0.03c0,0,0.01-0.01,0.01-0.01
										c-0.01,0-0.03,0-0.04,0c-0.01,0-0.02,0.01-0.03,0.01c-0.01,0-0.01,0.01-0.02,0.02c0,0,0,0-0.01,0c0,0,0,0,0-0.01
										c0-0.01,0.01-0.01,0.02-0.02c0,0,0.01-0.01,0.01-0.01c-0.01,0-0.03,0-0.04,0c0,0-0.01,0-0.01,0.01c0,0,0,0.01-0.01,0.01
										c0,0,0,0-0.01,0c0,0,0,0,0-0.01c0,0,0.01-0.01,0.01-0.01l0,0c-0.01,0-0.02,0-0.03,0l0,0c0,0-0.01,0.01-0.01,0.01
										c0,0,0,0.01,0,0.01c0,0,0,0-0.01,0c0,0,0,0,0-0.01c0,0,0-0.01,0.01-0.01c0,0,0,0,0,0c-0.02,0-0.03,0-0.05,0c0,0,0,0,0,0
										c0,0-0.01,0-0.01,0.01c0,0,0,0.01-0.01,0.01c0,0,0,0-0.01,0c0,0,0,0,0-0.01c0,0,0-0.01,0.01-0.01c0,0,0,0,0,0
										c-0.02,0-0.03,0-0.05,0c-0.02,0-0.03,0-0.05,0c0,0,0,0,0,0c0,0,0.01,0.01,0.01,0.01c0,0,0,0,0,0.01c0,0,0,0-0.01,0
										c0,0,0-0.01-0.01-0.01c0,0-0.01,0-0.01-0.01c0,0,0,0,0,0c-0.02,0-0.03,0-0.05,0c0,0,0,0,0,0c0,0,0,0.01,0.01,0.01
										c0,0,0,0,0,0.01c0,0,0,0-0.01,0c0,0,0-0.01-0.01-0.01c0,0,0-0.01-0.01-0.01c0,0,0,0,0,0c-0.01,0-0.02,0-0.03,0c0,0,0,0,0,0
										c0,0,0.01,0.01,0.01,0.01c0,0,0,0,0,0.01c0,0,0,0-0.01,0c0,0,0-0.01-0.01-0.01c0,0-0.01,0-0.01-0.01l0,0
										c-0.01,0-0.03,0-0.04,0c0.01,0,0.01,0,0.02,0.01c0.01,0,0.02,0.01,0.02,0.02c0,0,0,0,0,0.01c0,0,0,0-0.01,0
										c0-0.01-0.01-0.01-0.02-0.02c-0.01-0.01-0.02-0.01-0.03-0.01h0c-0.01,0-0.02,0-0.04,0c0,0,0.01,0.01,0.01,0.01
										c0.01,0.01,0.02,0.02,0.03,0.02c0,0,0,0,0,0.01c0,0,0,0-0.01,0c-0.01-0.01-0.02-0.02-0.03-0.02
										c-0.01,0-0.01-0.01-0.02-0.02c-0.03-0.01-0.05-0.02-0.08-0.02c-0.02,0-0.04,0-0.06-0.01c0.01,0.01,0.01,0.02,0.02,0.03
										c0.01,0.01,0.02,0.02,0.03,0.02c0,0,0,0,0,0c0,0.02,0.01,0.04,0.02,0.05c0.01,0.01,0.02,0.01,0.03,0.02
										c-0.01-0.01-0.02-0.02-0.02-0.03c-0.01-0.02-0.01-0.04-0.01-0.06c0,0,0,0,0,0c0,0,0,0,0,0c0,0.02,0,0.03,0.01,0.05
										c0.01,0.02,0.02,0.03,0.04,0.04c0,0,0,0.01,0,0.01c-0.02-0.01-0.04-0.01-0.05-0.03c-0.01-0.01-0.02-0.03-0.03-0.05
										c-0.01,0-0.02-0.01-0.03-0.02c-0.01-0.01-0.01-0.02-0.02-0.03c0.01,0.06,0.03,0.11,0.07,0.15
										c0.01,0.01,0.02,0.02,0.04,0.03c0.01,0,0.01,0.01,0,0.01c0,0-0.01,0-0.01,0c0.01,0,0.02,0.01,0.03,0.01
										c0.02,0.01,0.03,0.02,0.03,0.04c0,0,0,0,0,0c0,0,0,0,0,0c0-0.01-0.01-0.02-0.03-0.03c-0.02-0.01-0.04-0.01-0.05-0.02
										c-0.02,0-0.04,0-0.06,0c0.01,0,0.01,0.01,0.02,0.01c0.01,0.01,0.03,0.01,0.05,0.01c0.01,0,0.02,0.01,0.03,0.01
										c0.01,0.01,0.02,0.01,0.02,0.02c0,0,0,0,0,0.01c0,0,0,0-0.01,0c-0.01-0.01-0.01-0.01-0.02-0.02
										c-0.01,0-0.02-0.01-0.03-0.01c-0.02,0-0.04-0.01-0.05-0.02c-0.01,0-0.02-0.01-0.03-0.02c0.03,0.05,0.06,0.07,0.11,0.09
										c0,0,0.01,0,0.01,0l0,0c0.01,0,0.02,0,0.04,0.01c0.01,0,0.02,0,0.03,0c0,0,0,0,0,0c0,0,0,0,0,0c-0.01,0-0.02,0-0.04,0
										c-0.01,0-0.02,0-0.02,0c0,0-0.01,0-0.01,0c-0.03,0-0.05,0.03-0.06,0.07c0,0,0,0,0,0c0.01-0.01,0.02-0.02,0.04-0.03
										c0.02-0.01,0.03-0.01,0.05-0.01c0,0,0,0,0,0.01c0,0,0,0-0.01,0c-0.01,0-0.03,0-0.04,0.01c-0.01,0.01-0.03,0.02-0.04,0.04
										c0,0.02-0.01,0.04-0.03,0.05c0.01,0,0.01,0.01,0.02,0.01c0.01-0.01,0.02-0.01,0.03-0.02c0.01,0,0.02-0.01,0.04-0.01
										c0,0,0,0,0,0c0,0,0,0,0,0c-0.01,0-0.02,0-0.03,0.01c-0.01,0-0.02,0.01-0.03,0.01c0.03,0.01,0.06,0,0.09-0.01
										c0.01,0,0.01-0.01,0.02-0.01c0.01,0,0.01-0.01,0.02-0.01c0.01,0,0.02-0.01,0.02-0.01c0,0,0,0,0,0c0,0,0,0,0,0
										c-0.01,0-0.02,0-0.03,0.01c0,0-0.01,0.01-0.02,0.01c0,0-0.01,0.01-0.01,0.01c-0.01,0.01-0.02,0.02-0.02,0.04
										c0,0.01-0.01,0.02-0.01,0.03c0.01-0.01,0.02-0.03,0.03-0.04c0.01-0.01,0.03-0.03,0.04-0.04c0,0,0,0,0.01,0c0,0,0,0,0,0.01
										c-0.02,0.01-0.03,0.02-0.04,0.03c-0.01,0.01-0.02,0.03-0.03,0.05c0,0.01,0,0-0.01,0.01c0.01-0.02,0.03-0.03,0.04-0.04
										c0.02-0.01,0.04-0.02,0.05-0.02c0,0,0,0,0,0c0,0,0,0,0,0c-0.02,0-0.03,0.01-0.05,0.02c-0.02,0.01-0.03,0.03-0.05,0.05
										c0.02,0,0.05-0.01,0.07-0.01c0.01,0,0.02-0.02,0.03-0.02c0,0,0-0.01,0.01-0.01c0-0.01,0.01-0.01,0.01-0.01c0,0,0,0,0.01,0
										c0,0,0,0,0,0.01c0,0-0.01,0.01-0.01,0.01c0,0-0.01,0.01-0.01,0.02c0,0,0,0,0,0c-0.01,0.01-0.02,0.02-0.02,0.03
										c-0.01,0.03,0,0.05-0.01,0.08c0.01-0.01,0.02-0.01,0.02-0.02c0.01-0.01,0.01-0.02,0.02-0.03c0-0.01,0.01-0.03,0.02-0.04
										c0.01-0.01,0.02-0.02,0.03-0.02c0,0,0,0,0.01,0c0,0,0,0,0,0.01c-0.01,0-0.02,0.01-0.03,0.02
										c-0.01,0.01-0.02,0.02-0.02,0.03c0,0.01-0.01,0.02-0.02,0.03c-0.01,0.01-0.01,0.01-0.02,0.02c0.01,0,0.01,0,0.02,0
										c0.01,0,0.03-0.01,0.04-0.02c0.01-0.01,0.01-0.02,0.02-0.03c0,0,0,0,0.01,0c0,0,0,0,0,0.01c-0.01,0.01-0.01,0.02-0.02,0.03
										c-0.01,0.01-0.02,0.01-0.03,0.01c0.02,0,0.04-0.01,0.06-0.02c0.01,0,0.01-0.02,0.02-0.03c0-0.01,0.01-0.02,0.01-0.02
										c0.01-0.01,0.01-0.01,0.02-0.02c0,0,0,0,0.01,0c0,0,0,0,0,0.01c-0.01,0-0.01,0.01-0.02,0.02c0,0.01-0.01,0.01-0.01,0.02
										c0,0.01-0.01,0.03-0.01,0.04c0,0.03,0,0.05,0.01,0.08c0.01-0.01,0.01-0.02,0.02-0.03l0,0c0-0.01,0-0.03,0-0.05
										c0-0.01,0-0.03,0-0.04c0,0,0,0,0,0c0,0,0,0,0,0c0,0.01,0,0.03,0,0.05c0,0.01,0,0.02,0,0.04c0.01-0.01,0.01-0.01,0.01-0.01
										c0-0.01,0.01-0.02,0.01-0.03c0-0.01,0-0.02,0-0.03c0,0,0,0,0-0.01c0,0,0,0,0.01,0c0,0.01,0,0.02,0,0.03
										c0,0.01,0,0.02-0.01,0.03c0.01-0.01,0.01-0.01,0.02-0.02c0-0.01,0-0.02,0-0.03c0-0.01,0-0.02,0-0.03c0,0,0-0.01,0.01,0
										c0.01,0,0.01,0,0,0.01c0,0.01,0,0.01,0,0.02c0,0.01,0,0.02,0,0.03c0,0.01,0.01,0.02,0.02,0.03
										c0.01,0.01,0.02,0.02,0.03,0.04c0-0.02,0-0.04,0-0.05c0-0.02-0.01-0.04-0.02-0.05c0,0,0,0,0-0.01c0,0,0,0,0.01,0
										c0.01,0.01,0.02,0.03,0.02,0.05c0,0.02,0,0.04,0,0.07c0.01-0.01,0.05-0.04,0.04-0.08c0,0,0-0.01,0-0.01c0,0,0,0,0-0.01
										c0,0,0,0,0.01,0c0,0,0,0.01,0.01,0.01c0,0,0,0.01,0,0.01c0,0,0.01-0.01,0.01-0.01c0,0,0.01,0.01,0.01,0.01
										c0-0.01-0.01-0.02-0.01-0.02c0-0.01,0-0.02,0-0.03c0,0,0,0,0,0c0,0,0,0,0,0c0,0.01,0,0.02,0,0.03c0,0.01,0,0.02,0.01,0.03
										c0,0,0,0,0,0c0,0,0.01,0.01,0.01,0.01c0-0.01,0-0.02-0.01-0.03c0-0.02,0-0.03,0-0.05c0,0,0,0,0,0c0,0,0,0,0,0
										c0,0.01,0,0.03,0,0.04c0,0.02,0,0.03,0.01,0.04l0,0c0.01,0.01,0.01,0.02,0.02,0.03c0.01-0.03,0.01-0.05,0.01-0.08
										c0-0.01-0.01-0.03-0.01-0.04c0-0.01-0.01-0.01-0.01-0.02c-0.01-0.01-0.01-0.01-0.02-0.01c0,0,0,0,0-0.01c0,0,0,0,0.01,0
										c0.01,0,0.02,0.01,0.02,0.02c0.01,0.01,0.01,0.01,0.01,0.02c0.01,0,0.01,0.02,0.02,0.03c0.02,0.01,0.04,0.01,0.06,0.01
										c-0.01,0-0.02-0.01-0.03-0.01c-0.01-0.01-0.02-0.02-0.02-0.03c0,0,0,0,0-0.01c0,0,0,0,0.01,0
										c0.01,0.01,0.01,0.02,0.02,0.03C11.7,5.8,11.73,5.8,11.75,5.8c-0.01,0-0.02-0.01-0.02-0.02c-0.01-0.01-0.01-0.02-0.02-0.03
										c0-0.01-0.01-0.02-0.02-0.03c-0.01-0.01-0.02-0.02-0.03-0.02c0,0,0,0,0-0.01c0,0,0,0,0.01,0c0.01,0,0.03,0.01,0.04,0.02
										c0.01,0.01,0.02,0.02,0.02,0.04c0,0.01,0.01,0.02,0.02,0.03c0.01,0.01,0.01,0.01,0.02,0.02c-0.01-0.03-0.01-0.05-0.02-0.08
										c-0.01-0.02-0.03-0.04-0.03-0.04c0.01-0.01,0.02,0.01,0.03,0.02c0.02,0.01,0.05,0.01,0.07,0.01
										c-0.02-0.02-0.03-0.03-0.05-0.05c-0.02-0.01-0.03-0.02-0.05-0.01c0,0,0,0-0.01,0c0,0,0,0,0-0.01c0.02,0,0.04,0,0.05,0.02
										c0.02,0.01,0.03,0.02,0.04,0.04c0-0.01,0,0,0-0.01c-0.01-0.02-0.02-0.03-0.03-0.04c-0.01-0.01-0.03-0.02-0.04-0.03
										c0,0,0,0,0-0.01c0,0,0,0,0.01,0c0.02,0.01,0.03,0.02,0.05,0.03c0.01,0.01,0.02,0.03,0.03,0.04c0-0.01-0.01-0.02-0.01-0.03
										c-0.01-0.01-0.01-0.03-0.03-0.04c-0.01-0.01-0.03-0.02-0.03-0.02c0,0,0,0-0.01,0c-0.01,0-0.02-0.01-0.02-0.01c0,0,0,0,0,0
										c0,0,0,0,0,0c0.01,0,0.02,0,0.02,0.01c0,0,0.01,0.01,0.01,0.01c0.01,0,0.02,0.01,0.03,0.01c0.03,0.01,0.06,0.01,0.09,0.01
										c-0.01,0-0.02-0.01-0.03-0.01c-0.01,0-0.02-0.01-0.04-0.01c0,0,0,0,0,0c0,0,0,0,0,0c0.01,0,0.03,0,0.04,0.01
										c0.01,0,0.02,0.01,0.04,0.01c0.01,0,0.01,0,0.02-0.01c-0.02-0.01-0.03-0.03-0.03-0.05l0,0c-0.01-0.01-0.03-0.02-0.04-0.03
										c-0.01-0.01-0.03-0.01-0.04-0.01c0,0,0,0-0.01,0c0,0,0,0,0-0.01c0.02,0,0.03,0,0.05,0.01c0.01,0.01,0.03,0.02,0.04,0.03
										c0,0,0,0,0,0c0-0.04-0.03-0.06-0.06-0.06c-0.01,0-0.02,0-0.02,0c0-0.01,0.01-0.01,0.03-0.01c0.05-0.02,0.09-0.04,0.11-0.1
										c-0.01,0.01-0.01,0.01-0.02,0.02c-0.01,0.01-0.03,0.01-0.05,0.02c-0.01,0-0.02,0.01-0.03,0.01
										c-0.01,0.01-0.02,0.01-0.02,0.02c0,0,0,0-0.01,0s0,0,0-0.01c0.01-0.01,0.01-0.01,0.02-0.02c0.01-0.01,0.02-0.01,0.03-0.01
										c0.02-0.01,0.03-0.01,0.04-0.02c0.01,0,0.01-0.01,0.02-0.01c-0.02,0-0.04,0-0.06,0c-0.02,0.01-0.04,0.01-0.05,0.02
										c-0.01,0.01-0.02,0.02-0.02,0.03c0,0,0,0,0,0c0,0,0,0,0,0c0-0.01,0.01-0.03,0.03-0.04c0.01-0.01,0.02-0.01,0.03-0.02
										c0,0-0.01,0-0.01,0c-0.02,0-0.02-0.01,0-0.01c0.01,0,0.02-0.02,0.03-0.03c0.03-0.05,0.05-0.1,0.05-0.15
										c0,0.01-0.01,0.02-0.01,0.03c-0.01,0.01-0.02,0.02-0.03,0.02c0,0.02-0.01,0.04-0.02,0.05c-0.01,0.01-0.03,0.03-0.05,0.03
										c0,0-0.01,0,0-0.01c0.02-0.02,0.03-0.03,0.04-0.05c0.01-0.02,0.01-0.04,0.01-0.05c0,0,0,0,0,0c0,0,0,0,0,0
										c0,0.02,0,0.04-0.01,0.06c0,0.01-0.01,0.02-0.02,0.03c0.01-0.01,0.02-0.01,0.02-0.02c0.01-0.01,0.02-0.03,0.02-0.05
										c0,0,0,0,0,0c0.01,0,0.02-0.01,0.03-0.02c0.01-0.01,0.01-0.02,0.02-0.03c-0.02,0.01-0.04,0.01-0.06,0.01
										C11.8,5.15,11.78,5.16,11.75,5.17L11.75,5.17z"/>
								</defs>
								<clipPath id="SVGID_106_">
									<use xlink:href="#SVGID_105_"  style="overflow:visible;"/>
								</clipPath>
								<g class="st56">
									<defs>
										<rect id="SVGID_107_" x="-1.39" y="-0.11" width="26.85" height="26.85"/>
									</defs>
									<clipPath id="SVGID_108_">
										<use xlink:href="#SVGID_107_"  style="overflow:visible;"/>
									</clipPath>
									<rect x="5.44" y="-0.46" class="st57" width="12.07" height="11.96"/>
								</g>
							</g>
							<g>
								<defs>
									<path id="SVGID_109_" d="M12.61,4.81C12.61,4.81,12.6,4.81,12.61,4.81c-0.04,0.04-0.06,0.07-0.09,0.1
										c-0.03,0.01-0.03,0.02-0.02,0.05c-0.03,0-0.04,0.02-0.04,0.06c-0.03-0.05-0.07-0.07-0.11-0.05c0-0.03-0.02-0.05-0.06-0.05
										c-0.02,0-0.04-0.01-0.06-0.02c-0.01-0.01-0.01-0.01-0.02-0.01c-0.02-0.01-0.03,0-0.02,0.01c0.03,0.06,0.07,0.12,0.1,0.18
										c0,0.01,0,0.02,0.01,0.03c0.01,0.02,0.01,0.04,0.02,0.05c0,0,0,0.01,0,0.01c-0.03-0.02-0.06-0.02-0.09-0.02
										c-0.02,0-0.04-0.01-0.05-0.02c-0.01-0.01-0.01,0-0.01,0.01c0,0.07,0.02,0.14,0.07,0.2c-0.03,0-0.06,0-0.09,0
										c-0.01,0-0.01,0-0.01,0.01c0.02,0.04,0.04,0.08,0.11,0.11c-0.03,0.01-0.04,0.04-0.05,0.07c0,0.03-0.01,0.05-0.03,0.06
										c-0.01,0-0.01,0.01,0,0.01c0.03,0.03,0.07,0.03,0.12,0.02c-0.02,0.04-0.03,0.07-0.03,0.11c0.03,0.01,0.05,0,0.08,0
										c0,0.01-0.01,0.02-0.01,0.04c0,0.02-0.01,0.03-0.02,0.05c0,0-0.01,0.01,0,0.01c0.04,0.01,0.09,0.01,0.12,0
										c0,0.03,0,0.06,0.01,0.1c0,0.01,0.01,0.01,0.02,0c0.02-0.03,0.04-0.05,0.07-0.07c0,0.01,0.01,0.02,0.02,0.03
										c0.01,0.01,0.02,0.02,0.02,0.05c0,0,0,0.01,0,0.01c0.02,0,0.07-0.05,0.08-0.08c0.03,0.02,0.04,0.03,0.06,0.06
										c0.01,0.01,0.01,0,0.02,0c0.01-0.03,0.01-0.06,0.01-0.1c0.03,0.01,0.08,0.02,0.12,0.01c0.01,0,0.01-0.01,0-0.01
										c-0.01-0.02-0.01-0.03-0.01-0.05c0-0.02,0-0.03,0-0.04c0.03,0.01,0.05,0.02,0.08,0.01c0.01-0.04,0-0.08-0.02-0.11
										c0.04,0.01,0.09,0.01,0.12-0.01c0.01-0.01,0-0.01,0-0.01c-0.02-0.01-0.03-0.03-0.03-0.06c0-0.03-0.02-0.06-0.04-0.07
										c0.07-0.02,0.09-0.06,0.11-0.1c0-0.01,0-0.01-0.01-0.01c-0.03,0-0.06-0.01-0.09-0.01c0.06-0.06,0.09-0.12,0.09-0.2
										c0-0.01,0-0.02-0.01-0.01C13.02,5.15,13,5.16,12.98,5.16c-0.03,0-0.06,0-0.09,0.01c0-0.01,0-0.01,0-0.02
										c0.01-0.02,0.02-0.03,0.02-0.05c0.01-0.01,0.01-0.02,0.01-0.03c0.04-0.06,0.07-0.11,0.11-0.17
										c0.01-0.01-0.01-0.02-0.02-0.01C13,4.91,13,4.91,12.99,4.91c-0.02,0.01-0.03,0.02-0.06,0.02
										c-0.03,0.01-0.06,0.02-0.06,0.05c-0.04-0.02-0.07-0.01-0.11,0.04c0-0.03,0-0.06-0.04-0.06c0.01-0.02,0-0.04-0.02-0.05
										C12.68,4.88,12.64,4.85,12.61,4.81C12.62,4.81,12.61,4.81,12.61,4.81L12.61,4.81z"/>
								</defs>
								<clipPath id="SVGID_110_">
									<use xlink:href="#SVGID_109_"  style="overflow:visible;"/>
								</clipPath>
								<g class="st58">
									<defs>
										<rect id="SVGID_111_" x="-1.39" y="-0.11" width="26.85" height="26.85"/>
									</defs>
									<clipPath id="SVGID_112_">
										<use xlink:href="#SVGID_111_"  style="overflow:visible;"/>
									</clipPath>
									<rect x="6.54" y="-0.79" class="st59" width="12.11" height="12.32"/>
								</g>
							</g>
							<g>
								<defs>
									<path id="SVGID_113_" d="M12.88,5.19C12.88,5.19,12.88,5.19,12.88,5.19c-0.01,0-0.01,0.01-0.02,0.02
										c-0.01,0.01-0.02,0.02-0.03,0.02c0,0,0,0-0.01,0c0,0,0,0,0-0.01c0.01-0.01,0.02-0.02,0.03-0.02c0,0,0.01-0.01,0.01-0.01
										c-0.01,0-0.03,0-0.04-0.01c-0.01,0-0.02,0.01-0.03,0.01c-0.01,0-0.01,0.01-0.02,0.02c0,0,0,0-0.01,0c0,0,0,0,0-0.01
										c0-0.01,0.01-0.01,0.02-0.02c0,0,0.01,0,0.01-0.01c-0.01,0-0.03,0-0.04,0c0,0-0.01,0-0.01,0.01c0,0-0.01,0.01-0.01,0.01
										c0,0,0,0-0.01,0c0,0,0,0,0-0.01c0,0,0.01-0.01,0.01-0.01c0,0,0,0,0,0c-0.01,0-0.02,0-0.03,0l0,0c0,0-0.01,0.01-0.01,0.01
										c0,0,0,0.01-0.01,0.01c0,0,0,0-0.01,0c0,0,0,0,0-0.01c0,0,0-0.01,0.01-0.01c0,0,0,0,0,0c-0.02,0-0.03,0-0.05,0c0,0,0,0,0,0
										c0,0-0.01,0-0.01,0.01c0,0,0,0.01-0.01,0.01c0,0,0,0-0.01,0c0,0,0,0,0-0.01c0,0,0-0.01,0.01-0.01c0,0,0,0,0,0
										c-0.02,0-0.03,0-0.05,0c-0.02,0-0.03,0-0.05,0c0,0,0,0,0,0c0,0,0.01,0.01,0.01,0.01c0,0,0,0,0,0.01c0,0,0,0-0.01,0
										c0,0,0-0.01-0.01-0.01c0,0-0.01,0-0.01-0.01c0,0,0,0,0,0c-0.02,0-0.03,0-0.05,0c0,0,0,0,0,0c0,0,0,0.01,0.01,0.01
										c0,0,0,0,0,0.01c0,0,0,0-0.01,0c0,0,0-0.01,0-0.01c0,0,0-0.01-0.01-0.01c0,0,0,0,0,0c-0.01,0-0.02,0-0.03,0c0,0,0,0,0,0
										c0,0,0.01,0.01,0.01,0.01c0,0,0,0,0,0.01c0,0,0,0-0.01,0c0,0,0-0.01-0.01-0.01c0,0-0.01,0-0.01-0.01l0,0
										c-0.01,0-0.03,0-0.04,0c0.01,0,0.01,0.01,0.02,0.01c0.01,0.01,0.02,0.01,0.02,0.02c0,0,0,0,0,0.01c0,0,0,0-0.01,0
										c0-0.01-0.01-0.01-0.02-0.02c-0.01-0.01-0.02-0.01-0.03-0.01h0c-0.01,0-0.02,0-0.04,0c0,0,0.01,0.01,0.01,0.01
										c0.01,0.01,0.02,0.02,0.03,0.03c0,0,0,0,0,0.01c0,0,0,0-0.01,0c-0.01-0.01-0.02-0.02-0.03-0.03c0-0.01-0.01-0.02-0.02-0.02
										c-0.03-0.01-0.05-0.02-0.08-0.02c-0.02,0-0.04,0-0.06-0.01c0,0.01,0.01,0.02,0.02,0.03c0.01,0.01,0.02,0.02,0.03,0.02
										c0,0,0,0,0,0c0,0.02,0.01,0.04,0.02,0.05c0.01,0.01,0.01,0.02,0.02,0.02c-0.01-0.01-0.02-0.02-0.02-0.03
										c-0.01-0.02-0.01-0.04-0.01-0.06c0,0,0,0,0,0c0,0,0,0,0,0c0,0.02,0,0.03,0.01,0.05c0.01,0.02,0.02,0.03,0.04,0.05
										c0,0,0,0.01,0,0.01c-0.02-0.01-0.04-0.02-0.05-0.03c-0.01-0.01-0.02-0.03-0.02-0.05c-0.01,0-0.02-0.01-0.03-0.02
										c-0.01-0.01-0.01-0.02-0.01-0.03c0,0.06,0.02,0.11,0.05,0.15c0.01,0.01,0.02,0.03,0.03,0.03c0.01,0.01,0.01,0.01,0,0.01
										c0,0-0.01,0-0.01,0c0.01,0,0.02,0.01,0.03,0.02c0.02,0.01,0.03,0.02,0.03,0.04c0,0,0,0,0,0c0,0,0,0,0,0
										c0-0.01-0.01-0.02-0.02-0.03c-0.01-0.01-0.03-0.02-0.05-0.02c-0.02,0-0.04,0-0.06,0c0.01,0,0.01,0.01,0.02,0.01
										c0.01,0.01,0.02,0.01,0.04,0.02c0.01,0,0.02,0.01,0.03,0.01c0.01,0.01,0.02,0.01,0.02,0.02c0,0,0,0,0,0.01c0,0,0,0-0.01,0
										c-0.01-0.01-0.01-0.01-0.02-0.02c-0.01-0.01-0.02-0.01-0.03-0.01c-0.02-0.01-0.04-0.01-0.05-0.02
										c-0.01-0.01-0.02-0.01-0.02-0.02c0.02,0.05,0.06,0.08,0.11,0.1c0,0,0.01,0,0.01,0c0,0,0,0,0,0c0.01,0,0.02,0.01,0.04,0.01
										c0.01,0,0.02,0,0.03,0.01c0,0,0,0,0,0c0,0,0,0,0,0c-0.01,0-0.02,0-0.04-0.01c-0.01,0-0.02,0-0.02-0.01c0,0-0.01,0-0.01,0
										c-0.03,0-0.06,0.03-0.06,0.06c0,0,0,0,0,0c0.01-0.01,0.02-0.02,0.04-0.03c0.02-0.01,0.03-0.01,0.05-0.01c0,0,0,0,0,0.01
										c0,0,0,0-0.01,0c-0.01,0-0.03,0-0.04,0.01c-0.01,0.01-0.03,0.02-0.04,0.03c0,0.02-0.01,0.04-0.03,0.05
										c0.01,0,0.01,0.01,0.02,0.01c0.01,0,0.02-0.01,0.04-0.01c0.01,0,0.02-0.01,0.04-0.01c0,0,0,0,0,0c0,0,0,0,0,0
										c-0.01,0-0.02,0-0.04,0.01c-0.01,0-0.02,0.01-0.03,0.01c0.03,0.01,0.06,0,0.09-0.01c0.01,0,0.01-0.01,0.02,0
										c0.01,0,0.02-0.01,0.02-0.01c0.01,0,0.02-0.01,0.02-0.01c0,0,0,0,0,0c0,0,0,0,0,0c-0.01,0-0.02,0-0.03,0.01
										c0,0-0.01,0.01-0.02,0.01c0,0-0.01,0.01-0.01,0.01c-0.01,0.01-0.02,0.02-0.03,0.04c0,0.01-0.01,0.02-0.01,0.03
										c0.01-0.01,0.02-0.03,0.03-0.04c0.01-0.01,0.03-0.03,0.05-0.03c0,0,0,0,0.01,0c0,0,0,0,0,0.01
										c-0.02,0.01-0.03,0.02-0.04,0.03c-0.01,0.01-0.02,0.03-0.03,0.04c0,0.01,0,0-0.01,0.01c0.02-0.02,0.03-0.03,0.04-0.04
										c0.02-0.01,0.04-0.02,0.06-0.02c0,0,0,0,0,0.01c0,0,0,0-0.01,0c-0.02,0-0.03,0-0.05,0.01c-0.02,0.01-0.03,0.03-0.05,0.05
										c0.02,0,0.05,0,0.07-0.01c0.01,0,0.03-0.02,0.03-0.02c0,0,0.01-0.01,0.01-0.01c0,0,0.01-0.01,0.01-0.01c0,0,0,0,0.01,0
										c0,0,0,0,0,0.01c0,0-0.01,0.01-0.01,0.01c0,0-0.01,0.01-0.01,0.01c0,0,0,0,0,0c-0.01,0.01-0.02,0.02-0.02,0.03
										c-0.01,0.03-0.01,0.05-0.02,0.08c0.01,0,0.02-0.01,0.02-0.02c0.01-0.01,0.01-0.02,0.02-0.03c0.01-0.01,0.01-0.03,0.02-0.04
										c0.01-0.01,0.02-0.02,0.04-0.02c0,0,0,0,0.01,0c0,0,0,0,0,0.01c-0.01,0-0.02,0.01-0.03,0.02
										c-0.01,0.01-0.02,0.02-0.02,0.03c-0.01,0.01-0.01,0.02-0.02,0.03c-0.01,0.01-0.01,0.01-0.02,0.02c0.01,0,0.01,0,0.02,0
										c0.01,0,0.03-0.01,0.04-0.01c0.01-0.01,0.02-0.02,0.02-0.03c0,0,0,0,0.01,0c0,0,0,0,0,0.01c-0.01,0.01-0.01,0.02-0.02,0.03
										c-0.01,0.01-0.02,0.01-0.03,0.01c0.02,0,0.04,0,0.06-0.01c0.01,0,0.01-0.02,0.02-0.03c0-0.01,0.01-0.01,0.01-0.02
										c0.01-0.01,0.01-0.01,0.02-0.02c0,0,0,0,0.01,0c0,0,0,0,0,0.01c-0.01,0-0.01,0.01-0.02,0.01c0,0.01-0.01,0.01-0.01,0.02
										c0,0.01-0.01,0.03-0.01,0.04c0,0.03,0,0.05,0,0.08c0.01-0.01,0.01-0.02,0.02-0.02c0,0,0,0,0,0c0-0.01,0.01-0.03,0.01-0.04
										c0-0.01,0-0.03,0-0.04c0,0,0,0,0,0c0,0,0,0,0,0c0,0.01,0,0.03,0,0.05c0,0.01,0,0.02-0.01,0.04
										c0.01-0.01,0.01-0.01,0.01-0.01c0.01-0.01,0.01-0.02,0.01-0.03c0-0.01,0-0.02,0-0.03c0,0,0,0,0,0c0,0,0,0,0,0
										c0,0.01,0,0.02,0,0.03c0,0.01,0,0.02-0.01,0.03c0.01-0.01,0.02-0.01,0.02-0.02c0-0.01,0-0.02,0-0.03c0-0.01,0-0.02,0-0.03
										c0,0,0-0.01,0.01,0c0.01,0,0,0,0,0.01c0,0.01,0,0.01,0,0.02c0,0.01,0,0.02,0,0.03c0,0.01,0.01,0.02,0.02,0.03
										c0.01,0.01,0.02,0.02,0.02,0.04c0-0.02,0-0.04,0-0.05c0-0.02-0.01-0.04-0.01-0.05c0,0,0,0,0-0.01c0,0,0,0,0.01,0
										c0.01,0.01,0.01,0.03,0.01,0.05c0,0.02,0,0.04,0,0.06c0.01-0.01,0.05-0.03,0.05-0.08c0,0,0-0.01,0-0.01c0,0,0,0,0-0.01
										c0,0,0,0,0.01,0c0,0,0,0.01,0,0.01c0,0,0,0.01,0,0.01c0,0,0.01-0.01,0.01,0c0,0,0.01,0.01,0.01,0.01c0-0.01,0-0.02,0-0.02
										c0-0.01,0-0.02,0-0.03c0,0,0,0,0.01,0c0,0,0,0,0,0.01c0,0.01,0,0.02,0,0.03c0,0.01,0,0.02,0.01,0.03c0,0,0,0,0,0
										c0,0,0.01,0.01,0.01,0.01c0-0.01,0-0.02,0-0.03c0-0.02,0-0.03,0-0.05c0,0,0,0,0,0c0,0,0,0,0,0c0,0.01,0,0.03,0,0.04
										c0,0.02,0,0.03,0,0.04l0,0c0.01,0.01,0.01,0.02,0.02,0.03c0.01-0.03,0.01-0.05,0.01-0.08c0-0.01-0.01-0.03-0.01-0.04
										c0-0.01-0.01-0.01-0.01-0.02c-0.01-0.01-0.01-0.01-0.02-0.02c0,0,0,0,0-0.01c0,0,0,0,0.01,0c0.01,0,0.02,0.01,0.02,0.02
										c0,0.01,0.01,0.01,0.01,0.02c0.01,0,0.01,0.02,0.02,0.03c0.02,0.01,0.04,0.01,0.06,0.02c-0.01,0-0.02-0.01-0.03-0.01
										c-0.01-0.01-0.02-0.02-0.02-0.03c0,0,0,0,0-0.01c0,0,0,0,0.01,0c0,0.01,0.01,0.02,0.02,0.03c0.01,0.01,0.04,0.02,0.05,0.02
										c-0.01-0.01-0.01-0.01-0.02-0.02c-0.01-0.01-0.01-0.02-0.02-0.03c0-0.01-0.01-0.02-0.02-0.03
										c-0.01-0.01-0.02-0.02-0.03-0.02c0,0,0,0,0-0.01c0,0,0,0,0.01,0c0.01,0.01,0.02,0.01,0.03,0.02
										c0.01,0.01,0.02,0.02,0.02,0.04c0,0.01,0.01,0.02,0.02,0.03c0.01,0.01,0.01,0.01,0.02,0.02c-0.01-0.03-0.01-0.05-0.01-0.08
										c0-0.02-0.03-0.04-0.02-0.04c0.01-0.01,0.02,0.01,0.03,0.02c0.02,0.01,0.05,0.02,0.07,0.01c-0.02-0.02-0.03-0.04-0.05-0.05
										c-0.02-0.01-0.03-0.02-0.05-0.02c0,0,0,0,0,0c0,0,0,0,0,0c0.02,0,0.04,0.01,0.05,0.02c0.01,0.01,0.03,0.02,0.04,0.04
										c0-0.01,0,0,0-0.01c-0.01-0.02-0.02-0.03-0.03-0.05c-0.01-0.01-0.03-0.03-0.04-0.03c0,0,0,0,0-0.01c0,0,0,0,0.01,0
										c0.02,0.01,0.03,0.02,0.04,0.04c0.01,0.01,0.02,0.03,0.03,0.04c0-0.01,0-0.02-0.01-0.03c-0.01-0.01-0.01-0.03-0.02-0.04
										c-0.01-0.01-0.03-0.02-0.03-0.02c0,0,0,0-0.01,0c-0.01,0-0.02-0.01-0.02-0.01c0,0,0,0,0,0c0,0,0,0,0,0
										c0.01,0,0.02,0,0.02,0.01c0,0,0.01,0.01,0.01,0.01c0.01,0,0.02,0.01,0.03,0.01c0.03,0.01,0.06,0.02,0.09,0.01
										c-0.01,0-0.02-0.01-0.03-0.01c-0.01,0-0.02-0.01-0.03-0.01c0,0,0,0,0,0c0,0,0,0,0,0c0.01,0,0.03,0,0.04,0.01
										c0.01,0,0.02,0.01,0.03,0.02c0.01,0,0.01,0,0.02-0.01c-0.02-0.01-0.02-0.03-0.03-0.05l0,0c-0.01-0.01-0.03-0.03-0.04-0.04
										c-0.01-0.01-0.03-0.01-0.04-0.01c0,0,0,0-0.01,0c0,0,0,0,0-0.01c0.02,0,0.03,0,0.05,0.01c0.01,0.01,0.02,0.02,0.04,0.03
										c0,0,0,0,0,0c0-0.04-0.02-0.07-0.06-0.07c-0.01,0-0.03,0-0.02-0.01c0-0.01,0.01-0.01,0.03-0.01
										c0.05-0.01,0.09-0.04,0.11-0.09c-0.01,0.01-0.02,0.01-0.03,0.02C13,5.39,12.99,5.4,12.96,5.4c-0.01,0-0.02,0.01-0.03,0.01
										c-0.01,0-0.02,0.01-0.02,0.02c0,0,0,0-0.01,0c0,0,0,0,0-0.01c0.01-0.01,0.01-0.01,0.02-0.02c0.01,0,0.02-0.01,0.03-0.01
										c0.02,0,0.04-0.01,0.05-0.01c0.01,0,0.01-0.01,0.02-0.01c-0.02,0-0.04,0-0.06,0c-0.02,0.01-0.04,0.01-0.05,0.02
										c-0.01,0.01-0.03,0.02-0.03,0.03c0,0,0,0,0,0c0,0,0,0,0,0c0-0.01,0.01-0.03,0.03-0.04c0.01,0,0.02-0.01,0.03-0.01
										c0,0-0.01,0-0.01,0c-0.02,0-0.01-0.01,0-0.01c0.01,0,0.03-0.02,0.03-0.03c0.04-0.04,0.06-0.09,0.07-0.15
										c0,0.01-0.01,0.02-0.02,0.03C13,5.21,12.99,5.22,12.98,5.22c0,0.02-0.01,0.04-0.03,0.05C12.94,5.29,12.92,5.3,12.9,5.3
										c0,0-0.01,0,0-0.01c0.02-0.01,0.03-0.03,0.04-0.04c0.01-0.02,0.01-0.03,0.01-0.05c0,0,0,0,0,0c0,0,0,0,0,0
										c0,0.02,0,0.04-0.01,0.06c-0.01,0.01-0.01,0.02-0.02,0.03c0.01,0,0.02-0.01,0.03-0.02c0.01-0.01,0.02-0.03,0.02-0.05
										c0,0,0,0,0,0c0.01,0,0.02-0.01,0.03-0.02c0.01-0.01,0.01-0.02,0.02-0.03C13,5.18,12.98,5.17,12.96,5.18
										C12.93,5.18,12.91,5.18,12.88,5.19L12.88,5.19z"/>
								</defs>
								<clipPath id="SVGID_114_">
									<use xlink:href="#SVGID_113_"  style="overflow:visible;"/>
								</clipPath>
								<g class="st60">
									<defs>
										<rect id="SVGID_115_" x="-1.39" y="-0.11" width="26.85" height="26.85"/>
									</defs>
									<clipPath id="SVGID_116_">
										<use xlink:href="#SVGID_115_"  style="overflow:visible;"/>
									</clipPath>
									<rect x="6.56" y="-0.46" class="st61" width="12.07" height="11.96"/>
								</g>
							</g>
							<g>
								<defs>
									<path id="SVGID_117_" d="M15.8,5.23L15.8,5.23l-1.08-1.23L13.3,4.81l-0.24,2.87c0.69,0.06,1.37,0.17,2.03,0.34L15.8,5.23
										L15.8,5.23z"/>
								</defs>
								<clipPath id="SVGID_118_">
									<use xlink:href="#SVGID_117_"  style="overflow:visible;"/>
								</clipPath>
								<g class="st62">
									<defs>
										<rect id="SVGID_119_" x="-1.39" y="-0.11" width="26.85" height="26.85"/>
									</defs>
									<clipPath id="SVGID_120_">
										<use xlink:href="#SVGID_119_"  style="overflow:visible;"/>
									</clipPath>
									<rect x="7.47" y="-1.6" class="st63" width="13.92" height="15.21"/>
								</g>
							</g>
							<g>
								<defs>
									<path id="SVGID_121_" d="M13.58,5.4c0.05-0.01,0.1-0.01,0.14,0.01c0.02,0.01,0.04,0.02,0.05,0.03
										c0.02-0.02,0.04-0.03,0.07-0.05c0.03-0.02,0.07-0.05,0.1-0.06c0.05-0.03,0.1-0.04,0.15-0.05c0.05-0.01,0.11-0.01,0.16-0.01
										c0.04,0,0.09,0.02,0.13,0.04c0.04,0.02,0.07,0.04,0.11,0.06c0.04,0.02,0.08,0.04,0.12,0.06c0.05,0.02,0.11,0.03,0.17,0.03
										c0.03,0,0.06,0,0.09-0.01c0.02-0.01,0.04,0.01,0.01,0.02c-0.19,0.11-0.33,0.01-0.46-0.03c0.05,0.03,0.09,0.06,0.12,0.1
										c0.05,0.05,0.1,0.09,0.19,0.13c0.06,0.03,0.12,0.05,0.2,0.05c0.03,0,0.06,0,0.09-0.01c0.02,0,0.02,0,0.02,0.01
										c0,0.01,0,0.02-0.01,0.02c-0.05,0.03-0.09,0.04-0.14,0.04c-0.1,0.01-0.2-0.03-0.29-0.08c-0.08-0.04-0.13-0.09-0.19-0.13
										c-0.06-0.04-0.11-0.07-0.17-0.08c-0.05-0.01-0.11-0.01-0.16,0.01c0.01,0,0.03,0.01,0.04,0.02
										c0.03,0.02,0.06,0.02,0.11,0.03c0.02,0,0.02,0.02-0.02,0.04c-0.02,0.03-0.05,0.05-0.09,0.04
										c-0.05,0.04-0.07,0.01-0.09-0.01c0,0.02-0.01,0.03-0.01,0.04c0,0.01,0,0.02,0,0.02c0.01,0.01,0.01,0.03,0.01,0.04
										c0,0.01,0,0.02,0.01,0.02c0.01,0.01,0.02,0.02,0.02,0.04c0,0.01,0.01,0.02,0.01,0.02c0.01,0.01,0.02,0.02,0.03,0.03
										c0.03,0.01,0.05,0.04,0.05,0.07c0.02,0.01,0.04,0.03,0.04,0.05C14.2,5.99,14.21,6,14.22,6.01c0.05,0,0.1,0,0.15,0.01
										c0.04,0,0.08,0.03,0.11,0.07c0.02,0,0.04,0,0.07,0c0.02-0.01,0.05-0.02,0.07-0.02c0.04,0,0.09-0.01,0.13,0
										c0.03,0.01,0.05,0.02,0.07,0.04c0.03,0.03,0.07,0.03,0.1,0.01c0.05-0.02,0.09-0.02,0.13,0c0.02-0.01,0.04-0.01,0.06-0.01
										c0.02-0.02,0.04-0.02,0.05-0.02c0.03,0,0.05,0,0.05,0.04c0,0.01-0.01,0.02-0.02,0.02c-0.01,0.03-0.04,0.04-0.08,0.04
										c0,0.02-0.01,0.04-0.03,0.05c0.02,0.05,0,0.07-0.04,0.07c-0.01,0.01-0.02,0.02-0.04,0.02c-0.01,0.02-0.03,0.03-0.05,0.03
										c0,0.01,0.01,0.02,0.02,0.03c0.02,0.04-0.01,0.05-0.05,0.05c0.01,0.02,0.01,0.05,0.01,0.07c0.03,0.02,0.04,0.04,0.01,0.06
										c0.02,0.04,0.01,0.07-0.03,0.09c0,0.02,0,0.05-0.02,0.06c-0.01,0.01-0.03,0.01-0.02,0.03c0.02,0.03,0.01,0.07-0.01,0.07
										c-0.01,0-0.01,0-0.01,0.01c0,0,0,0.01-0.01,0.01c-0.03,0.02-0.06,0.04-0.09,0.06c0,0-0.01,0-0.01,0
										c-0.02,0.04-0.06,0.09-0.1,0.13c-0.01,0.03-0.02,0.05-0.05,0.07c0,0.01-0.01,0.02-0.02,0.02c0.02,0.02,0.02,0.04,0.01,0.05
										c-0.02,0.02-0.05,0.04-0.07,0.05c-0.06,0.01-0.09,0.01-0.11-0.01c-0.02-0.02-0.01-0.03,0-0.04c-0.03,0-0.04-0.02-0.04-0.04
										c0-0.01,0.01-0.01,0.02-0.01c0.02,0,0.04-0.01,0.05-0.02c0.01-0.01,0.02-0.02,0.03-0.03c0.01-0.04,0.03-0.06,0.06-0.07
										c0.03-0.01,0.05-0.04,0.08-0.07c0.02-0.03,0.03-0.05,0.05-0.08c-0.01-0.01-0.01-0.03-0.01-0.04
										c-0.01-0.01-0.02-0.02-0.03-0.03c-0.02,0-0.03-0.01-0.04-0.03c-0.01,0-0.01,0-0.02,0c-0.01,0.01-0.02,0.01-0.04,0.01
										c-0.02,0.02-0.04,0.04-0.06,0.05c-0.01,0.02-0.02,0.03-0.04,0.03c-0.05,0.01-0.08,0.07-0.11,0.09
										c-0.01,0.01-0.02,0.02-0.02,0.04c0,0.03-0.01,0.06-0.03,0.06c-0.02,0-0.02,0-0.02,0c-0.01,0-0.01,0-0.02,0
										c0.01,0.01,0.02,0.03,0,0.05c-0.01,0.02-0.03,0.02-0.05,0.02c-0.04,0-0.06,0-0.09-0.01c-0.03-0.01-0.03-0.03-0.03-0.04
										c-0.02-0.01-0.02-0.02-0.02-0.03c0-0.01,0.01-0.02,0.03-0.01c0.01-0.01,0.02-0.01,0.03-0.01c0.03-0.04,0.07-0.07,0.1-0.08
										c0.01-0.01,0.02-0.02,0.04-0.03c0-0.03,0.02-0.06,0.05-0.08c0-0.01,0.01-0.02,0.01-0.03c0-0.01,0-0.01,0-0.02
										c-0.01-0.02-0.02-0.04-0.01-0.06c0-0.01,0-0.02,0-0.03c-0.06,0.04-0.08,0.02-0.09-0.01c-0.02,0.02-0.04,0.03-0.06,0
										c-0.02,0.01-0.04,0.01-0.06,0.01c-0.01,0.01-0.03,0.01-0.04,0.01c-0.01,0.01-0.02,0.03-0.03,0.04
										c0,0.03-0.01,0.05-0.03,0.08c-0.01,0.03-0.02,0.06-0.04,0.09c0,0.01,0,0.02-0.01,0.03c0,0.03-0.01,0.05-0.02,0.06
										c0,0.01-0.01,0.03-0.02,0.04c0,0,0,0.01,0,0.01c0.01,0.02,0.01,0.04-0.01,0.06c-0.02,0.01-0.03,0.02-0.05,0.03
										c-0.02,0.01-0.04,0.01-0.06,0c-0.03-0.01-0.03-0.02-0.02-0.03c-0.01,0-0.02,0-0.03,0c-0.01,0-0.01-0.01-0.02-0.01
										c-0.01-0.01-0.01-0.02,0.01-0.03c0.02-0.01,0.03-0.02,0.05-0.03c0.01-0.01,0.01-0.02,0.02-0.02
										c0.01-0.02,0.02-0.04,0.04-0.04c0.01-0.03,0.02-0.06,0.04-0.08c0.01-0.01,0.01-0.02,0.01-0.02c0-0.01,0-0.01,0.01-0.02
										c0,0,0.01-0.01,0-0.01c-0.01-0.02,0-0.05,0.01-0.06c0.02-0.02,0.03-0.08,0.02-0.11c0-0.02-0.01-0.03,0-0.05
										c-0.01,0-0.01,0-0.02,0c-0.01-0.01-0.02,0-0.03,0.01c-0.01,0.02-0.01,0.03-0.02,0.03c-0.01,0.05-0.03,0.08-0.05,0.09
										c-0.01,0.02-0.01,0.04-0.01,0.06c0,0.02,0,0.04-0.01,0.04c-0.01,0-0.02,0.01-0.03,0.03c0,0.01,0,0.01,0,0.02
										c0.02,0.02,0.01,0.04,0,0.05c-0.04,0.03-0.08,0.03-0.12,0.02c-0.03-0.01-0.04-0.03-0.04-0.04c-0.05,0-0.04-0.04,0-0.05
										c0.04-0.01,0.08-0.04,0.1-0.08c0-0.05,0.01-0.08,0.04-0.08c0-0.03,0.01-0.05,0.02-0.08c0.01-0.02,0.02-0.05,0.02-0.07
										c-0.03-0.02-0.03-0.03,0-0.05c0.01,0,0.01-0.01,0-0.01c-0.02,0-0.01-0.02-0.01-0.03c0-0.01,0-0.01-0.01-0.01
										c-0.04-0.01-0.03-0.02-0.01-0.04c0.01-0.01,0.01-0.02,0-0.02c-0.01,0-0.01-0.02-0.01-0.03c-0.02-0.02-0.01-0.03,0-0.05
										c-0.01-0.01-0.02-0.03-0.02-0.04c-0.04,0-0.06-0.02-0.03-0.05c0.01-0.01,0.02-0.02,0.04-0.04
										c0.01-0.02,0.02-0.03,0.01-0.05c-0.01-0.03,0.03-0.05,0.06-0.07c0-0.01-0.01-0.02-0.01-0.02
										c-0.02-0.02-0.01-0.03,0.01-0.05c0-0.01-0.01-0.02-0.01-0.02c-0.04,0.01-0.04-0.02-0.02-0.06
										c-0.03-0.01-0.02-0.04,0.03-0.08c0-0.01,0-0.02,0.01-0.02c-0.02,0-0.04,0.01-0.06,0.02c-0.02,0.01-0.04,0.01-0.05,0
										c-0.01-0.01-0.01-0.02-0.02-0.02c-0.01-0.01-0.01-0.02-0.01-0.04c-0.05,0-0.06-0.04-0.03-0.06
										c0.02-0.01,0.03-0.03,0.04-0.04c0.01-0.04,0.04-0.06,0.07-0.09c0-0.01,0-0.02,0.01-0.03c-0.01-0.01-0.03-0.01-0.04-0.02
										c-0.01-0.01-0.02-0.03-0.03-0.04c-0.01-0.01-0.01-0.01-0.01-0.02C13.57,5.43,13.57,5.42,13.58,5.4L13.58,5.4z"/>
								</defs>
								<clipPath id="SVGID_122_">
									<use xlink:href="#SVGID_121_"  style="overflow:visible;"/>
								</clipPath>
								<g class="st64">
									<defs>
										<rect id="SVGID_123_" x="-1.39" y="-0.11" width="26.85" height="26.85"/>
									</defs>
									<clipPath id="SVGID_124_">
										<use xlink:href="#SVGID_123_"  style="overflow:visible;"/>
									</clipPath>
									<rect x="7.92" y="-0.3" class="st65" width="12.89" height="13.13"/>
								</g>
							</g>
							<g>
								<defs>
									<path id="SVGID_125_" d="M13.66,6.24C13.66,6.24,13.67,6.23,13.66,6.24c0.01-0.01,0.01-0.01,0.01-0.01
										c0.01-0.01,0.01-0.02,0.02-0.03c0.01-0.01,0.02-0.02,0.03-0.03c0,0,0,0,0,0c0,0,0,0,0,0c-0.01,0.01-0.02,0.02-0.03,0.03
										c-0.01,0.01-0.01,0.02-0.02,0.03c0,0,0,0.01,0,0.01c0,0.02,0,0.03,0.01,0.04c0,0,0,0,0,0c0-0.01,0.01-0.02,0.01-0.02
										c0.01-0.01,0.02-0.01,0.03-0.02c0.01-0.01,0.01-0.01,0.02-0.02c0-0.01,0.01-0.01,0.01-0.02c0,0,0,0,0,0c0,0,0,0,0,0
										c0,0.01-0.01,0.01-0.01,0.02c0,0.01-0.01,0.01-0.02,0.02l0,0c-0.01,0.01-0.02,0.01-0.02,0.02c0,0.01-0.01,0.01-0.01,0.02
										c0,0,0.01,0.01,0,0.02c-0.01,0.02-0.03,0.03,0,0.04c0,0.01,0,0.02,0.01,0.03c0.01,0.01,0,0.02-0.01,0.04
										c-0.01,0.01,0,0.01,0.01,0.01c0,0,0,0,0,0v0c0-0.01,0.01-0.02,0.02-0.02c0.01-0.01,0.01-0.01,0.02-0.02
										c0.01-0.01,0.02-0.02,0.02-0.03c0-0.01,0.01-0.02,0.01-0.03c0,0,0,0,0,0c0,0,0,0,0,0c0,0.01,0,0.02-0.01,0.03
										c-0.01,0.01-0.01,0.02-0.02,0.03c-0.01,0.01-0.01,0.01-0.02,0.02c-0.01,0.01-0.01,0.01-0.02,0.02
										c0.01,0.01,0.01,0.03,0.01,0.04c0,0,0.01,0,0.01,0l0,0c0,0,0.01-0.01,0.01-0.01l0.01-0.02c0,0,0,0,0,0c0,0,0,0,0,0
										l-0.01,0.02c0,0-0.01,0.01-0.01,0.01c0,0,0,0,0,0c0.01,0.01,0.01,0.02,0,0.03c-0.02,0.02-0.02,0.02,0,0.04
										c0,0.02,0,0.04,0,0.05c0,0,0,0,0,0c0,0.01,0,0.01,0,0.02l0,0.02c0,0,0,0,0,0c0,0,0,0,0,0l0-0.02c0,0,0,0,0,0
										c0,0,0,0.01,0,0.01c-0.01,0.03-0.03,0.06-0.03,0.1c-0.04,0.01-0.03,0.04-0.03,0.07c-0.03,0.04-0.06,0.07-0.11,0.08
										c-0.01,0-0.03,0.01-0.03,0.02c0,0,0.01,0.01,0.02,0.01c0.02-0.02,0.04-0.01,0.01,0.01c0,0,0,0.01,0,0.01
										c0.03,0.02,0.09,0.03,0.12,0.01c0.02-0.01,0.03-0.03,0.01-0.05c0-0.03,0.01-0.06,0.04-0.07c0-0.01,0-0.02,0-0.03
										c0-0.03,0-0.05,0.01-0.07c0,0,0-0.01,0.01-0.01c0.01,0,0.03-0.04,0.04-0.07c0-0.01,0-0.01,0-0.02
										c0-0.01,0.01-0.01,0.01-0.01c0.01-0.01,0.01-0.01,0.01-0.02c0.01-0.02,0.03-0.03,0.05-0.02c-0.01-0.01-0.01-0.03-0.01-0.05
										c0-0.02,0-0.04,0.01-0.06c0,0,0-0.01,0.01,0c0.01-0.01,0.01-0.03,0.02-0.04c0.01-0.01,0.01-0.03,0.02-0.04c0,0,0,0,0,0
										c0,0,0,0,0,0c-0.01,0.01-0.01,0.03-0.02,0.04c-0.01,0.01-0.01,0.03-0.02,0.04c0,0,0,0,0,0.01
										c-0.01,0.02-0.01,0.04-0.01,0.05c0,0.02,0.01,0.04,0.01,0.05c0,0,0,0,0,0C13.9,6.59,13.9,6.59,13.9,6.6
										c0,0.01,0,0.02,0,0.03c0.02,0.04,0,0.09-0.02,0.12c-0.01,0.01-0.01,0.03-0.01,0.05c0.01,0.01,0,0.02-0.01,0.03
										c0,0,0,0.01,0,0.01c0,0.01,0,0.02-0.01,0.03c-0.02,0.03-0.03,0.06-0.04,0.09C13.8,6.97,13.8,6.98,13.79,7
										c-0.01,0-0.01,0.01-0.02,0.02c-0.02,0.02-0.03,0.02-0.05,0.03c-0.02,0.01,0,0.01,0.01,0.02c0.01,0.01,0.02-0.01,0.03-0.02
										c0.01-0.01,0.02-0.01,0.01,0c-0.01,0.01-0.01,0.03-0.01,0.04c0,0.01,0.03,0.02,0.04,0.02c0.02,0,0.05-0.02,0.07-0.03
										c0.01-0.01,0.01-0.03,0.01-0.05l0,0c-0.01,0-0.02,0-0.03,0c-0.01,0-0.02-0.01-0.03-0.01c0,0,0,0,0,0c0,0,0,0,0,0
										c0.01,0,0.02,0.01,0.03,0.01c0.01,0,0.02,0,0.03,0l0-0.01C13.89,7,13.9,6.98,13.9,6.97c0.02-0.01,0.02-0.02,0.02-0.05
										c0.01-0.01,0.01-0.02,0.01-0.03c0.02-0.03,0.03-0.06,0.04-0.09C13.99,6.77,14,6.75,14,6.72C14,6.7,14,6.7,14.01,6.7
										c0.01-0.01,0.01-0.02,0.02-0.03c0,0,0,0,0,0c0,0,0,0,0,0c0-0.01,0-0.01,0.01-0.02c0-0.01,0-0.01,0.01-0.01
										c0-0.01,0-0.02,0-0.03c0-0.01,0-0.02-0.01-0.02c0,0-0.01-0.01-0.01-0.01c0,0,0-0.01,0-0.01c0,0,0,0,0,0c0,0,0,0,0,0
										c0,0,0,0,0,0.01c0,0,0,0.01,0.01,0.01l0,0c0.01,0.01,0.01,0.02,0.01,0.03c0,0.01,0,0.02,0,0.03l0,0
										c0,0-0.01,0.01-0.01,0.01c0,0,0,0.01-0.01,0.02c0,0,0,0,0,0c0.01,0,0.03,0,0.04-0.01c0,0,0,0,0,0
										c0.01-0.01,0.01-0.01,0.02-0.02c0-0.01,0.01-0.02,0.01-0.03c0,0,0,0,0,0c0,0,0,0,0,0c0,0.01-0.01,0.02-0.01,0.03
										c0,0.01-0.01,0.02-0.02,0.02c0.02,0.01,0.04,0,0.06-0.01c0-0.03,0-0.05,0-0.07c0-0.02,0.01-0.03,0.02-0.04c0,0,0,0,0,0
										c0,0,0,0,0,0c-0.01,0.01-0.01,0.02-0.02,0.04c0,0.02,0,0.04,0,0.06c0,0,0,0,0,0c0.01,0.01,0.01,0.03,0.03,0.01
										c0.01,0,0.01-0.01,0.02-0.01c0,0,0,0,0-0.01c0.02-0.02,0.03-0.03,0.05-0.05c0.02-0.01,0.03-0.03,0.05-0.04c0,0,0,0,0,0
										c0,0,0,0,0,0c-0.02,0.01-0.03,0.02-0.05,0.04c-0.01,0.01-0.03,0.03-0.04,0.04c0,0,0,0.01,0,0.01
										c0,0.02,0.01,0.03,0.03,0.02c0.02-0.01,0.02-0.01,0.03-0.02c0.01,0,0.01-0.01,0.02-0.01c0.01-0.01,0.02-0.01,0.03-0.02
										c0.01-0.01,0.02-0.01,0.03-0.02c0-0.01,0-0.02,0.01-0.03c0.01-0.03,0.02-0.05,0.04-0.07l0,0c0.02-0.01,0.03-0.02,0.04-0.03
										c0.01-0.01,0.02-0.02,0.02-0.04c0,0,0,0,0,0c0,0,0,0,0,0c-0.01,0.01-0.01,0.03-0.02,0.04c-0.01,0.01-0.02,0.02-0.04,0.03
										c-0.02,0.02-0.03,0.04-0.04,0.07c0,0.01-0.01,0.02-0.01,0.03c0,0,0,0,0,0c0,0,0,0,0,0l0,0c0,0.01,0,0.03,0,0.05
										c0.01,0,0.02-0.01,0.04-0.02c0.01-0.01,0.03-0.03,0.04-0.04c0,0,0,0,0,0c0-0.01,0.01-0.02,0.01-0.03
										c0.01-0.01,0.01-0.01,0.02-0.02c0,0,0,0,0,0c0,0,0,0,0,0c-0.01,0-0.01,0.01-0.02,0.02c-0.01,0.01-0.01,0.02-0.01,0.03
										c0,0.02,0,0.04,0,0.06c0,0,0,0,0,0c0.02-0.01,0.03-0.02,0.05-0.03c0,0,0,0,0,0c0,0.02,0,0.04,0,0.05
										c0,0.02,0.01,0.03,0.02,0.04c0.01-0.01,0.01-0.02,0.02-0.03c0,0,0-0.01,0.01-0.01l0,0c0.01-0.01,0.01-0.01,0.02-0.02
										c0,0,0.01-0.01,0.01-0.01c0,0,0.01-0.01,0.01-0.01c0,0,0,0,0,0c0,0,0,0,0,0c0,0-0.01,0.01-0.01,0.01
										c0,0-0.01,0.01-0.01,0.01l0,0c-0.01,0-0.01,0.01-0.02,0.01c0,0.01,0,0.01,0,0.02c0,0,0,0.01,0,0.01c0.01,0,0.02,0,0.03,0
										c0,0.02,0.01,0.03,0.03,0.03c0-0.01,0-0.02,0-0.03c0-0.01,0-0.02,0.01-0.03c0,0,0,0,0,0c0,0,0,0,0,0
										c0,0.01-0.01,0.02-0.01,0.03c0,0.01,0,0.02,0,0.03h0c0.01,0.02,0.02,0.03,0.04,0.03c0.01-0.01,0.01-0.02,0.01-0.02
										c0-0.01,0-0.02,0-0.03c0,0,0,0,0,0c0,0,0,0,0,0c0,0.01,0,0.02,0,0.03c0,0.01-0.01,0.02-0.01,0.03c0,0,0,0,0,0
										c0,0.01,0,0.02,0.01,0.03c0-0.01,0.01-0.01,0.01-0.02c0-0.01,0.01-0.01,0.02-0.02c0,0,0,0,0,0c0,0,0,0,0,0
										c-0.01,0.01-0.01,0.01-0.01,0.02c0,0.01-0.01,0.01-0.01,0.02c0,0,0,0.01,0.01,0.01c-0.03,0.06-0.07,0.14-0.14,0.17
										c-0.03,0.01-0.05,0.03-0.06,0.07c-0.01,0.01-0.02,0.02-0.03,0.03c-0.02,0.01-0.04,0.02-0.07,0.02
										c0,0.02,0.01,0.02,0.02,0.02c0.03-0.02,0.04-0.02,0.04-0.02c0,0,0,0.02-0.03,0.04c0,0,0,0,0,0.01
										c0.02,0.03,0.08,0.02,0.11,0.01c0.02-0.01,0.06-0.03,0.07-0.05c0-0.01-0.01-0.02-0.01-0.03c-0.04,0.01-0.03-0.03,0-0.02
										c0.01,0,0.01,0,0.02-0.02c0.03-0.01,0.05-0.03,0.05-0.06c0.03-0.04,0.07-0.07,0.09-0.11c0.01-0.01,0.01-0.02,0.01-0.03
										c0.01-0.01,0.01-0.02,0.01-0.02c0-0.01,0-0.02,0-0.03c0,0,0,0,0,0c0,0,0,0,0,0c0,0.01,0,0.02,0,0.03
										c0,0.01,0,0.01-0.01,0.02c0,0.01,0,0.01,0.01,0.01c0.03-0.02,0.06-0.04,0.09-0.06c0-0.01,0.01-0.02,0.02-0.02
										c0.01,0,0.01,0,0.01-0.01c0.01-0.02,0-0.03-0.01-0.05c-0.01-0.02,0.01-0.03,0.02-0.04c0.01-0.01,0.01-0.04,0.01-0.06h0
										c0,0,0-0.01,0-0.01c0-0.01,0-0.01-0.01-0.02c0,0,0,0,0,0c0,0,0,0,0,0c0,0.01,0,0.01,0.01,0.02c0,0,0,0,0,0.01
										c0.01-0.01,0.03-0.02,0.03-0.03c0-0.02,0-0.03-0.01-0.05c0,0-0.01,0-0.01,0.01c-0.01,0-0.01,0.01-0.02,0.01c0,0,0,0,0,0
										c0,0,0,0,0,0c0.01,0,0.01-0.01,0.02-0.01c0.01,0,0.01-0.01,0.02-0.01c0.01,0,0.01-0.01,0.02-0.01
										c0.01-0.01-0.02-0.03-0.03-0.03l0,0c-0.01-0.01-0.03-0.03-0.04-0.04c0,0,0,0,0,0c0,0,0,0,0,0l0.04,0.04
										c0-0.02,0-0.04,0-0.06c0-0.01,0-0.01-0.01-0.02c0,0,0,0,0,0c-0.01-0.01-0.02-0.01-0.03-0.02
										c-0.01-0.01-0.01-0.02-0.01-0.03c0,0,0,0,0,0c0,0,0,0,0,0c0,0.01,0,0.02,0.01,0.03c0,0.01,0.01,0.01,0.02,0.02
										c0.01,0.01,0.04,0,0.05,0c0.02-0.01-0.01-0.03-0.01-0.05c0-0.01-0.01-0.02-0.01-0.03c0,0,0,0,0.01,0
										c0,0-0.01-0.01-0.01-0.01c0,0-0.01-0.01-0.01-0.01c0,0,0,0,0,0c0,0,0,0,0,0c0,0,0.01,0,0.01,0.01c0,0,0.01,0.01,0.01,0.01
										c0,0,0,0,0.01,0c0.02,0,0.03-0.01,0.04-0.03C15.01,6.31,15,6.3,15,6.29c-0.01-0.01-0.02-0.01-0.02-0.02c0,0,0,0,0,0
										c0,0,0,0,0,0c0.01,0.01,0.02,0.01,0.02,0.02c0.01,0.01,0.02,0.01,0.02,0.02c0,0,0,0,0,0c0.02,0,0.02,0,0.03-0.02
										c0-0.01-0.01-0.02-0.01-0.02c0-0.01-0.01-0.01-0.02-0.02c0,0,0,0,0,0c0,0,0,0,0,0c0.01,0.01,0.01,0.01,0.02,0.02
										c0.01,0.01,0.01,0.02,0.01,0.02c0.01,0,0.02,0,0.02,0c0.02-0.01,0-0.04,0-0.06c0,0,0,0,0,0c0,0,0,0-0.01,0
										c0,0-0.01,0-0.01-0.01c0,0,0,0,0,0c0,0,0,0,0,0c0,0,0.01,0,0.01,0.01c0,0,0.01,0,0.01,0.01c0,0,0,0,0,0
										c0.01-0.01,0.02-0.02,0.02-0.03c0.01-0.02,0.01-0.01,0.03-0.01c0.02,0,0.04-0.01,0.05-0.03c0.01,0,0.01-0.01,0.01-0.02
										c0-0.02,0-0.03-0.02-0.03c-0.03,0-0.04,0-0.06,0.02c0,0,0,0.01,0.01,0.01c0,0,0,0,0,0c0,0,0,0,0,0c0,0,0-0.01-0.01-0.01
										c-0.02,0-0.04,0-0.07,0.01c0,0,0,0-0.01,0c0,0.01,0.01,0.01,0.01,0.02c0,0.01,0.01,0.02,0.01,0.02c0,0,0,0,0,0c0,0,0,0,0,0
										c0-0.01,0-0.01-0.01-0.02c0-0.01-0.01-0.02-0.02-0.02l0,0C15.02,6.12,15,6.12,14.98,6.12c0,0,0.01,0.01,0.01,0.01
										c0,0,0.01,0.01,0.01,0.01c0,0,0,0,0,0c0,0,0,0,0,0c0,0-0.01-0.01-0.01-0.01c0,0-0.01-0.01-0.01-0.01c0,0,0,0,0,0
										c-0.02,0-0.03,0.01-0.05,0.01c-0.01,0-0.02,0.01-0.03,0.01c0.01,0.01,0.01,0.02,0.02,0.03c0.01,0.01,0.01,0.02,0.01,0.03
										c0,0,0,0,0,0c0,0,0,0,0,0c0-0.01-0.01-0.02-0.01-0.03c-0.01-0.01-0.01-0.02-0.02-0.03c0,0,0,0,0,0c-0.01,0-0.02,0-0.03,0
										l0.01,0.02c0,0,0,0,0,0c0,0,0,0,0,0l-0.01-0.02c-0.01,0-0.02-0.01-0.03-0.01c0,0.01,0,0.02,0.01,0.03c0,0.02,0,0.03,0,0.05
										c0,0,0,0,0,0c0,0,0,0,0,0c0-0.02,0-0.03,0-0.05c0-0.01,0-0.03-0.01-0.04c0,0-0.01-0.01-0.01-0.01
										c-0.01-0.01-0.02-0.02-0.03-0.02c0,0,0,0.01,0,0.01c0,0.01,0,0.02-0.01,0.03c0,0,0,0,0,0c0,0,0,0,0,0
										c0.01-0.01,0.01-0.02,0.01-0.02c0-0.01,0-0.01,0-0.02c-0.02-0.01-0.04-0.01-0.06-0.01c0.01,0.01,0.01,0.01,0.02,0.02
										c0.01,0.01,0.01,0.02,0.02,0.03c0.01,0.01,0.01,0.02,0.02,0.02c0,0.01,0,0.02,0,0.03c0,0,0,0,0,0c0,0,0,0,0,0
										c0-0.01,0-0.02,0-0.03c0-0.01-0.01-0.02-0.01-0.02l0,0c0-0.01-0.01-0.02-0.02-0.03c-0.01-0.01-0.01-0.02-0.02-0.03l0,0
										c-0.01,0-0.01,0-0.02,0c0,0,0,0,0,0c0,0,0,0.01,0,0.01c0,0,0,0,0,0c0,0,0,0,0,0c0,0,0-0.01,0-0.01c0,0,0-0.01-0.01-0.01
										c-0.01,0-0.03,0-0.04,0c0.01,0.02,0.03,0.04,0.04,0.06c0.01,0.02,0.02,0.05,0.02,0.07c0,0,0,0,0,0c0,0,0,0,0,0
										c0-0.02-0.01-0.05-0.02-0.07c-0.01-0.02-0.02-0.04-0.04-0.06c0,0,0,0,0,0c-0.01,0-0.02,0-0.03,0.01
										c0,0,0.01,0.01,0.01,0.01c0.01,0,0.01,0.01,0.01,0.01c0,0,0,0,0,0c0,0,0,0,0,0c0,0-0.01-0.01-0.01-0.01
										c0,0-0.01-0.01-0.02-0.01c-0.01,0-0.01,0-0.02,0.01c0,0-0.01,0-0.01,0c0.01,0.01,0.02,0.01,0.03,0.02
										c0.01,0.01,0.02,0.02,0.03,0.04c0,0,0,0,0,0c0,0,0,0,0,0c-0.01-0.01-0.02-0.02-0.03-0.04c-0.01-0.01-0.02-0.02-0.03-0.03
										c-0.01,0-0.02,0-0.04,0c0.01,0.01,0.01,0.03,0.02,0.04c0.01,0.02,0.01,0.03,0.01,0.05c0,0,0,0,0,0c0,0,0,0,0,0
										c0-0.02,0-0.03-0.01-0.05c-0.01-0.02-0.01-0.03-0.02-0.05c-0.01,0-0.01,0-0.02,0c0,0.01,0.01,0.03,0.01,0.04
										c0,0.02,0.01,0.03,0.01,0.05c0,0,0,0,0,0c0,0,0,0,0,0c0-0.02-0.01-0.03-0.01-0.05c0-0.02-0.01-0.03-0.01-0.05
										c-0.02-0.02-0.04-0.05-0.07-0.06c0.01,0.01,0.01,0.02,0.01,0.02c0.01,0.01,0.01,0.03,0.01,0.04c0,0,0,0,0,0c0,0,0,0,0,0
										c0-0.01,0-0.03-0.01-0.04c0-0.01-0.01-0.02-0.02-0.03c-0.01,0-0.01,0-0.02,0c-0.02,0-0.04,0-0.06,0
										c0.01,0.01,0.03,0.03,0.02,0.04c0,0,0,0,0,0c0,0,0,0,0,0c0-0.01-0.01-0.03-0.03-0.04c-0.01,0-0.02,0-0.03,0
										c0.01,0.01,0.01,0.01,0.02,0.02c0.01,0.01,0.01,0.02,0.01,0.03v0c0,0.01,0,0.02,0.01,0.03c0.01,0.01,0.01,0.02,0.03,0.02
										c0,0,0,0,0,0c0,0,0,0,0,0c-0.01-0.01-0.02-0.01-0.03-0.02c-0.01-0.01-0.01-0.02-0.01-0.04c0-0.01-0.01-0.02-0.01-0.02
										c-0.01-0.01-0.01-0.01-0.02-0.02c-0.01,0-0.02,0-0.04,0c0.01,0.01,0.01,0.03,0.01,0.05c0,0.02,0,0.04,0,0.06c0,0,0,0,0,0
										c0,0,0,0,0,0c0-0.02,0-0.04,0-0.06c0-0.02-0.01-0.03-0.01-0.05h0C14.21,6.01,14.2,6.01,14.19,6c0,0,0,0,0,0
										c0,0,0,0.01-0.01,0.01c0,0,0,0,0,0c0,0,0,0,0,0c0,0,0-0.01,0-0.01c0,0,0,0,0-0.01c0,0,0,0-0.01,0
										c-0.01-0.03-0.01-0.04-0.03-0.04c0,0.01,0,0.01,0,0.02c0,0.01,0,0.02-0.01,0.03c0,0,0,0,0,0c0,0,0,0,0,0
										c0.01-0.01,0.01-0.02,0.01-0.02c0-0.01,0-0.02,0-0.02c0,0,0,0,0,0c-0.01-0.04-0.01-0.05-0.05-0.07c0,0,0,0.01,0,0.01
										c0,0.01,0,0.02-0.01,0.02c0,0,0,0,0,0c0,0,0,0,0,0c0-0.01,0-0.02,0-0.02c0-0.01,0-0.01,0-0.02
										c-0.01-0.01-0.02-0.02-0.03-0.03c0,0.01,0,0.03-0.01,0.04c0,0.02-0.01,0.03-0.02,0.05c0,0,0,0,0,0c0,0,0,0,0,0
										c0.01-0.02,0.02-0.03,0.02-0.05c0-0.01,0.01-0.03,0-0.04c0,0-0.01-0.01-0.01-0.01c0,0,0,0,0,0c0,0,0,0.01,0,0.01
										c0,0,0,0,0,0c0,0,0,0,0,0c0,0,0-0.01,0-0.01c0,0,0-0.01,0-0.01c0,0,0,0,0,0c0-0.01-0.01-0.02-0.02-0.03l0,0
										c0,0,0,0.01,0,0.01c0,0.01-0.01,0.01-0.01,0.02c0,0,0,0,0,0c0,0,0,0,0,0C14,5.8,14,5.8,14.01,5.79c0,0,0-0.01,0-0.01
										c0,0-0.01-0.01-0.01-0.01c0,0,0,0.01-0.01,0.01c0,0-0.01,0.01-0.01,0.01c0,0,0,0,0,0c0,0,0,0,0,0c0,0,0.01-0.01,0.01-0.01
										c0,0,0-0.01,0.01-0.01c0-0.01,0,0,0-0.01c0-0.02,0-0.03-0.01-0.04c0,0,0,0,0,0c0,0-0.01,0-0.02,0
										c-0.01,0-0.02,0.01-0.03,0.01c0,0,0,0,0,0c0,0,0,0,0,0c0.01-0.01,0.02-0.01,0.03-0.02c0.01,0,0.02-0.01,0.02-0.01
										c0,0,0-0.01,0-0.01c-0.03,0.01-0.05,0.01-0.06,0.02c-0.02,0-0.03,0-0.04-0.01c0,0,0,0,0,0c0,0,0,0,0,0
										c0.01,0,0.02,0.01,0.04,0.01c0.02,0,0.04-0.01,0.06-0.02l0,0c0-0.01,0.01-0.02,0.01-0.03c-0.01,0-0.02,0-0.03,0h0
										c0,0,0,0,0,0c0,0,0,0,0,0h0c0.01,0,0.02,0,0.03,0c0,0,0-0.01,0-0.01c0-0.01,0.02-0.01,0.02,0
										c0.01,0.01,0.02,0.02,0.02,0.02c0.02,0.01,0.03,0,0.05-0.01c0,0-0.01,0-0.01,0c0,0,0,0,0,0c0,0,0,0,0,0
										c0.01,0,0.01,0,0.02,0c0,0,0,0,0,0c0.03,0,0.05,0,0.08-0.03c-0.02,0-0.04,0-0.05,0c-0.02,0-0.03-0.01-0.04-0.01
										c0,0,0,0,0,0c0,0,0,0,0,0c0.01,0,0.02,0.01,0.04,0.01c0.02,0,0.03,0,0.05,0h0c0,0,0,0,0.01-0.01
										c0.01,0,0.02-0.01,0.02-0.02c-0.04,0-0.07-0.01-0.11-0.03c-0.01-0.01-0.02-0.02-0.04-0.02c-0.03,0-0.05,0-0.08,0.02
										c-0.01-0.01-0.01-0.01-0.02-0.02c-0.01,0-0.02-0.01-0.03-0.01c-0.01,0-0.02,0-0.04,0c0,0,0,0,0,0c0,0,0,0,0,0
										c0.01,0,0.02,0,0.04,0c0.01,0,0.02,0.01,0.03,0.01c0.04-0.01,0.07-0.02,0.1-0.02c0.03-0.01,0.06-0.01,0.1-0.01c0,0,0,0,0,0
										c0,0,0-0.01,0-0.01c0.02-0.02,0.02-0.03,0.02-0.05c-0.01-0.02-0.02-0.03-0.04-0.04c-0.02,0-0.05,0-0.07,0
										c-0.02,0-0.03,0.01-0.05,0.01c0.01,0,0.02,0.01,0.03,0.02c0.01,0.01,0.02,0.03,0.02,0.05c0,0,0,0.01,0,0.01
										c-0.01,0-0.01,0-0.01,0c0-0.02-0.01-0.04-0.02-0.05c-0.01-0.02-0.03-0.02-0.04-0.02c-0.03,0-0.05,0.01-0.07,0.01
										c-0.02,0-0.03,0.01-0.04,0.02c0.02,0,0.03,0,0.05,0c0.01,0.01,0.03,0.02,0.03,0.04c0,0,0,0.01,0,0.01
										c-0.01,0-0.01,0-0.01,0c-0.01-0.02-0.02-0.03-0.03-0.03c-0.02-0.01-0.07,0-0.09,0.01c-0.01,0.01-0.02,0.02-0.03,0.03
										c0,0,0,0-0.01,0c0,0,0-0.01,0-0.01c0.01-0.01,0.02-0.03,0.04-0.04c0.01-0.01,0.02-0.02,0.04-0.02
										c0.01-0.01,0.03-0.02,0.06-0.03c0.02-0.01,0.05-0.01,0.07-0.01C14.01,5.38,14,5.37,13.99,5.37c-0.01-0.01-0.03-0.01-0.04,0
										c-0.03,0.01-0.06,0.03-0.09,0.05c0,0,0,0,0.01,0c0.01,0,0.01,0,0.02,0c0,0,0.01,0,0,0.01c0,0.01-0.02,0-0.03,0
										c-0.01,0-0.01,0-0.02,0c0,0,0,0,0,0c-0.03,0.02-0.06,0.04-0.08,0.06l0,0c-0.02,0-0.04,0-0.05,0.01
										c-0.01,0.01-0.01,0.02-0.01,0.03c0,0.01-0.01,0.03-0.01,0.04c-0.03,0.02-0.06,0.05-0.07,0.08c0,0.01-0.01,0.02-0.02,0.03
										c0.01,0,0.01,0,0.01,0.01c0,0,0,0,0,0c0-0.01,0-0.01,0-0.02c0-0.01,0-0.02,0.01-0.02c0,0,0,0,0,0c0,0,0,0,0,0
										c0,0.01-0.01,0.01-0.01,0.02c0,0.01,0,0.02,0,0.03c0,0-0.01,0-0.01,0c0,0,0-0.01-0.01-0.01c0,0-0.01,0-0.02,0
										c-0.01,0.01-0.01,0.01-0.02,0.02c-0.01,0-0.01,0.01-0.01,0.02c0,0.01,0.01,0.02,0.03,0.02c0.03,0,0.01,0.02,0.03,0.04
										c0.01,0.01,0.02,0.01,0.02,0.02c0.01,0,0.02,0,0.03,0c0-0.02,0-0.03,0.01-0.03h0c0,0,0-0.01,0-0.01c0,0,0-0.01,0.01-0.01
										c0,0,0,0,0,0c0,0,0,0,0,0c0,0-0.01,0.01-0.01,0.01c0,0,0,0.01,0,0.01c0,0,0,0.01,0,0.02c0.02-0.01,0.04-0.01,0.06-0.01
										c0.04-0.04,0.05-0.03,0.02,0c0,0,0,0.01-0.01,0.01c-0.01,0.01-0.01,0.02-0.01,0.03c-0.01,0.01-0.06,0.05-0.04,0.06
										c0.01,0,0.02,0,0.02,0.01c-0.01,0.01-0.02,0.04-0.02,0.05c0,0.01,0.01,0,0.02,0c0,0,0,0,0,0c0.01-0.01,0.03-0.02,0.04-0.03
										c0.01-0.01,0.02-0.03,0.03-0.04c0,0,0,0,0.01,0c0-0.01,0.01-0.03,0.01-0.04c0-0.01,0.01-0.03,0.02-0.04c0,0,0,0,0.01,0
										c0.01,0.01,0.01,0.01,0.01,0.02c0,0,0.01,0,0.01,0c0,0,0.01,0,0.01,0c0,0,0.01-0.01,0.01-0.02c0,0,0,0,0,0c0,0,0,0,0,0
										c-0.01,0.01-0.01,0.01-0.02,0.02c-0.01,0-0.01,0.01-0.02,0.01c-0.01,0-0.01,0-0.02-0.01c0,0-0.01-0.01-0.01-0.01
										c-0.01,0.01-0.01,0.02-0.01,0.04c0,0.01-0.01,0.03-0.01,0.04c0,0,0,0,0,0.01c-0.01,0.02-0.02,0.03-0.03,0.05
										c-0.01,0.01-0.02,0.02-0.03,0.03c0,0.01,0,0.02,0.01,0.03c0.02-0.02,0.04-0.03,0.06-0.05c0.02-0.02,0.03-0.04,0.04-0.06
										c0,0,0,0,0,0c0,0,0,0,0,0c-0.01,0.01-0.01,0.02-0.02,0.03c0,0,0,0,0,0c0,0,0,0.01,0,0.02c0,0.01,0,0.03,0,0.04c0,0,0,0,0,0
										c0,0,0,0,0,0c0-0.01,0-0.03,0-0.04c0,0,0-0.01,0-0.01c0,0.01-0.01,0.01-0.01,0.02c-0.02,0.02-0.04,0.04-0.06,0.05l0,0
										c0,0,0,0,0,0C13.73,6,13.72,6,13.74,6.02c0.01,0,0.01-0.01,0.02-0.01l0.02-0.02c0,0,0,0,0,0c0,0,0,0,0,0l-0.02,0.02
										c-0.01,0-0.01,0.01-0.02,0.01c0,0.01,0,0.01,0.01,0.02c0,0,0,0,0,0c0.01-0.01,0.03-0.02,0.04-0.03c0,0,0,0,0,0c0,0,0,0,0,0
										c-0.01,0.01-0.03,0.02-0.04,0.03c0,0,0,0-0.01,0.01c-0.01,0.01-0.07,0.04-0.06,0.06v0c0.01,0,0.02-0.01,0.04-0.01
										c0.01-0.01,0.02-0.01,0.04-0.03c0,0,0,0,0,0c0,0,0,0,0,0c-0.01,0.01-0.02,0.02-0.04,0.03v0c0,0,0,0,0,0.01c0,0,0,0,0,0.01
										c0,0,0,0,0,0c0,0,0,0,0,0c0,0,0,0,0-0.01c0,0,0,0,0,0c-0.01,0-0.02,0.01-0.03,0.01c0,0.02-0.01,0.04-0.02,0.06
										c-0.01,0.01-0.06,0.05-0.04,0.06C13.64,6.24,13.65,6.24,13.66,6.24L13.66,6.24z"/>
								</defs>
								<clipPath id="SVGID_126_">
									<use xlink:href="#SVGID_125_"  style="overflow:visible;"/>
								</clipPath>
								<g class="st66">
									<defs>
										<rect id="SVGID_127_" x="-1.39" y="-0.11" width="26.85" height="26.85"/>
									</defs>
									<clipPath id="SVGID_128_">
										<use xlink:href="#SVGID_127_"  style="overflow:visible;"/>
									</clipPath>
									<rect x="7.94" y="-0.23" class="st67" width="12.86" height="13.04"/>
								</g>
							</g>
							<g>
								<defs>
									<path id="SVGID_129_" d="M17.02,8.69l1.16-2.64l-0.86-1.39L15.8,5.23l-0.71,2.79C15.76,8.19,16.4,8.42,17.02,8.69
										L17.02,8.69z"/>
								</defs>
								<clipPath id="SVGID_130_">
									<use xlink:href="#SVGID_129_"  style="overflow:visible;"/>
								</clipPath>
								<g class="st68">
									<defs>
										<rect id="SVGID_131_" x="-1.39" y="-0.11" width="26.85" height="26.85"/>
									</defs>
									<clipPath id="SVGID_132_">
										<use xlink:href="#SVGID_131_"  style="overflow:visible;"/>
									</clipPath>
									<rect x="9.5" y="-0.94" class="st69" width="14.29" height="15.22"/>
								</g>
							</g>
							<g>
								<defs>
									<path id="SVGID_133_" d="M15.54,6.25c0.77,0.2,1.51,0.45,2.22,0.77l-0.45,1.02c-0.66-0.29-1.34-0.53-2.05-0.71L15.54,6.25z
										"/>
								</defs>
								<clipPath id="SVGID_134_">
									<use xlink:href="#SVGID_133_"  style="overflow:visible;"/>
								</clipPath>
								<g class="st70">
									<defs>
										<rect id="SVGID_135_" x="-1.39" y="-0.11" width="26.85" height="26.85"/>
									</defs>
									<clipPath id="SVGID_136_">
										<use xlink:href="#SVGID_135_"  style="overflow:visible;"/>
									</clipPath>
									<rect x="9.67" y="0.65" class="st71" width="13.68" height="12.98"/>
								</g>
							</g>
							<g>
								<defs>
									<path id="SVGID_137_" d="M17.39,7.87l0.3-0.68c-0.7-0.31-1.44-0.57-2.19-0.76l-0.18,0.7c0.72,0.18,1.41,0.43,2.08,0.72
										L17.39,7.87z"/>
								</defs>
								<clipPath id="SVGID_138_">
									<use xlink:href="#SVGID_137_"  style="overflow:visible;"/>
								</clipPath>
								<g class="st72">
									<defs>
										<rect id="SVGID_139_" x="-1.39" y="-0.11" width="26.85" height="26.85"/>
									</defs>
									<clipPath id="SVGID_140_">
										<use xlink:href="#SVGID_139_"  style="overflow:visible;"/>
									</clipPath>
									<rect x="9.72" y="0.84" class="st73" width="13.56" height="12.63"/>
								</g>
							</g>
							<g>
								<defs>
									<path id="SVGID_141_" d="M15.71,6.96c0.02-0.01,0.04-0.01,0.06-0.01c0.02-0.01,0.04-0.01,0.06-0.01
										c0.01-0.01,0.02-0.01,0.03-0.01c0.01-0.01,0.01-0.01,0-0.02c-0.01-0.01-0.01-0.01-0.01-0.02
										c-0.03-0.02-0.05-0.05-0.06-0.08c-0.02-0.01-0.03-0.01-0.03-0.02c-0.01,0-0.02,0-0.03,0c-0.04,0-0.06-0.01-0.07-0.02
										c-0.01,0-0.02-0.01-0.03-0.03c0-0.01-0.01-0.01-0.01-0.02C15.6,6.72,15.61,6.7,15.63,6.7c0.01,0,0.03,0,0.04,0
										c0.01-0.01,0.03-0.01,0.05,0c0.02,0,0.03-0.01,0.05-0.03c0-0.01,0-0.01,0-0.02c0-0.01,0-0.01,0.01-0.01
										c0.02,0,0.04,0.01,0.05,0.03c0.03,0,0.05,0.02,0.07,0.04c0.04,0,0.06,0.01,0.07,0.03c0,0.01-0.01,0.02-0.03,0.03
										c0,0,0,0.01,0,0.01c0.01,0.01,0.02,0.02,0.02,0.03c0.02,0.01,0.04,0.02,0.06,0.03c0.05-0.01,0.14,0.03,0.27,0.11
										c0.08,0.01,0.16,0.04,0.23,0.07c0.02,0,0.03,0,0.05,0c0.13-0.02,0.26,0,0.38,0.09c0.05,0.01,0.09,0.02,0.13,0.04
										c0.03,0.01,0.06,0.02,0.09,0.02c0.05,0,0.1,0.02,0.15,0.04c0.05,0.01,0.11,0.03,0.14,0.07c0.02,0.03,0.02,0.05-0.01,0.06
										c-0.02,0.04-0.05,0.04-0.1,0.02c-0.04,0.01-0.07-0.02-0.11-0.05c-0.05-0.02-0.09-0.04-0.14-0.07
										C17.05,7.2,17.02,7.19,17,7.19c-0.02,0-0.03-0.01-0.04,0c-0.01,0,0,0.01,0,0.01c0.01,0.01,0.02,0.03,0.02,0.05
										c0,0.02,0,0.04,0,0.06c0,0.02,0.01,0.04,0.04,0.05c0.01,0.01,0.03,0.02,0.06,0.02c0.01,0,0.02,0.01,0.02,0.02
										c0.01,0.03,0.01,0.07,0.02,0.09c0,0.01,0.01,0.01,0.02,0.02c0.03,0.02,0.02,0.05-0.01,0.06c-0.03,0.02-0.05,0.04-0.08,0.04
										c-0.02,0.01-0.03,0-0.04-0.01c-0.01,0-0.02-0.01-0.02-0.01c-0.03-0.02,0-0.05,0.06-0.04c0-0.01,0.01-0.01,0.01-0.01
										c0-0.02-0.01-0.03,0-0.05c-0.01,0-0.01-0.01-0.02-0.01c-0.02-0.01-0.04-0.02-0.06-0.03c-0.03-0.03-0.08-0.06-0.13-0.08
										c-0.04,0-0.07-0.02-0.1-0.04c-0.01,0-0.03,0-0.04,0c-0.01,0-0.02,0-0.03,0.01c-0.01,0.02-0.03,0.01-0.04,0.01
										c-0.02,0-0.04,0-0.06,0c-0.01,0-0.02,0.01-0.03,0.01c-0.02,0-0.04,0-0.06,0.01c-0.01,0.01-0.02,0.01-0.04,0.01
										c-0.01,0-0.02-0.01-0.02-0.01c-0.02,0-0.03-0.01-0.03-0.01c-0.03-0.01-0.03-0.01-0.03-0.02c-0.03-0.01-0.02-0.04,0-0.04
										c0.03,0,0.05,0,0.08,0.01c0.02,0.01,0.05,0,0.07-0.01c0.01-0.01,0.02-0.02,0.03-0.03c-0.04,0-0.08-0.01-0.1-0.03
										c-0.07-0.04-0.12-0.05-0.16-0.02c-0.01,0.01-0.02,0.01-0.03,0c-0.01,0-0.02,0-0.03,0c-0.02,0.01-0.05,0-0.07-0.01
										c-0.03,0.01-0.07,0.01-0.1,0c-0.03,0.02-0.05,0.02-0.06,0.01c-0.01-0.01-0.02-0.01-0.04-0.02c-0.02,0-0.03-0.01-0.03-0.01
										c-0.02,0-0.03-0.01-0.03-0.02c-0.01-0.01-0.01-0.02,0-0.03c0.02-0.01,0.04-0.01,0.06,0c0.01,0.01,0.02,0.01,0.03,0.02
										c0.01,0,0.03,0,0.04,0c0.01-0.01,0.03-0.01,0.05-0.01c0.01-0.01,0.03-0.01,0.04-0.01c0,0,0-0.01,0-0.01
										c-0.02-0.01-0.04-0.02-0.05-0.04c-0.04,0-0.06-0.02-0.09-0.03c-0.02,0-0.04-0.01-0.05-0.02c-0.01,0-0.03,0-0.04,0
										c-0.03,0.01-0.05,0.01-0.08,0c-0.02,0-0.03,0-0.05,0c-0.02,0.02-0.03,0.02-0.05,0.01C15.68,7.02,15.67,7.01,15.65,7
										c-0.02,0-0.02-0.01-0.02-0.02c-0.02-0.01-0.01-0.02,0-0.03c0.01-0.01,0.03-0.01,0.06,0C15.69,6.96,15.7,6.96,15.71,6.96
										L15.71,6.96z"/>
								</defs>
								<clipPath id="SVGID_142_">
									<use xlink:href="#SVGID_141_"  style="overflow:visible;"/>
								</clipPath>
								<g class="st74">
									<defs>
										<rect id="SVGID_143_" x="-1.39" y="-0.11" width="26.85" height="26.85"/>
									</defs>
									<clipPath id="SVGID_144_">
										<use xlink:href="#SVGID_143_"  style="overflow:visible;"/>
									</clipPath>
									<rect x="10.02" y="1.03" class="st75" width="13.03" height="12.17"/>
								</g>
							</g>
							<g>
								<defs>
									<polygon id="SVGID_145_" points="16.68,5.22 16.68,5.23 16.74,5.5 16.53,5.68 16.52,5.69 16.53,5.7 16.79,5.79 16.85,6.06 
										16.85,6.07 16.86,6.06 17.07,5.88 17.33,5.97 17.34,5.98 17.34,5.96 17.29,5.69 17.49,5.51 17.5,5.5 17.49,5.5 17.23,5.41 
										17.18,5.13 17.17,5.12 17.16,5.13 16.96,5.31 16.69,5.22 									"/>
								</defs>
								<clipPath id="SVGID_146_">
									<use xlink:href="#SVGID_145_"  style="overflow:visible;"/>
								</clipPath>
								<g class="st76">
									<defs>
										<rect id="SVGID_147_" x="-1.39" y="-0.11" width="26.85" height="26.85"/>
									</defs>
									<clipPath id="SVGID_148_">
										<use xlink:href="#SVGID_147_"  style="overflow:visible;"/>
									</clipPath>
									<rect x="10.92" y="-0.47" class="st77" width="12.17" height="12.14"/>
								</g>
							</g>
						</g>
					</g>
				</g>
			</g>
		</g>
	</g>
</g>
</svg>
