<?xml version="1.0" encoding="utf-8"?>
<!-- Generator: Adobe Illustrator 22.0.1, SVG Export Plug-In . SVG Version: 6.00 Build 0)  -->
<svg version="1.1" id="Layer_1" xmlns="http://www.w3.org/2000/svg" xmlns:xlink="http://www.w3.org/1999/xlink" x="0px" y="0px"
	 viewBox="0 0 48 48" style="enable-background:new 0 0 48 48;" xml:space="preserve">
<style type="text/css">
	.st0{clip-path:url(#SVGID_2_);}
	.st1{fill:#FF1612;}
	.st2{fill:#F0F0F0;}
	.st3{fill:#C09300;}
	.st4{fill-rule:evenodd;clip-rule:evenodd;fill:#FFFFFF;}
	.st5{fill-rule:evenodd;clip-rule:evenodd;fill:#C09300;}
	.st6{clip-path:url(#SVGID_4_);}
	.st7{clip-path:url(#SVGID_6_);}
	.st8{fill:#FFFFFF;}
	.st9{fill-rule:evenodd;clip-rule:evenodd;fill:#FFFFFF;stroke:#C09300;stroke-width:6.258800e-02;stroke-miterlimit:2.4142;}
	.st10{clip-path:url(#SVGID_8_);fill-rule:evenodd;clip-rule:evenodd;fill:#FFFFFF;}
</style>
<g>
	<defs>
		<path id="SVGID_1_" d="M47.8,24c0,13.1-10.6,23.8-23.8,23.8C10.9,47.8,0.2,37.1,0.2,24C0.2,10.9,10.9,0.2,24,0.2
			C37.1,0.2,47.8,10.9,47.8,24z"/>
	</defs>
	<clipPath id="SVGID_2_">
		<use xlink:href="#SVGID_1_"  style="overflow:visible;"/>
	</clipPath>
	<g class="st0">
		<polygon class="st1" points="-11.6,0.2 59.6,0.2 59.6,16.1 -11.6,16.1 -11.6,0.2 		"/>
		<polygon class="st2" points="-11.6,16.1 59.6,16.1 59.6,31.9 -11.6,31.9 -11.6,16.1 		"/>
		<polygon points="-11.6,31.9 59.6,31.9 59.6,47.8 -11.6,47.8 -11.6,31.9 		"/>
		<g>
			<g>
				<path class="st3" d="M24,20.3l0.3-0.3l0,0l0,0c0,0,0.2,0.2,0.6,0.3c0,0,0-0.1,0-0.2l0-0.1l0.1,0c0,0,0.3,0.1,0.5,0.1
					c-0.2-0.3-0.3-0.5-0.3-0.8c-0.1-0.3-0.1-0.6-0.1-0.9c0-0.1,0-0.2,0-0.3c0-0.4,0-0.9-0.1-1.1C24.5,17,24.2,17,24,17.2
					c-0.1,0.2-0.2,0-0.2,0c0,0-0.1,0-0.3-0.1c-0.2-0.1-0.2-0.2-0.4-0.2c-0.2,0-0.3,0-0.4,0.1c0,0.1,0,0.2,0,0.3
					c0.4-0.7,1.1,0.4,1.1,0.4c-0.2-0.1-0.3,0-0.3,0c0,0.1,0,0.1,0,0.2c0,0.2,0,0.4,0,0.5c0,0.3-0.1,0.5-0.1,0.6
					c-0.2,0.5-0.6,1.1-0.7,1.3c0.1,0,0.4-0.1,0.6-0.2l0.1-0.1l0,0.1c0,0,0,0.2-0.1,0.3c0.1-0.1,0.3-0.2,0.5-0.3l0,0l0,0L24,20.3
					L24,20.3z M24.3,20.1L24,20.4l0,0l0,0l-0.3-0.3c-0.2,0.2-0.6,0.4-0.6,0.4l-0.1,0l0-0.1c0-0.1,0-0.2,0.1-0.3
					c-0.3,0.2-0.7,0.2-0.7,0.2l-0.1,0l0.1-0.1c0,0,0.5-0.7,0.8-1.4c0-0.1,0.1-0.3,0.1-0.5c0-0.2,0-0.3,0-0.5c0-0.2-0.1-0.4-0.2-0.5
					c0-0.1-0.1-0.1-0.2-0.1c-0.1,0-0.1,0-0.2,0c-0.1,0-0.1,0-0.1,0.1c-0.1,0.1-0.1,0-0.1,0l0,0l0,0c-0.1-0.3,0-0.5,0.2-0.6
					c0.2-0.1,0.4,0,0.7,0c0,0,0,0,0-0.1c0.1-0.1,0.2-0.1,0.3-0.1c0.1,0,0.3,0,0.4,0.1c0.2,0.1,0.5,0.2,0.6,0.3
					c0.2,0.3,0.2,0.8,0.2,1.2c0,0.1,0,0.2,0,0.3c0,0.3,0,0.6,0.1,0.9c0.1,0.3,0.2,0.6,0.4,0.8l0,0.1l-0.1,0c-0.2,0-0.4,0-0.5-0.1
					c0,0.1,0,0.2,0,0.2l0,0l0,0C24.6,20.3,24.4,20.2,24.3,20.1L24.3,20.1z"/>
				<path class="st3" d="M23.7,18.3c0,0-0.1,1.1-0.5,1.7l-0.1,0C23.6,19.5,23.7,18.3,23.7,18.3L23.7,18.3L23.7,18.3z"/>
				<path class="st3" d="M24,18.3c0,0.2-0.1,0.7-0.1,1.1c0,0.3-0.1,0.5-0.2,0.7l-0.1,0c0.1-0.2,0.1-0.4,0.2-0.7
					C23.9,18.9,23.9,18.5,24,18.3L24,18.3L24,18.3z"/>
				<path class="st3" d="M24.3,18.4c0,0.4,0,0.8,0,1.1c0,0.3,0,0.5,0.1,0.6l-0.1,0c0-0.1-0.1-0.3-0.1-0.6
					C24.2,19.1,24.2,18.7,24.3,18.4L24.3,18.4L24.3,18.4z"/>
				<path class="st3" d="M24.6,18.4c0,0.3,0.1,0.6,0.1,0.9c0.1,0.3,0.2,0.6,0.3,0.8l-0.1,0.1c-0.2-0.2-0.2-0.5-0.3-0.8
					C24.5,19,24.5,18.7,24.6,18.4L24.6,18.4L24.6,18.4z"/>
				<path class="st4" d="M23.9,16.9C24,16.9,24,17,23.9,16.9c0.1,0.1,0.1,0.2,0,0.2C23.9,17.1,23.8,17.1,23.9,16.9
					C23.8,17,23.9,16.9,23.9,16.9L23.9,16.9z"/>
			</g>
			<g>
				<path class="st3" d="M25.3,20c0.3,0,0.5,0,0.7-0.1c0.2-0.1,0.5-0.2,0.8-0.3c0.3-0.2,0.6-0.3,0.8-0.4c0.2-0.1,0.4-0.1,0.7-0.1
					c0.2,0,0.4,0.1,0.6,0.3c0.1,0.2,0.2,0.4,0.2,0.7c0,0.5,0.4,9,0.4,9l0,0.1l-0.1-0.1L24,24.2l0.1-0.1l2.5,2.2l-0.2-5.1l0.5-0.2
					l0.2,5.7l0.2,0.2L27,21l0.4-0.4l0.3,6.9l0.2,0.2l-0.3-7.3l0.5-0.5l0.4,8.4l0.2,0.2l-0.4-8.7c0.3,0.1,0.5,0.2,0.6,0.3l0,0
					c0-0.3-0.1-0.5-0.2-0.7c-0.1-0.1-0.3-0.2-0.5-0.3c-0.2,0-0.4,0-0.6,0.1c-0.2,0.1-0.4,0.2-0.8,0.4c-0.3,0.2-0.6,0.3-0.8,0.4
					C25.9,20,25.6,20.1,25.3,20L25.3,20L25.3,20z M26.2,25.6l-0.1-2.9L25.4,24L26.2,25.6L26.2,25.6z"/>
				<path class="st3" d="M22.7,20c-0.3,0-0.5,0-0.7-0.1c-0.2-0.1-0.5-0.2-0.8-0.3c-0.3-0.2-0.6-0.3-0.8-0.4
					c-0.2-0.1-0.4-0.1-0.7-0.1c-0.2,0-0.4,0.1-0.6,0.3c-0.1,0.2-0.2,0.4-0.2,0.7c0,0.5-0.4,9-0.4,9l0,0.1l0.1-0.1l5.4-4.9L24,24.2
					l-2.5,2.2l0.2-5.1l-0.5-0.2L21,26.9l-0.2,0.2L21,21l-0.4-0.4l-0.3,6.9L20,27.8l0.3-7.3L19.8,20l-0.4,8.4l-0.2,0.2l0.4-8.7
					c-0.3,0.1-0.5,0.2-0.6,0.3v0c0-0.3,0.1-0.5,0.2-0.7c0.1-0.1,0.3-0.2,0.5-0.3c0.2,0,0.4,0,0.6,0.1c0.2,0.1,0.4,0.2,0.8,0.3
					c0.3,0.2,0.6,0.3,0.8,0.4C22.1,20,22.4,20.1,22.7,20L22.7,20L22.7,20z M21.8,25.6l0.1-2.9l0.7,1.4L21.8,25.6L21.8,25.6z"/>
			</g>
			<g>
				<path class="st5" d="M22.9,28.5l0.4,0.4l0.3-0.2l0.3-2l-0.1,2L24,29l0.3-0.4l-0.1-2l0.3,2l0.3,0.2l0.4-0.4c0,0-0.8-3-0.8-3
					L24,25.6l-0.4-0.2C23.6,25.5,22.9,28.5,22.9,28.5L22.9,28.5z"/>
				<g>
					<defs>
						<polygon id="SVGID_3_" points="20.8,28.9 22.3,23.7 23.7,25.6 22.9,29.2 21.9,29.3 20.8,28.9 						"/>
					</defs>
					<use xlink:href="#SVGID_3_"  style="overflow:visible;fill-rule:evenodd;clip-rule:evenodd;fill:#FFFFFF;"/>
					<clipPath id="SVGID_4_">
						<use xlink:href="#SVGID_3_"  style="overflow:visible;"/>
					</clipPath>
					<g class="st6">
						<path class="st3" d="M21.8,25.3l0.2,0.5l1.1-1l0.1,0.1l-1.2,1c0,0,0,0,0,0c0,0,0,0-0.1,0l0,0L21.8,25.3L21.8,25.3L21.8,25.3z"
							/>
						<path class="st3" d="M22.5,24.3l0.2,1.9l0.3-0.4l0.3-0.4l0.1,0l-0.3,0.4l-0.4,0.5c0,0,0,0,0,0c0,0,0,0,0,0l0,0l0,0L22.5,24.3
							L22.5,24.3L22.5,24.3z"/>
						<path class="st3" d="M21.2,27.2l0.8-0.8l0,0c0,0,0,0,0.1,0c0,0,0,0,0,0l0.2,0.6l0.4-0.5l0,0l0,0c0,0,0,0,0.1,0c0,0,0,0,0,0
							l0.5,2.3l-0.1,0l-0.5-2.2l-0.4,0.5c0,0,0,0,0,0c0,0,0,0,0,0l0,0l0,0L22,26.5L21.2,27.2L21.2,27.2L21.2,27.2z"/>
						<polygon class="st3" points="21.3,26.9 22.1,29.6 22,29.6 21.3,26.9 21.3,26.9 						"/>
						<path class="st3" d="M21.1,29.1l1.1-1.5l0,0c0,0,0,0,0.1,0c0,0,0,0,0,0l0.2,0.6l1.2-1.9l0.1,0l-1.3,1.9c0,0,0,0,0,0
							c0,0,0,0-0.1,0l0,0l0,0l-0.2-0.6L21.1,29.1L21.1,29.1L21.1,29.1z"/>
						<path class="st3" d="M21.8,29.2l0.4-0.7l0,0l0,0c0,0,0,0,0.1,0c0,0,0,0,0,0l0.2,0.8l-0.1,0l-0.2-0.7L21.8,29.2L21.8,29.2
							L21.8,29.2z"/>
						<polygon class="st3" points="23.1,25.8 23.5,27.2 23.5,27.2 23,25.8 23.1,25.8 						"/>
					</g>
					
						<use xlink:href="#SVGID_3_"  style="overflow:visible;fill-rule:evenodd;clip-rule:evenodd;fill:none;stroke:#C09300;stroke-width:7.823700e-02;stroke-miterlimit:2.4142;"/>
				</g>
				<g>
					<defs>
						<polygon id="SVGID_5_" points="27.2,28.9 25.7,23.7 24.3,25.6 25.1,29.2 26.1,29.3 27.2,28.9 						"/>
					</defs>
					<use xlink:href="#SVGID_5_"  style="overflow:visible;fill-rule:evenodd;clip-rule:evenodd;fill:#FFFFFF;"/>
					<clipPath id="SVGID_6_">
						<use xlink:href="#SVGID_5_"  style="overflow:visible;"/>
					</clipPath>
					<g class="st7">
						<path class="st3" d="M26.2,25.3L26,25.8l-1.1-1l-0.1,0.1l1.2,1c0,0,0,0,0,0c0,0,0,0,0,0l0,0L26.2,25.3L26.2,25.3L26.2,25.3z"
							/>
						<path class="st3" d="M25.5,24.3l-0.2,1.9L25,25.8l-0.3-0.4l-0.1,0l0.3,0.4l0.4,0.5c0,0,0,0,0,0c0,0,0,0,0,0l0,0l0,0L25.5,24.3
							L25.5,24.3L25.5,24.3z"/>
						<path class="st3" d="M26.8,27.2L26,26.4l0,0c0,0,0,0-0.1,0c0,0,0,0,0,0L25.8,27l-0.4-0.5l0,0l0,0c0,0,0,0-0.1,0c0,0,0,0,0,0
							l-0.5,2.3l0.1,0l0.5-2.2l0.4,0.5c0,0,0,0,0,0c0,0,0,0,0,0l0,0l0,0l0.2-0.6L26.8,27.2L26.8,27.2L26.8,27.2z"/>
						<polygon class="st3" points="26.7,26.9 25.9,29.6 26,29.6 26.7,26.9 26.7,26.9 						"/>
						<path class="st3" d="M26.9,29.1l-1-1.5l0,0c0,0,0,0-0.1,0c0,0,0,0,0,0l-0.2,0.6l-1.2-1.9l-0.1,0l1.3,1.9c0,0,0,0,0,0
							c0,0,0,0,0.1,0l0,0l0,0l0.2-0.6L26.9,29.1L26.9,29.1L26.9,29.1z"/>
						<path class="st3" d="M26.1,29.2l-0.4-0.7l0,0l0,0c0,0,0,0-0.1,0c0,0,0,0,0,0l-0.2,0.8l0.1,0l0.2-0.7L26.1,29.2L26.1,29.2
							L26.1,29.2z"/>
						<polygon class="st3" points="24.9,25.8 24.5,27.2 24.5,27.2 25,25.8 24.9,25.8 						"/>
					</g>
					
						<use xlink:href="#SVGID_5_"  style="overflow:visible;fill-rule:evenodd;clip-rule:evenodd;fill:none;stroke:#C09300;stroke-width:7.823700e-02;stroke-miterlimit:2.4142;"/>
				</g>
			</g>
			<path class="st8" d="M22.1,29.5c0.1,0,0.5,0.1,1.3,0c0,0,0.1-0.1,0.2-0.2c0,0,0-0.2-0.3-0.2c0,0,0,0-0.1,0c-0.3,0-0.6,0-1.3-0.1
				c-0.7-0.1-1.1-0.2-1.3-0.3c0,0-0.1,0-0.1,0c0,0,0,0-0.1,0c0,0-0.1,0-0.1,0c0,0,0,0,0,0.1c0,0,0,0.1,0,0.1c0,0.1,0,0.2,0,0.2
				c0.1,0,0.8,0.2,1.3,0.3L22.1,29.5L22.1,29.5z"/>
			<g>
				<path class="st9" d="M24,20.7c-0.9,0.5-1.7,0.7-2.3,0.7c0,1.2,0.3,3.2,2.3,4.8c2-1.5,2.4-3.6,2.3-4.8
					C25.7,21.3,24.9,21.1,24,20.7L24,20.7z"/>
				<g>
					<defs>
						<path id="SVGID_7_" d="M24,20.9c-0.8,0.4-1.5,0.6-2.1,0.6c0,1.1,0.3,2.9,2.1,4.3c1.8-1.4,2.1-3.3,2.1-4.3
							C25.5,21.5,24.8,21.3,24,20.9L24,20.9z"/>
					</defs>
					<use xlink:href="#SVGID_7_"  style="overflow:visible;fill-rule:evenodd;clip-rule:evenodd;fill:#C09300;"/>
					<clipPath id="SVGID_8_">
						<use xlink:href="#SVGID_7_"  style="overflow:visible;"/>
					</clipPath>
					<path class="st10" d="M24,20.9c-0.3,0.2-0.6,0.3-0.8,0.4v3.8c0.2,0.3,0.5,0.5,0.8,0.8c0.3-0.2,0.6-0.5,0.8-0.7v-3.9
						C24.5,21.2,24.3,21,24,20.9L24,20.9z"/>
					
						<use xlink:href="#SVGID_7_"  style="overflow:visible;fill-rule:evenodd;clip-rule:evenodd;fill:none;stroke:#C09300;stroke-width:6.258900e-02;stroke-miterlimit:2.4142;"/>
				</g>
			</g>
			<g>
				<path class="st3" d="M22.1,29.5c0.1,0,0.5,0.1,1.3,0c0,0,0.1-0.1,0.2-0.2c0,0,0-0.2-0.3-0.2c0,0,0,0-0.1,0c-0.3,0-0.6,0-1.3-0.1
					c-0.7-0.1-1.1-0.2-1.3-0.3c0,0-0.1,0-0.1,0c0,0,0,0-0.1,0c0,0-0.1,0-0.1,0c0,0,0,0,0,0.1c0,0,0,0.1,0,0.1c0,0.1,0,0.2,0,0.2
					c0.1,0,0.8,0.2,1.3,0.3c0-0.1,0-0.3,0.3-0.3C22.2,29.1,22.1,29.4,22.1,29.5L22.1,29.5z M23.4,29.6c-1,0.1-1.4,0-1.4,0l0,0l0,0
					c0,0,0.1-0.3-0.1-0.3c-0.2,0-0.2,0.3-0.2,0.3l0,0l0,0c-0.6-0.1-1.4-0.3-1.4-0.3l0,0l0,0c0,0,0-0.1,0-0.3c0,0,0-0.1,0-0.1
					c0,0,0-0.1,0.1-0.1c0,0,0.1,0,0.1,0c0,0,0.1,0,0.1,0c0,0,0,0,0.1,0c0.2,0.1,0.7,0.2,1.3,0.3c0.7,0.1,1,0.1,1.3,0.1
					c0,0,0,0,0.1,0c0.4,0,0.3,0.3,0.3,0.3l0,0l0,0C23.5,29.4,23.5,29.5,23.4,29.6L23.4,29.6L23.4,29.6L23.4,29.6z"/>
				<path class="st3" d="M21.7,29.4c0,0,0,0.1,0.1,0.2c0,0.1,0.1,0.1,0.1,0.2c0,0,0-0.1,0.1-0.1c0,0,0,0,0.1-0.1
					c0-0.1,0.1-0.1,0.1-0.1l0.1,0c0,0,0,0.1-0.1,0.1c0,0,0,0-0.1,0.1c-0.1,0.1-0.1,0.2-0.1,0.2c0,0,0,0,0,0c0,0,0,0,0,0l0,0
					c0,0-0.1-0.2-0.1-0.2C21.6,29.5,21.6,29.5,21.7,29.4L21.7,29.4L21.7,29.4z"/>
				<path class="st3" d="M23.5,29.5c0,0.1,0,0.1,0.1,0.1c0,0,0.1,0,0.1,0.1c0.1,0,0.1,0.1,0.1,0.1c0-0.1,0.1-0.2,0.1-0.3
					c0-0.1,0-0.2-0.1-0.2c0,0-0.1-0.1-0.2-0.1l0-0.1c0.1,0,0.2,0,0.2,0.1c0,0.1,0.1,0.1,0.1,0.2c0,0.2-0.1,0.4-0.1,0.4c0,0,0,0,0,0
					c0,0,0,0,0,0l0,0l0,0c0,0,0,0,0-0.1c0,0,0-0.1-0.1-0.1c0,0-0.1,0-0.1-0.1C23.5,29.7,23.4,29.6,23.5,29.5L23.5,29.5L23.5,29.5z"
					/>
				<path class="st3" d="M20.3,28.8c0,0-0.1,0-0.1,0c-0.1,0-0.1,0-0.2,0.1c-0.1,0.1-0.1,0.1-0.1,0.2c0,0,0,0.1,0,0.1
					c0,0,0.1-0.1,0.1-0.1c0.1,0,0.2-0.1,0.2-0.1l0,0.1c0,0-0.1,0.1-0.2,0.1c-0.1,0-0.1,0.1-0.1,0.1l0,0c0,0,0,0,0,0c0,0,0,0,0,0l0,0
					c0-0.1,0-0.2,0-0.2c0-0.1,0.1-0.2,0.1-0.3c0.1-0.1,0.1-0.1,0.2-0.1C20.2,28.7,20.3,28.7,20.3,28.8L20.3,28.8L20.3,28.8z"/>
				<path class="st3" d="M20.4,28.8C20.4,28.9,20.4,28.9,20.4,28.8c0.1,0.1,0.3,0.1,0.4,0.2c0,0,0,0,0,0c0-0.1-0.2-0.1-0.2-0.1
					C20.6,28.8,20.4,28.8,20.4,28.8L20.4,28.8z"/>
				<path class="st3" d="M21.1,29.1C21.1,29.1,21.1,29.1,21.1,29.1c0.2,0.1,0.3,0.1,0.4,0.1c0,0,0,0,0,0c0-0.1-0.2-0.1-0.2-0.1
					C21.3,29,21.1,29,21.1,29.1L21.1,29.1z"/>
				<path class="st3" d="M22.2,29.3C22.2,29.3,22.2,29.3,22.2,29.3c0.2,0,0.3,0,0.4,0c0,0,0,0,0,0c0-0.1-0.2-0.1-0.2-0.1
					C22.4,29.2,22.2,29.2,22.2,29.3L22.2,29.3z"/>
				<path class="st3" d="M22.9,29.4C22.9,29.4,22.9,29.4,22.9,29.4c0.2,0,0.3,0,0.4,0c0,0,0,0,0,0c0-0.1-0.2-0.1-0.2-0.1
					C23.1,29.3,22.9,29.3,22.9,29.4L22.9,29.4z"/>
			</g>
			<path class="st8" d="M25.9,29.5c-0.1,0-0.5,0.1-1.3,0c0,0-0.1-0.1-0.2-0.2c0,0,0-0.2,0.3-0.2c0,0,0,0,0.1,0c0.3,0,0.6,0,1.3-0.1
				c0.7-0.1,1.1-0.2,1.3-0.3c0,0,0.1,0,0.1,0c0,0,0,0,0.1,0c0,0,0.1,0,0.1,0c0,0,0,0,0,0.1c0,0,0,0.1,0,0.1c0,0.1,0,0.2,0,0.2
				c-0.1,0-0.8,0.2-1.3,0.3L25.9,29.5L25.9,29.5z"/>
			<g>
				<path class="st3" d="M25.9,29.5c-0.1,0-0.5,0.1-1.3,0c0,0-0.1-0.1-0.2-0.2c0,0,0-0.2,0.3-0.2c0,0,0,0,0.1,0c0.3,0,0.6,0,1.3-0.1
					c0.7-0.1,1.1-0.2,1.3-0.3c0,0,0.1,0,0.1,0c0,0,0,0,0.1,0c0,0,0.1,0,0.1,0c0,0,0,0,0,0.1c0,0,0,0.1,0,0.1c0,0.1,0,0.2,0,0.2
					c-0.1,0-0.8,0.2-1.3,0.3c0-0.1,0-0.3-0.3-0.3C25.8,29.1,25.9,29.4,25.9,29.5L25.9,29.5z M24.6,29.6c1,0.1,1.4,0,1.4,0l0,0l0,0
					c0,0-0.1-0.3,0.1-0.3c0.2,0,0.2,0.3,0.2,0.3l0,0l0,0c0.6-0.1,1.4-0.3,1.4-0.3l0,0l0,0c0,0,0-0.1,0-0.3c0,0,0-0.1,0-0.1
					c0,0,0-0.1-0.1-0.1c0,0-0.1,0-0.1,0c0,0-0.1,0-0.1,0c0,0,0,0-0.1,0c-0.2,0.1-0.7,0.2-1.3,0.3C25.4,29,25,29,24.8,29
					c0,0,0,0-0.1,0c-0.4,0-0.3,0.3-0.3,0.3l0,0l0,0C24.5,29.4,24.5,29.5,24.6,29.6L24.6,29.6L24.6,29.6L24.6,29.6z"/>
				<path class="st3" d="M26.4,29.4c0,0,0,0.1-0.1,0.2c0,0.1-0.1,0.1-0.1,0.2c0,0,0-0.1-0.1-0.1c0,0,0,0-0.1-0.1
					c0-0.1-0.1-0.1-0.1-0.1l-0.1,0c0,0,0,0.1,0.1,0.1c0,0,0,0,0.1,0.1c0.1,0.1,0.1,0.2,0.1,0.2c0,0,0,0,0,0c0,0,0,0,0,0l0,0
					c0,0,0.1-0.2,0.1-0.2C26.4,29.5,26.4,29.5,26.4,29.4L26.4,29.4L26.4,29.4z"/>
				<path class="st3" d="M24.5,29.5c0,0.1,0,0.1-0.1,0.1c0,0-0.1,0-0.1,0.1c-0.1,0-0.1,0.1-0.1,0.1c0-0.1-0.1-0.2-0.1-0.3
					c0-0.1,0-0.2,0.1-0.2c0,0,0.1-0.1,0.2-0.1l0-0.1c-0.1,0-0.2,0-0.2,0.1c0,0.1-0.1,0.1-0.1,0.2c0,0.2,0.1,0.4,0.1,0.4c0,0,0,0,0,0
					c0,0,0,0,0,0l0,0l0,0c0,0,0,0,0-0.1c0,0,0-0.1,0.1-0.1c0,0,0.1,0,0.1-0.1C24.5,29.7,24.6,29.6,24.5,29.5L24.5,29.5L24.5,29.5z"
					/>
				<path class="st3" d="M27.7,28.8c0,0,0.1,0,0.1,0c0.1,0,0.1,0,0.2,0.1c0.1,0.1,0.1,0.1,0.1,0.2c0,0,0,0.1,0,0.1
					c0,0-0.1-0.1-0.1-0.1c-0.1,0-0.2-0.1-0.2-0.1l0,0.1c0,0,0.1,0.1,0.2,0.1c0.1,0,0.1,0.1,0.1,0.1l0,0c0,0,0,0,0,0c0,0,0,0,0,0h0
					c0-0.1,0-0.2,0-0.2c0-0.1-0.1-0.2-0.1-0.3c-0.1-0.1-0.1-0.1-0.2-0.1C27.8,28.7,27.8,28.7,27.7,28.8L27.7,28.8L27.7,28.8z"/>
				<path class="st3" d="M27.6,28.8C27.6,28.9,27.6,28.9,27.6,28.8c-0.1,0.1-0.3,0.1-0.4,0.2c0,0,0,0,0,0c0-0.1,0.2-0.1,0.2-0.1
					C27.4,28.8,27.6,28.8,27.6,28.8L27.6,28.8z"/>
				<path class="st3" d="M26.9,29.1C27,29.1,26.9,29.1,26.9,29.1c-0.2,0.1-0.3,0.1-0.4,0.1c0,0,0,0,0,0c0-0.1,0.2-0.1,0.2-0.1
					C26.7,29,26.9,29,26.9,29.1L26.9,29.1z"/>
				<path class="st3" d="M25.8,29.3C25.8,29.3,25.8,29.3,25.8,29.3c-0.2,0-0.3,0-0.4,0c0,0,0,0,0,0c0-0.1,0.2-0.1,0.2-0.1
					C25.6,29.2,25.8,29.2,25.8,29.3L25.8,29.3z"/>
				<path class="st3" d="M25.1,29.4C25.1,29.4,25.1,29.4,25.1,29.4c-0.2,0-0.3,0-0.4,0c0,0,0,0,0,0c0-0.1,0.2-0.1,0.2-0.1
					C25,29.3,25.2,29.3,25.1,29.4L25.1,29.4z"/>
			</g>
			<path class="st3" d="M20.1,29.2C20,29.3,20,29.5,20,29.5h0c0,0,0,0.1-0.1,0.1c0,0,0,0,0,0c0,0-0.2,0-0.2,0.1c0,0,0,0,0,0
				c-0.1,0.1-0.1,0.1-0.2,0.2c0,0,0.1,0.1,0.1,0.2c0,0.1,0.1,0.2,0.1,0.2c0,0,0.1,0.1,0.1,0.1l0,0.1l0-0.1c0,0,0,0,0,0.1
				c0,0,0,0.3,0.2,0.4c0.1,0,0.3,0.1,0.5,0.1c0.3,0.1,0.7,0.1,1,0.2c0.2,0,0.8,0.1,1.3,0.1c0.4,0,0.9,0,1.3,0v0c0.4,0,0.8,0,1.1,0
				c0.3,0,0.6,0,1-0.1c0.3,0,0.7-0.1,1-0.1c0.4-0.1,0.8-0.1,0.9-0.2c0.1,0,0.2-0.1,0.2-0.1c0-0.1,0-0.1,0-0.2l0,0c0,0,0-0.1,0-0.1
				c0,0,0.2-0.1,0.2-0.2c0,0,0-0.1,0-0.1c0-0.1,0-0.1,0-0.2c0,0-0.1-0.1-0.2-0.2c-0.1-0.2-0.2-0.1-0.2-0.1l0,0c0,0-0.1,0-0.1-0.1
				c0,0,0,0,0,0c0,0,0-0.2-0.1-0.3l0.2,0.1c0,0.1,0,0.1,0,0.1c0.1,0,0.2,0.1,0.3,0.2c0.1,0.1,0.1,0.2,0.2,0.2c0,0,0,0,0,0
				c0,0,0,0,0,0v0c0,0,0.1,0,0.1,0.1c0,0,0,0.1-0.1,0.1l0,0c0,0,0,0,0,0c0,0-0.1,0-0.1,0.1c0,0,0,0.1,0,0.1c0,0.2-0.2,0.3-0.2,0.3
				c0,0.1,0,0.2-0.1,0.3C28.3,30.9,28.2,31,28,31c-0.1,0-0.5,0.1-0.9,0.2c-0.3,0.1-0.7,0.1-1,0.1c-0.4,0-0.7,0.1-1,0.1
				c-0.3,0-0.7,0-1.1,0v0c-0.4,0-0.8,0-1.3,0c-0.6,0-1.1-0.1-1.3-0.1c-0.2,0-0.6-0.1-1-0.2c-0.2-0.1-0.5-0.1-0.6-0.2
				c-0.2-0.1-0.2-0.4-0.2-0.5c-0.1,0-0.1-0.1-0.1-0.1c0-0.1-0.1-0.1-0.1-0.2C19.3,30,19.3,30,19.3,30l0,0c0,0-0.1,0-0.1-0.1
				c0,0,0-0.1,0.1-0.1l0,0h0l0,0l0,0c0.1,0,0.1-0.1,0.2-0.2c0,0,0,0,0,0c0.1-0.1,0.2-0.2,0.3-0.2c0-0.1,0-0.1,0.1-0.2L20.1,29.2
				L20.1,29.2z"/>
			<g>
				<path class="st5" d="M20.6,29.5c0.1,0,0.1-0.1,0.1-0.1c0,0,0,0.1,0,0.1c0,0.1-0.1,0.4-0.2,0.5c0,0.1,0,0.1,0,0.1
					c0,0,0.1,0,0.1,0c0,0,0.1,0,0.1-0.1c0,0,0-0.1,0-0.1c0,0,0-0.1,0-0.1c0,0,0.1,0,0.1-0.1c0,0,0.1,0,0,0.1c0,0-0.1,0.2-0.1,0.3
					c0,0,0,0.1,0.1,0.1c0.1,0,0.1,0,0.1,0c0,0,0.1,0,0.1-0.1s0-0.1,0-0.1c0,0,0,0,0.1-0.1c0,0,0.1,0,0.1,0c0,0,0.1,0,0,0.1
					c0,0.1-0.1,0.3-0.1,0.3c0,0,0,0.1-0.1,0c-0.1,0-0.8-0.2-0.8-0.2c-0.1,0-0.1-0.1,0-0.2c0-0.1,0.1-0.1,0.2-0.1
					c0.1,0,0.1,0,0.1-0.1c0-0.1,0.1-0.2,0.1-0.2C20.6,29.6,20.5,29.6,20.6,29.5c-0.1,0.1-0.1,0.1-0.2,0.1c0,0,0-0.1,0-0.1
					C20.4,29.5,20.5,29.6,20.6,29.5L20.6,29.5z M20.4,30.1C20.4,30.1,20.4,30.1,20.4,30.1C20.4,30.1,20.4,30.1,20.4,30.1
					C20.5,30.1,20.4,30,20.4,30.1L20.4,30.1z"/>
				<path class="st5" d="M20.3,29.7c0,0,0,0.1,0,0.1c0,0,0.1,0,0.1,0c0,0,0,0,0-0.1C20.4,29.7,20.3,29.7,20.3,29.7L20.3,29.7z"/>
				<path class="st5" d="M20.3,30.4C20.3,30.4,20.3,30.4,20.3,30.4C20.4,30.5,20.4,30.5,20.3,30.4c0.1,0.1,0.1,0,0.1,0
					C20.4,30.3,20.4,30.3,20.3,30.4L20.3,30.4z"/>
				<path class="st5" d="M20.5,30.4C20.5,30.5,20.5,30.5,20.5,30.4c0.1,0.1,0.1,0.1,0.1,0.1C20.7,30.4,20.7,30.4,20.5,30.4
					C20.6,30.4,20.6,30.4,20.5,30.4L20.5,30.4z"/>
				<path class="st5" d="M20.9,30.5C20.8,30.5,20.9,30.6,20.9,30.5C20.9,30.6,20.9,30.6,20.9,30.5c0.1,0.1,0.1,0,0.1,0
					C21,30.5,20.9,30.5,20.9,30.5L20.9,30.5z"/>
				<path class="st5" d="M21.4,30.3c0,0.1,0,0.2-0.1,0.2c-0.1,0-0.2,0-0.2,0.1c0,0,0.2,0.1,0.2,0c0.1,0,0.1-0.1,0.2-0.1
					c0.1,0,0.1,0,0.2,0c0.1,0,0.1-0.1,0.1-0.1c0,0,0.1,0,0.1,0c0,0.1,0.1,0.1,0.1,0.1c0,0,0.1,0,0.1,0.1c0,0.1,0,0.1,0.1,0.2
					c0.1,0,0.2-0.1,0.2-0.2c0-0.1,0.1-0.6,0.1-0.7c0-0.1,0-0.2,0-0.1c-0.1,0-0.1,0-0.1,0.1c0,0,0,0,0,0.1c0,0,0,0.1,0,0.3
					c0,0.2,0,0.3-0.1,0.4c0,0-0.1,0.1-0.1,0c0-0.1,0-0.1,0-0.2c-0.1,0-0.1,0-0.1-0.1c0-0.1,0-0.1,0.1-0.1c0,0,0.1,0,0.1-0.1
					c0-0.1-0.1-0.1-0.1-0.2c0-0.1,0-0.2-0.1-0.2c-0.1,0-0.1,0.1-0.1,0.1c0,0.1,0,0-0.1,0.1c-0.1,0-0.1,0.1-0.1,0.1
					c0,0,0.1,0.1,0.1,0.1c0,0,0,0.1,0,0.1c0,0-0.2,0-0.2,0c0,0,0-0.2-0.1-0.2c0-0.1,0-0.1-0.1,0C21.4,30.2,21.4,30.2,21.4,30.3
					L21.4,30.3z M22,30.2C22,30.2,22,30.1,22,30.2c0.1,0,0.1,0,0.1,0c0,0,0,0.1,0,0.1C22,30.3,21.9,30.3,22,30.2
					C21.9,30.3,21.9,30.2,22,30.2L22,30.2z"/>
				<path class="st5" d="M22.7,30c0,0.1-0.1,0.6-0.1,0.7c0,0.1,0.1,0.1,0.1,0c0-0.1,0.1-0.5,0.1-0.5c0,0,0-0.1,0.1-0.1
					c0,0,0,0,0-0.1C22.8,30,22.8,29.9,22.7,30C22.7,29.9,22.7,29.9,22.7,30L22.7,30z"/>
				<path class="st5" d="M22.9,30.5c0.1,0.1,0.1,0.3-0.1,0.3c-0.2,0-0.1,0.1,0,0.1c0.1,0,0.2,0,0.3-0.1c0.1-0.1,0-0.1,0.2-0.1
					c0.1,0,0.4,0,0.5,0c0,0,0.1,0,0.1,0.1c0,0.1,0.1,0.1,0.1,0.1c0,0,0.1,0,0.2-0.1c0-0.1,0-0.1,0.1-0.1c0.1,0,0.3,0,0.3,0
					c0,0,0.1,0,0.1-0.1c0-0.1,0-0.2,0-0.3c0,0-0.1,0-0.1,0c0,0-0.1,0-0.1,0.1c0,0,0,0.1-0.1,0.1c0,0-0.1,0.1-0.1,0
					c0-0.1,0-0.1,0-0.1c0,0,0-0.1-0.1-0.1c-0.1,0-0.4,0-0.5,0c-0.1,0-0.1,0-0.1-0.1c0-0.1,0-0.1-0.1-0.1c-0.1,0-0.1,0.1-0.1,0.1
					c0,0,0,0.2,0,0.2c0,0-0.1,0.1-0.1,0c0-0.1-0.1-0.2-0.1-0.2c0,0,0,0-0.1,0C22.9,30.4,22.9,30.5,22.9,30.5L22.9,30.5z M24.3,30.6
					C24.3,30.6,24.3,30.6,24.3,30.6C24.4,30.6,24.4,30.6,24.3,30.6C24.4,30.6,24.4,30.6,24.3,30.6C24.3,30.7,24.3,30.6,24.3,30.6
					L24.3,30.6z M23.5,30.5c0.1,0,0.3,0,0.4,0c0,0,0.1,0,0.1,0.1c0,0,0,0.1,0,0.2c0,0,0,0.1-0.1,0c0,0,0-0.1,0-0.1c0,0,0,0-0.1,0
					c-0.1,0-0.2,0-0.3,0c-0.1,0-0.1,0-0.1-0.1C23.4,30.6,23.4,30.5,23.5,30.5L23.5,30.5z"/>
				<path class="st5" d="M24.7,30C24.6,30.1,24.6,30.1,24.7,30c0,0.1,0.1,0.1,0.1,0.1C24.8,30.1,24.8,30.1,24.7,30
					C24.7,30,24.7,30,24.7,30L24.7,30z"/>
				<path class="st5" d="M24.7,30.2C24.6,30.2,24.6,30.3,24.7,30.2c0,0.1,0,0.2,0.1,0.1c0,0,0.1-0.1,0-0.1
					C24.7,30.2,24.7,30.2,24.7,30.2L24.7,30.2z"/>
				<path class="st5" d="M24.9,30.1c0,0.1,0,0.2,0,0.2c0,0,0,0.1,0,0.1c0,0-0.1,0.1-0.1,0.1c0,0.1,0,0.1,0,0.2c0,0.1,0,0.1,0.1,0.1
					c0.1,0,0.4,0,0.5,0c0.1,0,0.1,0,0.1-0.1c0-0.1,0-0.3,0-0.3c0-0.1,0-0.1-0.1,0c0,0-0.1,0-0.1,0.1c0,0,0.1,0,0.1,0.1
					c0,0.1,0,0.1-0.1,0.2c-0.1,0-0.1,0.1-0.2-0.1C25,30.4,25,30,25,30c0,0,0-0.1-0.1,0c0,0-0.1,0.1-0.1,0.1
					C24.8,30.1,24.8,30.1,24.9,30.1C24.9,30.1,24.9,30.1,24.9,30.1L24.9,30.1z M24.8,30.6C24.8,30.6,24.8,30.6,24.8,30.6
					C24.9,30.7,24.9,30.6,24.8,30.6C24.9,30.6,24.9,30.5,24.8,30.6L24.8,30.6z"/>
				<path class="st5" d="M25,30.8C25,30.9,25,30.9,25,30.8c0.1,0,0.1,0,0.2,0c0.1,0,0.1,0.1,0.1,0.1c0,0,0,0.1-0.1,0.1
					C25.1,31,25.1,30.9,25,30.8C25,30.9,25,30.9,25,30.8C25,31,24.9,31,25,30.8C24.8,30.9,24.9,30.9,25,30.8
					C24.9,30.8,24.9,30.8,25,30.8L25,30.8z"/>
				<path class="st5" d="M25.5,30.5c0.1,0.1,0.1,0,0.1,0.2c0,0.1-0.1,0.2-0.1,0.2c-0.1,0-0.1,0.1,0,0.1c0.1,0,0.2,0,0.2-0.1
					c0.1,0,0.1-0.2,0-0.3c-0.1-0.2-0.1-0.2-0.1-0.2c0,0,0,0-0.1,0C25.5,30.4,25.4,30.5,25.5,30.5L25.5,30.5z"/>
				<path class="st5" d="M25.9,30.4c-0.1,0.1-0.1,0.1-0.1,0.2c0,0.1,0,0.1,0.1,0.1c0.1,0,0.1,0,0.2,0c0,0,0,0.1-0.1,0.1
					c-0.1,0-0.1,0.1,0,0.1c0.1,0,0.2,0,0.2-0.1c0-0.1,0-0.1,0.1-0.1c0.1,0,0.1,0,0.2,0c0,0,0.1,0,0.1,0.1c0,0.1,0.1,0.1,0.2,0.1
					c0.1,0,0.1-0.1,0.2-0.2c0-0.1,0-0.1,0.1-0.1c0,0,0.1,0,0.1,0c0,0,0.2,0,0.3,0c0.1-0.1,0.1-0.1,0.2-0.1c0.1,0,0.3-0.1,0.3-0.1
					c0.1,0,0.1-0.1,0.1-0.1c0,0-0.1,0-0.1-0.1c0,0-0.1,0-0.1,0c0,0-0.1,0.1-0.2,0c-0.1-0.1-0.1-0.2-0.1-0.3c0-0.1,0-0.2-0.1-0.3
					c-0.1-0.1-0.2,0-0.3,0c-0.1,0-0.1,0.1,0,0.1c0,0,0,0.1,0.1,0c0.1,0,0.1-0.1,0.2,0c0,0.1,0,0.1,0.1,0.3c0,0.2,0,0.2,0.1,0.2
					c0,0,0,0.1-0.1,0.1c0,0-0.1-0.1-0.2-0.1c-0.1,0-0.1,0.1-0.2,0.1c0,0-0.1,0.1-0.1,0c-0.1-0.1-0.1-0.1-0.2-0.2
					c-0.1,0-0.1-0.2-0.1-0.2c0,0-0.1,0-0.1,0c0,0-0.1,0,0,0.1c0,0.1,0.1,0.1,0,0.1c0,0-0.1,0.1-0.1,0.2c0,0.1,0,0.1-0.1,0.1
					c0,0-0.1-0.1-0.1-0.1C26.1,30.3,26.1,30.3,25.9,30.4L25.9,30.4z M26,30.5C26,30.5,26,30.5,26,30.5C26,30.5,26,30.5,26,30.5
					C26.1,30.5,26,30.4,26,30.5L26,30.5z M27.1,30.3C27.1,30.4,27.1,30.4,27.1,30.3C27.2,30.4,27.2,30.4,27.1,30.3
					C27.2,30.3,27.2,30.3,27.1,30.3L27.1,30.3z M26.7,30.5C26.7,30.6,26.7,30.6,26.7,30.5C26.8,30.6,26.8,30.6,26.7,30.5
					C26.8,30.5,26.7,30.5,26.7,30.5L26.7,30.5z M26.6,30.4C26.6,30.4,26.7,30.4,26.6,30.4c0.1,0,0.1,0,0.1,0
					C26.7,30.3,26.6,30.3,26.6,30.4L26.6,30.4z M26.4,30.4C26.4,30.5,26.5,30.5,26.4,30.4C26.5,30.4,26.5,30.4,26.4,30.4
					C26.4,30.3,26.4,30.3,26.4,30.4L26.4,30.4z"/>
				<path class="st5" d="M27.6,30.4c0,0,0,0.1,0,0.1c0,0,0.1,0,0.1,0c0,0,0-0.1,0-0.1C27.7,30.4,27.6,30.4,27.6,30.4L27.6,30.4z"/>
			</g>
		</g>
	</g>
</g>
</svg>
