<?xml version="1.0" encoding="utf-8"?>
<!-- Generator: Adobe Illustrator 19.2.1, SVG Export Plug-In . SVG Version: 6.00 Build 0)  -->
<svg version="1.1" id="Layer_1" xmlns="http://www.w3.org/2000/svg" xmlns:xlink="http://www.w3.org/1999/xlink" x="0px" y="0px"
	 viewBox="0 0 24 24" style="enable-background:new 0 0 24 24;" xml:space="preserve">
<style type="text/css">
	.st0{fill:#FFFFFF;}
	.st1{fill:#EF4135;}
</style>
<circle class="st0" cx="12" cy="12" r="12"/>
<g id="England">
	<path class="st1" d="M23.8,9.6h-9.4V0.2C13.6,0.1,12.8,0,12,0c-0.8,0-1.6,0.1-2.4,0.2v9.4H0.2C0.1,10.4,0,11.2,0,12
		c0,0.8,0.1,1.6,0.2,2.4h9.4v9.4c0.8,0.2,1.6,0.2,2.4,0.2c0.8,0,1.6-0.1,2.4-0.2v-9.4h9.4c0.2-0.8,0.2-1.6,0.2-2.4
		C24,11.2,23.9,10.4,23.8,9.6z"/>
</g>
</svg>
