<?xml version="1.0" encoding="utf-8"?>
<!-- Generator: Adobe Illustrator 19.2.1, SVG Export Plug-In . SVG Version: 6.00 Build 0)  -->
<svg version="1.1" id="Layer_1" xmlns="http://www.w3.org/2000/svg" xmlns:xlink="http://www.w3.org/1999/xlink" x="0px" y="0px"
	 viewBox="0 0 24 24" style="enable-background:new 0 0 24 24;" xml:space="preserve">
<style type="text/css">
	.st0{fill:#0055A4;}
	.st1{fill:#FFFFFF;}
	.st2{fill:#EF4135;}
</style>
<g id="Iceland">
	<path class="st0" d="M5.6,1.9C2.9,3.6,1,6.3,0.3,9.5h5.3V1.9z"/>
	<path class="st0" d="M10,23.8c0.6,0.1,1.3,0.2,2,0.2c6,0,10.9-4.4,11.8-10.1H10V23.8z"/>
	<path class="st0" d="M0.2,13.9c0.6,3.5,2.6,6.4,5.4,8.2v-8.2H0.2z"/>
	<path class="st0" d="M23.7,9.5C22.6,4.1,17.8,0,12,0c-0.7,0-1.3,0.1-2,0.2v9.3H23.7z"/>
	<path class="st1" d="M9.4,13.3v10.4c0.2,0,0.4,0.1,0.6,0.1v-9.9h13.8c0-0.2,0.1-0.4,0.1-0.6H9.4z"/>
	<path class="st1" d="M9.4,10.1h14.4c0-0.2-0.1-0.4-0.1-0.6H10V0.2c-0.2,0-0.4,0.1-0.6,0.1V10.1z"/>
	<path class="st1" d="M6.2,13.3H0.1c0,0.2,0.1,0.4,0.1,0.6h5.4v8.2c0.2,0.1,0.4,0.2,0.6,0.4V13.3z"/>
	<path class="st1" d="M6.2,10.1V1.5C6,1.6,5.8,1.7,5.6,1.9v7.6H0.3c0,0.2-0.1,0.4-0.1,0.6H6.2z"/>
	<path class="st2" d="M9.4,0.3C8.3,0.5,7.2,0.9,6.2,1.5v8.6h-6C0.1,10.7,0,11.3,0,12c0,0.4,0,0.9,0.1,1.3h6.1v9.2
		c1,0.6,2.1,1,3.3,1.2V13.3h14.5c0-0.4,0.1-0.9,0.1-1.3c0-0.7-0.1-1.3-0.2-1.9H9.4V0.3z"/>
</g>
</svg>
