<?xml version="1.0" encoding="utf-8"?>
<!-- Generator: Adobe Illustrator 22.0.1, SVG Export Plug-In . SVG Version: 6.00 Build 0)  -->
<svg version="1.1" id="Layer_1" xmlns="http://www.w3.org/2000/svg" xmlns:xlink="http://www.w3.org/1999/xlink" x="0px" y="0px"
	 viewBox="0 0 48 48" style="enable-background:new 0 0 48 48;" xml:space="preserve">
<style type="text/css">
	.st0{clip-path:url(#SVGID_2_);}
	.st1{fill-rule:evenodd;clip-rule:evenodd;fill:#F0F0F0;}
	.st2{fill-rule:evenodd;clip-rule:evenodd;fill:#F90805;}
	.st3{fill:#47B71D;}
	.st4{fill:#FF1612;}
</style>
<g>
	<defs>
		<path id="SVGID_1_" d="M47.8,24c0,13.1-10.6,23.8-23.8,23.8C10.9,47.8,0.2,37.1,0.2,24C0.2,10.9,10.9,0.2,24,0.2
			C37.1,0.2,47.8,10.9,47.8,24z"/>
	</defs>
	<clipPath id="SVGID_2_">
		<use xlink:href="#SVGID_1_"  style="overflow:visible;"/>
	</clipPath>
	<g class="st0">
		<polygon class="st1" points="-11.6,0.2 59.6,0.2 59.6,47.8 -11.6,47.8 -11.6,0.2 		"/>
		<path class="st2" d="M27.1,19.6c1.8,1.4,4,4.8,1.3,9C32.3,26.3,31.1,20.2,27.1,19.6L27.1,19.6z M21.7,19.6c-1.8,1.4-4,4.8-1.3,9
			C16.5,26.3,17.7,20.2,21.7,19.6L21.7,19.6z M24.4,30.8l-0.5-0.7v-0.2c0,0-1.5,0.4-2.9-0.1c0,0,1.8-0.1,2.4-0.4
			c-3.6-1.6-4.1-7-1.2-9.5c-1.8,2.8-1.2,7,1.6,8.7l-0.2-8.5c0,0,0.4-0.1,0.8-0.6c0.4,0.5,0.8,0.6,0.8,0.6L25,28.5
			c2.8-1.7,3.4-5.9,1.6-8.7c2.9,2.5,2.4,8-1.2,9.5c0.6,0.4,2.4,0.4,2.4,0.4c-1.5,0.5-2.9,0.1-2.9,0.1v0.2L24.4,30.8L24.4,30.8z
			 M22.8,18.1c0,0,0.5,1.4,1.6,0.3c1.1,1.1,1.6-0.3,1.6-0.3c0.2,0.6-0.2,1.1-0.7,1.2c-0.6,0.1-0.9-0.4-0.9-0.4s-0.3,0.4-0.9,0.4
			C22.9,19.3,22.6,18.7,22.8,18.1L22.8,18.1z"/>
		<path class="st3" d="M-11.6,0.2h71.3v15.9l0,0v-0.4h-3.6v0.4h-0.4v-0.4h-3.6v0.4h-0.4v-0.4h-3.6v0.4h-0.4v-0.4h-3.6v0.4h-0.4v-0.4
			h-3.6v0.4h-0.4v-0.4h-3.6v0.4h-0.4v-0.4h-3.6v0.4h-0.4v-0.4h-3.6v0.4h-0.4v-0.4h-3.6v0.4h-0.4v-0.4h-3.6v0.4h-0.4v-0.4h-3.6v0.4
			h-0.4v-0.4h-3.6v0.4h-0.4v-0.4H8.3v0.4H7.9v-0.4H4.3v0.4H3.9v-0.4H0.3v0.4h-0.4v-0.4h-3.6v0.4h-0.4v-0.4h-3.6v0.4h-0.4v-0.4h-3.6
			v-0.4h0.4v-0.8h1.2v0.4v0.4h0.4h1.2h0.4v-0.4v-0.4v-0.4h-0.4h-0.8v0.4h0.8v0.4h-1.2v-0.4v-0.4H-10h-1.2h-0.4v-0.4h5.2v-0.4h-5.2
			V0.2L-11.6,0.2z M52.1,15.3h0.4v-0.8h1.2v0.4v0.4h0.4h1.2h0.4v-0.4v-0.4v-0.4h-0.4h-0.8v0.4h0.8v0.4h-1.2v-0.4v-0.4h-0.4h-1.2
			h-0.4v0.4V15.3L52.1,15.3z M57.2,13.7v-0.4h-5.2v0.4H57.2L57.2,13.7z M59.2,14.9h-0.4v-1.6h-0.4v1.6H58v-0.4v-0.4v-0.8h-0.4v0.8
			h-1.2h-0.4v0.4v0.4v0.4h0.4h0.8v-0.4h-0.8v-0.4h1.2v0.4v0.4H58h0.4h0.4h0.4h0.4v-0.4v-1.6h-0.4V14.9L59.2,14.9z M53.3,15.3v-0.4
			h-0.4v0.4H53.3L53.3,15.3z M44.1,15.3h0.4v-0.8h1.2v0.4v0.4h0.4h1.2h0.4v-0.4v-0.4v-0.4h-0.4h-0.8v0.4h0.8v0.4h-1.2v-0.4v-0.4
			h-0.4h-1.2h-0.4v0.4V15.3L44.1,15.3z M49.3,13.7v-0.4h-5.2v0.4H49.3L49.3,13.7z M51.3,14.9h-0.4v-1.6h-0.4v1.6h-0.4v-0.4v-0.4
			v-0.8h-0.4v0.8h-1.2h-0.4v0.4v0.4v0.4h0.4h0.8v-0.4h-0.8v-0.4h1.2v0.4v0.4h0.4h0.4h0.4h0.4h0.4v-0.4v-1.6h-0.4V14.9L51.3,14.9z
			 M45.3,15.3v-0.4h-0.4v0.4H45.3L45.3,15.3z M36.2,15.3h0.4v-0.8h1.2v0.4v0.4h0.4h1.2h0.4v-0.4v-0.4v-0.4h-0.4h-0.8v0.4h0.8v0.4
			h-1.2v-0.4v-0.4h-0.4h-1.2h-0.4v0.4V15.3L36.2,15.3z M41.3,13.7v-0.4h-5.2v0.4H41.3L41.3,13.7z M43.3,14.9h-0.4v-1.6h-0.4v1.6
			h-0.4v-0.4v-0.4v-0.8h-0.4v0.8h-1.2h-0.4v0.4v0.4v0.4h0.4h0.8v-0.4h-0.8v-0.4h1.2v0.4v0.4h0.4h0.4h0.4h0.4h0.4v-0.4v-1.6h-0.4
			V14.9L43.3,14.9z M37.3,15.3v-0.4H37v0.4H37.3L37.3,15.3z M28.2,15.3h0.4v-0.8h1.2v0.4v0.4h0.4h1.2h0.4v-0.4v-0.4v-0.4h-0.4h-0.8
			v0.4h0.8v0.4h-1.2v-0.4v-0.4h-0.4h-1.2h-0.4v0.4V15.3L28.2,15.3z M33.4,13.7v-0.4h-5.2v0.4H33.4L33.4,13.7z M35.3,14.9h-0.4v-1.6
			h-0.4v1.6h-0.4v-0.4v-0.4v-0.8h-0.4v0.8h-1.2h-0.4v0.4v0.4v0.4h0.4h0.8v-0.4h-0.8v-0.4h1.2v0.4v0.4h0.4h0.4h0.4h0.4h0.4v-0.4v-1.6
			h-0.4V14.9L35.3,14.9z M29.4,15.3v-0.4H29v0.4H29.4L29.4,15.3z M20.2,15.3h0.4v-0.8h1.2v0.4v0.4h0.4h1.2h0.4v-0.4v-0.4v-0.4h-0.4
			h-0.8v0.4h0.8v0.4h-1.2v-0.4v-0.4h-0.4h-1.2h-0.4v0.4V15.3L20.2,15.3z M25.4,13.7v-0.4h-5.2v0.4H25.4L25.4,13.7z M27.4,14.9H27
			v-1.6h-0.4v1.6h-0.4v-0.4v-0.4v-0.8h-0.4v0.8h-1.2h-0.4v0.4v0.4v0.4h0.4h0.8v-0.4h-0.8v-0.4h1.2v0.4v0.4h0.4h0.4H27h0.4h0.4v-0.4
			v-1.6h-0.4V14.9L27.4,14.9z M21.4,15.3v-0.4H21v0.4H21.4L21.4,15.3z M12.3,15.3h0.4v-0.8h1.2v0.4v0.4h0.4h1.2h0.4v-0.4v-0.4v-0.4
			h-0.4h-0.8v0.4h0.8v0.4h-1.2v-0.4v-0.4h-0.4h-1.2h-0.4v0.4V15.3L12.3,15.3z M17.4,13.7v-0.4h-5.2v0.4H17.4L17.4,13.7z M19.4,14.9
			H19v-1.6h-0.4v1.6h-0.4v-0.4v-0.4v-0.8h-0.4v0.8h-1.2h-0.4v0.4v0.4v0.4h0.4h0.8v-0.4h-0.8v-0.4h1.2v0.4v0.4h0.4h0.4H19h0.4h0.4
			v-0.4v-1.6h-0.4V14.9L19.4,14.9z M13.5,15.3v-0.4h-0.4v0.4H13.5L13.5,15.3z M4.3,15.3h0.4v-0.8h1.2v0.4v0.4h0.4h1.2h0.4v-0.4v-0.4
			v-0.4H7.5H6.7v0.4h0.8v0.4H6.3v-0.4v-0.4H5.9H4.7H4.3v0.4V15.3L4.3,15.3z M9.5,13.7v-0.4H4.3v0.4H9.5L9.5,13.7z M11.5,14.9H11
			v-1.6h-0.4v1.6h-0.4v-0.4v-0.4v-0.8H9.9v0.8H8.7H8.3v0.4v0.4v0.4h0.4h0.8v-0.4H8.7v-0.4h1.2v0.4v0.4h0.4h0.4H11h0.4h0.4v-0.4v-1.6
			h-0.4V14.9L11.5,14.9z M5.5,15.3v-0.4H5.1v0.4H5.5L5.5,15.3z M-3.7,15.3h0.4v-0.8h1.2v0.4v0.4h0.4h1.2h0.4v-0.4v-0.4v-0.4h-0.4
			h-0.8v0.4h0.8v0.4h-1.2v-0.4v-0.4h-0.4h-1.2h-0.4v0.4V15.3L-3.7,15.3z M1.5,13.7v-0.4h-5.2v0.4H1.5L1.5,13.7z M3.5,14.9H3.1v-1.6
			H2.7v1.6H2.3v-0.4v-0.4v-0.8H1.9v0.8H0.7H0.3v0.4v0.4v0.4h0.4h0.8v-0.4H0.7v-0.4h1.2v0.4v0.4h0.4h0.4h0.4h0.4h0.4v-0.4v-1.6H3.5
			V14.9L3.5,14.9z M-2.5,15.3v-0.4h-0.4v0.4H-2.5L-2.5,15.3z M-4.5,14.9h-0.4v-1.6h-0.4v1.6h-0.4v-0.4v-0.4v-0.8h-0.4v0.8h-1.2h-0.4
			v0.4v0.4v0.4h0.4h0.8v-0.4h-0.8v-0.4h1.2v0.4v0.4h0.4h0.4h0.4h0.4h0.4v-0.4v-1.6h-0.4V14.9L-4.5,14.9z M-10.4,15.3v-0.4h-0.4v0.4
			H-10.4L-10.4,15.3z"/>
		<path class="st4" d="M-10.4,34.7v-0.4h-0.4v0.4H-10.4L-10.4,34.7z M-8.1,31.9h0.4v0.4h3.6v-0.4h0.4v0.4h3.6v-0.4h0.4v0.4h3.6v-0.4
			h0.4v0.4h3.6v-0.4h0.4v0.4h3.6v-0.4h0.4v0.4h3.6v-0.4h0.4v0.4h3.6v-0.4h0.4v0.4h3.6v-0.4h0.4v0.4h3.6v-0.4h0.4v0.4h3.6v-0.4h0.4
			v0.4h3.6v-0.4h0.4v0.4h3.6v-0.4h0.4v0.4h3.6v-0.4h0.4v0.4h3.6v-0.4h0.4v0.4h3.6v-0.4h0.4v0.4h3.6v-0.4h0.4v0.4h3.6v-0.4l0,0v15.9
			h-71.3V34.7h0.4v-0.8h1.2v0.4v0.4h0.4h1.2h0.4v-0.4v-0.4v-0.4h-0.4h-0.8v0.4h0.8v0.4h-1.2v-0.4v-0.4H-10h-1.2h-0.4v-0.4h5.2v-0.4
			h-5.2v-0.4h3.6V31.9L-8.1,31.9z M53.3,34.7v-0.4h-0.4v0.4H53.3L53.3,34.7z M52.1,34.7h0.4v-0.8h1.2v0.4v0.4h0.4h1.2h0.4v-0.4v-0.4
			v-0.4h-0.4h-0.8v0.4h0.8v0.4h-1.2v-0.4v-0.4h-0.4h-1.2h-0.4v0.4V34.7L52.1,34.7z M57.2,33.1v-0.4h-5.2v0.4H57.2L57.2,33.1z
			 M59.2,34.3h-0.4v-1.6h-0.4v1.6H58v-0.4v-0.4v-0.8h-0.4v0.8h-1.2h-0.4v0.4v0.4v0.4h0.4h0.8v-0.4h-0.8v-0.4h1.2v0.4v0.4H58h0.4h0.4
			h0.4h0.4v-0.4v-1.6h-0.4V34.3L59.2,34.3z M45.3,34.7v-0.4h-0.4v0.4H45.3L45.3,34.7z M44.1,34.7h0.4v-0.8h1.2v0.4v0.4h0.4h1.2h0.4
			v-0.4v-0.4v-0.4h-0.4h-0.8v0.4h0.8v0.4h-1.2v-0.4v-0.4h-0.4h-1.2h-0.4v0.4V34.7L44.1,34.7z M49.3,33.1v-0.4h-5.2v0.4H49.3
			L49.3,33.1z M51.3,34.3h-0.4v-1.6h-0.4v1.6h-0.4v-0.4v-0.4v-0.8h-0.4v0.8h-1.2h-0.4v0.4v0.4v0.4h0.4h0.8v-0.4h-0.8v-0.4h1.2v0.4
			v0.4h0.4h0.4h0.4h0.4h0.4v-0.4v-1.6h-0.4V34.3L51.3,34.3z M37.3,34.7v-0.4H37v0.4H37.3L37.3,34.7z M36.2,34.7h0.4v-0.8h1.2v0.4
			v0.4h0.4h1.2h0.4v-0.4v-0.4v-0.4h-0.4h-0.8v0.4h0.8v0.4h-1.2v-0.4v-0.4h-0.4h-1.2h-0.4v0.4V34.7L36.2,34.7z M41.3,33.1v-0.4h-5.2
			v0.4H41.3L41.3,33.1z M43.3,34.3h-0.4v-1.6h-0.4v1.6h-0.4v-0.4v-0.4v-0.8h-0.4v0.8h-1.2h-0.4v0.4v0.4v0.4h0.4h0.8v-0.4h-0.8v-0.4
			h1.2v0.4v0.4h0.4h0.4h0.4h0.4h0.4v-0.4v-1.6h-0.4V34.3L43.3,34.3z M29.4,34.7v-0.4H29v0.4H29.4L29.4,34.7z M28.2,34.7h0.4v-0.8
			h1.2v0.4v0.4h0.4h1.2h0.4v-0.4v-0.4v-0.4h-0.4h-0.8v0.4h0.8v0.4h-1.2v-0.4v-0.4h-0.4h-1.2h-0.4v0.4V34.7L28.2,34.7z M33.4,33.1
			v-0.4h-5.2v0.4H33.4L33.4,33.1z M35.3,34.3h-0.4v-1.6h-0.4v1.6h-0.4v-0.4v-0.4v-0.8h-0.4v0.8h-1.2h-0.4v0.4v0.4v0.4h0.4h0.8v-0.4
			h-0.8v-0.4h1.2v0.4v0.4h0.4h0.4h0.4h0.4h0.4v-0.4v-1.6h-0.4V34.3L35.3,34.3z M21.4,34.7v-0.4H21v0.4H21.4L21.4,34.7z M20.2,34.7
			h0.4v-0.8h1.2v0.4v0.4h0.4h1.2h0.4v-0.4v-0.4v-0.4h-0.4h-0.8v0.4h0.8v0.4h-1.2v-0.4v-0.4h-0.4h-1.2h-0.4v0.4V34.7L20.2,34.7z
			 M25.4,33.1v-0.4h-5.2v0.4H25.4L25.4,33.1z M27.4,34.3H27v-1.6h-0.4v1.6h-0.4v-0.4v-0.4v-0.8h-0.4v0.8h-1.2h-0.4v0.4v0.4v0.4h0.4
			h0.8v-0.4h-0.8v-0.4h1.2v0.4v0.4h0.4h0.4H27h0.4h0.4v-0.4v-1.6h-0.4V34.3L27.4,34.3z M13.5,34.7v-0.4h-0.4v0.4H13.5L13.5,34.7z
			 M12.3,34.7h0.4v-0.8h1.2v0.4v0.4h0.4h1.2h0.4v-0.4v-0.4v-0.4h-0.4h-0.8v0.4h0.8v0.4h-1.2v-0.4v-0.4h-0.4h-1.2h-0.4v0.4V34.7
			L12.3,34.7z M17.4,33.1v-0.4h-5.2v0.4H17.4L17.4,33.1z M19.4,34.3H19v-1.6h-0.4v1.6h-0.4v-0.4v-0.4v-0.8h-0.4v0.8h-1.2h-0.4v0.4
			v0.4v0.4h0.4h0.8v-0.4h-0.8v-0.4h1.2v0.4v0.4h0.4h0.4H19h0.4h0.4v-0.4v-1.6h-0.4V34.3L19.4,34.3z M5.5,34.7v-0.4H5.1v0.4H5.5
			L5.5,34.7z M4.3,34.7h0.4v-0.8h1.2v0.4v0.4h0.4h1.2h0.4v-0.4v-0.4v-0.4H7.5H6.7v0.4h0.8v0.4H6.3v-0.4v-0.4H5.9H4.7H4.3v0.4V34.7
			L4.3,34.7z M9.5,33.1v-0.4H4.3v0.4H9.5L9.5,33.1z M11.5,34.3H11v-1.6h-0.4v1.6h-0.4v-0.4v-0.4v-0.8H9.9v0.8H8.7H8.3v0.4v0.4v0.4
			h0.4h0.8v-0.4H8.7v-0.4h1.2v0.4v0.4h0.4h0.4H11h0.4h0.4v-0.4v-1.6h-0.4V34.3L11.5,34.3z M-2.5,34.7v-0.4h-0.4v0.4H-2.5L-2.5,34.7z
			 M-3.7,34.7h0.4v-0.8h1.2v0.4v0.4h0.4h1.2h0.4v-0.4v-0.4v-0.4h-0.4h-0.8v0.4h0.8v0.4h-1.2v-0.4v-0.4h-0.4h-1.2h-0.4v0.4V34.7
			L-3.7,34.7z M1.5,33.1v-0.4h-5.2v0.4H1.5L1.5,33.1z M3.5,34.3H3.1v-1.6H2.7v1.6H2.3v-0.4v-0.4v-0.8H1.9v0.8H0.7H0.3v0.4v0.4v0.4
			h0.4h0.8v-0.4H0.7v-0.4h1.2v0.4v0.4h0.4h0.4h0.4h0.4h0.4v-0.4v-1.6H3.5V34.3L3.5,34.3z M-4.5,34.3h-0.4v-1.6h-0.4v1.6h-0.4v-0.4
			v-0.4v-0.8h-0.4v0.8h-1.2h-0.4v0.4v0.4v0.4h0.4h0.8v-0.4h-0.8v-0.4h1.2v0.4v0.4h0.4h0.4h0.4h0.4h0.4v-0.4v-1.6h-0.4V34.3
			L-4.5,34.3z"/>
	</g>
</g>
</svg>
