<?xml version="1.0" encoding="utf-8"?>
<!-- Generator: Adobe Illustrator 22.0.1, SVG Export Plug-In . SVG Version: 6.00 Build 0)  -->
<svg version="1.1" id="Layer_1" xmlns="http://www.w3.org/2000/svg" xmlns:xlink="http://www.w3.org/1999/xlink" x="0px" y="0px"
	 viewBox="0 0 48 48" style="enable-background:new 0 0 48 48;" xml:space="preserve">
<style type="text/css">
	.st0{clip-path:url(#SVGID_2_);}
	.st1{fill-rule:evenodd;clip-rule:evenodd;fill:#C20B18;}
	.st2{fill:#0C7843;}
</style>
<g>
	<defs>
		<circle id="SVGID_1_" cx="24" cy="24" r="23.8"/>
	</defs>
	<clipPath id="SVGID_2_">
		<use xlink:href="#SVGID_1_"  style="overflow:visible;"/>
	</clipPath>
	<g class="st0">
		<polygon class="st1" points="-11.6,0.2 59.6,0.2 59.6,47.8 -11.6,47.8 -11.6,0.2 		"/>
		<path class="st2" d="M24.5,18.2l1.2,3.4h3.8h1.9l-1.6,1.1l-3,2.1l1.2,3.4l0.6,1.8L27,29l-3-2.1l-3,2.1L19.3,30l0.6-1.8l1.2-3.4
			l-3-2.1l-1.6-1.1h1.9h3.8l1.2-3.4l0.6-1.7L24.5,18.2L24.5,18.2z M26.1,22.8l0.1,0.4l0.1,0.4l1.1-0.8H26.1L26.1,22.8z M25,23.6
			l-0.3-0.8h-0.9H23l-0.3,0.8l-0.3,0.8l0.7,0.5l0.7,0.5l0.7-0.5l0.7-0.5L25,23.6L25,23.6z M24.4,21.6l-0.4-1.3l-0.4,1.3h0.4H24.4
			L24.4,21.6z M26.1,26.9l-0.4-1.3l-0.4,0.3L25,26.1L26.1,26.9L26.1,26.9z M22.8,26.1l-0.3-0.2l-0.4-0.3l-0.4,1.3L22.8,26.1
			L22.8,26.1z M20.3,22.8l1.1,0.8l0.1-0.4l0.1-0.4H20.3L20.3,22.8z"/>
	</g>
</g>
</svg>
