<?xml version="1.0" encoding="utf-8"?>
<!-- Generator: Adobe Illustrator 22.0.1, SVG Export Plug-In . SVG Version: 6.00 Build 0)  -->
<svg version="1.1" id="Layer_1" xmlns="http://www.w3.org/2000/svg" xmlns:xlink="http://www.w3.org/1999/xlink" x="0px" y="0px"
	 viewBox="0 0 48 48" style="enable-background:new 0 0 48 48;" xml:space="preserve">
<style type="text/css">
	.st0{clip-path:url(#SVGID_2_);}
	.st1{fill:#F9F9F9;}
	.st2{fill:#D30731;}
	.st3{fill:#005194;}
	.st4{fill-rule:evenodd;clip-rule:evenodd;fill:#005194;}
	.st5{fill-rule:evenodd;clip-rule:evenodd;fill:#D30731;}
</style>
<g>
	<defs>
		<circle id="SVGID_1_" cx="23.8" cy="24.2" r="23.8"/>
	</defs>
	<clipPath id="SVGID_2_">
		<use xlink:href="#SVGID_1_"  style="overflow:visible;"/>
	</clipPath>
	<g class="st0">
		<rect class="st1" width="24" height="24.5"/>
		<rect x="24" class="st2" width="24" height="24.5"/>
		<rect y="24.5" class="st3" width="24" height="23.5"/>
		<rect x="24" y="24.5" class="st1" width="24" height="23.5"/>
		<polygon class="st4" points="11.7,6.3 13,10.2 17.1,10.2 13.7,12.6 15,16.5 11.7,14.1 8.4,16.5 9.7,12.6 6.3,10.2 10.4,10.2 
			11.7,6.3 		"/>
		<polygon class="st5" points="35.7,31.3 37,35.2 41.1,35.2 37.7,37.6 39,41.5 35.7,39.1 32.4,41.5 33.7,37.6 30.3,35.2 34.4,35.2 
			35.7,31.3 		"/>
	</g>
</g>
</svg>
