<svg id="Layer_1" data-name="Layer 1" xmlns="http://www.w3.org/2000/svg" xmlns:xlink="http://www.w3.org/1999/xlink" viewBox="0 0 23.961 23.962"><defs><style>.cls-1,.cls-2{fill:none;}.cls-1{clip-rule:evenodd;}.cls-3{fill:red;}.cls-4{fill:#060;}.cls-5{clip-path:url(#clip-path);}.cls-6{clip-path:url(#clip-path-2);}.cls-7{fill:#ff0;}.cls-8{clip-path:url(#clip-path-3);}.cls-9{clip-path:url(#clip-path-5);}.cls-10{clip-path:url(#clip-path-7);}.cls-11{clip-path:url(#clip-path-9);}.cls-12{clip-path:url(#clip-path-11);}.cls-13{clip-path:url(#clip-path-13);}.cls-14{clip-path:url(#clip-path-15);}.cls-15{clip-path:url(#clip-path-17);}.cls-16{clip-path:url(#clip-path-19);}.cls-17{clip-path:url(#clip-path-21);}.cls-18{clip-path:url(#clip-path-23);}.cls-19{clip-path:url(#clip-path-25);}.cls-20{clip-path:url(#clip-path-27);}.cls-21{clip-path:url(#clip-path-29);}.cls-22{clip-path:url(#clip-path-31);}.cls-23{clip-path:url(#clip-path-33);}.cls-24{clip-path:url(#clip-path-35);}.cls-25{clip-path:url(#clip-path-37);}.cls-26{clip-path:url(#clip-path-39);}.cls-27{clip-path:url(#clip-path-41);}.cls-28{clip-path:url(#clip-path-43);}.cls-29{clip-path:url(#clip-path-45);}.cls-30{clip-path:url(#clip-path-47);}.cls-31{clip-path:url(#clip-path-49);}.cls-32{clip-path:url(#clip-path-51);}.cls-33{clip-path:url(#clip-path-53);}.cls-34{clip-path:url(#clip-path-55);}.cls-35{clip-path:url(#clip-path-57);}.cls-36{clip-path:url(#clip-path-59);}.cls-37{clip-path:url(#clip-path-61);}.cls-38{clip-path:url(#clip-path-63);}.cls-39{clip-path:url(#clip-path-65);}.cls-40{clip-path:url(#clip-path-67);}.cls-41{clip-path:url(#clip-path-69);}.cls-42{clip-path:url(#clip-path-71);}.cls-43{clip-path:url(#clip-path-73);}.cls-44{clip-path:url(#clip-path-75);}.cls-45{clip-path:url(#clip-path-77);}.cls-46{clip-path:url(#clip-path-79);}.cls-47{clip-path:url(#clip-path-81);}.cls-48{fill:#fff;}.cls-49{clip-path:url(#clip-path-83);}.cls-50{clip-path:url(#clip-path-85);}.cls-51{clip-path:url(#clip-path-87);}.cls-52{clip-path:url(#clip-path-89);}.cls-53{clip-path:url(#clip-path-91);}.cls-54{clip-path:url(#clip-path-93);}.cls-55{clip-path:url(#clip-path-95);}.cls-56{clip-path:url(#clip-path-97);}.cls-57{clip-path:url(#clip-path-99);}.cls-58{clip-path:url(#clip-path-101);}.cls-59{clip-path:url(#clip-path-103);}.cls-60{clip-path:url(#clip-path-105);}.cls-61{clip-path:url(#clip-path-107);}.cls-62{clip-path:url(#clip-path-109);}.cls-63{clip-path:url(#clip-path-111);}.cls-64{clip-path:url(#clip-path-113);}.cls-65{clip-path:url(#clip-path-115);}.cls-66{clip-path:url(#clip-path-117);}.cls-67{clip-path:url(#clip-path-119);}.cls-68{clip-path:url(#clip-path-121);}.cls-69{fill:#039;}.cls-70{clip-path:url(#clip-path-123);}.cls-71{clip-path:url(#clip-path-125);}.cls-72{clip-path:url(#clip-path-127);}.cls-73{clip-path:url(#clip-path-129);}</style><clipPath id="clip-path" transform="translate(-0.039 -0.022)"><path class="cls-1" d="M16.036,15.174c-1.549-.047-8.651-4.48-8.7-5.186l0.392-.654c0.7,1.024,7.965,5.335,8.678,5.182l-0.371.657"/></clipPath><clipPath id="clip-path-2" transform="translate(-0.039 -0.022)"><rect class="cls-2" x="0.018" y="-0.094" width="24.129" height="24.129"/></clipPath><clipPath id="clip-path-3" transform="translate(-0.039 -0.022)"><path class="cls-1" d="M16.036,15.189h0c-0.825-.025-3.166-1.28-4.92-2.348-1-.61-1.935-1.228-2.626-1.739A3.674,3.674,0,0,1,7.321,9.989l0-.009,0.392-.654a0.015,0.015,0,0,1,.012-0.007,0.015,0.015,0,0,1,.013.007,23.083,23.083,0,0,0,4.331,3.028c2.236,1.332,4.016,2.215,4.332,2.148a0.016,0.016,0,0,1,.015.006,0.015,0.015,0,0,1,0,.016l-0.37.656A0.015,0.015,0,0,1,16.036,15.189Zm-8.685-5.2c0.036,0.326,1.621,1.51,3.78,2.824,1.744,1.062,4.069,2.31,4.9,2.343l0.352-.625a19.041,19.041,0,0,1-4.323-2.155A23.758,23.758,0,0,1,7.729,9.361Z"/></clipPath><clipPath id="clip-path-5" transform="translate(-0.039 -0.022)"><path class="cls-1" d="M7.646,9.245c-0.139.374,1.853,1.606,4.25,3.064s4.464,2.359,4.617,2.229a1.328,1.328,0,0,0,.069-0.129,0.18,0.18,0,0,1-.208.025,24.1,24.1,0,0,1-4.428-2.23C9.854,10.936,8.035,9.767,7.752,9.27a0.3,0.3,0,0,1-.031-0.146H7.714l-0.06.105Zm8.427,5.949a0.147,0.147,0,0,1-.168.039,18.6,18.6,0,0,1-4.417-2.164c-2.42-1.449-4.419-2.769-4.2-3.114l0.059-.1,0.012,0c-0.2.585,3.945,2.952,4.189,3.1,2.4,1.484,4.415,2.351,4.594,2.126l-0.065.112h0Z"/></clipPath><clipPath id="clip-path-7" transform="translate(-0.039 -0.022)"><path class="cls-1" d="M15.977,15.254a0.716,0.716,0,0,1-.075-0.005,18.653,18.653,0,0,1-4.423-2.166c-2.746-1.644-4.127-2.633-4.22-3.025a0.138,0.138,0,0,1,.013-0.109l0.058-.1a0.015,0.015,0,0,1,.017-0.007l0.012,0L7.368,9.848V9.859c-0.151.452,2.454,2.067,4.021,2.99l0.162,0.1c2.365,1.465,4.4,2.347,4.575,2.129a0.014,0.014,0,0,1,.02,0,0.015,0.015,0,0,1,0,.02l-0.065.112h0A0.108,0.108,0,0,1,15.977,15.254ZM7.333,9.9L7.3,9.963a0.11,0.11,0,0,0-.01.087c0.092,0.384,1.468,1.367,4.207,3.007a18.637,18.637,0,0,0,4.412,2.162c0.091,0.01.132,0.008,0.154-.031v0l0.036-.061c-0.421.127-2.672-.985-4.56-2.155l-0.161-.1C8.693,11.295,7.335,10.295,7.333,9.9Zm9.127,4.667a19.62,19.62,0,0,1-4.572-2.243c-2.58-1.569-4.4-2.708-4.257-3.081h0l0.009-.017L7.7,9.116a0.015,0.015,0,0,1,.013-0.007H7.721l0.011,0,0,0.011a0.286,0.286,0,0,0,.029.138c0.3,0.526,2.4,1.842,4.189,2.929a24.447,24.447,0,0,0,4.425,2.229,0.172,0.172,0,0,0,.191-0.02,0.015,0.015,0,0,1,.025,0c0.007,0.01.007,0.011-.061,0.131l-0.008.014,0,0A0.1,0.1,0,0,1,16.461,14.565Zm-8.8-5.313c-0.136.381,2.192,1.8,4.245,3.045a16.817,16.817,0,0,0,4.6,2.232l0.006-.011,0.034-.061a0.286,0.286,0,0,1-.172-0.008,24.442,24.442,0,0,1-4.432-2.232c-3.419-2.074-4.041-2.66-4.2-2.94a0.3,0.3,0,0,1-.032-0.112Z"/></clipPath><clipPath id="clip-path-9" transform="translate(-0.039 -0.022)"><path class="cls-1" d="M12.033,10.416A14.622,14.622,0,0,0,16.6,9.765L16.36,9.38a12.961,12.961,0,0,1-4.34.632C9.932,9.993,8.457,9.8,7.719,9.3l-0.224.41a11.279,11.279,0,0,0,4.538.7"/></clipPath><clipPath id="clip-path-11" transform="translate(-0.039 -0.022)"><path class="cls-1" d="M12.033,10.431h0a11.264,11.264,0,0,1-4.544-.7,0.016,0.016,0,0,1-.008-0.009V9.707L7.706,9.3l0.009-.007a0.014,0.014,0,0,1,.012,0C8.415,9.752,9.779,9.977,12.02,10a12.222,12.222,0,0,0,4.333-.63,0.015,0.015,0,0,1,.02.005L16.61,9.758a0.014,0.014,0,0,1,0,.012,0.014,0.014,0,0,1-.008.009,13.929,13.929,0,0,1-4.569.652h0ZM7.515,9.706a11.264,11.264,0,0,0,4.517.695h0a13.984,13.984,0,0,0,4.543-.643L16.355,9.4a12.4,12.4,0,0,1-4.335.628c-2.233-.021-3.6-0.244-4.3-0.7Z"/></clipPath><clipPath id="clip-path-13" transform="translate(-0.039 -0.022)"><path class="cls-1" d="M16.661,9.774a6.657,6.657,0,0,1-1.814.491,18.756,18.756,0,0,1-2.82.2,20.031,20.031,0,0,1-2.7-.171,7.881,7.881,0,0,1-1.9-.5c0.02-.04.033-0.069,0.053-0.106a8.215,8.215,0,0,0,1.86.493,19.837,19.837,0,0,0,2.68.171,18.833,18.833,0,0,0,2.8-.208,4.549,4.549,0,0,0,1.76-.5Zm-0.208-.391a5.489,5.489,0,0,1-1.734.467,18.624,18.624,0,0,1-2.68.188,18.021,18.021,0,0,1-2.588-.167,7.131,7.131,0,0,1-1.8-.455l0.061-.1a6.17,6.17,0,0,0,1.755.447,18.534,18.534,0,0,0,2.577.16,18.435,18.435,0,0,0,2.66-.189,4.631,4.631,0,0,0,1.678-.474Z"/></clipPath><clipPath id="clip-path-15" transform="translate(-0.039 -0.022)"><path class="cls-1" d="M12.006,10.484a20.071,20.071,0,0,1-2.681-.171,8,8,0,0,1-1.876-.494L7.426,9.81,7.418,9.8V9.79L7.44,9.745l0.031-.062A0.014,0.014,0,0,1,7.49,9.676a8.214,8.214,0,0,0,1.857.492A19.912,19.912,0,0,0,12,10.34h0.021a18.932,18.932,0,0,0,2.8-.208,4.6,4.6,0,0,0,1.751-.5,0.015,0.015,0,0,1,.024,0l0.077,0.132a0.015,0.015,0,0,1,0,.015l0,0a6.663,6.663,0,0,1-1.822.5,18.911,18.911,0,0,1-2.822.2H12.006Zm-4.554-.7,0.008,0a7.962,7.962,0,0,0,1.869.492,20.056,20.056,0,0,0,2.677.171h0.022a18.885,18.885,0,0,0,2.818-.2,7.33,7.33,0,0,0,1.8-.478l-0.061-.106a4.838,4.838,0,0,1-1.755.5,18.991,18.991,0,0,1-2.8.208A19.822,19.822,0,0,1,9.342,10.2a8.226,8.226,0,0,1-1.851-.489l-0.024.049Zm4.566,0.264a18.285,18.285,0,0,1-2.569-.167,7.057,7.057,0,0,1-1.723-.424L7.642,9.43a0.015,0.015,0,0,1-.009-0.009V9.409c0.02-.035.041-0.069,0.061-0.1A0.014,0.014,0,0,1,7.715,9.3a6.014,6.014,0,0,0,1.75.446,18.362,18.362,0,0,0,2.551.16H12.04A18.287,18.287,0,0,0,14.7,9.717a4.686,4.686,0,0,0,1.671-.471l0.012,0a0.014,0.014,0,0,1,.01.007l0.075,0.125,0,0.008a0.014,0.014,0,0,1-.005.011,5.438,5.438,0,0,1-1.741.47,18.83,18.83,0,0,1-2.682.188H12.018ZM7.668,9.408L7.737,9.434a7.03,7.03,0,0,0,1.716.422,18.236,18.236,0,0,0,2.565.167H12.04a18.808,18.808,0,0,0,2.677-.188,5.694,5.694,0,0,0,1.717-.456l-0.06-.1a4.767,4.767,0,0,1-1.671.467,18.347,18.347,0,0,1-2.662.189H12.015a18.377,18.377,0,0,1-2.555-.16,6.181,6.181,0,0,1-1.747-.443Zm8.785-.025h0Z"/></clipPath><clipPath id="clip-path-17" transform="translate(-0.039 -0.022)"><path class="cls-1" d="M6.943,12.284a13.377,13.377,0,0,0,5.075.789,14.464,14.464,0,0,0,5.091-.753l-0.024-.514c-0.278.435-2.826,0.852-5.086,0.835a12.448,12.448,0,0,1-5.06-.818l0,0.461"/></clipPath><clipPath id="clip-path-19" transform="translate(-0.039 -0.022)"><path class="cls-1" d="M12.045,13.088H12.018A12.614,12.614,0,0,1,6.936,12.3a0.015,0.015,0,0,1-.007-0.014l0-.46a0.015,0.015,0,0,1,.023-0.013A12.5,12.5,0,0,0,12,12.626c2.24,0.016,4.8-.4,5.074-0.828a0.015,0.015,0,0,1,.027.007l0.024,0.513a0.015,0.015,0,0,1-.008.014A14.469,14.469,0,0,1,12.045,13.088Zm-5.088-.813a12.644,12.644,0,0,0,5.061.783h0.027a14.505,14.505,0,0,0,5.048-.747l-0.022-.464c-0.383.429-2.841,0.825-5.074,0.808a12.749,12.749,0,0,1-5.045-.806Z"/></clipPath><clipPath id="clip-path-21" transform="translate(-0.039 -0.022)"><path class="cls-1" d="M17.158,12.21v0.122a5.58,5.58,0,0,1-2.022.571,20.845,20.845,0,0,1-3.141.215,19.682,19.682,0,0,1-2.981-.205,7.431,7.431,0,0,1-2.133-.575V12.2A7.593,7.593,0,0,0,9.03,12.8a19.589,19.589,0,0,0,2.964.2,20.753,20.753,0,0,0,3.124-.214A6.492,6.492,0,0,0,17.158,12.21Zm0-.436V11.9a5.591,5.591,0,0,1-2.022.571A20.847,20.847,0,0,1,12,12.683a19.681,19.681,0,0,1-2.981-.205A7.435,7.435,0,0,1,6.881,11.9V11.76a7.589,7.589,0,0,0,2.149.6,19.588,19.588,0,0,0,2.964.2,20.757,20.757,0,0,0,3.124-.214A6.494,6.494,0,0,0,17.158,11.774Z"/></clipPath><clipPath id="clip-path-23" transform="translate(-0.039 -0.022)"><path class="cls-1" d="M11.995,13.133a19.874,19.874,0,0,1-2.983-.205,7.5,7.5,0,0,1-2.138-.577,0.015,0.015,0,0,1-.007-0.013V12.2a0.015,0.015,0,0,1,.008-0.013,0.015,0.015,0,0,1,.015,0,7.685,7.685,0,0,0,2.143.6,19.734,19.734,0,0,0,2.962.2,20.807,20.807,0,0,0,3.122-.214,6.489,6.489,0,0,0,2.031-.577,0.015,0.015,0,0,1,.025.011v0.122l0,0.01a5.583,5.583,0,0,1-2.031.576A20.935,20.935,0,0,1,11.995,13.133Zm-5.1-.8a7.5,7.5,0,0,0,2.12.569,19.815,19.815,0,0,0,2.979.2,20.956,20.956,0,0,0,3.139-.215,5.834,5.834,0,0,0,2.01-.562V12.241a6.968,6.968,0,0,1-2.022.564,20.86,20.86,0,0,1-3.126.214,19.752,19.752,0,0,1-2.966-.2A7.948,7.948,0,0,1,6.9,12.222V12.33ZM12,12.7a19.856,19.856,0,0,1-2.983-.205,7.5,7.5,0,0,1-2.138-.577A0.015,0.015,0,0,1,6.867,11.9V11.76a0.014,0.014,0,0,1,.008-0.013,0.014,0.014,0,0,1,.015,0,7.673,7.673,0,0,0,2.143.6,19.73,19.73,0,0,0,2.962.2,20.8,20.8,0,0,0,3.122-.214,6.486,6.486,0,0,0,2.031-.577,0.015,0.015,0,0,1,.013,0,0.015,0.015,0,0,1,.01.008l0,0.007V11.9l0,0.01a5.581,5.581,0,0,1-2.031.576A20.935,20.935,0,0,1,12,12.7Zm-5.1-.8a7.472,7.472,0,0,0,2.12.569,19.8,19.8,0,0,0,2.979.2,20.949,20.949,0,0,0,3.139-.215,5.841,5.841,0,0,0,2.01-.562V11.8a6.977,6.977,0,0,1-2.022.565A20.856,20.856,0,0,1,12,12.583a19.712,19.712,0,0,1-2.966-.2A7.931,7.931,0,0,1,6.9,11.787v0.108Z"/></clipPath><clipPath id="clip-path-25" transform="translate(-0.039 -0.022)"><path class="cls-1" d="M12.014,15.086a17.487,17.487,0,0,1-4.469-.694l0.289,0.453a12,12,0,0,0,4.2.686,10.743,10.743,0,0,0,4.149-.677l0.3-.469a15.792,15.792,0,0,1-4.467.7"/></clipPath><clipPath id="clip-path-27" transform="translate(-0.039 -0.022)"><path class="cls-1" d="M11.778,15.548a12.033,12.033,0,0,1-3.949-.69l-0.007-.006L7.533,14.4a0.015,0.015,0,0,1,0-.017,0.015,0.015,0,0,1,.015-0.006l0.2,0.053a16.9,16.9,0,0,0,4.264.641,15.831,15.831,0,0,0,4.46-.7,0.014,0.014,0,0,1,.017,0,0.014,0.014,0,0,1,0,.018l-0.3.469-0.006.005a10.916,10.916,0,0,1-4.155.679C11.95,15.547,11.864,15.548,11.778,15.548Zm-3.934-.716a12.031,12.031,0,0,0,4.19.683,10.917,10.917,0,0,0,4.139-.674l0.268-.424a16.289,16.289,0,0,1-4.428.684h0a16.912,16.912,0,0,1-4.271-.642l-0.165-.044Z"/></clipPath><clipPath id="clip-path-29" transform="translate(-0.039 -0.022)"><path class="cls-1" d="M16.3,14.748c-0.043.067-.088,0.133-0.133,0.2a11.655,11.655,0,0,1-1.569.4,14.213,14.213,0,0,1-2.578.236,12.368,12.368,0,0,1-4.281-.733l-0.06-.1,0.01-.015,0.1,0.04a13.769,13.769,0,0,0,4.24.7,14.468,14.468,0,0,0,2.527-.233,7.419,7.419,0,0,0,1.706-.469l0.035-.02h0Zm0.257-.424,0,0-0.1.167a10.9,10.9,0,0,1-1.982.44,15.661,15.661,0,0,1-2.434.207,16.681,16.681,0,0,1-4.526-.677l-0.057-.11a19.1,19.1,0,0,0,4.584.673,16.963,16.963,0,0,0,2.417-.208,12.473,12.473,0,0,0,1.975-.439l-0.008-.01Z"/></clipPath><clipPath id="clip-path-31" transform="translate(-0.039 -0.022)"><path class="cls-1" d="M12.016,15.6a12.257,12.257,0,0,1-4.287-.734l-0.007-.006-0.06-.1a0.014,0.014,0,0,1,0-.015l0.01-.015a0.014,0.014,0,0,1,.017-0.006l0.1,0.04a13.638,13.638,0,0,0,4.235.7h0.04a14.492,14.492,0,0,0,2.484-.233,7.022,7.022,0,0,0,1.7-.467l0.035-.02a0.014,0.014,0,0,1,.017,0,0.014,0.014,0,0,1,0,.017c-0.045.069-.09,0.135-0.133,0.2l-0.007.005a11.634,11.634,0,0,1-1.571.4A14.325,14.325,0,0,1,12.016,15.6Zm-4.271-.758a12.859,12.859,0,0,0,4.271.73,14.3,14.3,0,0,0,2.575-.236,11.6,11.6,0,0,0,1.562-.4q0.049-.069.1-0.144a7.482,7.482,0,0,1-1.7.462,14.463,14.463,0,0,1-2.53.234,13.663,13.663,0,0,1-4.245-.7l-0.09-.035Zm4.294,0.318a16.832,16.832,0,0,1-4.531-.677L7.5,14.472l-0.057-.11a0.015,0.015,0,0,1,0-.015,0.014,0.014,0,0,1,.015,0,19.009,19.009,0,0,0,4.581.672,16.14,16.14,0,0,0,2.2-.178l0.212-.029a12.619,12.619,0,0,0,1.953-.432h0V14.368a0.014,0.014,0,0,1,.009-0.01l0.129-.048a0.014,0.014,0,0,1,.017.005h0l0,0a0.014,0.014,0,0,1,0,.016l-0.1.167-0.007.006a11.132,11.132,0,0,1-1.985.441l-0.285.04A14.568,14.568,0,0,1,12.039,15.156Zm-4.517-.7a16.8,16.8,0,0,0,4.517.674,14.591,14.591,0,0,0,2.147-.166l0.285-.041a11.115,11.115,0,0,0,1.974-.438c0.028-.045.055-0.091,0.082-0.135l-0.083.031v0.008a0.015,0.015,0,0,1-.009.009l-0.02.006a12.711,12.711,0,0,1-1.957.433l-0.212.029a16.079,16.079,0,0,1-2.207.178,18.988,18.988,0,0,1-4.557-.665Zm9.031-.13,0.011-.009Z"/></clipPath><clipPath id="clip-path-33" transform="translate(-0.039 -0.022)"><path class="cls-1" d="M16.579,11.879a4.894,4.894,0,0,1-1.326,3.308,4.771,4.771,0,0,1-3.259,1.352A4.831,4.831,0,0,1,8.8,15.2a4.862,4.862,0,0,1-1.324-3.243,4.589,4.589,0,0,1,1.6-3.423,4.79,4.79,0,0,1,3.083-1.092A4.578,4.578,0,0,1,16.579,11.879ZM12.006,6.939A5.061,5.061,0,1,1,6.934,12,5.092,5.092,0,0,1,12.006,6.939Z"/></clipPath><clipPath id="clip-path-35" transform="translate(-0.039 -0.022)"><path class="cls-1" d="M12.006,17.075a5.075,5.075,0,1,1,3.6-8.661,5.031,5.031,0,0,1,0,7.172,5.085,5.085,0,0,1-3.6,1.489m0-10.121a5.046,5.046,0,1,0,3.582,8.611,5,5,0,0,0,0-7.13,5.055,5.055,0,0,0-3.582-1.481m-0.074,9.6A4.86,4.86,0,0,1,8.789,15.21a4.867,4.867,0,0,1-1.327-3.252A4.625,4.625,0,0,1,9.07,8.524a4.825,4.825,0,0,1,3.092-1.1,4.592,4.592,0,0,1,4.431,4.449h0a4.889,4.889,0,0,1-1.33,3.319,4.771,4.771,0,0,1-3.269,1.356H11.932m0.128-9.1a4.808,4.808,0,0,0-2.971,1.09,4.6,4.6,0,0,0-1.6,3.413,4.839,4.839,0,0,0,1.32,3.232,4.826,4.826,0,0,0,3.121,1.334h0.062a4.744,4.744,0,0,0,3.249-1.347,4.857,4.857,0,0,0,1.321-3.3,4.564,4.564,0,0,0-4.4-4.422h-0.1"/></clipPath><clipPath id="clip-path-37" transform="translate(-0.039 -0.022)"><path class="cls-1" d="M12.02,6.922A5.077,5.077,0,1,1,6.944,12,5.086,5.086,0,0,1,12.02,6.922ZM7.055,12A4.965,4.965,0,1,0,12.02,7.034,4.985,4.985,0,0,0,7.055,12Z"/></clipPath><clipPath id="clip-path-39" transform="translate(-0.039 -0.022)"><path class="cls-1" d="M12.02,17.09A5.092,5.092,0,1,1,17.111,12,5.1,5.1,0,0,1,12.02,17.09m0-10.154A5.062,5.062,0,1,0,17.081,12,5.067,5.067,0,0,0,12.02,6.937m0,10.042a5,5,0,1,1,3.514-1.463,4.943,4.943,0,0,1-3.514,1.463m0-9.93A4.97,4.97,0,1,0,15.513,8.5,4.914,4.914,0,0,0,12.02,7.048"/></clipPath><clipPath id="clip-path-41" transform="translate(-0.039 -0.022)"><path class="cls-1" d="M12.024,7.344a4.65,4.65,0,1,1-4.65,4.65A4.669,4.669,0,0,1,12.024,7.344Zm-4.538,4.65a4.538,4.538,0,1,0,4.538-4.539A4.557,4.557,0,0,0,7.486,11.994Z"/></clipPath><clipPath id="clip-path-43" transform="translate(-0.039 -0.022)"><path class="cls-1" d="M12.024,16.659a4.683,4.683,0,1,1,3.291-1.37,4.631,4.631,0,0,1-3.291,1.37m0-9.3A4.655,4.655,0,1,0,15.295,8.72a4.6,4.6,0,0,0-3.271-1.362m0,9.189a4.571,4.571,0,1,1,3.213-1.338,4.521,4.521,0,0,1-3.213,1.338m0-9.077A4.542,4.542,0,1,0,15.216,8.8,4.491,4.491,0,0,0,12.024,7.47"/></clipPath><clipPath id="clip-path-45" transform="translate(-0.039 -0.022)"><path class="cls-1" d="M12.185,6.843H12.3V17.161H12.186V6.843h0Zm-0.432,0h0.112V17.161H11.753V6.843Z"/></clipPath><clipPath id="clip-path-47" transform="translate(-0.039 -0.022)"><path class="cls-1" d="M11.865,17.176H11.753a0.015,0.015,0,0,1-.015-0.015V6.845h0a0.015,0.015,0,0,1,.015-0.015h0.112a0.015,0.015,0,0,1,.015.015V17.162l0,0.01Zm-0.1-.029H11.85V6.858H11.768V17.147ZM12.3,17.176H12.186a0.015,0.015,0,0,1-.015-0.015V6.843l0-.01,0.01,0H12.3a0.015,0.015,0,0,1,.015.015V17.161l0,0.01Zm-0.1-.029h0.081V6.858H12.2V17.147Z"/></clipPath><clipPath id="clip-path-49" transform="translate(-0.039 -0.022)"><polygon class="cls-1" points="17.1 12.195 17.1 11.818 16.793 11.532 15.049 11.071 12.537 10.814 9.512 10.968 7.359 11.481 6.924 11.803 6.924 12.18 8.025 11.686 10.64 11.276 13.152 11.276 14.998 11.481 16.28 11.788 17.1 12.195"/></clipPath><clipPath id="clip-path-51" transform="translate(-0.039 -0.022)"><path class="cls-1" d="M17.1,12.21H17.093l-0.82-.407L14.995,11.5l-1.844-.2H10.64L8.03,11.7l-1.1.493a0.014,0.014,0,0,1-.014,0A0.015,0.015,0,0,1,6.91,12.18V11.8a0.014,0.014,0,0,1,.006-0.012l0.435-.322,0.005,0,2.153-.513,3.027-.154,2.514,0.256L16.8,11.518l0.006,0,0.307,0.286,0,0.011V12.2a0.015,0.015,0,0,1-.007.013Zm-3.947-.949L15,11.466l1.284,0.308,0.8,0.4V11.825l-0.3-.279-1.74-.461-2.51-.256-3.023.154-2.148.511-0.427.316v0.347l1.081-.485h0l2.615-.41h2.514Z"/></clipPath><clipPath id="clip-path-53" transform="translate(-0.039 -0.022)"><path class="cls-1" d="M12.022,11.213a17.586,17.586,0,0,1,3.285.293,3.819,3.819,0,0,1,1.851.7v0.132a4.065,4.065,0,0,0-1.872-.716,17.485,17.485,0,0,0-3.263-.291,18.161,18.161,0,0,0-3.332.3,3.549,3.549,0,0,0-1.81.71V12.2a3.356,3.356,0,0,1,1.794-.688A18.223,18.223,0,0,1,12.022,11.213Zm0-.436a17.638,17.638,0,0,1,3.285.293,3.821,3.821,0,0,1,1.851.7V11.9a4.062,4.062,0,0,0-1.872-.716,17.506,17.506,0,0,0-3.263-.291,18.1,18.1,0,0,0-3.326.3,3.534,3.534,0,0,0-1.815.71V11.762a3.364,3.364,0,0,1,1.794-.688A18.245,18.245,0,0,1,12.022,10.777Z"/></clipPath><clipPath id="clip-path-55" transform="translate(-0.039 -0.022)"><path class="cls-1" d="M6.88,12.35h0a0.015,0.015,0,0,1-.012-0.014V12.193a3.371,3.371,0,0,1,1.8-.7,18.366,18.366,0,0,1,3.351-.3v0h0.034a17.59,17.59,0,0,1,3.254.294,3.788,3.788,0,0,1,1.859.7l0,0.01v0.132a0.015,0.015,0,0,1-.01.014,0.015,0.015,0,0,1-.016,0,4.173,4.173,0,0,0-1.864-.711,17.447,17.447,0,0,0-3.26-.291,18.186,18.186,0,0,0-3.329.3,3.513,3.513,0,0,0-1.8.7,0.015,0.015,0,0,1-.014.009m5.175-1.038a17.488,17.488,0,0,1,3.232.291,4.438,4.438,0,0,1,1.855.692V12.207A3.815,3.815,0,0,0,15.3,11.52a17.58,17.58,0,0,0-3.248-.293H12.022a18.305,18.305,0,0,0-3.345.3A3.653,3.653,0,0,0,6.9,12.2v0.082a4.179,4.179,0,0,1,1.792-.671,18.247,18.247,0,0,1,3.334-.3h0.034m-5.175.6h0A0.015,0.015,0,0,1,6.866,11.9V11.757a3.363,3.363,0,0,1,1.8-.7,18.307,18.307,0,0,1,3.351-.3h0.033a17.606,17.606,0,0,1,3.254.293,3.794,3.794,0,0,1,1.859.7l0,0.01V11.9a0.015,0.015,0,0,1-.01.014,0.014,0.014,0,0,1-.016,0,4.178,4.178,0,0,0-1.864-.711,17.426,17.426,0,0,0-3.26-.29,18.168,18.168,0,0,0-3.323.3,3.464,3.464,0,0,0-1.8.7,0.015,0.015,0,0,1-.014.009m5.177-1.038a17.448,17.448,0,0,1,3.231.291,4.433,4.433,0,0,1,1.855.692V11.772a3.808,3.808,0,0,0-1.839-.687,17.469,17.469,0,0,0-3.282-.293,18.323,18.323,0,0,0-3.345.3,3.378,3.378,0,0,0-1.782.676v0.08a4.1,4.1,0,0,1,1.8-.67,18.2,18.2,0,0,1,3.329-.3h0.035"/></clipPath><clipPath id="clip-path-57" transform="translate(-0.039 -0.022)"><path class="cls-1" d="M12,8.556a10.922,10.922,0,0,1,4.291.65l0.275,0.476A11.032,11.032,0,0,0,12,9.017,11.549,11.549,0,0,0,7.48,9.7l0.328-.549a11.535,11.535,0,0,1,4.19-.6"/></clipPath><clipPath id="clip-path-59" transform="translate(-0.039 -0.022)"><path class="cls-1" d="M7.48,9.719l-0.011,0a0.015,0.015,0,0,1,0-.018L7.8,9.148,7.8,9.143A11.715,11.715,0,0,1,12,8.542h0a10.988,10.988,0,0,1,4.3.652L16.3,9.2l0.275,0.476a0.015,0.015,0,0,1-.02.02A10.975,10.975,0,0,0,12,9.032c-2.842.018-4.048,0.437-4.514,0.686l-0.007,0m0.339-.553-0.3.5A10.651,10.651,0,0,1,12,9a11.272,11.272,0,0,1,4.526.644l-0.248-.428A10.969,10.969,0,0,0,12,8.571h0a11.732,11.732,0,0,0-4.179.6"/></clipPath><clipPath id="clip-path-61" transform="translate(-0.039 -0.022)"><path class="cls-1" d="M12.023,8.949a17.176,17.176,0,0,1,2.947.207,5.373,5.373,0,0,1,1.612.475l0.082,0.144a5.9,5.9,0,0,0-1.709-.508,16.508,16.508,0,0,0-2.933-.2,16.987,16.987,0,0,0-2.972.2,5.243,5.243,0,0,0-1.6.5l0.08-.152a5.332,5.332,0,0,1,1.5-.458A17.457,17.457,0,0,1,12.023,8.949Zm0-.435a16.734,16.734,0,0,1,2.843.2,4.6,4.6,0,0,1,1.472.481l0.119,0.189a3.892,3.892,0,0,0-1.639-.559,18.107,18.107,0,0,0-2.795-.2,16.978,16.978,0,0,0-2.859.211,4.654,4.654,0,0,0-1.42.438l0.1-.158a5.079,5.079,0,0,1,1.3-.392A17.115,17.115,0,0,1,12.022,8.514Z"/></clipPath><clipPath id="clip-path-63" transform="translate(-0.039 -0.022)"><path class="cls-1" d="M16.663,9.79l-0.008,0a5.858,5.858,0,0,0-1.7-.506,16.262,16.262,0,0,0-2.93-.2,16.943,16.943,0,0,0-2.97.2,5.211,5.211,0,0,0-1.593.5,0.015,0.015,0,0,1-.018,0,0.015,0.015,0,0,1,0-.018l0.08-.153L7.523,9.6a5.448,5.448,0,0,1,1.5-.459,17.082,17.082,0,0,1,3-.206,17.188,17.188,0,0,1,2.949.208,5.293,5.293,0,0,1,1.62.479l0.083,0.147a0.015,0.015,0,0,1,0,.018l-0.01,0M12.1,9.05a16.148,16.148,0,0,1,2.854.2,6.459,6.459,0,0,1,1.666.48l-0.054-.1a5.508,5.508,0,0,0-1.6-.468,17.045,17.045,0,0,0-2.944-.207,17.027,17.027,0,0,0-2.993.206,5.42,5.42,0,0,0-1.49.454l-0.052.1a5.862,5.862,0,0,1,1.558-.471,17,17,0,0,1,2.975-.2H12.1M16.456,9.4a0.015,0.015,0,0,1-.011-0.005,3.944,3.944,0,0,0-1.631-.554,17.748,17.748,0,0,0-2.792-.2,16.937,16.937,0,0,0-2.856.21,4.777,4.777,0,0,0-1.415.436,0.014,0.014,0,0,1-.018,0,0.014,0.014,0,0,1,0-.018l0.1-.158,0.005,0a5.087,5.087,0,0,1,1.3-.394,17.162,17.162,0,0,1,2.879-.21,16.729,16.729,0,0,1,2.846.2,4.579,4.579,0,0,1,1.478.484l0,0,0.119,0.189a0.015,0.015,0,0,1,0,.02l-0.009,0m-4.434-.786a17.808,17.808,0,0,1,2.8.2,4.8,4.8,0,0,1,1.571.5l-0.064-.1a4.591,4.591,0,0,0-1.464-.477,16.494,16.494,0,0,0-2.84-.2,17.133,17.133,0,0,0-2.874.21,5.078,5.078,0,0,0-1.29.389l-0.067.1a5.322,5.322,0,0,1,1.37-.407,17,17,0,0,1,2.861-.211"/></clipPath><clipPath id="clip-path-65" transform="translate(-0.039 -0.022)"><path class="cls-1" d="M14.544,14.109a13.28,13.28,0,0,0-2.523-.192c-3.148.037-4.165,0.647-4.289,0.831L7.5,14.364a8.444,8.444,0,0,1,4.542-.874,16.03,16.03,0,0,1,2.723.235l-0.217.383"/></clipPath><clipPath id="clip-path-67" transform="translate(-0.039 -0.022)"><path class="cls-1" d="M7.732,14.763h0a0.015,0.015,0,0,1-.012-0.007l-0.235-.384a0.015,0.015,0,0,1,0-.019,8.42,8.42,0,0,1,4.551-.876,15.983,15.983,0,0,1,2.726.235,0.015,0.015,0,0,1,.011.008,0.015,0.015,0,0,1,0,.013l-0.217.383a0.015,0.015,0,0,1-.017.007,13.042,13.042,0,0,0-2.519-.191c-3.063.036-4.141,0.622-4.277,0.825a0.015,0.015,0,0,1-.012.007m-0.216-.394,0.217,0.354a2.241,2.241,0,0,1,1.006-.459,13.812,13.812,0,0,1,3.282-.361,13.076,13.076,0,0,1,2.516.19l0.2-.356a16.028,16.028,0,0,0-2.7-.231,8.443,8.443,0,0,0-4.522.863"/></clipPath><clipPath id="clip-path-69" transform="translate(-0.039 -0.022)"><path class="cls-1" d="M12,13.863a15.249,15.249,0,0,1,2.565.2l-0.06.106a13.4,13.4,0,0,0-2.5-.192,12.1,12.1,0,0,0-3.36.393,1.792,1.792,0,0,0-.912.469l-0.06-.1a1.592,1.592,0,0,1,.944-0.482,12.2,12.2,0,0,1,3.385-.4h0Zm0.04-.441a15.734,15.734,0,0,1,2.755.239l-0.063.111a14.355,14.355,0,0,0-2.687-.234,12.9,12.9,0,0,0-3.526.412,1.909,1.909,0,0,0-1.01.515l-0.06-.106A1.865,1.865,0,0,1,8.5,13.838,12.946,12.946,0,0,1,12.043,13.422Z"/></clipPath><clipPath id="clip-path-71" transform="translate(-0.039 -0.022)"><path class="cls-1" d="M7.734,14.857a0.014,0.014,0,0,1-.012-0.007l-0.06-.1,0-.01a1.579,1.579,0,0,1,.954-0.493,12.1,12.1,0,0,1,3.388-.4h0a15.359,15.359,0,0,1,2.566.2,0.014,0.014,0,0,1,.01.008,0.015,0.015,0,0,1,0,.013l-0.06.106a0.015,0.015,0,0,1-.015.007,13.312,13.312,0,0,0-2.5-.192,11.922,11.922,0,0,0-3.356.393,1.792,1.792,0,0,0-.9.46,0.014,0.014,0,0,1-.012.01h0m-0.045-.115,0.043,0.071a2.016,2.016,0,0,1,.91-0.452,11.985,11.985,0,0,1,3.364-.394,13.455,13.455,0,0,1,2.495.191l0.045-.08a15.4,15.4,0,0,0-2.543-.2h0a12.063,12.063,0,0,0-3.379.4,1.68,1.68,0,0,0-.933.465m-0.178-.262A0.014,0.014,0,0,1,7.5,14.472l-0.06-.106,0-.008a2.044,2.044,0,0,1,1.054-.533,12.728,12.728,0,0,1,3.551-.417,15.753,15.753,0,0,1,2.758.24,0.014,0.014,0,0,1,.01.008,0.015,0.015,0,0,1,0,.013l-0.063.11a0.014,0.014,0,0,1-.015.007,14.511,14.511,0,0,0-2.685-.234,12.63,12.63,0,0,0-3.522.411,1.845,1.845,0,0,0-1,.5,0.014,0.014,0,0,1-.011.012h0m-0.045-.123,0.041,0.073a2.474,2.474,0,0,1,1.01-.493,12.662,12.662,0,0,1,3.53-.413,14.567,14.567,0,0,1,2.68.233l0.048-.085a15.84,15.84,0,0,0-2.733-.235,12.708,12.708,0,0,0-3.543.416,1.826,1.826,0,0,0-1.033.5"/></clipPath><clipPath id="clip-path-73" transform="translate(-0.039 -0.022)"><polygon class="cls-1" points="16.515 14.423 16.136 15.01 15.049 14.044 12.23 12.147 9.051 10.404 7.4 9.84 7.752 9.188 7.872 9.122 8.897 9.379 12.281 11.122 14.229 12.352 15.87 13.532 16.536 14.301 16.515 14.423"/></clipPath><clipPath id="clip-path-75" transform="translate(-0.039 -0.022)"><path class="cls-1" d="M16.136,15.024l-0.01,0-1.087-.965-2.818-1.9L9.044,10.417,7.4,9.854a0.014,0.014,0,0,1-.009-0.009V9.833L7.739,9.18l0.006-.006L7.865,9.11H7.875L8.9,9.365l3.387,1.744,1.949,1.231,1.641,1.18,0.669,0.771a0.016,0.016,0,0,1,0,.012l-0.021.122,0,0.005-0.378.587a0.015,0.015,0,0,1-.01.007h0ZM7.422,9.831L9.056,10.39l3.181,1.744,2.821,1.9,1.076,0.955,0.367-.57,0.02-.112-0.662-.764-1.638-1.177-1.948-1.23L8.89,9.392,7.873,9.138,7.763,9.2Zm9.093,4.591h0Z"/></clipPath><clipPath id="clip-path-77" transform="translate(-0.039 -0.022)"><path class="cls-1" d="M7.341,9.855c0.289-.2,2.417.751,4.643,2.094s4.341,2.867,4.15,3.152l-0.063.1-0.029.023a0.134,0.134,0,0,0,0-.149c-0.095-.311-1.6-1.512-4.1-3.02C9.508,10.6,7.48,9.728,7.277,9.978l0.064-.122h0Zm9.251,4.559c0.183-.362-1.79-1.848-4.237-3.3-2.5-1.418-4.306-2.253-4.636-2l-0.073.133c0,0.007,0-.009.018-0.021a0.324,0.324,0,0,1,.2-0.049c0.567,0.008,2.187.754,4.461,2.057,1,0.58,4.208,2.64,4.2,3.219a0.1,0.1,0,0,1-.015.085Z"/></clipPath><clipPath id="clip-path-79" transform="translate(-0.039 -0.022)"><path class="cls-1" d="M16.042,15.237a0.015,0.015,0,0,1-.009-0.026h0a0.13,0.13,0,0,0-.008-0.131c-0.1-.32-1.688-1.562-4.09-3.013-2.553-1.523-4.464-2.3-4.646-2.079a0.015,0.015,0,0,1-.024-0.016l0.064-.122,0-.005c0.3-.205,2.436.753,4.658,2.093,2,1.212,4.071,2.663,4.166,3.091a0.1,0.1,0,0,1-.011.081l-0.063.1,0,0-0.029.023h0ZM7.414,9.922a16.043,16.043,0,0,1,4.536,2.119c2.44,1.473,4,2.7,4.1,3.028a0.266,0.266,0,0,1,.021.1l0.047-.074a0.072,0.072,0,0,0,.007-0.059c-0.091-.416-2.207-1.894-4.152-3.072-2.168-1.307-4.323-2.284-4.624-2.1l-0.037.071A0.3,0.3,0,0,1,7.414,9.922Zm9.1,4.631-0.009,0a0.015,0.015,0,0,1,0-.02l0.008-.013a0.092,0.092,0,0,0,0-.046V14.454c0.012-.577-3.261-2.667-4.188-3.207A15.789,15.789,0,0,0,7.868,9.192H7.857a0.291,0.291,0,0,0-.183.046,0.055,0.055,0,0,0-.014.017,0.018,0.018,0,0,1-.018.009,0.017,0.017,0,0,1-.01-0.017l0-.006,0.073-.133,0,0c0.4-.3,2.748.924,4.652,2,2.209,1.307,4.446,2.912,4.242,3.315h0l-0.073.111-0.009.014A0.014,0.014,0,0,1,16.51,14.553ZM7.868,9.163c0.572,0.009,2.2.759,4.468,2.059,0.656,0.382,4.216,2.6,4.2,3.232v0.013l0.039-.06c0.167-.335-1.691-1.773-4.231-3.276C9.675,9.617,8.036,8.9,7.731,9.125L7.7,9.19a0.39,0.39,0,0,1,.161-0.027H7.868Zm8.724,5.252h0Z"/></clipPath><clipPath id="clip-path-81" transform="translate(-0.039 -0.022)"><path class="cls-1" d="M8.979,12.558A3.067,3.067,0,0,0,12.018,15.6a3.049,3.049,0,0,0,3.049-3.039V8.5L8.978,8.493v4.065Z"/></clipPath><clipPath id="clip-path-83" transform="translate(-0.039 -0.022)"><path class="cls-1" d="M12.018,15.617a3.084,3.084,0,0,1-3.056-3.041v-4.1l6.122,0.007v4.077A3.066,3.066,0,0,1,12.018,15.617ZM9,12.541v0.017a3.026,3.026,0,0,0,6.053.015V8.518L9,8.511v4.03Z"/></clipPath><clipPath id="clip-path-85" transform="translate(-0.039 -0.022)"><path class="cls-1" d="M9.093,12.563v0a2.89,2.89,0,0,0,.86,2.051,2.915,2.915,0,0,0,4.124,0,2.891,2.891,0,0,0,.856-2.053h0V8.63H9.1l0,3.935h0Zm4.666-2.755v2.507l0,0.265a1.863,1.863,0,0,1-.013.217,1.7,1.7,0,0,1-.5,1.01,1.744,1.744,0,0,1-1.233.51,1.762,1.762,0,0,1-1.736-1.746V9.8Z"/></clipPath><clipPath id="clip-path-87" transform="translate(-0.039 -0.022)"><path class="cls-1" d="M12.015,15.487A2.945,2.945,0,0,1,9.08,12.566l0.026,0v0a2.907,2.907,0,0,0,5.814.013V8.643H9.109l0,3.922H9.08l0-3.948h5.863v3.952A2.93,2.93,0,0,1,12.015,15.487Zm0-1.157a1.741,1.741,0,0,1-1.231-.522,1.76,1.76,0,0,1-.518-1.237V9.789h0.013l3.489,0.006L13.772,9.8v2.512l0,0.265a1.894,1.894,0,0,1-.013.218,1.715,1.715,0,0,1-.5,1.018A1.75,1.75,0,0,1,12.013,14.33ZM10.289,9.815v2.757A1.733,1.733,0,0,0,10.8,13.79a1.71,1.71,0,0,0,2.436.008,1.69,1.69,0,0,0,.5-1,1.905,1.905,0,0,0,.012-0.215l0-.265V9.821Z"/></clipPath><clipPath id="clip-path-89" transform="translate(-0.039 -0.022)"><path class="cls-1" d="M10.029,14.383l0.206,0.254,0.15-.15a0.289,0.289,0,0,1-.075-0.368,0.314,0.314,0,0,1,.37.071l0.15-.151-0.26-.2Z"/></clipPath><clipPath id="clip-path-91" transform="translate(-0.039 -0.022)"><path class="cls-1" d="M10.235,14.656l-0.217-.268,0-.008,0.007-.007,0.549-.556,0.28,0.22-0.169.17L10.671,14.2a0.3,0.3,0,0,0-.353-0.071,0.277,0.277,0,0,0,.077.349L10.4,14.487Zm-0.188-.272,0.19,0.234,0.131-.131a0.332,0.332,0,0,1-.1-0.266,0.3,0.3,0,0,1,.018-0.075Zm0.4-.31a0.35,0.35,0,0,1,.237.1l0.131-.132-0.239-.188-0.238.241a0.322,0.322,0,0,1,.1-0.019h0.014Z"/></clipPath><clipPath id="clip-path-93" transform="translate(-0.039 -0.022)"><path class="cls-1" d="M10.226,14.648l0.612-.617a0.038,0.038,0,0,1,.052,0,0.037,0.037,0,0,1,0,.052l-0.612.617a0.041,0.041,0,0,1-.057-0.057"/></clipPath><clipPath id="clip-path-95" transform="translate(-0.039 -0.022)"><path class="cls-1" d="M10.262,14.726a0.057,0.057,0,0,1-.039-0.017,0.05,0.05,0,0,1-.005-0.07l0.612-.616a0.044,0.044,0,0,1,.035-0.012,0.057,0.057,0,0,1,.035.017,0.05,0.05,0,0,1,.005.07l-0.612.617A0.042,0.042,0,0,1,10.262,14.726Zm-0.026-.069a0.028,0.028,0,0,0,.039.038l0.612-.616a0.025,0.025,0,0,0,0-.034,0.032,0.032,0,0,0-.019-0.01,0.017,0.017,0,0,0-.015,0Z"/></clipPath><clipPath id="clip-path-97" transform="translate(-0.039 -0.022)"><path class="cls-1" d="M9.912,14.31l0.587-.591a0.036,0.036,0,0,1,.051.051l-0.587.591a0.036,0.036,0,0,1-.051-0.051"/></clipPath><clipPath id="clip-path-99" transform="translate(-0.039 -0.022)"><path class="cls-1" d="M9.942,14.382a0.051,0.051,0,0,1-.036-0.015,0.047,0.047,0,0,1,0-.066l0.587-.591a0.042,0.042,0,0,1,.03-0.013,0.05,0.05,0,0,1,.036.015,0.047,0.047,0,0,1,0,.066l-0.587.591A0.042,0.042,0,0,1,9.942,14.382Zm-0.021-.063a0.024,0.024,0,0,0,.033.033l0.587-.591a0.021,0.021,0,0,0,0-.03,0.025,0.025,0,0,0-.018-0.008l-0.012,0Z"/></clipPath><clipPath id="clip-path-101" transform="translate(-0.039 -0.022)"><path class="cls-1" d="M9.976,14.349l0.561-.565a0.037,0.037,0,0,1,.051.051l-0.561.565a0.037,0.037,0,0,1-.051-0.051"/></clipPath><clipPath id="clip-path-103" transform="translate(-0.039 -0.022)"><path class="cls-1" d="M10.007,14.42A0.052,0.052,0,0,1,9.971,14.4a0.047,0.047,0,0,1,0-.065l0.561-.565a0.046,0.046,0,0,1,.065,0,0.051,0.051,0,0,1,.016.036,0.041,0.041,0,0,1-.012.029l-0.561.565a0.04,0.04,0,0,1-.029.012m0.55-.632-0.011,0-0.561.565a0.024,0.024,0,0,0,.033.033l0.561-.565,0-.011a0.026,0.026,0,0,0-.008-0.018,0.026,0.026,0,0,0-.018-0.008"/></clipPath><clipPath id="clip-path-105" transform="translate(-0.039 -0.022)"><path class="cls-1" d="M14.009,14.383l-0.206.254-0.15-.15a0.289,0.289,0,0,0,.075-0.368,0.314,0.314,0,0,0-.37.071l-0.15-.151,0.26-.2Z"/></clipPath><clipPath id="clip-path-107" transform="translate(-0.039 -0.022)"><path class="cls-1" d="M13.8,14.657l-0.169-.169,0.009-.009a0.276,0.276,0,0,0,.075-0.351,0.3,0.3,0,0,0-.352.072l-0.009.009-0.169-.17,0.28-.22,0.557,0.564-0.007.01Zm-0.133-.17L13.8,14.618l0.19-.234-0.235-.238a0.288,0.288,0,0,1,.018.075A0.333,0.333,0,0,1,13.671,14.487Zm-0.444-.447,0.131,0.132a0.346,0.346,0,0,1,.251-0.1,0.322,0.322,0,0,1,.1.019l-0.239-.241Z"/></clipPath><clipPath id="clip-path-109" transform="translate(-0.039 -0.022)"><path class="cls-1" d="M13.812,14.648L13.2,14.032a0.038,0.038,0,0,0-.052,0,0.037,0.037,0,0,0,0,.052L13.755,14.7a0.041,0.041,0,0,0,.057-0.057"/></clipPath><clipPath id="clip-path-111" transform="translate(-0.039 -0.022)"><path class="cls-1" d="M13.777,14.726a0.042,0.042,0,0,1-.031-0.012L13.134,14.1a0.05,0.05,0,0,1,.005-0.07,0.054,0.054,0,0,1,.035-0.017,0.043,0.043,0,0,1,.035.012l0.612,0.617a0.05,0.05,0,0,1-.005.07,0.057,0.057,0,0,1-.039.017m-0.6-.69h0a0.032,0.032,0,0,0-.019.01,0.025,0.025,0,0,0,0,.034L13.764,14.7a0.025,0.025,0,0,0,.034,0,0.025,0.025,0,0,0,.005-0.034l-0.612-.616a0.018,0.018,0,0,0-.013,0"/></clipPath><clipPath id="clip-path-113" transform="translate(-0.039 -0.022)"><path class="cls-1" d="M14.127,14.31l-0.587-.591a0.036,0.036,0,0,0-.051.051l0.587,0.591a0.036,0.036,0,0,0,.051-0.051"/></clipPath><clipPath id="clip-path-115" transform="translate(-0.039 -0.022)"><path class="cls-1" d="M14.1,14.382a0.043,0.043,0,0,1-.031-0.012l-0.587-.591a0.047,0.047,0,0,1,0-.066,0.05,0.05,0,0,1,.036-0.015h0a0.042,0.042,0,0,1,.03.012L14.136,14.3a0.047,0.047,0,0,1,0,.066A0.052,0.052,0,0,1,14.1,14.382Zm-0.579-.659a0.024,0.024,0,0,0-.018.008,0.022,0.022,0,0,0,0,.03l0.587,0.591a0.022,0.022,0,0,0,.03,0,0.022,0.022,0,0,0,0-.03l-0.587-.591Z"/></clipPath><clipPath id="clip-path-117" transform="translate(-0.039 -0.022)"><path class="cls-1" d="M14.063,14.349L13.5,13.783a0.037,0.037,0,0,0-.051.051L14.011,14.4a0.037,0.037,0,0,0,.051-0.051"/></clipPath><clipPath id="clip-path-119" transform="translate(-0.039 -0.022)"><path class="cls-1" d="M14.031,14.42A0.04,0.04,0,0,1,14,14.409l-0.561-.565a0.041,0.041,0,0,1-.012-0.029,0.054,0.054,0,0,1,.048-0.052,0.041,0.041,0,0,1,.033.012l0.561,0.565a0.046,0.046,0,0,1,0,.065,0.052,0.052,0,0,1-.036.015m-0.55-.632h0a0.026,0.026,0,0,0-.016.008,0.025,0.025,0,0,0-.008.018l0,0.011,0.561,0.565a0.022,0.022,0,0,0,.029,0,0.022,0.022,0,0,0,0-.029l-0.561-.565-0.011,0"/></clipPath><clipPath id="clip-path-121" transform="translate(-0.039 -0.022)"><path class="cls-1" d="M11.647,12.117h0a0.427,0.427,0,0,0,.113.292,0.365,0.365,0,0,0,.544,0,0.427,0.427,0,0,0,.113-0.292V11.565H11.648v0.552"/></clipPath><clipPath id="clip-path-123" transform="translate(-0.039 -0.022)"><path class="cls-1" d="M11.647,10.783h0a0.427,0.427,0,0,0,.113.292,0.365,0.365,0,0,0,.544,0,0.427,0.427,0,0,0,.113-0.292V10.232H11.648v0.552"/></clipPath><clipPath id="clip-path-125" transform="translate(-0.039 -0.022)"><path class="cls-1" d="M10.581,12.117h0a0.427,0.427,0,0,0,.113.292,0.365,0.365,0,0,0,.544,0,0.427,0.427,0,0,0,.113-0.292V11.565H10.582v0.552"/></clipPath><clipPath id="clip-path-127" transform="translate(-0.039 -0.022)"><path class="cls-1" d="M12.711,12.117h0a0.427,0.427,0,0,0,.113.292,0.365,0.365,0,0,0,.544,0,0.427,0.427,0,0,0,.113-0.292V11.565H12.712v0.552"/></clipPath><clipPath id="clip-path-129" transform="translate(-0.039 -0.022)"><path class="cls-1" d="M11.647,13.439h0a0.427,0.427,0,0,0,.113.292,0.365,0.365,0,0,0,.544,0,0.427,0.427,0,0,0,.113-0.292V12.887H11.648v0.552"/></clipPath></defs><title>portugal_4</title><g id="Portugal"><g id="Portugal-2" data-name="Portugal"><path class="cls-3" d="M24,12A11.981,11.981,0,0,0,12.019.022V23.983A11.981,11.981,0,0,0,24,12Z" transform="translate(-0.039 -0.022)"/><path class="cls-4" d="M0.039,12A11.981,11.981,0,0,0,12.019,23.983V0.022A11.981,11.981,0,0,0,.039,12Z" transform="translate(-0.039 -0.022)"/></g><g class="cls-5"><g class="cls-6"><rect class="cls-7" x="2.271" y="4.286" width="19.124" height="15.894"/></g></g><g class="cls-8"><g class="cls-6"><rect x="2.256" y="4.271" width="19.154" height="15.923"/></g></g><g class="cls-9"><g class="cls-6"><rect class="cls-7" x="2.202" y="4.075" width="19.369" height="16.169"/></g></g><g class="cls-10"><g class="cls-6"><rect x="2.188" y="4.061" width="19.398" height="16.198"/></g></g><g class="cls-11"><g class="cls-6"><rect class="cls-7" x="2.429" y="4.255" width="19.156" height="11.167"/></g></g><g class="cls-12"><g class="cls-6"><rect x="2.415" y="4.24" width="19.186" height="11.196"/></g></g><g class="cls-13"><g class="cls-6"><rect class="cls-7" x="2.366" y="4.209" width="19.284" height="11.265"/></g></g><g class="cls-14"><g class="cls-6"><rect x="2.351" y="4.194" width="19.313" height="11.295"/></g></g><g class="cls-15"><g class="cls-6"><rect class="cls-7" x="1.873" y="6.758" width="20.224" height="11.32"/></g></g><g class="cls-16"><g class="cls-6"><rect x="1.859" y="6.743" width="20.254" height="11.35"/></g></g><g class="cls-17"><g class="cls-6"><rect class="cls-7" x="1.816" y="6.712" width="20.331" height="11.412"/></g></g><g class="cls-18"><g class="cls-6"><rect x="1.801" y="6.697" width="20.361" height="11.442"/></g></g><g class="cls-19"><g class="cls-6"><rect class="cls-7" x="2.48" y="9.335" width="18.989" height="11.204"/></g></g><g class="cls-20"><g class="cls-6"><rect x="2.465" y="9.32" width="19.019" height="11.233"/></g></g><g class="cls-21"><g class="cls-6"><rect class="cls-7" x="2.39" y="9.275" width="19.154" height="11.313"/></g></g><g class="cls-22"><g class="cls-6"><rect x="2.376" y="9.261" width="19.183" height="11.341"/></g></g><g class="cls-23"><g class="cls-6"><rect class="cls-7" x="1.869" y="1.891" width="20.217" height="20.175"/></g></g><g class="cls-24"><g class="cls-6"><rect x="1.854" y="1.876" width="20.246" height="20.204"/></g></g><g class="cls-25"><g class="cls-6"><rect class="cls-7" x="1.878" y="1.873" width="20.206" height="20.207"/></g></g><g class="cls-26"><g class="cls-6"><rect x="1.864" y="1.859" width="20.236" height="20.237"/></g></g><g class="cls-27"><g class="cls-6"><rect class="cls-7" x="2.309" y="2.295" width="19.353" height="19.354"/></g></g><g class="cls-28"><g class="cls-6"><rect x="2.294" y="2.281" width="19.383" height="19.384"/></g></g><g class="cls-29"><g class="cls-6"><rect class="cls-7" x="6.688" y="1.795" width="10.597" height="20.372"/></g></g><g class="cls-30"><g class="cls-6"><rect x="6.673" y="1.78" width="10.627" height="20.401"/></g></g><g class="cls-31"><g class="cls-6"><rect class="cls-7" x="1.859" y="5.766" width="20.229" height="11.435"/></g></g><g class="cls-32"><g class="cls-6"><rect x="1.844" y="5.751" width="20.259" height="11.464"/></g></g><g class="cls-33"><g class="cls-6"><rect class="cls-7" x="1.815" y="5.729" width="20.332" height="11.611"/></g></g><g class="cls-34"><g class="cls-6"><rect x="1.8" y="5.714" width="20.361" height="11.641"/></g></g><g class="cls-35"><g class="cls-6"><rect class="cls-7" x="2.414" y="3.508" width="19.138" height="11.202"/></g></g><g class="cls-36"><g class="cls-6"><rect x="2.4" y="3.493" width="19.167" height="11.232"/></g></g><g class="cls-37"><g class="cls-6"><rect class="cls-7" x="2.384" y="3.466" width="19.267" height="11.315"/></g></g><g class="cls-38"><g class="cls-6"><rect x="2.369" y="3.451" width="19.296" height="11.344"/></g></g><g class="cls-39"><g class="cls-6"><rect class="cls-7" x="2.431" y="8.44" width="17.319" height="11.313"/></g></g><g class="cls-40"><g class="cls-6"><rect x="2.416" y="8.425" width="17.348" height="11.343"/></g></g><g class="cls-41"><g class="cls-6"><rect class="cls-7" x="2.387" y="8.374" width="17.4" height="11.474"/></g></g><g class="cls-42"><g class="cls-6"><rect x="2.372" y="8.359" width="17.428" height="11.503"/></g></g><g class="cls-43"><g class="cls-6"><rect class="cls-7" x="2.335" y="4.074" width="19.189" height="15.941"/></g></g><g class="cls-44"><g class="cls-6"><rect x="2.32" y="4.059" width="19.219" height="15.97"/></g></g><g class="cls-45"><g class="cls-6"><rect class="cls-7" x="2.212" y="4.023" width="19.381" height="16.205"/></g></g><g class="cls-46"><g class="cls-6"><rect x="2.197" y="4.009" width="19.41" height="16.233"/></g></g><g class="cls-47"><g class="cls-6"><rect class="cls-48" x="3.913" y="3.445" width="16.141" height="17.16"/></g></g><g class="cls-49"><g class="cls-6"><rect x="3.896" y="3.428" width="16.176" height="17.194"/></g></g><g class="cls-50"><g class="cls-6"><rect class="cls-3" x="4.027" y="3.58" width="15.894" height="16.899"/></g></g><g class="cls-51"><g class="cls-6"><rect x="4.014" y="3.567" width="15.92" height="16.925"/></g></g><g class="cls-52"><g class="cls-6"><rect class="cls-7" x="4.964" y="8.787" width="10.855" height="10.856"/></g></g><g class="cls-53"><g class="cls-6"><rect x="4.948" y="8.77" width="10.89" height="10.892"/></g></g><g class="cls-54"><g class="cls-6"><rect class="cls-7" x="5.153" y="8.975" width="10.74" height="10.744"/></g></g><g class="cls-55"><g class="cls-6"><rect x="5.14" y="8.962" width="10.765" height="10.769"/></g></g><g class="cls-56"><g class="cls-6"><rect class="cls-7" x="4.838" y="8.662" width="10.709" height="10.713"/></g></g><g class="cls-57"><g class="cls-6"><rect x="4.825" y="8.649" width="10.734" height="10.738"/></g></g><g class="cls-58"><g class="cls-6"><rect class="cls-7" x="4.902" y="8.727" width="10.682" height="10.686"/></g></g><g class="cls-59"><g class="cls-6"><rect x="4.89" y="8.714" width="10.707" height="10.712"/></g></g><g class="cls-60"><g class="cls-6"><rect class="cls-7" x="8.142" y="8.787" width="10.855" height="10.856"/></g></g><g class="cls-61"><g class="cls-6"><rect x="8.123" y="8.77" width="10.891" height="10.892"/></g></g><g class="cls-62"><g class="cls-6"><rect class="cls-7" x="8.069" y="8.975" width="10.74" height="10.744"/></g></g><g class="cls-63"><g class="cls-6"><rect x="8.056" y="8.962" width="10.765" height="10.769"/></g></g><g class="cls-64"><g class="cls-6"><rect class="cls-7" x="8.415" y="8.662" width="10.709" height="10.713"/></g></g><g class="cls-65"><g class="cls-6"><rect x="8.402" y="8.649" width="10.734" height="10.738"/></g></g><g class="cls-66"><g class="cls-6"><rect class="cls-7" x="8.377" y="8.727" width="10.682" height="10.686"/></g></g><g class="cls-67"><g class="cls-6"><rect x="8.364" y="8.714" width="10.708" height="10.712"/></g></g><g class="cls-68"><g class="cls-6"><rect class="cls-69" x="6.582" y="6.516" width="10.824" height="11.02"/></g></g><g class="cls-70"><g class="cls-6"><rect class="cls-69" x="6.582" y="5.183" width="10.824" height="11.02"/></g></g><g class="cls-71"><g class="cls-6"><rect class="cls-69" x="5.515" y="6.516" width="10.824" height="11.02"/></g></g><g class="cls-72"><g class="cls-6"><rect class="cls-69" x="7.645" y="6.516" width="10.824" height="11.02"/></g></g><g class="cls-73"><g class="cls-6"><rect class="cls-69" x="6.582" y="7.838" width="10.824" height="11.02"/></g></g></g></svg>