<?xml version="1.0" encoding="utf-8"?>
<!-- Generator: Adobe Illustrator 22.0.1, SVG Export Plug-In . SVG Version: 6.00 Build 0)  -->
<svg version="1.1" id="Layer_1" xmlns="http://www.w3.org/2000/svg" xmlns:xlink="http://www.w3.org/1999/xlink" x="0px" y="0px"
	 viewBox="0 0 48 48" style="enable-background:new 0 0 48 48;" xml:space="preserve">
<style type="text/css">
	.st0{clip-path:url(#SVGID_2_);}
	.st1{fill:#00840F;}
	.st2{fill:#FF1612;}
	.st3{fill-rule:evenodd;clip-rule:evenodd;fill:#FFFF00;stroke:#000000;stroke-width:6.227700e-02;stroke-miterlimit:2.4142;}
	.st4{fill-rule:evenodd;clip-rule:evenodd;fill:#FFFF00;stroke:#000000;stroke-width:6.239700e-02;stroke-miterlimit:2.4142;}
	.st5{fill:none;stroke:#000000;stroke-width:6.233500e-02;stroke-miterlimit:2.4142;}
	.st6{fill:none;stroke:#000000;stroke-width:6.233700e-02;stroke-miterlimit:2.4142;}
	.st7{fill-rule:evenodd;clip-rule:evenodd;fill:#FF1612;}
	.st8{fill-rule:evenodd;clip-rule:evenodd;fill:#FFFFFF;}
	.st9{fill-rule:evenodd;clip-rule:evenodd;fill:#FFFF00;stroke:#000000;stroke-width:4.982800e-02;stroke-miterlimit:2.4142;}
	.st10{fill-rule:evenodd;clip-rule:evenodd;}
	.st11{fill-rule:evenodd;clip-rule:evenodd;fill:#FFFF00;stroke:#000000;stroke-width:5.502300e-02;stroke-miterlimit:2.4142;}
	.st12{fill-rule:evenodd;clip-rule:evenodd;fill:#FFFF00;}
	.st13{fill-rule:evenodd;clip-rule:evenodd;fill:#003399;}
</style>
<g>
	<defs>
		<circle id="SVGID_1_" cx="24" cy="24" r="23.8"/>
	</defs>
	<clipPath id="SVGID_2_">
		<use xlink:href="#SVGID_1_"  style="overflow:visible;"/>
	</clipPath>
	<g class="st0">
		<polygon class="st1" points="-8.7,47.8 19.8,47.8 19.8,0.2 -8.7,0.2 -8.7,47.8 		"/>
		<polygon class="st2" points="19.8,47.8 62.6,47.8 62.6,0.2 19.8,0.2 19.8,47.8 		"/>
		<g>
			<path class="st3" d="M25.1,30.2c0,0,1.8,0.9,2.9,1.4c1.2,0.4,1.6,0.3,1.6,0.2c0-0.1,0.1-0.2,0.1-0.2l-0.4-0.7l-2.9-2.4
				c0,0-1.2,0.3-1.3,0.3C25.2,28.8,25.1,30.2,25.1,30.2L25.1,30.2z"/>
			<path d="M28.3,31.3c0,0-1.8-0.6-2.8-1.1l0,0.1C26.5,30.8,28.3,31.4,28.3,31.3L28.3,31.3L28.3,31.3z"/>
			<path class="st3" d="M30.4,17.7c0.2,0,0.3,0,0.2-0.2c-0.1-0.1-0.2-0.2-0.3-0.3c0,0.1,0,0.2-0.1,0.4
				C30.3,17.7,30.3,17.7,30.4,17.7L30.4,17.7z"/>
			<path class="st3" d="M30.8,18.3c0,0.1,0,0.2,0,0.3c0,0,0.1,0.1,0.1,0.1c0.2,0,0.3-0.1,0.2-0.2C31,18.5,30.9,18.4,30.8,18.3
				L30.8,18.3z"/>
			<path class="st4" d="M10.6,30.2c0,0,3.4,1.1,9.3,1.1c2.8,0,6-0.2,9.7-1.1c-0.4,0.5-0.8,0.9-1.2,1.4c-3.7,1.1-10.4,1.8-16.6,0.1
				L10.6,30.2L10.6,30.2z"/>
			<path d="M11.6,31.3c0.4,0.1,2.3,0.5,4.4,0.8c1.3,0.2,2.6,0.3,3.8,0.3c3.5,0,8.4-1.1,8.5-1.1l0,0.1c0,0-4.9,1.1-8.5,1.1
				c-1.2,0-2.6-0.1-3.8-0.3C13.9,31.9,12,31.5,11.6,31.3L11.6,31.3L11.6,31.3z"/>
			<path d="M10.9,30.5c0.4,0.1,2.5,0.6,4.9,0.9c1.4,0.2,2.8,0.3,4.1,0.3c3.7,0,8.9-1.1,8.9-1.1l0,0.1c0,0-5.2,1.1-8.9,1.1
				c-1.3,0-2.7-0.1-4.1-0.3C13.4,31.1,11.2,30.6,10.9,30.5L10.9,30.5L10.9,30.5z"/>
			<path class="st3" d="M13,26.2c0,0-2.7-0.3-4.3-1l0-1.3c0,0,2.6,0.8,4.3,0.9L13,26.2L13,26.2z"/>
			<path d="M8.7,24.3c0,0,1.9,0.7,3.9,0.8l0,0.1C10.6,25,8.7,24.3,8.7,24.3L8.7,24.3L8.7,24.3z"/>
			<path d="M8.7,25c0,0,2.1,0.7,3.9,0.9l0,0.1C10.8,25.8,8.7,25.1,8.7,25L8.7,25L8.7,25z"/>
			<path class="st4" d="M9.8,31c-0.1,0-0.3,0-0.4-0.2c0.1-0.1,0.1-0.2,0.2-0.3C9.7,30.7,9.7,30.9,9.8,31L9.8,31z"/>
			<path class="st4" d="M9.2,30c-0.1,0.1-0.2,0.1-0.3-0.1c0-0.1,0.1-0.2,0.1-0.3C9,29.8,9.1,29.9,9.2,30L9.2,30z"/>
			<path class="st3" d="M26.7,19.8c0,0,2.4-0.5,3.3-0.8c0.9-0.4-0.8-1.1-0.8-1.1s-1.7,0.5-2.3,0.6C26.3,18.6,26.7,19.8,26.7,19.8
				L26.7,19.8z"/>
			<path d="M27.1,19.4c0,0,2-0.4,2.6-0.7l0,0.1C29.1,19.1,27.1,19.5,27.1,19.4L27.1,19.4L27.1,19.4z M27,18.6c0,0,1.8-0.3,2.3-0.5
				l0,0.1C28.8,18.4,27,18.7,27,18.6L27,18.6L27,18.6z"/>
			<path class="st4" d="M7.7,25c-0.1,0-0.3,0-0.3-0.3c0.1-0.1,0.1-0.3,0.2-0.4C7.6,24.6,7.6,24.8,7.7,25L7.7,25z"/>
			<path class="st4" d="M7.6,23.8c-0.1,0-0.2,0.1-0.2-0.1c0.1-0.1,0.1-0.2,0.2-0.3C7.6,23.5,7.6,23.7,7.6,23.8L7.6,23.8z"/>
			<path class="st4" d="M32,25c0.1,0,0.3,0,0.3-0.3c-0.1-0.1-0.1-0.3-0.2-0.4C32,24.6,32,24.8,32,25L32,25z"/>
			<path class="st4" d="M32.1,23.8c0.1,0,0.2,0.1,0.2-0.1c-0.1-0.1-0.1-0.2-0.2-0.3C32.1,23.5,32.1,23.7,32.1,23.8L32.1,23.8z"/>
			<path class="st3" d="M11.4,22c0,0-1.1-0.8-2.1-1.6c-0.9-0.8-1-1.2-1-1.3c0.1-0.1,0.1-0.2,0.1-0.2l0.8,0l3.4,1.4
				c0,0,0.4,1.2,0.4,1.3C13.1,21.6,11.4,22,11.4,22L11.4,22z"/>
			<path d="M9.4,20.1c0,0,1.4,1.3,2.4,1.9l0,0.1C10.7,21.4,9.4,20.1,9.4,20.1L9.4,20.1L9.4,20.1z"/>
			<path class="st3" d="M26.7,26.2c0,0,2.7-0.3,4.3-1l0-1.3c0,0-2.6,0.8-4.3,0.9L26.7,26.2L26.7,26.2z"/>
			<path d="M30.9,24.3c0,0-1.9,0.7-3.9,0.8l0,0.1C29,25,31,24.3,30.9,24.3L30.9,24.3L30.9,24.3z"/>
			<path d="M30.9,25c0,0-2.1,0.7-3.9,0.9l0,0.1C28.8,25.8,30.9,25.1,30.9,25L30.9,25L30.9,25z"/>
			<path class="st3" d="M19.8,11.6c6.8,0,12.3,5.5,12.3,12.4c0,6.8-5.5,12.4-12.3,12.4S7.5,30.8,7.5,24C7.5,17.2,13,11.6,19.8,11.6
				L19.8,11.6z M19.8,13c6.1,0,11,4.9,11,11c0,6.1-4.9,11-11,11c-6.1,0-11-4.9-11-11C8.8,17.9,13.8,13,19.8,13L19.8,13z"/>
			<path class="st5" d="M19.8,12c6.6,0,12,5.4,12,12c0,6.7-5.4,12-12,12s-12-5.4-12-12C7.8,17.3,13.2,12,19.8,12z"/>
			<path class="st6" d="M19.8,12.7c6.2,0,11.3,5.1,11.3,11.3c0,6.2-5,11.3-11.3,11.3c-6.2,0-11.3-5.1-11.3-11.3
				C8.6,17.8,13.6,12.7,19.8,12.7z"/>
			<polygon class="st4" points="19.5,11.6 20.2,11.6 20.2,16 19.5,16 19.5,11.6 			"/>
			<polygon class="st4" points="20.5,11.5 20.2,11.5 20.2,16 20.5,16 20.5,11.5 			"/>
			<polygon class="st4" points="19.5,11.5 19.2,11.5 19.2,16 19.5,16 19.5,11.5 			"/>
			<polygon class="st4" points="19.5,36.4 20.2,36.4 20.2,32 19.5,32 19.5,36.4 			"/>
			<polygon class="st4" points="20.5,36.5 20.2,36.5 20.2,32 20.5,32 20.5,36.5 			"/>
			<polygon class="st4" points="19.5,36.5 19.2,36.5 19.2,32 19.5,32 19.5,36.5 			"/>
			<path class="st4" d="M8.9,29.8c0,0,0.3,0.5,0.5,0.9c0,0,0.4-0.4,1-0.6c0.6-0.2,3.2-0.9,3.2-0.9l-0.5-1c0,0-2.6,0.6-3.4,1
				C8.9,29.6,8.9,29.8,8.9,29.8L8.9,29.8z"/>
			<path class="st4" d="M8.7,29.7c0,0,0.1-0.4,1.7-1c1.5-0.5,2.8-0.8,2.8-0.8l0,0.3c0,0-1.8,0.4-2.8,0.8c-0.9,0.3-1.4,0.7-1.6,0.9
				L8.7,29.7L8.7,29.7z"/>
			<path class="st4" d="M9.3,30.7c0,0,0.1-0.4,1.7-1c1.5-0.5,2.8-0.8,2.8-0.8l0,0.3c0,0-1.8,0.4-2.8,0.8c-0.9,0.3-1.4,0.7-1.6,0.9
				L9.3,30.7L9.3,30.7z"/>
			<path class="st4" d="M7.5,23.5c0,0,0,0.6,0,0.9l1.6-0.8l2.3-0.6l1.2-0.2l-0.1-1L10,22.3l-1.6,0.6L7.5,23.5L7.5,23.5z"/>
			<path class="st4" d="M7.4,24.8c0,0,0.4-0.7,2.5-1.2c2.1-0.6,2.8-0.6,2.8-0.6l-0.1-0.3c0,0-1.5,0.2-2.8,0.6
				c-1.3,0.4-2.2,0.9-2.4,1.2L7.4,24.8L7.4,24.8z"/>
			<path class="st4" d="M7.4,23.7c0,0,0.4-0.7,2.5-1.2c2.1-0.6,2.8-0.6,2.8-0.6l-0.1-0.3c0,0-1.5,0.2-2.8,0.6
				c-1.3,0.4-2.2,0.9-2.4,1.2L7.4,23.7L7.4,23.7z"/>
			<path class="st4" d="M32.2,23.5c0,0,0,0.6,0,0.9l-1.6-0.8L28.2,23L27,22.8l0.1-1l2.6,0.6l1.6,0.6L32.2,23.5L32.2,23.5z"/>
			<path class="st4" d="M32.3,24.8c0,0-0.4-0.7-2.5-1.2C27.7,23,27,22.9,27,22.9l0.1-0.3c0,0,1.5,0.2,2.8,0.6
				c1.3,0.4,2.2,0.9,2.4,1.2L32.3,24.8L32.3,24.8z"/>
			<path class="st4" d="M32.3,23.7c0,0-0.4-0.7-2.5-1.2c-2.1-0.6-2.8-0.6-2.8-0.6l0.1-0.3c0,0,1.5,0.2,2.8,0.6
				c1.3,0.4,2.2,0.9,2.4,1.2L32.3,23.7L32.3,23.7z"/>
			<polygon class="st3" points="30.2,17.2 30.8,18.3 29.1,17.7 27,17.2 27,16.2 28.8,16.7 30.2,17.2 			"/>
			<path class="st3" d="M27.1,16.1c0,0,2.1,0.4,3.2,1.1l0.2,0.3c0,0.1,0,0.1,0,0c-0.1-0.1-0.7-0.4-1.7-0.7c-1.3-0.3-1.6-0.4-1.6-0.4
				L27.1,16.1L27.1,16.1z"/>
			<path class="st3" d="M30.9,18.2c0,0-1.1-0.7-3.8-1.1l0,0.2c0,0,2.3,0.4,3.9,1.1c0.1,0,0.1,0.1,0,0L30.9,18.2L30.9,18.2z"/>
			<polygon class="st3" points="10,17 9.3,18 11,17.5 13.2,17.1 13.2,16.2 11.4,16.5 10,17 			"/>
			<path class="st3" d="M13.1,16c0,0-2.1,0.3-3.3,0.9l-0.2,0.3c0,0.1,0,0.1,0,0c0.2-0.1,0.7-0.4,1.8-0.6c1.3-0.3,1.6-0.3,1.6-0.3
				L13.1,16L13.1,16z"/>
			<path class="st3" d="M9.2,18c0,0,1.2-0.6,3.8-0.9l0,0.2c0,0-2.3,0.3-3.9,0.9c-0.1,0-0.1,0,0,0L9.2,18L9.2,18z"/>
			<path class="st3" d="M9.4,17.1l-0.2,0.2c0,0-0.1,0.1,0.1,0.4l0.4-0.6L9.4,17.1L9.4,17.1z"/>
			<path class="st3" d="M8.6,18.8l1-1.8l0.7,0l1.7,0.5l0.8,0.4c0,0,0,2.4,0,2.4c0,0-1.3-0.6-1.3-0.6l-2.2-0.7L8.6,18.8L8.6,18.8z"/>
			<path class="st3" d="M12.6,18c0,0-1.1-0.6-2.1-0.8c-1-0.2-1.2,0.1-1.2,0.1L9.4,17c0,0,0.2-0.3,1.6,0.1c1.4,0.4,1.6,0.6,1.6,0.6
				L12.6,18L12.6,18z"/>
			<path class="st3" d="M12.5,20c-0.8-0.4-3.2-1.5-4-1.3l-0.2,0.4c0.6-0.3,2.3,0.4,3,0.7c0.8,0.3,1.3,0.6,1.3,0.6L12.5,20L12.5,20z"
				/>
			<path class="st3" d="M30.9,29.8l-0.1,0.3c0,0-0.1,0.2-0.4,0.1l0.4-0.6L30.9,29.8L30.9,29.8z"/>
			<path class="st3" d="M29.8,31.4l1.1-1.7l-0.3-0.6l-1.3-1.3l-2.4-1.7c0,0-0.6,2.2-0.5,2.3c0,0,1.3,0.9,1.3,0.9l1.7,1.5L29.8,31.4
				L29.8,31.4z"/>
			<path class="st3" d="M27.1,26.4c0,0,1.6,1.2,1.7,1.3c0.3,0.2,1,0.7,1.6,1.4c0.7,0.8,0.5,1.1,0.5,1.1l0.2-0.3c0,0,0.2-0.3-0.9-1.3
				c-0.6-0.6-0.9-0.9-1.1-1c-0.1-0.1-1.9-1.4-1.9-1.4L27.1,26.4L27.1,26.4z"/>
			<path class="st3" d="M26.3,28.2c1,0.6,3.4,2.3,3.6,3.3l-0.2,0.3c0-0.7-1.5-1.9-2-2.3c-0.6-0.4-1.1-0.8-1.7-1.2L26.3,28.2
				L26.3,28.2z"/>
			<path class="st7" d="M12.7,15.8h14.2v9.5c0,3.9-3.2,7.1-7.1,7.1h0c-3.9,0-7.1-3.2-7.1-7.1V15.8L12.7,15.8z"/>
			<path class="st8" d="M12.4,15.5h14.8v9.9c0,4.1-3.3,7.4-7.4,7.4l0,0c-4.1,0-7.4-3.3-7.4-7.4V15.5L12.4,15.5z"/>
			<path class="st7" d="M12.7,15.8h14.2v9.5c0,3.9-3.2,7.1-7.1,7.1h0c-3.9,0-7.1-3.2-7.1-7.1V15.8L12.7,15.8z"/>
			<polygon class="st9" points="19.6,17.2 19.6,16.2 20.1,16.2 20.1,17.2 19.6,17.2 			"/>
			<path class="st10" d="M19.8,16.8h0.1v-0.2c0,0,0-0.1-0.1-0.1l0,0c0,0-0.1,0-0.1,0.1V16.8L19.8,16.8z"/>
			<polygon class="st9" points="18.9,17.2 18.9,16.7 19.4,16.7 19.5,17.2 18.9,17.2 			"/>
			<polygon class="st9" points="20.2,17.2 20.3,16.7 20.7,16.7 20.8,17.2 20.2,17.2 			"/>
			<polygon class="st9" points="18.8,18.3 18.9,17.4 20.8,17.4 20.9,18.3 18.8,18.3 			"/>
			<path class="st9" d="M19.3,18.3c0,0,0-0.7,0.5-0.8c0,0,0.5,0.1,0.5,0.8L19.3,18.3L19.3,18.3z"/>
			<path class="st11" d="M19.6,18.3c0,0,0-0.5,0.3-0.6c0,0,0.3,0.1,0.3,0.6L19.6,18.3L19.6,18.3z"/>
			<path class="st12" d="M18.8,18.3h2.1c0.1,0,0.1,0,0.1,0.1l0,0c0,0.1,0,0.1-0.1,0.1h-2.1C18.8,18.4,18.7,18.4,18.8,18.3L18.8,18.3
				C18.7,18.3,18.8,18.3,18.8,18.3L18.8,18.3z"/>
			<path class="st12" d="M18.9,17.5h1.9c0,0,0.1,0,0.1-0.1l0,0c0,0,0-0.1-0.1-0.1h-1.9C18.8,17.3,18.8,17.3,18.9,17.5L18.9,17.5
				C18.8,17.4,18.8,17.5,18.9,17.5L18.9,17.5z"/>
			<path class="st12" d="M18.9,17.1h2c0,0,0.1,0,0.1,0.1l0,0c0,0,0,0.1-0.1,0.1h-2C18.8,17.3,18.8,17.3,18.9,17.1L18.9,17.1
				C18.8,17.2,18.8,17.1,18.9,17.1L18.9,17.1z"/>
			<path class="st10" d="M19.1,17h0.1v-0.2c0,0,0-0.1-0.1-0.1l0,0c0,0-0.1,0-0.1,0.1V17L19.1,17z"/>
			<path class="st10" d="M20.5,17h0.1v-0.2c0,0,0-0.1-0.1-0.1l0,0c0,0-0.1,0-0.1,0.1V17L20.5,17z"/>
			<path class="st9" d="M19,16.7c0,0,0.3,0,0.4,0c0.1,0,0.1,0,0.1-0.1c0,0,0-0.2,0-0.2c0,0,0,0,0,0s-0.1,0-0.1,0c0,0,0,0,0,0
				c0,0,0,0.1,0,0.1c0,0,0,0,0,0c0,0-0.1,0-0.1,0c0,0,0,0,0,0s0-0.1,0-0.1c0,0,0,0,0,0c0,0-0.1,0-0.1,0c0,0,0,0,0,0c0,0,0,0.1,0,0.1
				c0,0,0,0,0,0s-0.1,0-0.1,0c0,0,0,0,0,0c0,0,0-0.1,0-0.1c0,0,0,0,0,0c0,0-0.1,0-0.1,0c0,0,0,0,0,0s0,0.2,0,0.2
				C18.8,16.7,18.9,16.7,19,16.7L19,16.7z"/>
			<path class="st9" d="M19.7,16.3c0,0,0.3,0,0.4,0c0.1,0,0.1,0,0.1-0.1s0-0.2,0-0.2c0,0,0,0,0,0c0,0-0.1,0-0.1,0c0,0,0,0,0,0
				c0,0,0,0.1,0,0.1c0,0,0,0,0,0c0,0-0.1,0-0.1,0s0,0,0,0s0-0.1,0-0.1c0,0,0,0,0,0c0,0-0.1,0-0.1,0c0,0,0,0,0,0c0,0,0,0.1,0,0.1
				c0,0,0,0,0,0c0,0-0.1,0-0.1,0c0,0,0,0,0,0s0-0.1,0-0.1c0,0,0,0,0,0c0,0-0.1,0-0.1,0c0,0,0,0,0,0c0,0,0,0.2,0,0.2
				C19.5,16.3,19.6,16.3,19.7,16.3L19.7,16.3z"/>
			<path class="st9" d="M20.4,16.7c0,0,0.3,0,0.4,0c0.1,0,0.1,0,0.1-0.1c0,0,0-0.2,0-0.2c0,0,0,0,0,0s-0.1,0-0.1,0s0,0,0,0
				c0,0,0,0.1,0,0.1c0,0,0,0,0,0c0,0-0.1,0-0.1,0c0,0,0,0,0,0s0-0.1,0-0.1c0,0,0,0,0,0c0,0-0.1,0-0.1,0c0,0,0,0,0,0c0,0,0,0.1,0,0.1
				c0,0,0,0,0,0s-0.1,0-0.1,0c0,0,0,0,0,0c0,0,0-0.1,0-0.1c0,0,0,0,0,0s-0.1,0-0.1,0c0,0,0,0,0,0s0,0.2,0,0.2
				C20.2,16.7,20.2,16.7,20.4,16.7L20.4,16.7z"/>
			<polygon class="st9" points="13.9,17.2 14,16.2 14.4,16.2 14.4,17.2 13.9,17.2 			"/>
			<path class="st10" d="M14.1,16.8h0.1v-0.2c0,0,0-0.1-0.1-0.1l0,0c0,0-0.1,0-0.1,0.1V16.8L14.1,16.8z"/>
			<polygon class="st9" points="13.2,17.2 13.3,16.7 13.7,16.7 13.8,17.2 13.2,17.2 			"/>
			<polygon class="st9" points="14.6,17.2 14.6,16.7 15,16.7 15.1,17.2 14.6,17.2 			"/>
			<polygon class="st9" points="13.1,18.3 13.2,17.4 15.1,17.4 15.2,18.3 13.1,18.3 			"/>
			<path class="st9" d="M13.6,18.3c0,0,0-0.7,0.5-0.8c0,0,0.5,0.1,0.5,0.8L13.6,18.3L13.6,18.3z"/>
			<path class="st11" d="M13.9,18.3c0,0,0-0.5,0.3-0.6c0,0,0.3,0.1,0.3,0.6L13.9,18.3L13.9,18.3z"/>
			<path class="st12" d="M13.1,18.3h2.1c0.1,0,0.1,0,0.1,0.1l0,0c0,0.1,0,0.1-0.1,0.1h-2.1C13.1,18.4,13,18.4,13.1,18.3L13.1,18.3
				C13,18.3,13.1,18.3,13.1,18.3L13.1,18.3z"/>
			<path class="st12" d="M13.2,17.5h1.9c0,0,0.1,0,0.1-0.1l0,0c0,0,0-0.1-0.1-0.1h-1.9C13.1,17.3,13.1,17.3,13.2,17.5L13.2,17.5
				C13.1,17.4,13.1,17.5,13.2,17.5L13.2,17.5z"/>
			<path class="st12" d="M13.2,17.1h2c0,0,0.1,0,0.1,0.1l0,0c0,0,0,0.1-0.1,0.1h-2C13.1,17.3,13.1,17.3,13.2,17.1L13.2,17.1
				C13.1,17.2,13.1,17.1,13.2,17.1L13.2,17.1z"/>
			<path class="st10" d="M13.4,17h0.1v-0.2c0,0,0-0.1-0.1-0.1l0,0c0,0-0.1,0-0.1,0.1V17L13.4,17z"/>
			<path class="st10" d="M14.8,17h0.1v-0.2c0,0,0-0.1-0.1-0.1l0,0c0,0-0.1,0-0.1,0.1V17L14.8,17z"/>
			<path class="st9" d="M13.3,16.7c0,0,0.3,0,0.4,0c0.1,0,0.1,0,0.1-0.1c0,0,0-0.2,0-0.2c0,0,0,0,0,0c0,0-0.1,0-0.1,0c0,0,0,0,0,0
				c0,0,0,0.1,0,0.1c0,0,0,0,0,0c0,0-0.1,0-0.1,0c0,0,0,0,0,0s0-0.1,0-0.1c0,0,0,0,0,0s-0.1,0-0.1,0c0,0,0,0,0,0c0,0,0,0.1,0,0.1
				c0,0,0,0,0,0s-0.1,0-0.1,0c0,0,0,0,0,0c0,0,0-0.1,0-0.1c0,0,0,0,0,0c0,0-0.1,0-0.1,0c0,0,0,0,0,0s0,0.2,0,0.2
				C13.1,16.7,13.2,16.7,13.3,16.7L13.3,16.7z"/>
			<path class="st9" d="M14,16.3c0,0,0.3,0,0.4,0c0.1,0,0.1,0,0.1-0.1s0-0.2,0-0.2c0,0,0,0,0,0c0,0-0.1,0-0.1,0c0,0,0,0,0,0
				c0,0,0,0.1,0,0.1c0,0,0,0,0,0c0,0-0.1,0-0.1,0c0,0,0,0,0,0s0-0.1,0-0.1c0,0,0,0,0,0c0,0-0.1,0-0.1,0c0,0,0,0,0,0c0,0,0,0.1,0,0.1
				c0,0,0,0,0,0c0,0-0.1,0-0.1,0c0,0,0,0,0,0s0-0.1,0-0.1c0,0,0,0,0,0c0,0-0.1,0-0.1,0c0,0,0,0,0,0c0,0,0,0.2,0,0.2
				C13.8,16.3,13.9,16.3,14,16.3L14,16.3z"/>
			<path class="st9" d="M14.7,16.7c0,0,0.3,0,0.4,0c0.1,0,0.1,0,0.1-0.1c0,0,0-0.2,0-0.2c0,0,0,0,0,0c0,0-0.1,0-0.1,0c0,0,0,0,0,0
				c0,0,0,0.1,0,0.1c0,0,0,0,0,0c0,0-0.1,0-0.1,0c0,0,0,0,0,0s0-0.1,0-0.1c0,0,0,0,0,0c0,0-0.1,0-0.1,0c0,0,0,0,0,0c0,0,0,0.1,0,0.1
				c0,0,0,0,0,0c0,0-0.1,0-0.1,0s0,0,0,0c0,0,0-0.1,0-0.1c0,0,0,0,0,0c0,0-0.1,0-0.1,0c0,0,0,0,0,0s0,0.2,0,0.2
				C14.5,16.7,14.5,16.7,14.7,16.7L14.7,16.7z"/>
			<polygon class="st9" points="25.2,17.2 25.3,16.2 25.7,16.2 25.8,17.2 25.2,17.2 			"/>
			<path class="st10" d="M25.5,16.8h0.1v-0.2c0,0,0-0.1-0.1-0.1l0,0c0,0-0.1,0-0.1,0.1V16.8L25.5,16.8z"/>
			<polygon class="st9" points="24.6,17.2 24.6,16.7 25.1,16.7 25.1,17.2 24.6,17.2 			"/>
			<polygon class="st9" points="25.9,17.2 25.9,16.7 26.4,16.7 26.4,17.2 25.9,17.2 			"/>
			<polygon class="st9" points="24.5,18.3 24.6,17.4 26.4,17.4 26.5,18.3 24.5,18.3 			"/>
			<path class="st9" d="M25,18.3c0,0,0-0.7,0.5-0.8c0,0,0.5,0.1,0.5,0.8L25,18.3L25,18.3z"/>
			<path class="st11" d="M25.2,18.3c0,0,0-0.5,0.3-0.6c0,0,0.3,0.1,0.3,0.6L25.2,18.3L25.2,18.3z"/>
			<path class="st12" d="M24.5,18.3h2.1c0.1,0,0.1,0,0.1,0.1l0,0c0,0.1,0,0.1-0.1,0.1h-2.1C24.4,18.4,24.4,18.4,24.5,18.3L24.5,18.3
				C24.4,18.3,24.4,18.3,24.5,18.3L24.5,18.3z"/>
			<path class="st12" d="M24.5,17.5h1.9c0,0,0.1,0,0.1-0.1l0,0c0,0,0-0.1-0.1-0.1h-1.9C24.5,17.3,24.5,17.3,24.5,17.5L24.5,17.5
				C24.5,17.4,24.5,17.5,24.5,17.5L24.5,17.5z"/>
			<path class="st12" d="M24.5,17.1h2c0,0,0.1,0,0.1,0.1l0,0c0,0,0,0.1-0.1,0.1h-2C24.5,17.3,24.4,17.3,24.5,17.1L24.5,17.1
				C24.4,17.2,24.5,17.1,24.5,17.1L24.5,17.1z"/>
			<path class="st10" d="M24.8,17h0.1v-0.2c0,0,0-0.1-0.1-0.1l0,0c0,0-0.1,0-0.1,0.1V17L24.8,17z"/>
			<path class="st10" d="M26.1,17h0.1v-0.2c0,0,0-0.1-0.1-0.1l0,0c0,0-0.1,0-0.1,0.1V17L26.1,17z"/>
			<path class="st9" d="M24.7,16.7c0,0,0.3,0,0.4,0c0.1,0,0.1,0,0.1-0.1c0,0,0-0.2,0-0.2c0,0,0,0,0,0c0,0-0.1,0-0.1,0c0,0,0,0,0,0
				c0,0,0,0.1,0,0.1c0,0,0,0,0,0c0,0-0.1,0-0.1,0c0,0,0,0,0,0s0-0.1,0-0.1c0,0,0,0,0,0c0,0-0.1,0-0.1,0c0,0,0,0,0,0c0,0,0,0.1,0,0.1
				c0,0,0,0,0,0s-0.1,0-0.1,0c0,0,0,0,0,0c0,0,0-0.1,0-0.1c0,0,0,0,0,0s-0.1,0-0.1,0c0,0,0,0,0,0s0,0.2,0,0.2
				C24.5,16.7,24.5,16.7,24.7,16.7L24.7,16.7z"/>
			<path class="st9" d="M25.4,16.3c0,0,0.3,0,0.4,0c0.1,0,0.1,0,0.1-0.1s0-0.2,0-0.2c0,0,0,0,0,0s-0.1,0-0.1,0c0,0,0,0,0,0
				c0,0,0,0.1,0,0.1c0,0,0,0,0,0c0,0-0.1,0-0.1,0c0,0,0,0,0,0s0-0.1,0-0.1c0,0,0,0,0,0c0,0-0.1,0-0.1,0c0,0,0,0,0,0c0,0,0,0.1,0,0.1
				c0,0,0,0,0,0s-0.1,0-0.1,0c0,0,0,0,0,0s0-0.1,0-0.1c0,0,0,0,0,0c0,0-0.1,0-0.1,0c0,0,0,0,0,0c0,0,0,0.2,0,0.2
				C25.2,16.3,25.2,16.3,25.4,16.3L25.4,16.3z"/>
			<path class="st9" d="M26,16.7c0,0,0.3,0,0.4,0s0.1,0,0.1-0.1c0,0,0-0.2,0-0.2c0,0,0,0,0,0c0,0-0.1,0-0.1,0c0,0,0,0,0,0
				c0,0,0,0.1,0,0.1c0,0,0,0,0,0c0,0-0.1,0-0.1,0c0,0,0,0,0,0s0-0.1,0-0.1c0,0,0,0,0,0c0,0-0.1,0-0.1,0s0,0,0,0c0,0,0,0.1,0,0.1
				c0,0,0,0,0,0c0,0-0.1,0-0.1,0c0,0,0,0,0,0c0,0,0-0.1,0-0.1c0,0,0,0,0,0c0,0-0.1,0-0.1,0c0,0,0,0,0,0s0,0.2,0,0.2
				C25.8,16.7,25.9,16.7,26,16.7L26,16.7z"/>
			<polygon class="st9" points="13.9,23 14,22 14.4,22 14.4,22.9 13.9,23 			"/>
			<path class="st10" d="M14.1,22.5h0.1v-0.2c0,0,0-0.1-0.1-0.1l0,0c0,0-0.1,0-0.1,0.1V22.5L14.1,22.5z"/>
			<polygon class="st9" points="13.2,22.9 13.3,22.4 13.7,22.4 13.8,23 13.2,22.9 			"/>
			<polygon class="st9" points="14.6,22.9 14.6,22.4 15,22.4 15.1,23 14.6,22.9 			"/>
			<polygon class="st9" points="13.1,24.1 13.2,23.2 15.1,23.2 15.2,24.1 13.1,24.1 			"/>
			<path class="st9" d="M13.6,24.1c0,0,0-0.7,0.5-0.8c0,0,0.5,0.1,0.5,0.8L13.6,24.1L13.6,24.1z"/>
			<path class="st11" d="M13.9,24.1c0,0,0-0.5,0.3-0.6c0,0,0.3,0.1,0.3,0.6L13.9,24.1L13.9,24.1z"/>
			<path class="st12" d="M13.1,24h2.1c0.1,0,0.1,0,0.1,0.1l0,0c0,0.1,0,0.1-0.1,0.1h-2.1C13.1,24.2,13,24.2,13.1,24L13.1,24
				C13,24.1,13.1,24,13.1,24L13.1,24z"/>
			<path class="st12" d="M13.2,23.3h1.9c0,0,0.1,0,0.1-0.1l0,0c0,0,0-0.1-0.1-0.1h-1.9C13.1,23.1,13.1,23.1,13.2,23.3L13.2,23.3
				C13.1,23.2,13.1,23.3,13.2,23.3L13.2,23.3z"/>
			<path class="st12" d="M13.2,22.9h2c0,0,0.1,0,0.1,0.1l0,0c0,0,0,0.1-0.1,0.1h-2C13.1,23.1,13.1,23,13.2,22.9L13.2,22.9
				C13.1,22.9,13.1,22.9,13.2,22.9L13.2,22.9z"/>
			<path class="st10" d="M13.4,22.8h0.1v-0.2c0,0,0-0.1-0.1-0.1l0,0c0,0-0.1,0-0.1,0.1V22.8L13.4,22.8z"/>
			<path class="st10" d="M14.8,22.8h0.1v-0.2c0,0,0-0.1-0.1-0.1l0,0c0,0-0.1,0-0.1,0.1V22.8L14.8,22.8z"/>
			<path class="st9" d="M13.3,22.5c0,0,0.3,0,0.4,0c0.1,0,0.1,0,0.1-0.1s0-0.2,0-0.2c0,0,0,0,0,0c0,0-0.1,0-0.1,0c0,0,0,0,0,0
				s0,0.1,0,0.1c0,0,0,0,0,0c0,0-0.1,0-0.1,0c0,0,0,0,0,0c0,0,0-0.1,0-0.1c0,0,0,0,0,0s-0.1,0-0.1,0c0,0,0,0,0,0c0,0,0,0.1,0,0.1
				c0,0,0,0,0,0s-0.1,0-0.1,0c0,0,0,0,0,0c0,0,0-0.1,0-0.1c0,0,0,0,0,0c0,0-0.1,0-0.1,0c0,0,0,0,0,0s0,0.2,0,0.2
				C13.1,22.5,13.2,22.5,13.3,22.5L13.3,22.5z"/>
			<path class="st9" d="M14,22.1c0,0,0.3,0,0.4,0c0.1,0,0.1,0,0.1-0.1s0-0.2,0-0.2c0,0,0,0,0,0c0,0-0.1,0-0.1,0c0,0,0,0,0,0
				c0,0,0,0.1,0,0.1c0,0,0,0,0,0c0,0-0.1,0-0.1,0c0,0,0,0,0,0c0,0,0-0.1,0-0.1c0,0,0,0,0,0c0,0-0.1,0-0.1,0c0,0,0,0,0,0
				c0,0,0,0.1,0,0.1c0,0,0,0,0,0c0,0-0.1,0-0.1,0c0,0,0,0,0,0c0,0,0-0.1,0-0.1c0,0,0,0,0,0c0,0-0.1,0-0.1,0c0,0,0,0,0,0
				c0,0,0,0.2,0,0.2S13.9,22.1,14,22.1L14,22.1z"/>
			<path class="st9" d="M14.7,22.5c0,0,0.3,0,0.4,0c0.1,0,0.1,0,0.1-0.1s0-0.2,0-0.2c0,0,0,0,0,0c0,0-0.1,0-0.1,0c0,0,0,0,0,0
				s0,0.1,0,0.1c0,0,0,0,0,0c0,0-0.1,0-0.1,0c0,0,0,0,0,0c0,0,0-0.1,0-0.1c0,0,0,0,0,0c0,0-0.1,0-0.1,0c0,0,0,0,0,0c0,0,0,0.1,0,0.1
				c0,0,0,0,0,0c0,0-0.1,0-0.1,0s0,0,0,0c0,0,0-0.1,0-0.1c0,0,0,0,0,0c0,0-0.1,0-0.1,0c0,0,0,0,0,0s0,0.2,0,0.2
				C14.5,22.5,14.5,22.5,14.7,22.5L14.7,22.5z"/>
			<polygon class="st9" points="25.2,23 25.3,22 25.7,22 25.8,22.9 25.2,23 			"/>
			<path class="st10" d="M25.5,22.5h0.1v-0.2c0,0,0-0.1-0.1-0.1l0,0c0,0-0.1,0-0.1,0.1V22.5L25.5,22.5z"/>
			<polygon class="st9" points="24.6,22.9 24.6,22.4 25.1,22.4 25.1,23 24.6,22.9 			"/>
			<polygon class="st9" points="25.9,22.9 25.9,22.4 26.4,22.4 26.4,23 25.9,22.9 			"/>
			<polygon class="st9" points="24.5,24.1 24.6,23.2 26.4,23.2 26.5,24.1 24.5,24.1 			"/>
			<path class="st9" d="M25,24.1c0,0,0-0.7,0.5-0.8c0,0,0.5,0.1,0.5,0.8L25,24.1L25,24.1z"/>
			<path class="st11" d="M25.2,24.1c0,0,0-0.5,0.3-0.6c0,0,0.3,0.1,0.3,0.6L25.2,24.1L25.2,24.1z"/>
			<path class="st12" d="M24.5,24h2.1c0.1,0,0.1,0,0.1,0.1l0,0c0,0.1,0,0.1-0.1,0.1h-2.1C24.4,24.2,24.4,24.2,24.5,24L24.5,24
				C24.4,24.1,24.4,24,24.5,24L24.5,24z"/>
			<path class="st12" d="M24.5,23.3h1.9c0,0,0.1,0,0.1-0.1l0,0c0,0,0-0.1-0.1-0.1h-1.9C24.5,23.1,24.5,23.1,24.5,23.3L24.5,23.3
				C24.5,23.2,24.5,23.3,24.5,23.3L24.5,23.3z"/>
			<path class="st12" d="M24.5,22.9h2c0,0,0.1,0,0.1,0.1l0,0c0,0,0,0.1-0.1,0.1h-2C24.5,23.1,24.4,23,24.5,22.9L24.5,22.9
				C24.4,22.9,24.5,22.9,24.5,22.9L24.5,22.9z"/>
			<path class="st10" d="M24.8,22.8h0.1v-0.2c0,0,0-0.1-0.1-0.1l0,0c0,0-0.1,0-0.1,0.1V22.8L24.8,22.8z"/>
			<path class="st10" d="M26.1,22.8h0.1v-0.2c0,0,0-0.1-0.1-0.1l0,0c0,0-0.1,0-0.1,0.1V22.8L26.1,22.8z"/>
			<path class="st9" d="M24.7,22.5c0,0,0.3,0,0.4,0c0.1,0,0.1,0,0.1-0.1s0-0.2,0-0.2c0,0,0,0,0,0c0,0-0.1,0-0.1,0c0,0,0,0,0,0
				s0,0.1,0,0.1c0,0,0,0,0,0c0,0-0.1,0-0.1,0c0,0,0,0,0,0c0,0,0-0.1,0-0.1c0,0,0,0,0,0c0,0-0.1,0-0.1,0c0,0,0,0,0,0c0,0,0,0.1,0,0.1
				c0,0,0,0,0,0s-0.1,0-0.1,0c0,0,0,0,0,0c0,0,0-0.1,0-0.1c0,0,0,0,0,0s-0.1,0-0.1,0c0,0,0,0,0,0s0,0.2,0,0.2
				C24.5,22.5,24.5,22.5,24.7,22.5L24.7,22.5z"/>
			<path class="st9" d="M25.4,22.1c0,0,0.3,0,0.4,0c0.1,0,0.1,0,0.1-0.1s0-0.2,0-0.2c0,0,0,0,0,0s-0.1,0-0.1,0c0,0,0,0,0,0
				c0,0,0,0.1,0,0.1c0,0,0,0,0,0c0,0-0.1,0-0.1,0c0,0,0,0,0,0c0,0,0-0.1,0-0.1c0,0,0,0,0,0c0,0-0.1,0-0.1,0c0,0,0,0,0,0
				c0,0,0,0.1,0,0.1c0,0,0,0,0,0s-0.1,0-0.1,0c0,0,0,0,0,0c0,0,0-0.1,0-0.1c0,0,0,0,0,0c0,0-0.1,0-0.1,0c0,0,0,0,0,0
				c0,0,0,0.2,0,0.2S25.2,22.1,25.4,22.1L25.4,22.1z"/>
			<path class="st9" d="M26,22.5c0,0,0.3,0,0.4,0s0.1,0,0.1-0.1s0-0.2,0-0.2c0,0,0,0,0,0c0,0-0.1,0-0.1,0c0,0,0,0,0,0s0,0.1,0,0.1
				c0,0,0,0,0,0c0,0-0.1,0-0.1,0c0,0,0,0,0,0c0,0,0-0.1,0-0.1c0,0,0,0,0,0c0,0-0.1,0-0.1,0s0,0,0,0c0,0,0,0.1,0,0.1c0,0,0,0,0,0
				c0,0-0.1,0-0.1,0c0,0,0,0,0,0c0,0,0-0.1,0-0.1c0,0,0,0,0,0c0,0-0.1,0-0.1,0c0,0,0,0,0,0s0,0.2,0,0.2C25.8,22.5,25.9,22.5,26,22.5
				L26,22.5z"/>
			<polygon class="st9" points="15.3,29.1 14.7,28.4 15,28.1 15.7,28.7 15.3,29.1 			"/>
			<path class="st10" d="M15.2,28.7L15.2,28.7l-0.1-0.2c0,0-0.1,0-0.1,0l0,0c0,0,0,0.1,0,0.1L15.2,28.7L15.2,28.7z"/>
			<polygon class="st9" points="14.8,29.6 14.5,29.2 14.8,28.9 15.2,29.2 14.8,29.6 			"/>
			<polygon class="st9" points="15.8,28.6 15.4,28.2 15.7,27.9 16.1,28.3 15.8,28.6 			"/>
			<polygon class="st9" points="15.5,30.4 15,29.7 16.3,28.4 17,29 15.5,30.4 			"/>
			<path class="st9" d="M15.9,30.1c0,0-0.5-0.5-0.2-0.9c0,0,0.5-0.3,0.9,0.2L15.9,30.1L15.9,30.1z"/>
			<path class="st11" d="M16.1,29.9c0,0-0.3-0.3-0.2-0.6c0,0,0.3-0.1,0.6,0.2L16.1,29.9L16.1,29.9z"/>
			<path class="st12" d="M15.5,30.4l1.5-1.5c0,0,0.1,0,0.1,0l0,0c0,0,0,0.1,0,0.1l-1.5,1.5c0,0-0.1,0-0.1,0l0,0
				C15.5,30.5,15.5,30.4,15.5,30.4L15.5,30.4z"/>
			<path class="st12" d="M15,29.8l1.4-1.4c0,0,0-0.1,0-0.1l0,0c0,0-0.1,0-0.1,0l-1.4,1.4c0,0,0,0.1,0,0.1l0,0
				C14.9,29.8,15,29.8,15,29.8L15,29.8z"/>
			<path class="st12" d="M14.7,29.6l1.4-1.4c0,0,0.1,0,0.1,0l0,0c0,0,0,0.1,0,0.1l-1.4,1.4c0,0-0.1,0-0.1,0l0,0
				C14.7,29.7,14.7,29.6,14.7,29.6L14.7,29.6z"/>
			<path class="st10" d="M14.8,29.3L14.8,29.3l0-0.2c0,0-0.1,0-0.1,0l0,0c0,0,0,0.1,0,0.1L14.8,29.3L14.8,29.3z"/>
			<path class="st10" d="M15.8,28.4L15.8,28.4l0-0.2c0,0-0.1,0-0.1,0l0,0c0,0,0,0.1,0,0.1L15.8,28.4L15.8,28.4z"/>
			<path class="st9" d="M14.6,29.2c0,0,0.2-0.2,0.3-0.3c0.1-0.1,0-0.1,0-0.1c0,0-0.1-0.1-0.2-0.2c0,0,0,0,0,0c0,0,0,0-0.1,0.1
				c0,0,0,0,0,0c0,0,0,0,0.1,0.1c0,0,0,0,0,0c0,0,0,0-0.1,0.1c0,0,0,0,0,0c0,0,0,0-0.1-0.1c0,0,0,0,0,0c0,0,0,0-0.1,0.1c0,0,0,0,0,0
				c0,0,0.1,0.1,0.1,0.1c0,0,0,0,0,0c0,0,0,0-0.1,0.1c0,0,0,0,0,0c0,0,0,0-0.1-0.1c0,0,0,0,0,0c0,0,0,0-0.1,0.1c0,0,0,0,0,0.1
				c0,0,0.1,0.1,0.2,0.2C14.4,29.3,14.5,29.3,14.6,29.2L14.6,29.2z"/>
			<path class="st9" d="M14.8,28.4c0,0,0.2-0.2,0.3-0.3c0.1-0.1,0-0.1,0-0.1c0,0-0.1-0.1-0.2-0.2c0,0,0,0,0,0c0,0,0,0.1-0.1,0.1
				c0,0,0,0,0,0c0,0,0,0,0.1,0.1c0,0,0,0,0,0c0,0,0,0-0.1,0.1c0,0,0,0,0,0c0,0,0,0-0.1-0.1c0,0,0,0,0,0c0,0,0,0-0.1,0.1c0,0,0,0,0,0
				c0,0,0.1,0.1,0.1,0.1c0,0,0,0,0,0c0,0,0,0-0.1,0c0,0,0,0,0,0c0,0,0,0-0.1-0.1c0,0,0,0,0,0c0,0,0,0-0.1,0.1c0,0,0,0,0,0.1
				c0,0,0.1,0.1,0.2,0.2C14.6,28.5,14.7,28.5,14.8,28.4L14.8,28.4z"/>
			<path class="st9" d="M15.5,28.2c0,0,0.2-0.2,0.3-0.3c0.1-0.1,0-0.1,0-0.1c0,0-0.1-0.1-0.2-0.2c0,0,0,0,0,0c0,0,0,0-0.1,0.1
				c0,0,0,0,0,0c0,0,0,0,0.1,0.1c0,0,0,0,0,0c0,0,0,0-0.1,0.1c0,0,0,0,0,0c0,0,0,0-0.1-0.1c0,0,0,0,0,0c0,0,0,0-0.1,0.1c0,0,0,0,0,0
				c0,0,0.1,0.1,0.1,0.1c0,0,0,0,0,0c0,0,0,0-0.1,0.1c0,0,0,0,0,0c0,0,0,0-0.1-0.1c0,0,0,0,0,0c0,0,0,0-0.1,0.1c0,0,0,0,0,0.1
				c0,0,0.1,0.1,0.2,0.2C15.4,28.3,15.4,28.3,15.5,28.2L15.5,28.2z"/>
			<polygon class="st9" points="24.4,29.1 25,28.4 24.7,28.1 24,28.7 24.4,29.1 			"/>
			<path class="st10" d="M24.5,28.7L24.5,28.7l0.1-0.2c0,0,0.1,0,0.1,0l0,0c0,0,0,0.1,0,0.1L24.5,28.7L24.5,28.7z"/>
			<polygon class="st9" points="24.9,29.6 25.2,29.2 24.9,28.9 24.5,29.2 24.9,29.6 			"/>
			<polygon class="st9" points="23.9,28.6 24.3,28.2 23.9,27.9 23.5,28.3 23.9,28.6 			"/>
			<polygon class="st9" points="24.1,30.4 24.7,29.7 23.4,28.4 22.6,29 24.1,30.4 			"/>
			<path class="st9" d="M23.8,30.1c0,0,0.5-0.5,0.2-0.9c0,0-0.5-0.3-0.9,0.2L23.8,30.1L23.8,30.1z"/>
			<path class="st11" d="M23.6,29.9c0,0,0.3-0.3,0.2-0.6c0,0-0.3-0.1-0.6,0.2L23.6,29.9L23.6,29.9z"/>
			<path class="st12" d="M24.2,30.4l-1.5-1.5c0,0-0.1,0-0.1,0l0,0c0,0,0,0.1,0,0.1l1.5,1.5c0,0,0.1,0,0.1,0l0,0
				C24.2,30.5,24.2,30.4,24.2,30.4L24.2,30.4z"/>
			<path class="st12" d="M24.7,29.8l-1.4-1.4c0,0,0-0.1,0-0.1l0,0c0,0,0.1,0,0.1,0l1.4,1.4c0,0,0,0.1,0,0.1h0
				C24.8,29.8,24.7,29.8,24.7,29.8L24.7,29.8z"/>
			<path class="st12" d="M24.9,29.6l-1.4-1.4c0,0-0.1,0-0.1,0l0,0c0,0,0,0.1,0,0.1l1.4,1.4c0,0,0.1,0,0.1,0l0,0
				C25,29.7,25,29.6,24.9,29.6L24.9,29.6z"/>
			<path class="st10" d="M24.8,29.3L24.8,29.3l0-0.2c0,0,0.1,0,0.1,0l0,0c0,0,0,0.1,0,0.1L24.8,29.3L24.8,29.3z"/>
			<path class="st10" d="M23.9,28.4L23.9,28.4l0-0.2c0,0,0.1,0,0.1,0l0,0c0,0,0,0.1,0,0.1L23.9,28.4L23.9,28.4z"/>
			<path class="st9" d="M25.1,29.2c0,0-0.2-0.2-0.3-0.3c-0.1-0.1,0-0.1,0-0.1c0,0,0.1-0.1,0.2-0.2c0,0,0,0,0,0c0,0,0,0,0.1,0.1
				c0,0,0,0,0,0c0,0,0,0-0.1,0.1c0,0,0,0,0,0c0,0,0,0,0.1,0.1c0,0,0,0,0,0c0,0,0,0,0.1-0.1c0,0,0,0,0,0c0,0,0,0,0.1,0.1c0,0,0,0,0,0
				c0,0-0.1,0.1-0.1,0.1c0,0,0,0,0,0c0,0,0,0,0.1,0.1c0,0,0,0,0,0c0,0,0,0,0.1-0.1c0,0,0,0,0,0c0,0,0,0,0.1,0.1c0,0,0,0,0,0.1
				c0,0-0.1,0.1-0.2,0.2C25.3,29.3,25.2,29.3,25.1,29.2L25.1,29.2z"/>
			<path class="st9" d="M24.9,28.4c0,0-0.2-0.2-0.3-0.3c-0.1-0.1,0-0.1,0-0.1c0,0,0.1-0.1,0.2-0.2c0,0,0,0,0,0c0,0,0,0.1,0.1,0.1
				c0,0,0,0,0,0c0,0,0,0-0.1,0.1c0,0,0,0,0,0c0,0,0,0,0.1,0.1c0,0,0,0,0,0c0,0,0,0,0.1-0.1c0,0,0,0,0,0c0,0,0,0,0.1,0.1c0,0,0,0,0,0
				c0,0-0.1,0.1-0.1,0.1c0,0,0,0,0,0c0,0,0,0,0.1,0c0,0,0,0,0,0c0,0,0,0,0.1-0.1c0,0,0,0,0,0c0,0,0,0,0.1,0.1c0,0,0,0,0,0.1
				c0,0-0.1,0.1-0.2,0.2C25.1,28.5,25,28.5,24.9,28.4L24.9,28.4z"/>
			<path class="st9" d="M24.2,28.2c0,0-0.2-0.2-0.3-0.3c-0.1-0.1,0-0.1,0-0.1c0,0,0.1-0.1,0.2-0.2c0,0,0,0,0,0c0,0,0,0,0.1,0.1
				c0,0,0,0,0,0c0,0,0,0-0.1,0.1c0,0,0,0,0,0c0,0,0,0,0.1,0.1c0,0,0,0,0,0c0,0,0,0,0.1-0.1c0,0,0,0,0,0c0,0,0,0,0.1,0.1c0,0,0,0,0,0
				c0,0-0.1,0.1-0.1,0.1c0,0,0,0,0,0c0,0,0,0,0.1,0.1c0,0,0,0,0,0c0,0,0,0,0.1-0.1c0,0,0,0,0,0c0,0,0,0,0.1,0.1c0,0,0,0,0,0.1
				c0,0-0.1,0.1-0.2,0.2C24.3,28.3,24.3,28.3,24.2,28.2L24.2,28.2z"/>
			<path class="st8" d="M15.6,18.6h8.5v6.7c0,2.3-1.9,4.2-4.2,4.2l0,0c-2.3,0-4.2-1.9-4.2-4.2V18.6L15.6,18.6z"/>
			<path class="st13" d="M18.9,19.7h1.9v1.4c0,0.5-0.4,0.9-0.9,0.9l0,0c-0.5,0-1-0.4-1-0.9V19.7L18.9,19.7z"/>
			<path class="st8" d="M19.4,21.1c0.1,0,0.2,0.1,0.2,0.2c0,0.1-0.1,0.2-0.2,0.2c-0.1,0-0.2-0.1-0.2-0.2
				C19.2,21.1,19.3,21.1,19.4,21.1L19.4,21.1z M19.9,20.5c0.1,0,0.2,0.1,0.2,0.2c0,0.1-0.1,0.2-0.2,0.2c-0.1,0-0.2-0.1-0.2-0.2
				C19.7,20.6,19.8,20.5,19.9,20.5L19.9,20.5z M19.4,20c0.1,0,0.2,0.1,0.2,0.2c0,0.1-0.1,0.2-0.2,0.2c-0.1,0-0.2-0.1-0.2-0.2
				C19.2,20.1,19.3,20,19.4,20L19.4,20z M20.4,20c0.1,0,0.2,0.1,0.2,0.2c0,0.1-0.1,0.2-0.2,0.2c-0.1,0-0.2-0.1-0.2-0.2
				C20.2,20.1,20.3,20,20.4,20L20.4,20z M20.4,21.1c0.1,0,0.2,0.1,0.2,0.2c0,0.1-0.1,0.2-0.2,0.2c-0.1,0-0.2-0.1-0.2-0.2
				C20.2,21.1,20.3,21.1,20.4,21.1L20.4,21.1z"/>
			<path class="st13" d="M18.9,22.9h1.9v1.4c0,0.5-0.4,1-0.9,1l0,0c-0.5,0-1-0.4-1-1V22.9L18.9,22.9z"/>
			<path class="st8" d="M19.4,24.3c0.1,0,0.2,0.1,0.2,0.2c0,0.1-0.1,0.2-0.2,0.2c-0.1,0-0.2-0.1-0.2-0.2
				C19.2,24.4,19.3,24.3,19.4,24.3L19.4,24.3z M19.9,23.8c0.1,0,0.2,0.1,0.2,0.2c0,0.1-0.1,0.2-0.2,0.2c-0.1,0-0.2-0.1-0.2-0.2
				C19.7,23.9,19.8,23.8,19.9,23.8L19.9,23.8z M19.4,23.3c0.1,0,0.2,0.1,0.2,0.2c0,0.1-0.1,0.2-0.2,0.2c-0.1,0-0.2-0.1-0.2-0.2
				C19.2,23.4,19.3,23.3,19.4,23.3L19.4,23.3z M20.4,23.3c0.1,0,0.2,0.1,0.2,0.2c0,0.1-0.1,0.2-0.2,0.2c-0.1,0-0.2-0.1-0.2-0.2
				C20.2,23.4,20.3,23.3,20.4,23.3L20.4,23.3z M20.4,24.3c0.1,0,0.2,0.1,0.2,0.2c0,0.1-0.1,0.2-0.2,0.2c-0.1,0-0.2-0.1-0.2-0.2
				C20.2,24.4,20.3,24.3,20.4,24.3L20.4,24.3z"/>
			<path class="st13" d="M16.3,22.9h1.9v1.4c0,0.5-0.4,1-0.9,1l0,0c-0.5,0-0.9-0.4-0.9-1V22.9L16.3,22.9z"/>
			<path class="st8" d="M16.8,24.3c0.1,0,0.2,0.1,0.2,0.2c0,0.1-0.1,0.2-0.2,0.2c-0.1,0-0.2-0.1-0.2-0.2
				C16.6,24.4,16.7,24.3,16.8,24.3L16.8,24.3z M17.3,23.8c0.1,0,0.2,0.1,0.2,0.2c0,0.1-0.1,0.2-0.2,0.2c-0.1,0-0.2-0.1-0.2-0.2
				C17.1,23.9,17.2,23.8,17.3,23.8L17.3,23.8z M16.8,23.3c0.1,0,0.2,0.1,0.2,0.2c0,0.1-0.1,0.2-0.2,0.2c-0.1,0-0.2-0.1-0.2-0.2
				C16.6,23.4,16.7,23.3,16.8,23.3L16.8,23.3z M17.8,23.3c0.1,0,0.2,0.1,0.2,0.2c0,0.1-0.1,0.2-0.2,0.2c-0.1,0-0.2-0.1-0.2-0.2
				C17.6,23.4,17.7,23.3,17.8,23.3L17.8,23.3z M17.8,24.3c0.1,0,0.2,0.1,0.2,0.2c0,0.1-0.1,0.2-0.2,0.2c-0.1,0-0.2-0.1-0.2-0.2
				C17.6,24.4,17.7,24.3,17.8,24.3L17.8,24.3z"/>
			<path class="st13" d="M21.5,22.9h1.9v1.4c0,0.5-0.4,1-0.9,1l0,0c-0.5,0-0.9-0.4-0.9-1V22.9L21.5,22.9z"/>
			<path class="st8" d="M21.9,24.3c0.1,0,0.2,0.1,0.2,0.2c0,0.1-0.1,0.2-0.2,0.2c-0.1,0-0.2-0.1-0.2-0.2
				C21.8,24.4,21.9,24.3,21.9,24.3L21.9,24.3z M22.5,23.8c0.1,0,0.2,0.1,0.2,0.2c0,0.1-0.1,0.2-0.2,0.2c-0.1,0-0.2-0.1-0.2-0.2
				C22.3,23.9,22.4,23.8,22.5,23.8L22.5,23.8z M21.9,23.3c0.1,0,0.2,0.1,0.2,0.2c0,0.1-0.1,0.2-0.2,0.2c-0.1,0-0.2-0.1-0.2-0.2
				C21.8,23.4,21.9,23.3,21.9,23.3L21.9,23.3z M23,23.3c0.1,0,0.2,0.1,0.2,0.2c0,0.1-0.1,0.2-0.2,0.2c-0.1,0-0.2-0.1-0.2-0.2
				C22.8,23.4,22.9,23.3,23,23.3L23,23.3z M23,24.3c0.1,0,0.2,0.1,0.2,0.2c0,0.1-0.1,0.2-0.2,0.2c-0.1,0-0.2-0.1-0.2-0.2
				C22.8,24.4,22.9,24.3,23,24.3L23,24.3z"/>
			<path class="st13" d="M18.9,26.1h1.9v1.4c0,0.5-0.4,1-0.9,1l0,0c-0.5,0-1-0.4-1-1V26.1L18.9,26.1z"/>
			<path class="st8" d="M19.4,27.5c0.1,0,0.2,0.1,0.2,0.2c0,0.1-0.1,0.2-0.2,0.2c-0.1,0-0.2-0.1-0.2-0.2
				C19.2,27.6,19.3,27.5,19.4,27.5L19.4,27.5z M19.9,27c0.1,0,0.2,0.1,0.2,0.2c0,0.1-0.1,0.2-0.2,0.2c-0.1,0-0.2-0.1-0.2-0.2
				C19.7,27.1,19.8,27,19.9,27L19.9,27z M19.4,26.5c0.1,0,0.2,0.1,0.2,0.2c0,0.1-0.1,0.2-0.2,0.2c-0.1,0-0.2-0.1-0.2-0.2
				C19.2,26.6,19.3,26.5,19.4,26.5L19.4,26.5z M20.4,26.5c0.1,0,0.2,0.1,0.2,0.2c0,0.1-0.1,0.2-0.2,0.2c-0.1,0-0.2-0.1-0.2-0.2
				C20.2,26.6,20.3,26.5,20.4,26.5L20.4,26.5z M20.4,27.5c0.1,0,0.2,0.1,0.2,0.2c0,0.1-0.1,0.2-0.2,0.2c-0.1,0-0.2-0.1-0.2-0.2
				C20.2,27.6,20.3,27.5,20.4,27.5L20.4,27.5z"/>
		</g>
	</g>
</g>
</svg>
