<?xml version="1.0" encoding="utf-8"?>
<!-- Generator: Adobe Illustrator 22.0.1, SVG Export Plug-In . SVG Version: 6.00 Build 0)  -->
<svg version="1.1" id="Layer_1" xmlns="http://www.w3.org/2000/svg" xmlns:xlink="http://www.w3.org/1999/xlink" x="0px" y="0px"
	 viewBox="0 0 48 48" style="enable-background:new 0 0 48 48;" xml:space="preserve">
<style type="text/css">
	.st0{clip-path:url(#SVGID_2_);}
	.st1{fill:#47B71D;}
	.st2{fill-rule:evenodd;clip-rule:evenodd;fill:#FFFFFF;}
</style>
<g>
	<defs>
		<circle id="SVGID_1_" cx="24" cy="24" r="23.8"/>
	</defs>
	<clipPath id="SVGID_2_">
		<use xlink:href="#SVGID_1_"  style="overflow:visible;"/>
	</clipPath>
	<g class="st0">
		<polygon class="st1" points="59.6,47.8 59.6,0.2 -11.7,0.2 -11.7,47.8 59.6,47.8 		"/>
		<path class="st2" d="M6.1,13.1c0.2,0.1,0.3,0.8,0.4,1.3c0.1,0.5,0.2,1,0.4,1c0.2,0,0.2-0.5,0.4-1.3c0.2-0.8,0.5-1.3,0.9-1.3
			c0.4,0,0.5,0.5,0.5,1.1c0,0.5,0,0.7-0.1,1s0,0.4,0.2,0.6c0.1,0.2,0.3,0.1,0.3-0.2c0-0.3-0.1-1-0.1-1.2c0-0.2-0.3-1.1-0.3-1.4
			c0-0.3-0.1-1,0.1-1.1c0.2-0.1,0.3-0.1,0.5,0.1c0.2,0.2,0.3,0.9,0.3,1.5c0,0.6,0,1,0.1,1.4c0.1,0.5,0.3,0.6,0.5,0.3
			c0,0-0.4-0.7-0.4-1.3c-0.1-0.5,0-1.2,0.3-1.3c0.3-0.1,0.6,0.6,0.7,1c0.1,0.3,0.1,0.9,0,1.3c0,0,0.4,0.5,0.6,0.6
			c0.2,0.1,0.4,0.1,0.5,0.1c0.1-0.1,0-0.4,0-0.7c-0.1-0.2-0.3-0.5-0.5-0.8c-0.1-0.3-0.5-1.1-0.1-1.4c0.4-0.4,0.9,0.3,1,0.5
			c0.1,0.2,0.3,0.6,0.2,0.6c-0.1,0.1-0.2,0-0.3,0s-0.1-0.1-0.1,0c0,0.1,0.1,0.2,0.1,0.3c0,0.1,0,0.2,0.1,0.3
			c0.1,0.1,0.2,0.9,0.2,1.4c0,0.5-0.6,0.8-1,0.9c-0.3,0.1-0.5,0.2-0.8,0c-0.3-0.2-0.5-0.4-0.7-0.3C10,16.1,10,16.4,10,16.7
			c0,0.2,0.1,1.2,0.1,1.9c0,0.7-0.1,1.4-0.4,1.6c-0.3,0.2-0.3,0.1-0.3-0.4c0-0.5-0.1-1.9-0.1-2.3c0-0.4-0.1-0.4-0.2-0.5
			c-0.1-0.1-0.3,0-0.5-0.1c-0.2,0-0.6-0.3-0.6-0.7c0-0.3,0-1.7,0-1.9c0-0.2-0.1-0.4-0.2-0.1c-0.2,0.2-0.2,0.4-0.2,0.7
			c0,0.4,0,1.2-0.3,1.5c-0.3,0.3-0.8,0.2-1-0.2c-0.2-0.3-0.4-1-0.4-2C6,13.2,6,13.1,6.1,13.1L6.1,13.1z M27,12.7
			c0,0.2,0.1,0.4,0.1,0.6c0,0-0.3-0.3-0.3-0.4C26.6,12.8,26.6,12.7,27,12.7L27,12.7z M11.3,18.1c0-0.4,0.6-0.6,0.6-0.1
			c0,0.2-0.1,0.2-0.2,0.2C11.5,18.3,11.3,18.3,11.3,18.1L11.3,18.1z M10.8,33.6c0,0,3.9,0.1,6.1,0.1c2.1,0,10.4,0.1,10.4,0.1l5.7,0
			c0,0-0.7-0.6,0.2-1c0,0,0.1,0.2,0.1,0.3c0,0,0.2,0,0.3,0.2c0.1,0.2-0.1,0.5-0.1,0.6c0,0,0.9,0,1.4,0.1c0.6,0,0.6,0.1,1.2,0
			c0.6-0.1,0.9-0.1,1.2,0.2c0.3,0.3,0.5,1.1,0.4,1.7c-0.2,0.6-0.6,0.6-0.9,0.6c-0.3,0-0.4-0.4-0.4-0.4s-1.3,0.2-2.8,0
			c0,0-0.4,0.5-0.6,0c-0.2-0.5-0.2-0.9-0.1-1.1c0,0-10.9,0-12.3,0c-1.3,0-6.1,0-6.7,0C13.4,35,11.6,35,10.8,33.6L10.8,33.6z
			 M33.7,35c0,0,2.2,0,2.4,0c0.2,0,0.2,0.1,0.2,0.2c0,0.1,0,0.2-0.2,0.2c-0.2,0-0.7,0-0.7,0s0-0.2-0.4-0.2c-0.3,0-0.3,0.2-0.3,0.2
			c-0.1,0-1.1,0-1.1-0.1C33.5,35.4,33.4,35.1,33.7,35L33.7,35z M38.3,22.3c-0.2,0-0.4,0.1-0.4,0.3c0.1,0.2,0.3,0.2,0.4,0.4
			s-0.3,0.4-0.4,0.5c-0.1,0.1-0.1,0.4,0.2,0.3c0.3,0,0.7-0.3,0.9-0.4c0.2-0.1,0.3-0.2,0.3-0.3c0-0.1-0.2-0.1-0.3-0.1
			c-0.2,0-0.3-0.1-0.2-0.2C38.8,22.7,39.1,22.2,38.3,22.3L38.3,22.3z M40.5,11.9c-0.1,0.6,0.1,1.5,0.2,2c0.1,0.5,0.4,2.9,0.4,3.4
			c0,0.5,0.2,2.4,0.2,2.7c0,0.3,0.1,1.1-0.1,1.6c-0.2,0.5-0.6,0.9-0.8,1.1c-0.2,0.2-1,0.4-1.2,0.7c-0.3,0.3-0.4,0.5,0,0.6
			c0.4,0.1,1.3-0.1,1.8-0.4c0.5-0.3,1-1,1.1-1.7c0.1-0.7,0.1-2.8,0.1-3.6c0-0.8-0.1-2.2-0.2-2.8c-0.1-0.6-0.3-1.9-0.3-2.1
			c-0.1-0.2,0-0.2,0.1-0.2c0.1,0,0.4,0,0.2-0.3c-0.1-0.2-0.6-1.1-0.8-1.2c-0.1-0.1-0.2-0.3-0.2-0.4c0-0.1-0.1-0.2-0.2-0.1
			C40.7,11.5,40.6,11.8,40.5,11.9L40.5,11.9z M39.5,12.5c-0.1,0.1-0.1,0.4,0.1,0.7c0.1,0.3,0.4,0.5,0.4,0.8c0,0.3-0.1,0.8,0,0.7
			c0.1-0.1,0.4-0.5,0.4-1C40.3,13.3,40.1,12.1,39.5,12.5L39.5,12.5z M34.2,15.8c0.2,0.3,0.7,0.8,1.1,1c0.4,0.2,0.2-0.5,0.2-0.9
			c0-0.4,0-0.5,0.2-0.5c0.2,0,0.3,0,0.2-0.2c0-0.2-0.1-0.8-0.5-0.8c-0.4,0-0.5,0.3-0.5,0.4c0,0.2,0.1,0.4,0,0.4
			c-0.2,0-0.2-0.1-0.3-0.2c-0.1-0.1-0.3-0.1-0.5,0C34,15.2,34,15.6,34.2,15.8L34.2,15.8z M36.3,16.9c-0.2,0.2-1.4,1-1.6,1.2
			c-0.2,0.2-0.2,0.4-0.2,0.5c0,0.2,0,0.3,0.2,0.2c0.3-0.1,1.5-1,1.7-1.2c0.2-0.2,0.2-0.5,0.2-0.6C36.6,16.9,36.5,16.7,36.3,16.9
			L36.3,16.9z M36,18.2c-0.1,0.1-0.1,0.4,0,0.7c0.1,0.3,0.3,0.6,0.3,0.8c-0.1,0.3,0,0.7,0.1,0.6c0.1-0.1,0.4-0.4,0.4-0.9
			C36.7,19.1,36.5,17.9,36,18.2L36,18.2z M32.7,21.9c0.2,0.4,0.3,0.7,0.6,0.8c0.4,0,0.6-0.7,0.7-1c0.1-0.2,0.4-1,0.7-1.3
			c0.2-0.3,0.5-0.5,0.8-0.2c0.3,0.3,0.6,1.1,1.1,1c0.5-0.1,0.6-1.4,0.6-1.9c0-0.6-0.3-4.2-0.3-4.2s-1.4-1.8-1.6-2.1
			c-0.2-0.3-0.3-0.3-0.3-0.8c0-0.5,0-0.8,0-1c0-0.2,0.2-0.1,0.3,0c0.1,0.1,0.5,0.4,0.7,0.6c0.2,0.2,0.5,0.5,0.5,0.6
			c-0.1,0.1-0.2,0-0.3,0.1c0,0.1,0.4,0.5,0.4,0.5s-0.1-1.2-0.2-1.4c0-0.2,0.2-0.5,0.3-0.5c0.1-0.1,0.2-0.1,0.3,0.1
			c0.1,0.2,0.8,1.5,0.9,1.6c0.1,0.2,0,0.3,0,0.4c-0.1,0-0.1,0-0.2-0.1c-0.1,0-0.2-0.1-0.1,0.1c0,0.1,0.1,0.7,0.1,0.9
			c0,0.2,0,0.5,0.1,0.5c0,0.1,1,1.5,1,1.5s-0.2-1.6-0.3-2.1c-0.1-0.5-0.3-1.5-0.3-1.9c0-0.4,0-0.6,0.1-0.8c0.2-0.2,0.4-0.4,0.5-0.2
			c0.1,0.2,0.4,0.9,0.6,1.3c0.1,0.4,0.2,0.6,0.2,0.7c0,0.2-0.1,0.2-0.2,0.2c-0.1,0-0.2,0-0.2,0.1c0,0.1,0.3,1.7,0.4,2.4
			c0.1,0.7,0.2,1.8,0.2,1.8s0.7,0.9,0.9,1.3c0.2,0.4,0.5,0.7,0.5,1.1c0.1,0.4,0.1,0.8,0,1.2c-0.1,0.3-0.1,0.2-0.2,0
			c-0.1-0.2-1.2-1.9-1.2-1.9s0,1,0,1.2c0,0.2-0.5,0.9-0.7,1C39,21.9,38.9,22,39,21.7c0-0.3,0-2.3-0.1-2.6c0-0.3-0.1-1.2-0.1-1.2
			l-0.9-1.2c0,0,0.1,2.3,0.1,3c0,0.7,0.2,2-0.6,2.5c-0.8,0.5-1,0.3-1.5,0.1c-0.4-0.2-0.7-0.7-0.9-0.7c-0.3,0.1-0.4,0.4-0.5,0.8
			c-0.1,0.4-0.3,1.4-0.8,1.5c-0.5,0-1-0.4-1.3-0.9c-0.3-0.5-0.5-1.8,0.1-2.6C32.5,20.9,32.5,21.4,32.7,21.9L32.7,21.9z M32,11.7
			c-0.1,0.4-0.2,0.7-0.2,1.2c0,0.5,0.2,1.3,0.3,1.7c0.1,0.4,0.4,2.1,0.4,2.4c0,0.3,0.2,1.8,0.3,2.1c0,0.2,0.1,1.3,0.1,1.6
			c0,0.3,0,1,0,1.1c0,0.2,0,0.1,0.1,0.1c0.1-0.1,0.3-0.3,0.5-0.7c0.2-0.5,0.2-0.6,0.2-0.9c0-0.2-0.1-1.6-0.1-1.9
			c0-0.3-0.3-2.2-0.3-2.6c0-0.4-0.3-1.8-0.3-2.1c-0.1-0.3-0.1-0.4,0.1-0.4c0.1,0,0.3,0.1,0.4,0c0.1-0.1-0.2-0.5-0.3-0.6
			c-0.1-0.2-0.5-0.8-0.6-1c-0.1-0.1-0.2-0.3-0.2-0.5c0-0.1-0.1-0.2-0.2,0C32.1,11.5,32,11.6,32,11.7L32,11.7z M30.6,11.5
			c-0.3,0.5-0.3,0.9-0.2,1.7c0.1,0.8,0.3,2.6,0.4,3.7c0.1,1.2,0.2,2.7,0.3,3.3c0,0.5,0.1,0.9-0.2,1.2c-0.2,0.3-0.7,0.8-1,1
			c-0.3,0.2-0.9,0.6-1.2,0.8c-0.3,0.1-0.3,0.2-0.2,0.3c0.1,0.1,0.3,0.5,0.9,0.4c0.6-0.1,1.4-0.7,1.7-1.2c0.3-0.5,0.6-1,0.8-1.4
			c0.2-0.5,0.1-1.4,0.1-1.8c0-0.4,0-1.4-0.1-2.1c-0.1-0.7-0.2-2-0.3-2.4c-0.1-0.4-0.2-0.9-0.2-1.2c0-0.2,0-0.4,0.1-0.4
			c0.2,0,0.3-0.1,0.3-0.2c0-0.2-0.1-0.5-0.2-0.8c-0.1-0.3-0.3-0.7-0.4-0.9C30.8,11.3,30.7,11.2,30.6,11.5L30.6,11.5z M28.8,11.5
			c-0.1,0.1-0.1,0.3,0.1,0.6c0.2,0.3,0.4,0.5,0.4,0.8c0,0.3,0,0.7,0.1,0.6c0.1-0.1,0.4-0.7,0.4-1.1C29.7,11.9,29.4,11.1,28.8,11.5
			L28.8,11.5z M28.7,14.6c0,0.3,0.1,0.7,0.7,0.7c0.6,0,0.7-0.4,0.7-0.7c0-0.3-0.1-0.4-0.2-0.4c-0.1,0-0.2,0.1-0.2,0.2
			c0,0.1,0,0.2-0.1,0.2c-0.1,0-0.1-0.1-0.1-0.2c0-0.1-0.1-0.2-0.1-0.2c-0.1,0-0.1,0.1-0.1,0.2c0,0.1,0,0.1-0.1,0.1
			c-0.1,0-0.1,0-0.1-0.2c0-0.1-0.1-0.2-0.1-0.2C28.9,14.2,28.7,14.3,28.7,14.6L28.7,14.6z M27.7,22.5c0,0,0.2-4.9-0.3-7
			c0,0-1.2-1.7-1.6-2.2c-0.4-0.5-0.8-1-0.9-1.5c0-0.5,0-0.8,0.3-0.8c0.3,0,0.6,0.3,0.8,0.5c0.3,0.2,0.6,0.5,0.7,0.8
			c0,0-0.1-0.6,0.1-0.8c0.1-0.2,0.2-0.5,0.4-0.2c0.2,0.2,0.5,0.7,0.7,1c0.2,0.3,0.4,0.6,0.4,1c0.1,0.3,0,0.4,0,0.3
			c-0.1-0.1-0.2-0.1-0.2,0c0,0.1,0,0.6,0.1,0.8c0,0.3,0.1,1.1,0.1,1.1s0.6,0.8,1,1.5c0.4,0.7,1,1.8,1.2,2.1c0.2,0.4,0.2,0.4,0.2,0.7
			c0,0.3,0,0.9,0,1.1c0,0.2-0.1,0.3-0.2,0.1c-0.1-0.2-1.7-3.2-2-3.6c0,0,0.1,2.3,0.1,2.7c0,0.4,0,1.5-0.2,1.8
			C28.3,22.1,28.1,22.5,27.7,22.5L27.7,22.5z M25.4,22.1c-0.2,0.2-0.3,0.3-0.3,0.5c0.1,0.1,0.2,0,0.3,0c0.1,0,0.2,0.1,0.2,0.3
			c0,0.2,0,0.5,0.2,0.4c0.2-0.1,0.5-0.2,0.8-0.3c0.3-0.1,0.4-0.1,0.5-0.2c0.1,0,0.1-0.3-0.1-0.4c-0.2,0-0.4,0-0.6,0.1
			c-0.2,0.1-0.3,0.3-0.4,0.1C26,22.5,26,22.4,26,22.2c0-0.2,0.1-0.3,0-0.4C25.9,21.8,25.7,21.8,25.4,22.1L25.4,22.1z M21.9,16.6
			c0,0.3,0.1,0.7,0.7,0.7c0.6,0,0.7-0.4,0.7-0.7c0-0.3-0.1-0.4-0.2-0.4c-0.1,0-0.2,0.1-0.2,0.2c0,0.1,0,0.2-0.1,0.2
			c-0.1,0-0.1-0.1-0.1-0.2c0-0.1-0.1-0.2-0.1-0.2c-0.1,0-0.1,0.1-0.1,0.2c0,0.1,0,0.1-0.1,0.1c-0.1,0-0.1,0-0.1-0.2
			c0-0.1-0.1-0.2-0.1-0.2C22,16.3,21.9,16.4,21.9,16.6L21.9,16.6z M16.8,19.8c0,0-0.5,0.4-0.7,1.5c0,0-1.6,1-2.3,1.5
			c-0.7,0.5-1,0.8-1,0.9c0,0.1,1-0.2,1.5-0.3c0.6-0.2,1.6-0.6,1.6-0.6s0.2,1,1.1,1.1c1,0.2,1.8-0.4,2.3-0.9c0.5-0.5,0.9-1,1-1.2
			c0.2-0.2,0.3-0.2,0.4,0s0.4,0.8,1.3,1.2c0.8,0.4,2,0.5,2.1,0.5c0.1,0,0.3-0.3,0.3-0.4c0-0.1,0-0.3-0.2-0.4
			c-0.2-0.1-0.8-0.3-0.9-0.6c-0.1-0.3,0.1-0.6,0.3-0.7c0.2-0.1,0.9-0.1,1.2-0.2c0.3-0.1,1.8-0.3,2.1-0.5c0,0,0.1-0.8,0.4-1.2
			c0,0,0.1-0.1,0.1-0.1c0,0,0,0,0-0.1c0,0-0.1-0.1-0.2-0.1c-0.1,0-1.6,0-2,0c-0.4,0-1.2,0-1.3,0c-0.2,0-0.2-0.1,0-0.2
			c0.2,0,0.8-0.1,1.5-0.4c0.6-0.3,0.9-0.8,1-1.2c0.1-0.4,0-1.1-0.5-1.3c-0.5-0.2-1-0.3-1.4,0.1c-0.4,0.5-0.3,1.1-0.3,1.3
			c0,0.2,0,0.3-0.4,0.4c-0.4,0.1-1.4,0.4-1.8,0.7c-0.5,0.3-0.5,0.5-0.6,0.6c-0.1,0.1-0.1,0.2-0.1,0.1c-0.1,0-0.1-0.1-0.1-0.3
			c0-0.1-0.2-1.3-0.4-1.9c-0.2-0.6-0.4-0.9-0.5-1c-0.1-0.2-0.2-0.2-0.3-0.3c-0.1-0.1-0.1,0-0.2,0c-0.1,0.1-0.3,0.1-0.3,0.6
			c0,0.4,0.2,0.8,0.3,1c0.1,0.2,0.6,1.3,0.6,2.2c0,0.9,0,0.9-0.4,1.5c-0.4,0.6-1.4,1.3-1.7,1.5c-0.3,0.1-1.2,0.3-1.2-0.5
			c0,0,0.9-0.5,1.7-1.4c0.7-0.9,0.7-1.6,0.6-1.8c0-0.3-0.2-1.1-0.4-1.3c0,0,0.1,0,0.2,0.1c0.1,0,0.3,0.1,0.2-0.2
			c-0.1-0.2-0.4-0.9-0.8-1.1c-0.4-0.2-0.8,0.2-0.8,0.6c0,0.4-0.1,0.6,0.3,0.9c0.3,0.3,0.6,0.7,0.6,1c0,0.4-0.2,0.7-0.5,1
			c-0.3,0.3-1.2,1-1.2,1S16.7,20,16.8,19.8L16.8,19.8z M21.7,20c0.4,0.1,1.1,0.1,1.4,0.2c0.3,0,0.6,0.3,0.2,0.4
			c-0.4,0.2-0.8,0.3-0.8,0.7c0,0.4,0.1,0.5,0,0.6c-0.1,0.1-0.4-0.1-0.8-0.4c-0.3-0.3-0.5-0.8-0.6-1C21.2,20.1,21.3,19.9,21.7,20
			L21.7,20z M24.7,17.1c-0.1,0.1,0,0.3,0.2,0.3c0.2,0.1,0.3,0.1,0.4,0c0.1-0.1,0-0.2-0.1-0.3C25,17,24.8,17,24.7,17.1L24.7,17.1z
			 M15.2,19.5c0.2,0.2,0.4,0.4,0.4,0.6c0,0.2-0.1,0.6,0,0.6c0.1,0,0.4-0.5,0.4-0.8c0-0.3-0.2-0.7-0.4-0.8
			C15.4,19,14.8,19.2,15.2,19.5L15.2,19.5z M6.3,21.9c0,0.6,0.1,0.8,0.2,0.8c0.1,0,0.2-0.2,0.3-0.3C6.8,22.3,7,22.5,7,22.6
			c0,0.1,0,0.5-0.2,0.8c-0.1,0.2-0.6,0.6-1,0c-0.4-0.6,0-1.7,0-2c0.1-0.3,0.3-0.6,0.4-0.7c0.1-0.1,0.1-0.1,0.1,0.1
			C6.3,21,6.3,21.6,6.3,21.9L6.3,21.9z M6.1,19.3l3-1.5c0,0,0-0.5-0.5-0.5c-0.5,0-1.1,0.2-1.7,0.7C6.5,18.5,6.2,19,6.1,19.3
			L6.1,19.3z M21,11.4c-0.1,0.4-0.2,1.1,0,1.2c0.2,0.1,0.5-0.6,0.5-1c0.1-0.4,0.1-0.6-0.1-0.7C21.2,10.9,21.1,11.2,21,11.4L21,11.4z
			 M17.9,14.9c0.3,0.5,0.5,0.6,0.6,0.7c0.2,0,0.2,0,0.2,0c0.1,0,0.1,0,0.2,0c0.2-0.1,0.3-0.3,0.5-0.8c0.2-0.5,0.1-0.7,0.2-0.9
			c0.1-0.2,0.3-0.3,0.3-0.2c0,0.2-0.1,1.5,0.5,2c0.6,0.5,1.2,0.1,1.3,0c0.1-0.1,0.5-0.4,0.6-0.6c0.1-0.1,0.4-0.2,0.5,0
			c0.2,0.3,0.3,0.6,0.8,0.6c0.5,0,0.7-0.1,0.8-0.4c0.1-0.2,0.2-0.4,0.3-0.6c0.1-0.1,0.3-0.1,0.3-0.1c0.1,0,0.1,0.1,0,0.2
			c0,0.1-0.1,0.3,0,0.3c0.1,0.1,0.3,0,0.5-0.1c0.1-0.1,0.3-0.4,0.5-0.8c0.1-0.4-0.1-0.4-0.3-0.3c-0.1,0.1-0.4,0.3-0.7,0.2
			c-0.3,0-0.4-0.3-0.5-0.6c-0.1-0.3-0.1-0.7-0.2-0.8c-0.1-0.2-0.1-0.3,0-0.4c0-0.1,0.2,0.1,0.4-0.1c0.2-0.1,0.1-0.4,0-0.5
			c-0.1-0.2-0.4-0.7-0.7-0.8c-0.3-0.1-0.6,0.1-0.7,0.4c-0.1,0.3-0.1,0.6,0,0.9c0.1,0.3,0.4,0.5,0.5,1.1c0.2,0.6,0.1,0.9,0,1
			c-0.2,0.1-0.6,0.2-0.7,0c-0.1-0.2-0.3-0.7-0.3-1.1c0-0.4-0.1-1.8-0.2-2.1c-0.1-0.3-0.2-0.5-0.3-0.5c-0.1,0-0.3,0.3-0.4,0.6
			c-0.1,0.3-0.2,0.4,0,0.9c0.2,0.5,0.2,0.9,0.2,1.4c0,0.5-0.1,0.6-0.4,0.8c-0.2,0.2-0.6,0.3-0.9,0c-0.3-0.4-0.2-1-0.2-1.2
			c0-0.2,0.1-1.1-0.1-1.3c-0.2-0.2-0.4-0.2-0.7,0.2c-0.3,0.4-0.5,0.8-0.7,1.4c-0.2,0.6-0.2,1-0.4,1c-0.2,0-0.4-0.5-0.4-1
			c-0.1-0.5-0.2-1-0.2-1.2c0-0.2-0.2-0.4-0.3-0.1C17.4,13.1,17.5,14.2,17.9,14.9L17.9,14.9z M16.5,14.6c-0.1,0.2-0.1,0.3,0,0.5
			c0,0.1,0.2,0.2,0.3,0.1c0.1-0.1,0.3-0.2,0.3-0.2c0.1,0-0.1,0.6-0.4,0.7c-0.3,0.1-0.7,0.1-0.8-0.4c-0.1-0.5,0.2-0.7,0.4-0.9
			C16.5,14.3,16.6,14.4,16.5,14.6L16.5,14.6z M18.9,11c-0.2,0.2-0.4,0.3-0.5,0.7c-0.1,0.4,0,0.4,0,0.5c0,0.1,0.1,0.1,0.1,0.1
			c0,0,0.2,0.1,0.3,0c0.2-0.1,0.2-0.2,0.3-0.3c0-0.1-0.1-0.1-0.1-0.1c-0.1,0-0.2,0-0.2-0.1c0-0.1,0-0.3,0.2-0.4
			c0.1-0.1,0.2-0.2,0.2-0.3C19.2,10.9,19.1,10.8,18.9,11L18.9,11z M16.3,12.9c-0.4,0.3-1.7,1.4-1.9,1.5c-0.1,0.1,0,0.1,0.1,0.1
			c0.1,0,0.7,0,0.9,0c0.2,0,0.3-0.1,0.4-0.2s1.4-1.5,1.5-1.6c0.1-0.1,0-0.1,0-0.1c-0.1-0.1-0.1-0.1-0.2-0.2c0-0.1-0.1-0.1,0-0.2
			c0.1-0.1,0.3-0.2,0.2-0.5c0-0.3-0.1-0.5-0.6-0.5c-0.5,0-0.6,0.4-0.6,0.6c0,0.2,0,0.3,0.2,0.5c0.2,0.1,0.2,0.3,0.2,0.4
			C16.4,12.8,16.3,12.9,16.3,12.9L16.3,12.9z M16.6,12.2c0.1,0.1,0.2,0.2,0.3,0.1c0.1-0.1,0.1-0.2,0-0.3c-0.1-0.1-0.2-0.2-0.3-0.1
			C16.4,12,16.5,12.1,16.6,12.2L16.6,12.2z M13.4,11.6c0.2,0.3,0.6,1.4,0.7,1.6c0.1,0.2,0.1,0.3-0.1,0.3c-0.1,0-0.2,0-0.3,0
			c-0.1,0-0.1,0-0.1,0.1c0,0.1,0.2,1.6,0.3,2c0.1,0.4,0.2,1.3,0.2,1.3s0.3-0.2,0.5-0.1c0.2,0.1,0.2,0.4,0.2,0.5c0,0.1,0,0.2,0.3,0.2
			c0.3,0,0.3-0.1,0.4-0.3c0.1-0.2,0.3-0.6,0.5-0.5c0.3,0,0.3,0.3,0.4,0.4c0,0.1,0,0.2,0.2,0.2c0.2,0,0.1-0.1,0.2-0.3
			c0-0.2,0-0.3,0.2-0.4c0.2-0.1,0.4-0.1,0.4-0.1s-0.1,1.3-0.2,1.6c-0.1,0.3-0.4,0.5-0.8,0.4c-0.4,0-0.5-0.2-0.6-0.2
			c-0.2,0-0.3,0.3-0.6,0.4c-0.3,0.1-0.6,0.1-0.8,0c-0.2-0.1-0.3-0.2-0.3,0c0,0.2,0.2,1.4-0.1,2.3c-0.2,0.9-1.3,2.3-2.8,2.7
			c-1.5,0.4-2.7,0.3-3.3-0.8c-0.6-1.1-0.1-2.4,0-2.5c0.1-0.2,0.3-0.3,0.4,0.2c0.1,0.5,0,1.3,0.4,1.7c0.4,0.4,1.2,0.8,2.6,0.3
			c1.4-0.5,1.8-1.8,1.9-2.1c0.1-0.3,0.2-1.2,0.2-1.4c0-0.2-0.3-0.3-0.3,0.1c-0.1,0.4-0.2,1.3-0.8,2c-0.6,0.7-1.2,1.1-2,1.1
			c-0.9,0-1.5-0.6-1.7-1.2c-0.2-0.6-0.1-1.4,0-1.6c0-0.2,0.1-0.6,0.3-0.6c0.2,0,0.2,0.6,0.3,0.9c0,0.3,0,1,0.5,1.2
			c0.5,0.2,1.3,0,1.8-0.4c0.5-0.4,0.8-0.7,0.9-1.1c0.1-0.3,0.1-0.4,0.1-0.5c0,0-0.2,0.1-0.4,0.2c-0.2,0.1-0.7,0.3-1,0.1
			c-0.3-0.2-0.4-0.4-0.4-1.1c0-0.7,0.3-1.1,0.8-1.3c0.5-0.2,0.9,0.2,1.1,0.3c0.1,0.2,0.3,0.5,0.5,0.3c0.2-0.2,0.2-0.3,0.1-0.7
			c-0.1-0.5-0.3-2-0.4-2.4c0-0.4-0.3-1.9-0.4-2.3c0-0.4,0.1-0.5,0.2-0.6C12.8,11.4,13.2,11.2,13.4,11.6L13.4,11.6z M10.1,11.6
			c0,0.3,0.1,0.7,0.7,0.7c0.6,0,0.7-0.4,0.7-0.7c0-0.3-0.1-0.4-0.2-0.4c-0.1,0-0.2,0.1-0.2,0.2c0,0.1,0,0.2-0.1,0.2
			c-0.1,0-0.1-0.1-0.1-0.2c0-0.1-0.1-0.2-0.1-0.2c-0.1,0-0.1,0.1-0.1,0.2c0,0.1,0,0.1-0.1,0.1c-0.1,0-0.1,0-0.1-0.2
			c0-0.1-0.1-0.2-0.1-0.2C10.3,11.3,10.1,11.4,10.1,11.6L10.1,11.6z M6.8,11.2c-0.1,0.1-0.1,0.3,0.1,0.5C7,12,7.2,12.2,7.2,12.4
			c0,0.2,0,0.6,0.1,0.5c0.1-0.1,0.3-0.6,0.3-0.9C7.6,11.6,7.3,11,6.8,11.2L6.8,11.2z"/>
	</g>
</g>
</svg>
