<?xml version="1.0" encoding="utf-8"?>
<!-- Generator: Adobe Illustrator 22.0.1, SVG Export Plug-In . SVG Version: 6.00 Build 0)  -->
<svg version="1.1" id="Layer_1" xmlns="http://www.w3.org/2000/svg" xmlns:xlink="http://www.w3.org/1999/xlink" x="0px" y="0px"
	 viewBox="0 0 48 48" style="enable-background:new 0 0 48 48;" xml:space="preserve">
<style type="text/css">
	.st0{clip-path:url(#SVGID_2_);}
	.st1{fill:#F0F0F0;stroke:#F3F3F4;stroke-width:9.050200e-02;stroke-miterlimit:2.4142;}
	.st2{fill-rule:evenodd;clip-rule:evenodd;fill:#0437A0;}
	.st3{fill-rule:evenodd;clip-rule:evenodd;fill:#FF1612;}
</style>
<g>
	<defs>
		<path id="SVGID_1_" d="M47.8,24c0,13.1-10.6,23.8-23.8,23.8C10.9,47.8,0.2,37.1,0.2,24C0.2,10.9,10.9,0.2,24,0.2
			C37.1,0.2,47.8,10.9,47.8,24z"/>
	</defs>
	<clipPath id="SVGID_2_">
		<use xlink:href="#SVGID_1_"  style="overflow:visible;"/>
	</clipPath>
	<g class="st0">
		<polygon class="st1" points="-11.6,0.2 59.6,0.2 59.6,47.8 -11.6,47.8 -11.6,0.2 		"/>
		<g>
			<path class="st2" d="M34.8,28.8c-1.8,4.2-6,7.1-10.9,7.1C17.4,35.9,12,30.6,12,24c0-2,0.5-3.8,1.3-5.5c-1.1,5.9,3.4,9.4,7.7,7.7
				c2.3-0.9,2.8-2.5,4.5-3.8C29.9,19.3,35.6,22.9,34.8,28.8C34.8,28.8,34.8,28.8,34.8,28.8L34.8,28.8z"/>
			<path class="st3" d="M23.9,12.1c6.6,0,11.9,5.3,11.9,11.9c0,1.7-0.4,3.3-1,4.7c0.7-5.9-5-9.5-9.3-6.3c-1.7,1.3-2.2,2.9-4.5,3.8
				c-4.2,1.7-8.8-1.8-7.7-7.7C15.3,14.7,19.3,12.1,23.9,12.1L23.9,12.1z"/>
			<path d="M1.7,16.3l6.6-9.9L10,7.5l-6.6,9.9L1.7,16.3L1.7,16.3z M4.2,17.9L10.8,8l1.6,1.1L5.8,19L4.2,17.9L4.2,17.9z M-0.8,14.7
				l6.6-9.9l1.6,1.1l-6.6,9.9L-0.8,14.7L-0.8,14.7z"/>
			<path d="M44.6,17.4L38,7.5l1.6-1.1l6.6,9.9L44.6,17.4L44.6,17.4z M47.2,15.8l-3.1-4.6l1.6-1.1l3.1,4.6L47.2,15.8L47.2,15.8z
				 M43.6,10.4l-3-4.5l1.6-1.1l3,4.5L43.6,10.4L43.6,10.4z M42.2,19l-3.1-4.6l1.6-1.1l3.1,4.6L42.2,19L42.2,19z M38.6,13.7l-3-4.5
				L37.2,8l3,4.5L38.6,13.7L38.6,13.7z"/>
			<path d="M43.8,30.1l-3.1,4.6l-1.6-1.1l3.1-4.6L43.8,30.1L43.8,30.1z M40.3,35.4l-3,4.5l-1.6-1.1l3-4.5L40.3,35.4L40.3,35.4z
				 M48.8,33.3l-3.1,4.6l-1.6-1.1l3.1-4.6L48.8,33.3L48.8,33.3z M45.2,38.7l-3,4.5l-1.6-1.1l3-4.5L45.2,38.7L45.2,38.7z M46.3,31.7
				l-3,4.6l-1.6-1.1l3-4.6L46.3,31.7L46.3,31.7z M42.7,37.1l-3,4.6L38,40.5l3-4.6L42.7,37.1L42.7,37.1z"/>
			<path d="M3.4,30.6l3,4.6l-1.6,1.1l-3-4.6L3.4,30.6L3.4,30.6z M5.8,29l6.6,9.9L10.8,40l-6.6-9.9L5.8,29L5.8,29z M0.9,32.2l6.6,9.9
				l-1.6,1.1l-6.6-9.9L0.9,32.2L0.9,32.2z M7,36l3,4.6l-1.6,1.1l-3-4.6L7,36L7,36z"/>
		</g>
	</g>
</g>
</svg>
