<svg id="Layer_1" data-name="Layer 1" xmlns="http://www.w3.org/2000/svg" xmlns:xlink="http://www.w3.org/1999/xlink" viewBox="0 0 24 24"><defs><style>.cls-1,.cls-12,.cls-2,.cls-3{fill:none;}.cls-1,.cls-11,.cls-12,.cls-19,.cls-3,.cls-34,.cls-36,.cls-40,.cls-9{stroke:#000;stroke-linejoin:round;stroke-width:0.07px;}.cls-3{clip-rule:evenodd;}.cls-4{fill:#c60b1e;}.cls-5{fill:#ffc400;}.cls-6{isolation:isolate;}.cls-7{clip-path:url(#clip-path);}.cls-8{clip-path:url(#clip-path-2);}.cls-9{fill:#ccc;}.cls-10{clip-path:url(#clip-path-3);}.cls-11{fill:#ad1519;}.cls-12{fill-rule:evenodd;}.cls-13{clip-path:url(#clip-path-5);}.cls-14{clip-path:url(#clip-path-7);}.cls-15{clip-path:url(#clip-path-9);}.cls-16{clip-path:url(#clip-path-11);}.cls-17{clip-path:url(#clip-path-13);}.cls-18{clip-path:url(#clip-path-15);}.cls-19{fill:#c8b100;}.cls-20{clip-path:url(#clip-path-17);}.cls-21{clip-path:url(#clip-path-19);}.cls-22{clip-path:url(#clip-path-21);}.cls-23{clip-path:url(#clip-path-23);}.cls-24{clip-path:url(#clip-path-25);}.cls-25{clip-path:url(#clip-path-27);}.cls-26{clip-path:url(#clip-path-29);}.cls-27{clip-path:url(#clip-path-31);}.cls-28{clip-path:url(#clip-path-33);}.cls-29{clip-path:url(#clip-path-35);}.cls-30{clip-path:url(#clip-path-37);}.cls-31{clip-path:url(#clip-path-39);}.cls-32{clip-path:url(#clip-path-41);}.cls-33{clip-path:url(#clip-path-43);}.cls-34{fill:#ed72aa;}.cls-35{clip-path:url(#clip-path-45);}.cls-36{fill:#ffd691;}.cls-37{clip-path:url(#clip-path-47);}.cls-38{clip-path:url(#clip-path-49);}.cls-39{clip-path:url(#clip-path-51);}.cls-40{fill:#005bbf;}</style><clipPath id="clip-path" transform="translate(0 -0.04)"><rect class="cls-1" x="7.87" y="11.08" width="0.81" height="3.98"/></clipPath><clipPath id="clip-path-2" transform="translate(0 -0.04)"><rect class="cls-2" x="-0.29" y="-0.36" width="24" height="24"/></clipPath><clipPath id="clip-path-3" transform="translate(0 -0.04)"><path class="cls-3" d="M9.51,12.57a2.57,2.57,0,0,0-.82-0.14,2.5,2.5,0,0,0-.39,0,0.91,0.91,0,0,0-.83.43h0l-0.18-.43A1,1,0,0,1,8.21,12a2.77,2.77,0,0,1,.48,0,2.57,2.57,0,0,1,.82.11v0.49"/></clipPath><clipPath id="clip-path-5" transform="translate(0 -0.04)"><path class="cls-3" d="M7.37,13.84a0.8,0.8,0,0,1,.51-0.31l0.4-.17A1.24,1.24,0,0,0,9,12.87H9a2.86,2.86,0,0,1,.06.41,1.16,1.16,0,0,1-.65.48C8.27,13.82,8,13.92,7.87,14a0.71,0.71,0,0,0-.43.28l-0.08-.4"/></clipPath><clipPath id="clip-path-7" transform="translate(0 -0.04)"><rect class="cls-1" x="15.32" y="11.08" width="0.81" height="3.98"/></clipPath><clipPath id="clip-path-9" transform="translate(0 -0.04)"><path class="cls-3" d="M14.49,12.57a2.57,2.57,0,0,1,.82-0.14,2.5,2.5,0,0,1,.39,0,0.91,0.91,0,0,1,.83.43h0l0.18-.43A1,1,0,0,0,15.79,12a2.77,2.77,0,0,0-.48,0,2.57,2.57,0,0,0-.82.11v0.49"/></clipPath><clipPath id="clip-path-11" transform="translate(0 -0.04)"><path class="cls-3" d="M16.63,13.84a0.8,0.8,0,0,0-.51-0.31l-0.4-.17A1.24,1.24,0,0,1,15,12.87h0a2.89,2.89,0,0,0-.06.41,1.15,1.15,0,0,0,.65.48c0.13,0.06.39,0.16,0.52,0.2a0.71,0.71,0,0,1,.43.28l0.07-.4"/></clipPath><clipPath id="clip-path-13" transform="translate(0 -0.04)"><path class="cls-3" d="M12,8.28a2.35,2.35,0,0,1,.82.13,1.56,1.56,0,0,0,.42.11,1.66,1.66,0,0,0,.34,0,1.34,1.34,0,0,1,.53.12,1.42,1.42,0,0,1,.39.25L14.39,9l0,0.2-0.21.25L14,9.5l-0.25.2H13.66l0,0.11L12,9.64l-1.65.19,0-.11H10.16L9.91,9.5,9.8,9.41,9.59,9.16l0-.2L9.49,8.9a1.43,1.43,0,0,1,.39-0.25,1.34,1.34,0,0,1,.53-0.12,1.66,1.66,0,0,0,.34,0,1.55,1.55,0,0,0,.42-0.11A2.25,2.25,0,0,1,12,8.28"/></clipPath><clipPath id="clip-path-15" transform="translate(0 -0.04)"><path class="cls-3" d="M12,10.45a5.66,5.66,0,0,1-1.55-.19,0.06,0.06,0,0,1,0-.06,0.06,0.06,0,0,1,0-.06A5.66,5.66,0,0,1,12,9.95a5.66,5.66,0,0,1,1.55.19,0.06,0.06,0,0,1,0,.06,0.06,0.06,0,0,1,0,.06,5.65,5.65,0,0,1-1.55.19"/></clipPath><clipPath id="clip-path-17" transform="translate(0 -0.04)"><path class="cls-3" d="M10.76,8.72l0.07,0.06,0.1-.17a0.39,0.39,0,0,1-.19-0.33,0.35,0.35,0,0,1,0,0,0.55,0.55,0,0,1,.61-0.4,0.78,0.78,0,0,1,.44.12s0-.06,0-0.09a0.9,0.9,0,0,0-.45-0.11,0.64,0.64,0,0,0-.7.48,0.45,0.45,0,0,0,0,0,0.46,0.46,0,0,0,.16.35l-0.06.09"/></clipPath><clipPath id="clip-path-19" transform="translate(0 -0.04)"><path class="cls-3" d="M9.6,8.89a0.46,0.46,0,0,1-.12-0.31,0.45,0.45,0,0,1,0-.2A0.92,0.92,0,0,1,10.36,8a1.38,1.38,0,0,1,.31,0l-0.05.07-0.25,0a0.83,0.83,0,0,0-.75.33,0.37,0.37,0,0,0,0,.16,0.38,0.38,0,0,0,.14.29l-0.13.21L9.51,9,9.6,8.89"/></clipPath><clipPath id="clip-path-21" transform="translate(0 -0.04)"><path class="cls-3" d="M12,7.71a0.18,0.18,0,0,1,.18.14,1.58,1.58,0,0,1,0,.23s0,0,0,0v0a1.38,1.38,0,0,0,.06.43L12,8.82l-0.27-.26a1.38,1.38,0,0,0,.06-0.43v0s0,0,0,0a1.53,1.53,0,0,1,0-.23A0.19,0.19,0,0,1,12,7.71"/></clipPath><clipPath id="clip-path-23" transform="translate(0 -0.04)"><path class="cls-3" d="M13.22,8.72l-0.07.06L13,8.6a0.39,0.39,0,0,0,.19-0.33,0.37,0.37,0,0,0,0,0,0.55,0.55,0,0,0-.61-0.4,0.79,0.79,0,0,0-.44.12s0-.06,0-0.09a0.9,0.9,0,0,1,.45-0.11,0.64,0.64,0,0,1,.7.48s0,0,0,0a0.46,0.46,0,0,1-.16.35l0.06,0.09"/></clipPath><clipPath id="clip-path-25" transform="translate(0 -0.04)"><path class="cls-3" d="M14.37,8.89a0.46,0.46,0,0,0,.12-0.31,0.45,0.45,0,0,0,0-.2A0.92,0.92,0,0,0,13.61,8a1.38,1.38,0,0,0-.31,0l0.05,0.07,0.25,0a0.83,0.83,0,0,1,.75.33,0.37,0.37,0,0,1,0,.16,0.38,0.38,0,0,1-.14.29l0.13,0.21L14.46,9l-0.09-.14"/></clipPath><clipPath id="clip-path-27" transform="translate(0 -0.04)"><path class="cls-3" d="M12,9.13h0.06a0.22,0.22,0,0,0,0,.08,0.24,0.24,0,0,0,.25.23,0.24,0.24,0,0,0,.23-0.16,0.47,0.47,0,0,1,0-.08,0.51,0.51,0,0,1,0,.09,0.25,0.25,0,0,0,.49,0v0l0.08-.08,0,0.1a0.21,0.21,0,0,0,0,.1,0.23,0.23,0,0,0,.23.22,0.24,0.24,0,0,0,.19-0.1l0-.06V9.5a0.14,0.14,0,0,0,.11.16,0.33,0.33,0,0,0,.2-0.08,1.32,1.32,0,0,0,.18-0.16V9.5a0.76,0.76,0,0,1-.2.21,0.36,0.36,0,0,1-.21.06,0.21,0.21,0,0,1-.15-0.14,0.35,0.35,0,0,1-.18,0,0.34,0.34,0,0,1-.32-0.19,0.35,0.35,0,0,1-.26.11,0.36,0.36,0,0,1-.28-0.13A0.36,0.36,0,0,1,12,9.41a0.36,0.36,0,0,1-.54.06,0.36,0.36,0,0,1-.28.13,0.35,0.35,0,0,1-.26-0.11,0.34,0.34,0,0,1-.32.19,0.35,0.35,0,0,1-.18,0,0.21,0.21,0,0,1-.15.14,0.36,0.36,0,0,1-.21-0.06,0.76,0.76,0,0,1-.2-0.21V9.41a1.33,1.33,0,0,0,.18.16,0.33,0.33,0,0,0,.2.08,0.14,0.14,0,0,0,.11-0.16V9.42l0,0.06a0.24,0.24,0,0,0,.19.1,0.23,0.23,0,0,0,.23-0.22,0.21,0.21,0,0,0,0-.1l0-.1,0.08,0.08v0a0.25,0.25,0,0,0,.49,0,0.55,0.55,0,0,1,0-.09,0.46,0.46,0,0,1,0,.08,0.24,0.24,0,0,0,.23.16,0.24,0.24,0,0,0,.25-0.23,0.21,0.21,0,0,0,0-.08H12"/></clipPath><clipPath id="clip-path-29" transform="translate(0 -0.04)"><path class="cls-3" d="M12,16.36a4.25,4.25,0,0,1-1.84-.43,1.18,1.18,0,0,1-.67-1.06V13.21h5v1.66a1.18,1.18,0,0,1-.67,1.06,4.2,4.2,0,0,1-1.83.43"/></clipPath><clipPath id="clip-path-31" transform="translate(0 -0.04)"><rect class="cls-1" x="12" y="10.42" width="2.51" height="2.79"/></clipPath><clipPath id="clip-path-33" transform="translate(0 -0.04)"><path class="cls-3" d="M12,14.87a1.25,1.25,0,0,1-2.5,0V13.21H12v1.67"/></clipPath><clipPath id="clip-path-35" transform="translate(0 -0.04)"><rect class="cls-1" x="9.5" y="10.42" width="2.5" height="2.79"/></clipPath><clipPath id="clip-path-37" transform="translate(0 -0.04)"><path class="cls-3" d="M14.51,13.21v1.67a1.26,1.26,0,0,1-2.51,0V13.21h2.51"/></clipPath><clipPath id="clip-path-39" transform="translate(0 -0.04)"><path class="cls-3" d="M12.46,14.46v0a0.06,0.06,0,0,1-.12,0v0H12.27v0a0.13,0.13,0,0,0,.1.12v0.2h0.09v-0.2a0.13,0.13,0,0,0,.08-0.08h0.23V14.46H12.46Zm1.13,0v0.07H13.38v0l0.24,0.27-0.06.05-0.24-.27h0v0.45H13.21V14.61h0l-0.25.28-0.06-.05,0.25-.28v0H12.91V14.46h0.68Zm0.14,0v0.07H14a0.13,0.13,0,0,0,.08.08v0.2h0.09v-0.2a0.13,0.13,0,0,0,.1-0.12v0H14.13v0a0.06,0.06,0,0,1-.12,0v0H13.72Zm-0.35,1.15,0.19-.05,0,0.07a0.91,0.91,0,0,1-.22.06,0.14,0.14,0,0,1-.27,0,0.91,0.91,0,0,1-.24-0.06l0-.07,0.2,0.06a0.13,0.13,0,0,1,.08-0.07V15.2h0.08v0.35a0.14,0.14,0,0,1,.08.07h0ZM12.8,15.5l0,0.07a0.87,0.87,0,0,1-.19-0.16,0.14,0.14,0,0,1-.13,0,0.12,0.12,0,0,1,0-.18h0a0.8,0.8,0,0,1-.07-0.25h0.09a0.69,0.69,0,0,0,.05.21h0.07l0.21-.24L12.86,15l-0.21.24a0.12,0.12,0,0,1,0,.14A0.79,0.79,0,0,0,12.8,15.5Zm-0.32-.25a0.06,0.06,0,0,1,.08,0,0.05,0.05,0,0,1,0,.08,0.06,0.06,0,0,1-.08,0A0.05,0.05,0,0,1,12.49,15.25ZM12.38,15l-0.09,0V14.77l0.09,0v0.13A0.79,0.79,0,0,0,12.38,15Zm0.07-.28,0.09,0s0,0.14,0,.11,0,0.11,0,.11l-0.09,0a0.74,0.74,0,0,1,0-.14V14.74h0Zm0.29,0.71a0.82,0.82,0,0,0,.25.13l0-.08a0.71,0.71,0,0,1-.21-0.1Zm0,0.07a0.9,0.9,0,0,0,.25.13l-0.07.06a1,1,0,0,1-.21-0.11ZM12.81,15l0.08,0L13,14.9,13,14.83ZM12.75,15l-0.05-.07,0.15-.17,0.08,0Zm0.94,0.52,0,0.07a0.87,0.87,0,0,0,.19-0.16,0.14,0.14,0,0,0,.13,0,0.12,0.12,0,0,0,0-.18h0a0.78,0.78,0,0,0,.07-0.25H14a0.69,0.69,0,0,1-.05.21H13.91l-0.21-.24L13.63,15l0.21,0.24a0.12,0.12,0,0,0,0,.14A0.78,0.78,0,0,1,13.69,15.5ZM14,15.25a0.06,0.06,0,0,0-.08,0,0.05,0.05,0,0,0,0,.08,0.06,0.06,0,0,0,.08,0A0.05,0.05,0,0,0,14,15.25ZM14.11,15l0.09,0V14.77l-0.09,0v0.13A0.78,0.78,0,0,1,14.11,15ZM14,14.74l-0.09,0s0,0.14,0,.11V15L14,15a0.73,0.73,0,0,0,0-.14V14.74Zm-0.29.71a0.82,0.82,0,0,1-.25.13l0-.08a0.71,0.71,0,0,0,.21-0.1Zm0,0.07a0.91,0.91,0,0,1-.25.13l0.07,0.06a1,1,0,0,0,.21-0.11ZM13.68,15l-0.08,0-0.15-.17,0.05-.07ZM13.74,15l0.05-.07-0.15-.17-0.08,0Zm-1-.45,0,0.1H13l0-.1H12.7Zm1.1,0,0,0.1H13.53l0-.1H13.8Zm-0.6,1.14a0.06,0.06,0,1,1,.06.06A0.06,0.06,0,0,1,13.19,15.67Zm0.1-.4,0.1,0V15l-0.1,0v0.27Zm-0.07,0-0.1,0V15l0.1,0v0.27Z"/></clipPath><clipPath id="clip-path-41" transform="translate(0 -0.04)"><path class="cls-3" d="M12.27,14.47a0.13,0.13,0,0,1,.09-0.1V14.09h0.08v0.28a0.13,0.13,0,0,1,.09.08H12.46a0.06,0.06,0,0,0-.05,0,0.06,0.06,0,0,0-.05,0H12.27Zm0.63,0h0.21v0l-0.26-.29,0.06-.05,0.26,0.29h0V14h0.08v0.38h0l0.25-.29,0.06,0.05-0.25.29v0H12.91Zm1.12,0a0.06,0.06,0,0,1,.05,0,0.06,0.06,0,0,1,.05,0h0.08a0.13,0.13,0,0,0-.09-0.1V14.09H14v0.28a0.13,0.13,0,0,0-.09.08H14Zm-1.57-.78L12.78,14,12.84,14l-0.32-.35v0h0.23V13.53H12.54a0.14,0.14,0,0,0-.13-0.09,0.13,0.13,0,0,0-.14.13,0.13,0.13,0,0,0,.09.12V14h0.08V13.69h0Zm1.66,0V14H14V13.69h0L13.71,14,13.64,14,14,13.62v0H13.72V13.53H14a0.14,0.14,0,0,1,.13-0.09,0.13,0.13,0,0,1,.14.13A0.13,0.13,0,0,1,14.12,13.69Zm-0.83,0v0.17H13.2V13.69a0.13,0.13,0,0,1-.09-0.08H12.91V13.53h0.21a0.14,0.14,0,0,1,.26,0h0.21v0.08H13.37A0.13,0.13,0,0,1,13.29,13.69Zm-0.91.2-0.1,0v0.22l0.1,0V13.89Zm0.07,0,0.1,0v0.22l-0.1,0V13.89Zm1.6,0-0.1,0v0.22l0.1,0V13.89Zm0.07,0,0.1,0v0.22l-0.1,0V13.89Zm-1.33,0,0.08,0L13,14.07,13,14.14ZM12.73,14l0,0.07,0.15,0.17,0.08,0Zm1-.06-0.08,0-0.15.17,0.05,0.07ZM13.75,14l0.05,0.07-0.15.17-0.08,0Zm-1.06.49,0-.1H13l0,0.1H12.7Zm-0.34-.9a0.06,0.06,0,1,1,.06.06A0.06,0.06,0,0,1,12.35,13.57Zm0.63,0,0,0.1H12.72l0-.1H13Zm0-.06,0-.1H12.72l0,0.1H13Zm0.81,0.93,0-.1H13.53l0,0.1H13.8Zm0.23-.9a0.06,0.06,0,1,1,.06.06A0.06,0.06,0,0,1,14,13.57Zm-0.84,0a0.06,0.06,0,1,1,.06.06A0.06,0.06,0,0,1,13.19,13.57Zm0.33,0,0,0.1h0.23l0-.1H13.51Zm0-.06,0-.1h0.23l0,0.1H13.51Zm-0.29.24-0.1,0V14l0.1,0V13.79Zm0.07,0,0.1,0V14l-0.1,0V13.79Z"/></clipPath><clipPath id="clip-path-43" transform="translate(0 -0.04)"><path class="cls-3" d="M13.66,11s0,0,0,.07,0,0.06,0,.08v0a0.2,0.2,0,0,1,0,0l0,0,0,0v0.05a0.14,0.14,0,0,0,0,.06,0.31,0.31,0,0,1,.05.07,0.24,0.24,0,0,1,0,.07,0.13,0.13,0,0,0,0,0l-0.06,0a0.14,0.14,0,0,1,0,.08,0.27,0.27,0,0,1,0,.08l0-.06-0.06,0a0.32,0.32,0,0,1,0,.1s0,0.12,0,.12l0,0-0.05,0a0.19,0.19,0,0,1,0,.06,0.53,0.53,0,0,0,.1.23,0.25,0.25,0,0,0,.27.15c0.16,0,.1-0.25.07-0.35a0.88,0.88,0,0,1,0-.24s0-.15,0-0.17a0.42,0.42,0,0,1,0-.16,0.92,0.92,0,0,1,0-.12,0.3,0.3,0,0,0,0-.07,0.64,0.64,0,0,0,0-.07l0,0.07A0.35,0.35,0,0,1,14,11a0.12,0.12,0,0,1,0-.08l0.11-.07,0,0a0.34,0.34,0,0,1,0,.13l-0.09.1,0.06,0h0a0.39,0.39,0,0,0-.07.08,0.9,0.9,0,0,0-.05.11,0.25,0.25,0,0,1-.09.08,0.34,0.34,0,0,0,0,.24,2.29,2.29,0,0,1,.1.29,0.27,0.27,0,0,1-.08.24,0.56,0.56,0,0,1-.18.06,0.16,0.16,0,0,0-.06.15,0.13,0.13,0,0,0,.06.13,0.67,0.67,0,0,1,.07,0l0,0a0,0,0,0,1,0,0s0,0.06-.06.09a0.74,0.74,0,0,0,0,.12,0.14,0.14,0,0,0,0,.07s0,0.05,0,.06a0.12,0.12,0,0,1,0,0l0,0s0,0,0,0,0,0,0,0a0,0,0,0,0,0,0,0.05,0.05,0,0,1,0,0l0,0a0.07,0.07,0,0,1,0,0,0.06,0.06,0,0,1,0,0s0,0,0,0a0,0,0,0,0,0,0s0,0,0,0a0.19,0.19,0,0,0,0,0s0,0,0,0a0.17,0.17,0,0,1,.07,0,0.07,0.07,0,0,0,.05,0,0.07,0.07,0,0,0,0-.08l0,0,0,0a0.41,0.41,0,0,1,0,.07,0.2,0.2,0,0,0,0,0l0,0a0.26,0.26,0,0,1,0-.07s0,0,0,.07a0.22,0.22,0,0,1,0,0,0.16,0.16,0,0,1-.05,0,0.19,0.19,0,0,1-.05-0.05,0.4,0.4,0,0,1,0-.07,0.22,0.22,0,0,1,0-.08l0-.06H13.37s-0.06,0-.08,0a0.23,0.23,0,0,0,0,.14,0.32,0.32,0,0,1,0,.11l0,0H13.11l-0.06,0s0,0,0,0,0,0,0,0h0s0,0,0,0a0.08,0.08,0,0,1,0,0s0,0,0,0h0a0,0,0,0,1,0,0,0.05,0.05,0,0,1,0-.05s0-.06,0-0.06a0.12,0.12,0,0,0,.08,0,0,0,0,0,0,0,0s0,0,0,0l0,0s0,0,0,0a0.24,0.24,0,0,1,0,.07,0.1,0.1,0,0,0,.1,0c0.05,0,.07,0,0.07,0a0.48,0.48,0,0,0,0-.05,0.3,0.3,0,0,1,0,0l0,0,0,0a0.25,0.25,0,0,1,0-.05v0a0.25,0.25,0,0,0,0,.05,0.09,0.09,0,0,1,0-.08,0.63,0.63,0,0,1,0-.1,0.14,0.14,0,0,1,.1-0.08H13.3l0.1,0-0.18-.1a0.49,0.49,0,0,1-.1-0.11,0.41,0.41,0,0,1,0-.08H13l-0.06,0,0,0.05s0,0,0-.06,0,0,0,0a0.19,0.19,0,0,1-.05.09l-0.07.06V11.8a0.11,0.11,0,0,1-.06,0,0.13,0.13,0,0,0-.09,0,0.38,0.38,0,0,1,0,.07l0,0,0,0h0a0,0,0,0,1,0,0,0.1,0.1,0,0,0,0,0h0s0,0,0,0a0.1,0.1,0,0,0,0-.05,0,0,0,0,1,0,0h0.06s0,0,0,0,0,0,0,0l0,0s0,0,0,0a0.54,0.54,0,0,0,0,.05,0.21,0.21,0,0,0,.11,0l0.07,0,0.08-.06-0.05,0-0.05-.05-0.1,0-0.09,0,0,0,0,0H12.62l-0.06,0h0l0.07,0h0.05a0.15,0.15,0,0,1-.06,0l0-.05a0.05,0.05,0,0,0,0,0l-0.06,0a0,0,0,0,1,0,0,0,0,0,0,0,0,0s0,0,0,0h0.07a0.08,0.08,0,0,0,0,0s0,0,0,0l0,0s0,0,0,0a0.31,0.31,0,0,0,.06.06,0.06,0.06,0,0,0,0-.06s0,0,0,0l0,0s0.06,0,.05,0a0.13,0.13,0,0,1,0,.05,0.08,0.08,0,0,0,0,.07,0.2,0.2,0,0,0,.06.07l0.09,0,0.11,0.07,0,0H13a0.5,0.5,0,0,0,.14,0s0.06,0,.05-0.06a0.38,0.38,0,0,1-.07-0.07s0,0,.07,0,0.09,0,.1,0,0-.08,0-0.1a0.11,0.11,0,0,1-.1-0.05s0,0,0-.06l0.07,0h0.1s0,0,0,0l0.08,0,0.14,0.09a0.78,0.78,0,0,1,.11.11"/></clipPath><clipPath id="clip-path-45" transform="translate(0 -0.04)"><path class="cls-3" d="M12.13,15.62a0.2,0.2,0,0,1,.16.2A0.24,0.24,0,0,1,12,16a0.24,0.24,0,0,1-.27-0.21,0.18,0.18,0,0,1,.15-0.2v0l0,0h0.06l0,0,0,0,0,0,0,0v0l0,0h0v0a0.19,0.19,0,0,0,0,0"/></clipPath><clipPath id="clip-path-47" transform="translate(0 -0.04)"><path class="cls-3" d="M10.36,11.07h0v0H10.23V11.2h0.08v0.13H10.14V11.7h0.09v0.74H10v0.38h1.42V12.44H11.28V11.7h0.09V11.33H11.2V11.2h0.08V11H11.2v0h0v0H11.07v0H11v0H10.93V11.2H11v0.13H10.84v-0.4h0.09V10.74H10.84v0h0v0H10.71v0h0v0H10.58v0.18h0.09v0.4H10.49V11.2h0.08V11H10.49v0h0v0H10.36v0ZM10,12.82h0Zm0-.09h0Zm0-.09h0Zm0-.09h0Zm0-.1h0Zm0.18-.08h0Zm0-.09h0Zm0-.1h0Zm0-.09h0Zm0-.09h0Zm0-.09h0Zm0-.09h0Zm-0.09-.09h0Zm0-.09h0Zm0-.09h0Zm0-.09h0Zm0.17-.09h0Zm0.36-.09h0Zm0-.09h0Zm0-.09h0Zm0-.09h0Zm-0.09-.12h0Zm-0.27.39h0Zm-0.08-.12h0Zm0,1.71v0Zm0-.18v0Zm-0.09,0v0Zm0.17,0.1v0Zm0.09,0.09v0Zm0-.18v0Zm0-.18v0Zm0-.19v0Zm-0.09.28v0Zm-0.17,0v0Zm0.36-.1v0Zm0.08,0v0Zm-0.27-.19v0Zm0.18,0v0Zm0.17,0v0Zm-0.09,0v0Zm0.09-.2v0Zm0-.18v0Zm-0.09-.09v0Zm0.09-.09v0Zm-0.17,0v0Zm-0.18,0v0Zm-0.08-.09v0Zm0.17,0v0Zm0.17,0v0Zm0.09-.09v0Zm-0.17,0v0Zm-0.18,0v0Zm-0.08-.09v0Zm0.35,0v0Zm-0.17-.18v0Zm0.8,0h0Zm0.08-.12h0Zm0,1.71v0Zm0-.18v0Zm0.09,0v0Zm-0.17.1v0Zm-0.09.09v0Zm0-.18v0Zm0-.18v0Zm0-.19v0Zm0.09,0.28v0Zm0.17,0v0ZM11,12.44v0Zm-0.08,0v0Zm0.27-.19v0Zm-0.18,0v0Zm-0.17,0v0Zm0.09,0v0Zm-0.09-.2v0Zm0-.18v0Zm0.09-.09v0Zm-0.09-.09v0Zm0.17,0v0Zm0.18,0v0Zm0.08-.09v0Zm-0.17,0v0Zm-0.17,0v0Zm-0.09-.09v0Zm0.17,0v0Zm0.18,0v0Zm0.08-.09v0Zm-0.35,0v0Zm0.17-.18v0Zm-0.36,1v0Zm0-.37v0Zm0,0.18v0Zm0-.37v0Zm0-.18v0Zm0-.28v0Zm0-.18v0Zm-0.44.14h0Zm0.36-.28h0ZM11,11.2h0Z"/></clipPath><clipPath id="clip-path-49" transform="translate(0 -0.04)"><path class="cls-3" d="M11.2,13.2a0.82,0.82,0,1,1,.81.91,0.87,0.87,0,0,1-.81-0.91"/></clipPath><clipPath id="clip-path-51" transform="translate(0 -0.04)"><path class="cls-3" d="M11.44,13.19a0.58,0.58,0,1,1,.57.67,0.63,0.63,0,0,1-.57-0.67"/></clipPath></defs><title>spain_2</title><g id="Spain"><path class="cls-4" d="M12,24a12,12,0,0,0,10.23-5.75H1.77A12,12,0,0,0,12,24Z" transform="translate(0 -0.04)"/><path class="cls-4" d="M12,0A12,12,0,0,0,1.77,5.78H22.23A12,12,0,0,0,12,0Z" transform="translate(0 -0.04)"/><path class="cls-5" d="M22.23,5.78H1.77a11.92,11.92,0,0,0,0,12.5H22.23A11.92,11.92,0,0,0,22.23,5.78Z" transform="translate(0 -0.04)"/><g class="cls-6"><g class="cls-7"><g class="cls-8"><rect class="cls-9" x="2.87" y="6.04" width="10.81" height="13.98"/></g></g><rect class="cls-1" x="7.87" y="11.04" width="0.81" height="3.98"/><rect class="cls-1" x="7.87" y="11.04" width="0.81" height="3.98"/><g class="cls-10"><g class="cls-8"><rect class="cls-11" x="2.29" y="6.93" width="12.22" height="10.95"/></g></g><path class="cls-12" d="M9.51,12.57a2.57,2.57,0,0,0-.82-0.14,2.5,2.5,0,0,0-.39,0,0.91,0.91,0,0,0-.83.43h0l-0.18-.43A1,1,0,0,1,8.21,12a2.77,2.77,0,0,1,.48,0,2.57,2.57,0,0,1,.82.11v0.49" transform="translate(0 -0.04)"/><path class="cls-1" d="M9.51,12.57a2.57,2.57,0,0,0-.82-0.14,2.5,2.5,0,0,0-.39,0,0.91,0.91,0,0,0-.83.43h0l-0.18-.43A1,1,0,0,1,8.21,12a2.77,2.77,0,0,1,.48,0,2.57,2.57,0,0,1,.82.11v0.49" transform="translate(0 -0.04)"/><g class="cls-13"><g class="cls-8"><rect class="cls-11" x="2.36" y="7.83" width="11.68" height="11.38"/></g></g><path class="cls-12" d="M7.37,13.84a0.8,0.8,0,0,1,.51-0.31l0.4-.17A1.24,1.24,0,0,0,9,12.87H9a2.86,2.86,0,0,1,.06.41,1.16,1.16,0,0,1-.65.48C8.27,13.82,8,13.92,7.87,14a0.71,0.71,0,0,0-.43.28l-0.08-.4" transform="translate(0 -0.04)"/><path class="cls-1" d="M7.37,13.84a0.8,0.8,0,0,1,.51-0.31l0.4-.17A1.24,1.24,0,0,0,9,12.87H9a2.86,2.86,0,0,1,.06.41,1.16,1.16,0,0,1-.65.48C8.27,13.82,8,13.92,7.87,14a0.71,0.71,0,0,0-.43.28l-0.08-.4h0Z" transform="translate(0 -0.04)"/><g class="cls-14"><g class="cls-8"><rect class="cls-9" x="10.32" y="6.04" width="10.81" height="13.98"/></g></g><rect class="cls-1" x="15.32" y="11.04" width="0.81" height="3.98"/><rect class="cls-1" x="15.32" y="11.04" width="0.81" height="3.98"/><g class="cls-15"><g class="cls-8"><rect class="cls-11" x="9.49" y="6.93" width="12.22" height="10.95"/></g></g><path class="cls-12" d="M14.49,12.57a2.57,2.57,0,0,1,.82-0.14,2.5,2.5,0,0,1,.39,0,0.91,0.91,0,0,1,.83.43h0l0.18-.43A1,1,0,0,0,15.79,12a2.77,2.77,0,0,0-.48,0,2.57,2.57,0,0,0-.82.11v0.49" transform="translate(0 -0.04)"/><path class="cls-1" d="M14.49,12.57a2.57,2.57,0,0,1,.82-0.14,2.5,2.5,0,0,1,.39,0,0.91,0.91,0,0,1,.83.43h0l0.18-.43A1,1,0,0,0,15.79,12a2.77,2.77,0,0,0-.48,0,2.57,2.57,0,0,0-.82.11v0.49" transform="translate(0 -0.04)"/><g class="cls-16"><g class="cls-8"><rect class="cls-11" x="9.96" y="7.83" width="11.68" height="11.38"/></g></g><path class="cls-12" d="M16.63,13.84a0.8,0.8,0,0,0-.51-0.31l-0.4-.17A1.24,1.24,0,0,1,15,12.87h0a2.89,2.89,0,0,0-.06.41,1.15,1.15,0,0,0,.65.48c0.13,0.06.39,0.16,0.52,0.2a0.71,0.71,0,0,1,.43.28l0.07-.4" transform="translate(0 -0.04)"/><path class="cls-1" d="M16.63,13.84a0.8,0.8,0,0,0-.51-0.31l-0.4-.17A1.24,1.24,0,0,1,15,12.87h0a2.89,2.89,0,0,0-.06.41,1.15,1.15,0,0,0,.65.48c0.13,0.06.39,0.16,0.52,0.2a0.71,0.71,0,0,1,.43.28l0.07-.4h0Z" transform="translate(0 -0.04)"/><g class="cls-17"><g class="cls-8"><rect class="cls-11" x="4.49" y="3.24" width="14.98" height="11.55"/></g></g><path class="cls-12" d="M12,8.28a2.35,2.35,0,0,1,.82.13,1.56,1.56,0,0,0,.42.11,1.66,1.66,0,0,0,.34,0,1.34,1.34,0,0,1,.53.12,1.42,1.42,0,0,1,.39.25L14.39,9l0,0.2-0.21.25L14,9.5l-0.25.2H13.66l0,0.11L12,9.64l-1.65.19,0-.11H10.16L9.91,9.5,9.8,9.41,9.59,9.16l0-.2L9.49,8.9a1.43,1.43,0,0,1,.39-0.25,1.34,1.34,0,0,1,.53-0.12,1.66,1.66,0,0,0,.34,0,1.55,1.55,0,0,0,.42-0.11A2.25,2.25,0,0,1,12,8.28" transform="translate(0 -0.04)"/><path class="cls-1" d="M12,8.28a2.35,2.35,0,0,1,.82.13,1.56,1.56,0,0,0,.42.11,1.66,1.66,0,0,0,.34,0,1.34,1.34,0,0,1,.53.12,1.42,1.42,0,0,1,.39.25L14.39,9l0,0.2-0.21.25L14,9.5l-0.25.2H13.66l0,0.11L12,9.64l-1.65.19,0-.11H10.16L9.91,9.5,9.8,9.41,9.59,9.16l0-.2L9.49,8.9a1.43,1.43,0,0,1,.39-0.25,1.34,1.34,0,0,1,.53-0.12,1.66,1.66,0,0,0,.34,0,1.55,1.55,0,0,0,.42-0.11A2.25,2.25,0,0,1,12,8.28Z" transform="translate(0 -0.04)"/><g class="cls-18"><g class="cls-8"><rect class="cls-19" x="5.4" y="4.91" width="13.19" height="10.5"/></g></g><path class="cls-12" d="M12,10.45a5.66,5.66,0,0,1-1.55-.19,0.06,0.06,0,0,1,0-.06,0.06,0.06,0,0,1,0-.06A5.66,5.66,0,0,1,12,9.95a5.66,5.66,0,0,1,1.55.19,0.06,0.06,0,0,1,0,.06,0.06,0.06,0,0,1,0,.06,5.65,5.65,0,0,1-1.55.19" transform="translate(0 -0.04)"/><path class="cls-1" d="M12,10.45a5.66,5.66,0,0,1-1.55-.19,0.06,0.06,0,0,1,0-.06,0.06,0.06,0,0,1,0-.06A5.66,5.66,0,0,1,12,9.95a5.66,5.66,0,0,1,1.55.19,0.06,0.06,0,0,1,0,.06,0.06,0.06,0,0,1,0,.06,5.65,5.65,0,0,1-1.55.19" transform="translate(0 -0.04)"/><g class="cls-20"><g class="cls-8"><rect class="cls-19" x="5.65" y="2.72" width="11.15" height="11.02"/></g></g><path class="cls-12" d="M10.76,8.72l0.07,0.06,0.1-.17a0.39,0.39,0,0,1-.19-0.33,0.35,0.35,0,0,1,0,0,0.55,0.55,0,0,1,.61-0.4,0.78,0.78,0,0,1,.44.12s0-.06,0-0.09a0.9,0.9,0,0,0-.45-0.11,0.64,0.64,0,0,0-.7.48,0.45,0.45,0,0,0,0,0,0.46,0.46,0,0,0,.16.35l-0.06.09" transform="translate(0 -0.04)"/><path class="cls-1" d="M10.76,8.72l0.07,0.06,0.1-.17a0.39,0.39,0,0,1-.19-0.33,0.35,0.35,0,0,1,0,0,0.55,0.55,0,0,1,.61-0.4,0.78,0.78,0,0,1,.44.12s0-.06,0-0.09a0.9,0.9,0,0,0-.45-0.11,0.64,0.64,0,0,0-.7.48,0.45,0.45,0,0,0,0,0,0.46,0.46,0,0,0,.16.35l-0.06.09" transform="translate(0 -0.04)"/><g class="cls-21"><g class="cls-8"><rect class="cls-19" x="4.48" y="2.97" width="11.19" height="11.08"/></g></g><path class="cls-12" d="M9.6,8.89a0.46,0.46,0,0,1-.12-0.31,0.45,0.45,0,0,1,0-.2A0.92,0.92,0,0,1,10.36,8a1.38,1.38,0,0,1,.31,0l-0.05.07-0.25,0a0.83,0.83,0,0,0-.75.33,0.37,0.37,0,0,0,0,.16,0.38,0.38,0,0,0,.14.29l-0.13.21L9.51,9,9.6,8.89" transform="translate(0 -0.04)"/><path class="cls-1" d="M9.6,8.89a0.46,0.46,0,0,1-.12-0.31,0.45,0.45,0,0,1,0-.2A0.92,0.92,0,0,1,10.36,8a1.38,1.38,0,0,1,.31,0l-0.05.07-0.25,0a0.83,0.83,0,0,0-.75.33,0.37,0.37,0,0,0,0,.16,0.38,0.38,0,0,0,.14.29l-0.13.21L9.51,9,9.6,8.89h0Z" transform="translate(0 -0.04)"/><g class="cls-22"><g class="cls-8"><rect class="cls-19" x="6.72" y="2.67" width="10.54" height="11.11"/></g></g><path class="cls-12" d="M12,7.71a0.18,0.18,0,0,1,.18.14,1.58,1.58,0,0,1,0,.23s0,0,0,0v0a1.38,1.38,0,0,0,.06.43L12,8.82l-0.27-.26a1.38,1.38,0,0,0,.06-0.43v0s0,0,0,0a1.53,1.53,0,0,1,0-.23A0.19,0.19,0,0,1,12,7.71" transform="translate(0 -0.04)"/><path class="cls-1" d="M12,7.71a0.18,0.18,0,0,1,.18.14,1.58,1.58,0,0,1,0,.23s0,0,0,0v0a1.38,1.38,0,0,0,.06.43L12,8.82l-0.27-.26a1.38,1.38,0,0,0,.06-0.43v0s0,0,0,0a1.53,1.53,0,0,1,0-.23A0.19,0.19,0,0,1,12,7.71h0Z" transform="translate(0 -0.04)"/><g class="cls-23"><g class="cls-8"><rect class="cls-19" x="7.17" y="2.72" width="11.15" height="11.02"/></g></g><path class="cls-12" d="M13.22,8.72l-0.07.06L13,8.6a0.39,0.39,0,0,0,.19-0.33,0.37,0.37,0,0,0,0,0,0.55,0.55,0,0,0-.61-0.4,0.79,0.79,0,0,0-.44.12s0-.06,0-0.09a0.9,0.9,0,0,1,.45-0.11,0.64,0.64,0,0,1,.7.48s0,0,0,0a0.46,0.46,0,0,1-.16.35l0.06,0.09" transform="translate(0 -0.04)"/><path class="cls-1" d="M13.22,8.72l-0.07.06L13,8.6a0.39,0.39,0,0,0,.19-0.33,0.37,0.37,0,0,0,0,0,0.55,0.55,0,0,0-.61-0.4,0.79,0.79,0,0,0-.44.12s0-.06,0-0.09a0.9,0.9,0,0,1,.45-0.11,0.64,0.64,0,0,1,.7.48s0,0,0,0a0.46,0.46,0,0,1-.16.35l0.06,0.09" transform="translate(0 -0.04)"/><g class="cls-24"><g class="cls-8"><rect class="cls-19" x="8.3" y="2.97" width="11.19" height="11.08"/></g></g><path class="cls-12" d="M14.37,8.89a0.46,0.46,0,0,0,.12-0.31,0.45,0.45,0,0,0,0-.2A0.92,0.92,0,0,0,13.61,8a1.38,1.38,0,0,0-.31,0l0.05,0.07,0.25,0a0.83,0.83,0,0,1,.75.33,0.37,0.37,0,0,1,0,.16,0.38,0.38,0,0,1-.14.29l0.13,0.21L14.46,9l-0.09-.14" transform="translate(0 -0.04)"/><path class="cls-1" d="M14.37,8.89a0.46,0.46,0,0,0,.12-0.31,0.45,0.45,0,0,0,0-.2A0.92,0.92,0,0,0,13.61,8a1.38,1.38,0,0,0-.31,0l0.05,0.07,0.25,0a0.83,0.83,0,0,1,.75.33,0.37,0.37,0,0,1,0,.16,0.38,0.38,0,0,1-.14.29l0.13,0.21L14.46,9l-0.09-.14h0Z" transform="translate(0 -0.04)"/><g class="cls-25"><g class="cls-8"><rect class="cls-19" x="4.87" y="4.1" width="14.26" height="10.63"/></g></g><path class="cls-12" d="M12,9.13h0.06a0.22,0.22,0,0,0,0,.08,0.24,0.24,0,0,0,.25.23,0.24,0.24,0,0,0,.23-0.16,0.47,0.47,0,0,1,0-.08,0.51,0.51,0,0,1,0,.09,0.25,0.25,0,0,0,.49,0v0l0.08-.08,0,0.1a0.21,0.21,0,0,0,0,.1,0.23,0.23,0,0,0,.23.22,0.24,0.24,0,0,0,.19-0.1l0-.06V9.5a0.14,0.14,0,0,0,.11.16,0.33,0.33,0,0,0,.2-0.08,1.32,1.32,0,0,0,.18-0.16V9.5a0.76,0.76,0,0,1-.2.21,0.36,0.36,0,0,1-.21.06,0.21,0.21,0,0,1-.15-0.14,0.35,0.35,0,0,1-.18,0,0.34,0.34,0,0,1-.32-0.19,0.35,0.35,0,0,1-.26.11,0.36,0.36,0,0,1-.28-0.13A0.36,0.36,0,0,1,12,9.41a0.36,0.36,0,0,1-.54.06,0.36,0.36,0,0,1-.28.13,0.35,0.35,0,0,1-.26-0.11,0.34,0.34,0,0,1-.32.19,0.35,0.35,0,0,1-.18,0,0.21,0.21,0,0,1-.15.14,0.36,0.36,0,0,1-.21-0.06,0.76,0.76,0,0,1-.2-0.21V9.41a1.33,1.33,0,0,0,.18.16,0.33,0.33,0,0,0,.2.08,0.14,0.14,0,0,0,.11-0.16V9.42l0,0.06a0.24,0.24,0,0,0,.19.1,0.23,0.23,0,0,0,.23-0.22,0.21,0.21,0,0,0,0-.1l0-.1,0.08,0.08v0a0.25,0.25,0,0,0,.49,0,0.55,0.55,0,0,1,0-.09,0.46,0.46,0,0,1,0,.08,0.24,0.24,0,0,0,.23.16,0.24,0.24,0,0,0,.25-0.23,0.21,0.21,0,0,0,0-.08H12" transform="translate(0 -0.04)"/><path class="cls-1" d="M12,9.13h0.06a0.22,0.22,0,0,0,0,.08,0.24,0.24,0,0,0,.25.23,0.24,0.24,0,0,0,.23-0.16,0.47,0.47,0,0,1,0-.08,0.51,0.51,0,0,1,0,.09,0.25,0.25,0,0,0,.49,0v0l0.08-.08,0,0.1a0.21,0.21,0,0,0,0,.1,0.23,0.23,0,0,0,.23.22,0.24,0.24,0,0,0,.19-0.1l0-.06V9.5a0.14,0.14,0,0,0,.11.16,0.33,0.33,0,0,0,.2-0.08,1.32,1.32,0,0,0,.18-0.16V9.5a0.76,0.76,0,0,1-.2.21,0.36,0.36,0,0,1-.21.06,0.21,0.21,0,0,1-.15-0.14,0.35,0.35,0,0,1-.18,0,0.34,0.34,0,0,1-.32-0.19,0.35,0.35,0,0,1-.26.11,0.36,0.36,0,0,1-.28-0.13A0.36,0.36,0,0,1,12,9.41a0.36,0.36,0,0,1-.54.06,0.36,0.36,0,0,1-.28.13,0.35,0.35,0,0,1-.26-0.11,0.34,0.34,0,0,1-.32.19,0.35,0.35,0,0,1-.18,0,0.21,0.21,0,0,1-.15.14,0.36,0.36,0,0,1-.21-0.06,0.76,0.76,0,0,1-.2-0.21V9.41a1.33,1.33,0,0,0,.18.16,0.33,0.33,0,0,0,.2.08,0.14,0.14,0,0,0,.11-0.16V9.42l0,0.06a0.24,0.24,0,0,0,.19.1,0.23,0.23,0,0,0,.23-0.22,0.21,0.21,0,0,0,0-.1l0-.1,0.08,0.08v0a0.25,0.25,0,0,0,.49,0,0.55,0.55,0,0,1,0-.09,0.46,0.46,0,0,1,0,.08,0.24,0.24,0,0,0,.23.16,0.24,0.24,0,0,0,.25-0.23,0.21,0.21,0,0,0,0-.08H12" transform="translate(0 -0.04)"/><g class="cls-26"><g class="cls-8"><rect class="cls-9" x="4.5" y="8.17" width="15.01" height="13.15"/></g></g><path class="cls-12" d="M12,16.36a4.25,4.25,0,0,1-1.84-.43,1.18,1.18,0,0,1-.67-1.06V13.21h5v1.66a1.18,1.18,0,0,1-.67,1.06,4.2,4.2,0,0,1-1.83.43" transform="translate(0 -0.04)"/><path class="cls-1" d="M12,16.36a4.25,4.25,0,0,1-1.84-.43,1.18,1.18,0,0,1-.67-1.06V13.21h5v1.66a1.18,1.18,0,0,1-.67,1.06A4.2,4.2,0,0,1,12,16.36Z" transform="translate(0 -0.04)"/><g class="cls-27"><g class="cls-8"><rect class="cls-9" x="7" y="5.39" width="12.51" height="12.79"/></g></g><rect class="cls-1" x="12" y="10.39" width="2.51" height="2.79"/><rect class="cls-1" x="12" y="10.39" width="2.51" height="2.79"/><g class="cls-28"><g class="cls-8"><rect class="cls-11" x="4.5" y="8.17" width="12.5" height="12.86"/></g></g><path class="cls-12" d="M12,14.87a1.25,1.25,0,0,1-2.5,0V13.21H12v1.67" transform="translate(0 -0.04)"/><g class="cls-29"><g class="cls-8"><rect class="cls-11" x="4.5" y="5.39" width="12.5" height="12.79"/></g></g><rect class="cls-1" x="9.5" y="10.39" width="2.5" height="2.79"/><rect class="cls-1" x="9.5" y="10.39" width="2.5" height="2.79"/><path class="cls-1" d="M12,14.87a1.25,1.25,0,0,1-2.5,0V13.21H12v1.67" transform="translate(0 -0.04)"/><g class="cls-30"><g class="cls-8"><rect class="cls-11" x="7" y="8.17" width="12.51" height="12.86"/></g></g><path class="cls-12" d="M14.51,13.21v1.67a1.26,1.26,0,0,1-2.51,0V13.21h2.51" transform="translate(0 -0.04)"/><path class="cls-1" d="M14.51,13.21v1.67a1.26,1.26,0,0,1-2.51,0V13.21h2.51" transform="translate(0 -0.04)"/><g class="cls-31"><g class="cls-8"><rect class="cls-19" x="7.27" y="9.43" width="11.95" height="11.33"/></g></g><path class="cls-12" d="M12.46,14.46v0a0.06,0.06,0,0,1-.12,0v0H12.27v0a0.13,0.13,0,0,0,.1.12v0.2h0.09v-0.2a0.13,0.13,0,0,0,.08-0.08h0.23V14.46H12.46Zm1.13,0v0.07H13.38v0l0.24,0.27-0.06.05-0.24-.27h0v0.45H13.21V14.61h0l-0.25.28-0.06-.05,0.25-.28v0H12.91V14.46h0.68Zm0.14,0v0.07H14a0.13,0.13,0,0,0,.08.08v0.2h0.09v-0.2a0.13,0.13,0,0,0,.1-0.12v0H14.13v0a0.06,0.06,0,0,1-.12,0v0H13.72Zm-0.35,1.15,0.19-.05,0,0.07a0.91,0.91,0,0,1-.22.06,0.14,0.14,0,0,1-.27,0,0.91,0.91,0,0,1-.24-0.06l0-.07,0.2,0.06a0.13,0.13,0,0,1,.08-0.07V15.2h0.08v0.35a0.14,0.14,0,0,1,.08.07h0ZM12.8,15.5l0,0.07a0.87,0.87,0,0,1-.19-0.16,0.14,0.14,0,0,1-.13,0,0.12,0.12,0,0,1,0-.18h0a0.8,0.8,0,0,1-.07-0.25h0.09a0.69,0.69,0,0,0,.05.21h0.07l0.21-.24L12.86,15l-0.21.24a0.12,0.12,0,0,1,0,.14A0.79,0.79,0,0,0,12.8,15.5Zm-0.32-.25a0.06,0.06,0,0,1,.08,0,0.05,0.05,0,0,1,0,.08,0.06,0.06,0,0,1-.08,0A0.05,0.05,0,0,1,12.49,15.25ZM12.38,15l-0.09,0V14.77l0.09,0v0.13A0.79,0.79,0,0,0,12.38,15Zm0.07-.28,0.09,0s0,0.14,0,.11,0,0.11,0,.11l-0.09,0a0.74,0.74,0,0,1,0-.14V14.74h0Zm0.29,0.71a0.82,0.82,0,0,0,.25.13l0-.08a0.71,0.71,0,0,1-.21-0.1Zm0,0.07a0.9,0.9,0,0,0,.25.13l-0.07.06a1,1,0,0,1-.21-0.11ZM12.81,15l0.08,0L13,14.9,13,14.83ZM12.75,15l-0.05-.07,0.15-.17,0.08,0Zm0.94,0.52,0,0.07a0.87,0.87,0,0,0,.19-0.16,0.14,0.14,0,0,0,.13,0,0.12,0.12,0,0,0,0-.18h0a0.78,0.78,0,0,0,.07-0.25H14a0.69,0.69,0,0,1-.05.21H13.91l-0.21-.24L13.63,15l0.21,0.24a0.12,0.12,0,0,0,0,.14A0.78,0.78,0,0,1,13.69,15.5ZM14,15.25a0.06,0.06,0,0,0-.08,0,0.05,0.05,0,0,0,0,.08,0.06,0.06,0,0,0,.08,0A0.05,0.05,0,0,0,14,15.25ZM14.11,15l0.09,0V14.77l-0.09,0v0.13A0.78,0.78,0,0,1,14.11,15ZM14,14.74l-0.09,0s0,0.14,0,.11V15L14,15a0.73,0.73,0,0,0,0-.14V14.74Zm-0.29.71a0.82,0.82,0,0,1-.25.13l0-.08a0.71,0.71,0,0,0,.21-0.1Zm0,0.07a0.91,0.91,0,0,1-.25.13l0.07,0.06a1,1,0,0,0,.21-0.11ZM13.68,15l-0.08,0-0.15-.17,0.05-.07ZM13.74,15l0.05-.07-0.15-.17-0.08,0Zm-1-.45,0,0.1H13l0-.1H12.7Zm1.1,0,0,0.1H13.53l0-.1H13.8Zm-0.6,1.14a0.06,0.06,0,1,1,.06.06A0.06,0.06,0,0,1,13.19,15.67Zm0.1-.4,0.1,0V15l-0.1,0v0.27Zm-0.07,0-0.1,0V15l0.1,0v0.27Z" transform="translate(0 -0.04)"/><g class="cls-32"><g class="cls-8"><rect class="cls-19" x="7.27" y="8.4" width="11.95" height="11.03"/></g></g><path class="cls-12" d="M12.27,14.47a0.13,0.13,0,0,1,.09-0.1V14.09h0.08v0.28a0.13,0.13,0,0,1,.09.08H12.46a0.06,0.06,0,0,0-.05,0,0.06,0.06,0,0,0-.05,0H12.27Zm0.63,0h0.21v0l-0.26-.29,0.06-.05,0.26,0.29h0V14h0.08v0.38h0l0.25-.29,0.06,0.05-0.25.29v0H12.91Zm1.12,0a0.06,0.06,0,0,1,.05,0,0.06,0.06,0,0,1,.05,0h0.08a0.13,0.13,0,0,0-.09-0.1V14.09H14v0.28a0.13,0.13,0,0,0-.09.08H14Zm-1.57-.78L12.78,14,12.84,14l-0.32-.35v0h0.23V13.53H12.54a0.14,0.14,0,0,0-.13-0.09,0.13,0.13,0,0,0-.14.13,0.13,0.13,0,0,0,.09.12V14h0.08V13.69h0Zm1.66,0V14H14V13.69h0L13.71,14,13.64,14,14,13.62v0H13.72V13.53H14a0.14,0.14,0,0,1,.13-0.09,0.13,0.13,0,0,1,.14.13A0.13,0.13,0,0,1,14.12,13.69Zm-0.83,0v0.17H13.2V13.69a0.13,0.13,0,0,1-.09-0.08H12.91V13.53h0.21a0.14,0.14,0,0,1,.26,0h0.21v0.08H13.37A0.13,0.13,0,0,1,13.29,13.69Zm-0.91.2-0.1,0v0.22l0.1,0V13.89Zm0.07,0,0.1,0v0.22l-0.1,0V13.89Zm1.6,0-0.1,0v0.22l0.1,0V13.89Zm0.07,0,0.1,0v0.22l-0.1,0V13.89Zm-1.33,0,0.08,0L13,14.07,13,14.14ZM12.73,14l0,0.07,0.15,0.17,0.08,0Zm1-.06-0.08,0-0.15.17,0.05,0.07ZM13.75,14l0.05,0.07-0.15.17-0.08,0Zm-1.06.49,0-.1H13l0,0.1H12.7Zm-0.34-.9a0.06,0.06,0,1,1,.06.06A0.06,0.06,0,0,1,12.35,13.57Zm0.63,0,0,0.1H12.72l0-.1H13Zm0-.06,0-.1H12.72l0,0.1H13Zm0.81,0.93,0-.1H13.53l0,0.1H13.8Zm0.23-.9a0.06,0.06,0,1,1,.06.06A0.06,0.06,0,0,1,14,13.57Zm-0.84,0a0.06,0.06,0,1,1,.06.06A0.06,0.06,0,0,1,13.19,13.57Zm0.33,0,0,0.1h0.23l0-.1H13.51Zm0-.06,0-.1h0.23l0,0.1H13.51Zm-0.29.24-0.1,0V14l0.1,0V13.79Zm0.07,0,0.1,0V14l-0.1,0V13.79Z" transform="translate(0 -0.04)"/><path class="cls-1" d="M13.38,15.62l0.19-.05,0,0.07a0.91,0.91,0,0,1-.22.06,0.14,0.14,0,0,1-.27,0,0.91,0.91,0,0,1-.24-0.06l0-.07,0.2,0.06a0.13,0.13,0,0,1,.08-0.07V15.2h0.08v0.35a0.14,0.14,0,0,1,.08.07h0Zm-0.24-1.06v0H12.91V14.45h0.21v0l-0.26-.29,0.06-.05,0.26,0.29h0V14h0.08v0.38h0l0.25-.29,0.06,0.05-0.25.29v0h0.21v0.08H13.38v0l0.24,0.27-0.06.05-0.24-.27h0v0.45H13.21V14.61h0l-0.25.28-0.06-.05Zm-0.67-.87L12.78,14,12.84,14l-0.32-.35v0h0.23V13.53H12.54a0.14,0.14,0,0,0-.13-0.09,0.13,0.13,0,0,0-.14.13,0.13,0.13,0,0,0,.09.12V14h0.08V13.69h0ZM12.8,15.5l0,0.07a0.87,0.87,0,0,1-.19-0.16,0.14,0.14,0,0,1-.13,0,0.12,0.12,0,0,1,0-.18h0a0.8,0.8,0,0,1-.07-0.25h0.09a0.69,0.69,0,0,0,.05.21h0.07l0.21-.24L12.86,15l-0.21.24a0.12,0.12,0,0,1,0,.14A0.79,0.79,0,0,0,12.8,15.5Zm-0.44-.68v-0.2a0.13,0.13,0,0,1-.1-0.12,0.13,0.13,0,0,1,.1-0.12V14.09h0.08v0.28a0.13,0.13,0,0,1,.09.08h0.23v0.08H12.54a0.13,0.13,0,0,1-.08.08v0.2H12.36Zm0.12,0.44a0.06,0.06,0,0,1,.08,0,0.05,0.05,0,0,1,0,.08,0.06,0.06,0,0,1-.08,0A0.05,0.05,0,0,1,12.49,15.25ZM12.38,15l-0.09,0V14.77l0.09,0v0.13A0.79,0.79,0,0,0,12.38,15Zm0.07-.28,0.09,0s0,0.14,0,.11,0,0.11,0,.11l-0.09,0a0.73,0.73,0,0,1,0-.14V14.74h0Zm0.29,0.71a0.81,0.81,0,0,0,.25.13l0-.08a0.71,0.71,0,0,1-.21-0.1Zm0,0.07a0.9,0.9,0,0,0,.25.13l-0.07.06a1,1,0,0,1-.21-0.11Z" transform="translate(0 -0.04)"/><path class="cls-1" d="M12.81,15l0.08,0L13,14.9,13,14.83ZM12.75,15l-0.05-.07,0.15-.17,0.08,0Zm-0.4-.49a0.06,0.06,0,1,1,.06.06A0.06,0.06,0,0,1,12.35,14.49Zm1.34,1,0,0.07a0.87,0.87,0,0,0,.19-0.16,0.14,0.14,0,0,0,.13,0,0.12,0.12,0,0,0,0-.18h0a0.79,0.79,0,0,0,.07-0.25H14a0.69,0.69,0,0,1-.05.21H13.91l-0.21-.24L13.63,15l0.21,0.24a0.12,0.12,0,0,0,0,.14A0.78,0.78,0,0,1,13.69,15.5Zm0.44-.68v-0.2a0.13,0.13,0,0,0,.1-0.12,0.13,0.13,0,0,0-.1-0.12V14.09H14v0.28a0.13,0.13,0,0,0-.09.08H13.72v0.08H14a0.13,0.13,0,0,0,.08.08v0.2h0.09ZM14,15.25a0.06,0.06,0,0,0-.08,0,0.05,0.05,0,0,0,0,.08,0.06,0.06,0,0,0,.08,0A0.05,0.05,0,0,0,14,15.25ZM14.11,15l0.09,0V14.77l-0.09,0v0.13A0.78,0.78,0,0,1,14.11,15ZM14,14.74l-0.09,0s0,0.14,0,.11V15L14,15a0.73,0.73,0,0,0,0-.14V14.74Zm0.09-1.05V14H14V13.69h0L13.71,14,13.64,14,14,13.62v0H13.72V13.53H14a0.14,0.14,0,0,1,.13-0.09,0.13,0.13,0,0,1,.14.13A0.13,0.13,0,0,1,14.12,13.69Zm-0.83,0v0.17H13.2V13.69a0.13,0.13,0,0,1-.09-0.08H12.91V13.53h0.21a0.14,0.14,0,0,1,.26,0h0.21v0.08H13.37A0.13,0.13,0,0,1,13.29,13.69Zm0.46,1.76a0.82,0.82,0,0,1-.25.13l0-.08a0.71,0.71,0,0,0,.21-0.1Zm0,0.07a0.91,0.91,0,0,1-.25.13l0.07,0.06a1,1,0,0,0,.21-0.11Zm-1.41-1.63-0.1,0v0.22l0.1,0V13.89Zm0.07,0,0.1,0v0.22l-0.1,0V13.89Zm1.6,0-0.1,0v0.22l0.1,0V13.89Z" transform="translate(0 -0.04)"/><path class="cls-1" d="M14.12,13.89l0.1,0v0.22l-0.1,0V13.89ZM13.68,15l-0.08,0-0.15-.17,0.05-.07ZM13.74,15l0.05-.07-0.15-.17-0.08,0Zm-0.95-1,0.08,0L13,14.07,13,14.14ZM12.73,14l0,0.07,0.15,0.17,0.08,0Zm1-.06-0.08,0-0.15.17,0.05,0.07ZM13.75,14l0.05,0.07-0.15.17-0.08,0Zm-1.06.49,0-.1H13l0,0.1H12.7Zm0,0.06,0,0.1H13l0-.1H12.7Zm-0.34-1a0.06,0.06,0,1,1,.06.06A0.06,0.06,0,0,1,12.35,13.57Zm0.63,0,0,0.1H12.72l0-.1H13Zm0-.06,0-.1H12.72l0,0.1H13Zm1,0.95a0.06,0.06,0,0,1,.12,0A0.06,0.06,0,0,1,14,14.49Zm-0.23,0,0-.1H13.53l0,0.1H13.8Zm0,0.06,0,0.1H13.53l0-.1H13.8Zm-0.6,1.14a0.06,0.06,0,1,1,.06.06A0.06,0.06,0,0,1,13.19,15.67Zm0.1-.4,0.1,0V15l-0.1,0v0.27Zm-0.07,0-0.1,0V15l0.1,0v0.27ZM14,13.57a0.06,0.06,0,1,1,.06.06A0.06,0.06,0,0,1,14,13.57Zm-0.84,0a0.06,0.06,0,1,1,.06.06A0.06,0.06,0,0,1,13.19,13.57Zm0.33,0,0,0.1h0.23l0-.1H13.51Zm0-.06,0-.1h0.23l0,0.1H13.51Z" transform="translate(0 -0.04)"/><g class="cls-33"><g class="cls-8"><rect class="cls-34" x="7.41" y="5.75" width="11.78" height="12.07"/></g></g><path class="cls-12" d="M13.66,11s0,0,0,.07,0,0.06,0,.08v0a0.2,0.2,0,0,1,0,0l0,0,0,0v0.05a0.14,0.14,0,0,0,0,.06,0.31,0.31,0,0,1,.05.07,0.24,0.24,0,0,1,0,.07,0.13,0.13,0,0,0,0,0l-0.06,0a0.14,0.14,0,0,1,0,.08,0.27,0.27,0,0,1,0,.08l0-.06-0.06,0a0.32,0.32,0,0,1,0,.1s0,0.12,0,.12l0,0-0.05,0a0.19,0.19,0,0,1,0,.06,0.53,0.53,0,0,0,.1.23,0.25,0.25,0,0,0,.27.15c0.16,0,.1-0.25.07-0.35a0.88,0.88,0,0,1,0-.24s0-.15,0-0.17a0.42,0.42,0,0,1,0-.16,0.92,0.92,0,0,1,0-.12,0.3,0.3,0,0,0,0-.07,0.64,0.64,0,0,0,0-.07l0,0.07A0.35,0.35,0,0,1,14,11a0.12,0.12,0,0,1,0-.08l0.11-.07,0,0a0.34,0.34,0,0,1,0,.13l-0.09.1,0.06,0h0a0.39,0.39,0,0,0-.07.08,0.9,0.9,0,0,0-.05.11,0.25,0.25,0,0,1-.09.08,0.34,0.34,0,0,0,0,.24,2.29,2.29,0,0,1,.1.29,0.27,0.27,0,0,1-.08.24,0.56,0.56,0,0,1-.18.06,0.16,0.16,0,0,0-.06.15,0.13,0.13,0,0,0,.06.13,0.67,0.67,0,0,1,.07,0l0,0a0,0,0,0,1,0,0s0,0.06-.06.09a0.74,0.74,0,0,0,0,.12,0.14,0.14,0,0,0,0,.07s0,0.05,0,.06a0.12,0.12,0,0,1,0,0l0,0s0,0,0,0,0,0,0,0a0,0,0,0,0,0,0,0.05,0.05,0,0,1,0,0l0,0a0.07,0.07,0,0,1,0,0,0.06,0.06,0,0,1,0,0s0,0,0,0a0,0,0,0,0,0,0s0,0,0,0a0.19,0.19,0,0,0,0,0s0,0,0,0a0.17,0.17,0,0,1,.07,0,0.07,0.07,0,0,0,.05,0,0.07,0.07,0,0,0,0-.08l0,0,0,0a0.41,0.41,0,0,1,0,.07,0.2,0.2,0,0,0,0,0l0,0a0.26,0.26,0,0,1,0-.07s0,0,0,.07a0.22,0.22,0,0,1,0,0,0.16,0.16,0,0,1-.05,0,0.19,0.19,0,0,1-.05-0.05,0.4,0.4,0,0,1,0-.07,0.22,0.22,0,0,1,0-.08l0-.06H13.37s-0.06,0-.08,0a0.23,0.23,0,0,0,0,.14,0.32,0.32,0,0,1,0,.11l0,0H13.11l-0.06,0s0,0,0,0,0,0,0,0h0s0,0,0,0a0.08,0.08,0,0,1,0,0s0,0,0,0h0a0,0,0,0,1,0,0,0.05,0.05,0,0,1,0-.05s0-.06,0-0.06a0.12,0.12,0,0,0,.08,0,0,0,0,0,0,0,0s0,0,0,0l0,0s0,0,0,0a0.24,0.24,0,0,1,0,.07,0.1,0.1,0,0,0,.1,0c0.05,0,.07,0,0.07,0a0.48,0.48,0,0,0,0-.05,0.3,0.3,0,0,1,0,0l0,0,0,0a0.25,0.25,0,0,1,0-.05v0a0.25,0.25,0,0,0,0,.05,0.09,0.09,0,0,1,0-.08,0.63,0.63,0,0,1,0-.1,0.14,0.14,0,0,1,.1-0.08H13.3l0.1,0-0.18-.1a0.49,0.49,0,0,1-.1-0.11,0.41,0.41,0,0,1,0-.08H13l-0.06,0,0,0.05s0,0,0-.06,0,0,0,0a0.19,0.19,0,0,1-.05.09l-0.07.06V11.8a0.11,0.11,0,0,1-.06,0,0.13,0.13,0,0,0-.09,0,0.38,0.38,0,0,1,0,.07l0,0,0,0h0a0,0,0,0,1,0,0,0.1,0.1,0,0,0,0,0h0s0,0,0,0a0.1,0.1,0,0,0,0-.05,0,0,0,0,1,0,0h0.06s0,0,0,0,0,0,0,0l0,0s0,0,0,0a0.54,0.54,0,0,0,0,.05,0.21,0.21,0,0,0,.11,0l0.07,0,0.08-.06-0.05,0-0.05-.05-0.1,0-0.09,0,0,0,0,0H12.62l-0.06,0h0l0.07,0h0.05a0.15,0.15,0,0,1-.06,0l0-.05a0.05,0.05,0,0,0,0,0l-0.06,0a0,0,0,0,1,0,0,0,0,0,0,0,0,0s0,0,0,0h0.07a0.08,0.08,0,0,0,0,0s0,0,0,0l0,0s0,0,0,0a0.31,0.31,0,0,0,.06.06,0.06,0.06,0,0,0,0-.06s0,0,0,0l0,0s0.06,0,.05,0a0.13,0.13,0,0,1,0,.05,0.08,0.08,0,0,0,0,.07,0.2,0.2,0,0,0,.06.07l0.09,0,0.11,0.07,0,0H13a0.5,0.5,0,0,0,.14,0s0.06,0,.05-0.06a0.38,0.38,0,0,1-.07-0.07s0,0,.07,0,0.09,0,.1,0,0-.08,0-0.1a0.11,0.11,0,0,1-.1-0.05s0,0,0-.06l0.07,0h0.1s0,0,0,0l0.08,0,0.14,0.09a0.78,0.78,0,0,1,.11.11" transform="translate(0 -0.04)"/><path class="cls-1" d="M13.66,11s0,0,0,.07,0,0.06,0,.08v0a0.2,0.2,0,0,1,0,0l0,0,0,0v0.05a0.14,0.14,0,0,0,0,.06,0.31,0.31,0,0,1,.05.07,0.24,0.24,0,0,1,0,.07,0.13,0.13,0,0,0,0,0l-0.06,0a0.14,0.14,0,0,1,0,.08,0.27,0.27,0,0,1,0,.08l0-.06-0.06,0a0.32,0.32,0,0,1,0,.1s0,0.12,0,.12l0,0-0.05,0a0.19,0.19,0,0,1,0,.06,0.53,0.53,0,0,0,.1.23,0.25,0.25,0,0,0,.27.15c0.16,0,.1-0.25.07-0.35a0.88,0.88,0,0,1,0-.24s0-.15,0-0.17a0.42,0.42,0,0,1,0-.16,0.92,0.92,0,0,1,0-.12,0.3,0.3,0,0,0,0-.07,0.64,0.64,0,0,0,0-.07l0,0.07A0.35,0.35,0,0,1,14,11a0.12,0.12,0,0,1,0-.08l0.11-.07,0,0a0.34,0.34,0,0,1,0,.13l-0.09.1,0.06,0h0a0.39,0.39,0,0,0-.07.08,0.9,0.9,0,0,0-.05.11,0.25,0.25,0,0,1-.09.08,0.34,0.34,0,0,0,0,.24,2.29,2.29,0,0,1,.1.29,0.27,0.27,0,0,1-.08.24,0.56,0.56,0,0,1-.18.06,0.16,0.16,0,0,0-.06.15,0.13,0.13,0,0,0,.06.13,0.67,0.67,0,0,1,.07,0l0,0a0,0,0,0,1,0,0s0,0.06-.06.09a0.74,0.74,0,0,0,0,.12,0.14,0.14,0,0,0,0,.07s0,0.05,0,.06a0.12,0.12,0,0,1,0,0l0,0s0,0,0,0,0,0,0,0a0,0,0,0,0,0,0,0.05,0.05,0,0,1,0,0l0,0a0.07,0.07,0,0,1,0,0,0.06,0.06,0,0,1,0,0s0,0,0,0a0,0,0,0,0,0,0s0,0,0,0a0.19,0.19,0,0,0,0,0s0,0,0,0a0.17,0.17,0,0,1,.07,0,0.07,0.07,0,0,0,.05,0,0.07,0.07,0,0,0,0-.08l0,0,0,0a0.41,0.41,0,0,1,0,.07,0.2,0.2,0,0,0,0,0l0,0a0.26,0.26,0,0,1,0-.07s0,0,0,.07a0.22,0.22,0,0,1,0,0,0.16,0.16,0,0,1-.05,0,0.19,0.19,0,0,1-.05-0.05,0.4,0.4,0,0,1,0-.07,0.22,0.22,0,0,1,0-.08l0-.06H13.37s-0.06,0-.08,0a0.23,0.23,0,0,0,0,.14,0.32,0.32,0,0,1,0,.11l0,0H13.11l-0.06,0s0,0,0,0,0,0,0,0h0s0,0,0,0a0.08,0.08,0,0,1,0,0s0,0,0,0h0a0,0,0,0,1,0,0,0.05,0.05,0,0,1,0-.05s0-.06,0-0.06a0.12,0.12,0,0,0,.08,0,0,0,0,0,0,0,0s0,0,0,0l0,0s0,0,0,0a0.24,0.24,0,0,1,0,.07,0.1,0.1,0,0,0,.1,0c0.05,0,.07,0,0.07,0a0.48,0.48,0,0,0,0-.05,0.3,0.3,0,0,1,0,0l0,0,0,0a0.25,0.25,0,0,1,0-.05v0a0.25,0.25,0,0,0,0,.05,0.09,0.09,0,0,1,0-.08,0.63,0.63,0,0,1,0-.1,0.14,0.14,0,0,1,.1-0.08H13.3l0.1,0-0.18-.1a0.49,0.49,0,0,1-.1-0.11,0.41,0.41,0,0,1,0-.08H13l-0.06,0,0,0.05s0,0,0-.06,0,0,0,0a0.19,0.19,0,0,1-.05.09l-0.07.06V11.8a0.11,0.11,0,0,1-.06,0,0.13,0.13,0,0,0-.09,0,0.38,0.38,0,0,1,0,.07l0,0,0,0h0a0,0,0,0,1,0,0,0.1,0.1,0,0,0,0,0h0s0,0,0,0a0.1,0.1,0,0,0,0-.05,0,0,0,0,1,0,0h0.06s0,0,0,0,0,0,0,0l0,0s0,0,0,0a0.54,0.54,0,0,0,0,.05,0.21,0.21,0,0,0,.11,0l0.07,0,0.08-.06-0.05,0-0.05-.05-0.1,0-0.09,0,0,0,0,0H12.62l-0.06,0h0l0.07,0h0.05a0.15,0.15,0,0,1-.06,0l0-.05a0.05,0.05,0,0,0,0,0l-0.06,0a0,0,0,0,1,0,0,0,0,0,0,0,0,0s0,0,0,0h0.07a0.08,0.08,0,0,0,0,0s0,0,0,0l0,0s0,0,0,0a0.31,0.31,0,0,0,.06.06,0.06,0.06,0,0,0,0-.06s0,0,0,0l0,0s0.06,0,.05,0a0.13,0.13,0,0,1,0,.05,0.08,0.08,0,0,0,0,.07,0.2,0.2,0,0,0,.06.07l0.09,0,0.11,0.07,0,0H13a0.5,0.5,0,0,0,.14,0s0.06,0,.05-0.06a0.38,0.38,0,0,1-.07-0.07s0,0,.07,0,0.09,0,.1,0,0-.08,0-0.1a0.11,0.11,0,0,1-.1-0.05s0,0,0-.06l0.07,0h0.1s0,0,0,0l0.08,0,0.14,0.09a0.78,0.78,0,0,1,.11.11" transform="translate(0 -0.04)"/><g class="cls-35"><g class="cls-8"><rect class="cls-36" x="6.75" y="10.49" width="10.53" height="10.5"/></g></g><path class="cls-12" d="M12.13,15.62a0.2,0.2,0,0,1,.16.2A0.24,0.24,0,0,1,12,16a0.24,0.24,0,0,1-.27-0.21,0.18,0.18,0,0,1,.15-0.2v0l0,0h0.06l0,0,0,0,0,0,0,0v0l0,0h0v0a0.19,0.19,0,0,0,0,0" transform="translate(0 -0.04)"/><path class="cls-1" d="M12.13,15.62a0.2,0.2,0,0,1,.16.2A0.24,0.24,0,0,1,12,16a0.24,0.24,0,0,1-.27-0.21,0.18,0.18,0,0,1,.15-0.2v0l0,0h0.06l0,0,0,0,0,0,0,0v0l0,0h0v0a0.19,0.19,0,0,0,0,0" transform="translate(0 -0.04)"/><g class="cls-37"><g class="cls-8"><rect class="cls-19" x="5.04" y="5.71" width="11.42" height="12.09"/></g></g><path class="cls-12" d="M10.36,11.07h0v0H10.23V11.2h0.08v0.13H10.14V11.7h0.09v0.74H10v0.38h1.42V12.44H11.28V11.7h0.09V11.33H11.2V11.2h0.08V11H11.2v0h0v0H11.07v0H11v0H10.93V11.2H11v0.13H10.84v-0.4h0.09V10.74H10.84v0h0v0H10.71v0h0v0H10.58v0.18h0.09v0.4H10.49V11.2h0.08V11H10.49v0h0v0H10.36v0ZM10,12.82h0Zm0-.09h0Zm0-.09h0Zm0-.09h0Zm0-.1h0Zm0.18-.08h0Zm0-.09h0Zm0-.1h0Zm0-.09h0Zm0-.09h0Zm0-.09h0Zm0-.09h0Zm-0.09-.09h0Zm0-.09h0Zm0-.09h0Zm0-.09h0Zm0.17-.09h0Zm0.36-.09h0Zm0-.09h0Zm0-.09h0Zm0-.09h0Zm-0.09-.12h0Zm-0.27.39h0Zm-0.08-.12h0Zm0,1.71v0Zm0-.18v0Zm-0.09,0v0Zm0.17,0.1v0Zm0.09,0.09v0Zm0-.18v0Zm0-.18v0Zm0-.19v0Zm-0.09.28v0Zm-0.17,0v0Zm0.36-.1v0Zm0.08,0v0Zm-0.27-.19v0Zm0.18,0v0Zm0.17,0v0Zm-0.09,0v0Zm0.09-.2v0Zm0-.18v0Zm-0.09-.09v0Zm0.09-.09v0Zm-0.17,0v0Zm-0.18,0v0Zm-0.08-.09v0Zm0.17,0v0Zm0.17,0v0Zm0.09-.09v0Zm-0.17,0v0Zm-0.18,0v0Zm-0.08-.09v0Zm0.35,0v0Zm-0.17-.18v0Zm0.8,0h0Zm0.08-.12h0Zm0,1.71v0Zm0-.18v0Zm0.09,0v0Zm-0.17.1v0Zm-0.09.09v0Zm0-.18v0Zm0-.18v0Zm0-.19v0Zm0.09,0.28v0Zm0.17,0v0ZM11,12.44v0Zm-0.08,0v0Zm0.27-.19v0Zm-0.18,0v0Zm-0.17,0v0Zm0.09,0v0Zm-0.09-.2v0Zm0-.18v0Zm0.09-.09v0Zm-0.09-.09v0Zm0.17,0v0Zm0.18,0v0Zm0.08-.09v0Zm-0.17,0v0Zm-0.17,0v0Zm-0.09-.09v0Zm0.17,0v0Zm0.18,0v0Zm0.08-.09v0Zm-0.35,0v0Zm0.17-.18v0Zm-0.36,1v0Zm0-.37v0Zm0,0.18v0Zm0-.37v0Zm0-.18v0Zm0-.28v0Zm0-.18v0Zm-0.44.14h0Zm0.36-.28h0ZM11,11.2h0Z" transform="translate(0 -0.04)"/><path class="cls-1" d="M10.36,11.07h0v0H10.23V11.2h0.08v0.13H10.14V11.7h0.09v0.74H10v0.38h1.42V12.44H11.28V11.7h0.09V11.33H11.2V11.2h0.08V11H11.2v0h0v0H11.07v0H11v0H10.93V11.2H11v0.13H10.84v-0.4h0.09V10.74H10.84v0h0v0H10.71v0h0v0H10.58v0.18h0.09v0.4H10.49V11.2h0.08V11H10.49v0h0v0H10.36v0ZM10,12.82h0Zm0-.09h0Zm0-.09h0Zm0-.09h0Zm0-.1h0Zm0.18-.08h0Zm0-.09h0Zm0-.1h0Zm0-.09h0Zm0-.09h0Zm0-.09h0Zm0-.09h0Zm-0.09-.09h0Zm0-.09h0Zm0-.09h0Zm0-.09h0Zm0.17-.09h0Zm0.36-.09h0Zm0-.09h0Zm0-.09h0Zm0-.09h0Zm-0.09-.12h0Zm-0.27.39h0Zm-0.08-.12h0Zm0,1.71v0Zm0-.18v0Zm-0.09,0v0Zm0.17,0.1v0Zm0.09,0.09v0Zm0-.18v0Zm0-.18v0Zm0-.19v0Zm-0.09.28v0Zm-0.17,0v0Zm0.36-.1v0Zm0.08,0v0Zm-0.27-.19v0Zm0.18,0v0Zm0.17,0v0Zm-0.09,0v0Zm0.09-.2v0Zm0-.18v0Zm-0.09-.09v0Zm0.09-.09v0Zm-0.17,0v0Zm-0.18,0v0Zm-0.08-.09v0Zm0.17,0v0Zm0.17,0v0Zm0.09-.09v0Zm-0.17,0v0Zm-0.18,0v0Zm-0.08-.09v0Zm0.35,0v0Zm-0.17-.18v0Zm0.8,0h0Zm0.08-.12h0Zm0,1.71v0Zm0-.18v0Zm0.09,0v0Zm-0.17.1v0Zm-0.09.09v0Zm0-.18v0Zm0-.18v0Zm0-.19v0Zm0.09,0.28v0Zm0.17,0v0ZM11,12.44v0Zm-0.08,0v0Zm0.27-.19v0Zm-0.18,0v0Zm-0.17,0v0Zm0.09,0v0Zm-0.09-.2v0Zm0-.18v0Zm0.09-.09v0Zm-0.09-.09v0Zm0.17,0v0Zm0.18,0v0Zm0.08-.09v0Zm-0.17,0v0Zm-0.17,0v0Zm-0.09-.09v0Zm0.17,0v0Zm0.18,0v0Zm0.08-.09v0Zm-0.35,0v0Zm0.17-.18v0Zm-0.36,1v0Zm0-.37v0Zm0,0.18v0Zm0-.37v0Zm0-.18v0Zm0-.28v0Zm0-.18v0Zm-0.44.14h0Zm0.36-.28h0ZM11,11.2h0Z" transform="translate(0 -0.04)"/><g class="cls-38"><g class="cls-8"><rect class="cls-11" x="6.2" y="7.24" width="11.62" height="11.83"/></g></g><path class="cls-12" d="M11.2,13.2a0.82,0.82,0,1,1,.81.91,0.87,0.87,0,0,1-.81-0.91" transform="translate(0 -0.04)"/><ellipse class="cls-1" cx="12.01" cy="13.16" rx="0.81" ry="0.91"/><g class="cls-39"><g class="cls-8"><rect class="cls-40" x="6.44" y="7.49" width="11.14" height="11.34"/></g></g><path class="cls-12" d="M11.44,13.19a0.58,0.58,0,1,1,.57.67,0.63,0.63,0,0,1-.57-0.67" transform="translate(0 -0.04)"/><ellipse class="cls-1" cx="12.01" cy="13.16" rx="0.57" ry="0.67"/></g></g></svg>