<?xml version="1.0" encoding="utf-8"?>
<!-- Generator: Adobe Illustrator 22.0.1, SVG Export Plug-In . SVG Version: 6.00 Build 0)  -->
<svg version="1.1" id="Layer_1" xmlns="http://www.w3.org/2000/svg" xmlns:xlink="http://www.w3.org/1999/xlink" x="0px" y="0px"
	 viewBox="0 0 48 48" style="enable-background:new 0 0 48 48;" xml:space="preserve">
<style type="text/css">
	.st0{clip-path:url(#SVGID_2_);}
	.st1{fill:#FF1612;}
	.st2{fill-rule:evenodd;clip-rule:evenodd;fill:#FFFFFF;}
</style>
<g>
	<defs>
		<path id="SVGID_1_" d="M47.8,24c0,13.1-10.6,23.8-23.8,23.8C10.9,47.8,0.2,37.1,0.2,24C0.2,10.9,10.9,0.2,24,0.2
			C37.1,0.2,47.8,10.9,47.8,24z"/>
	</defs>
	<clipPath id="SVGID_2_">
		<use xlink:href="#SVGID_1_"  style="overflow:visible;"/>
	</clipPath>
	<g class="st0">
		<path class="st1" d="M-11.6,0.2h71.3v47.5h-71.3V0.2L-11.6,0.2z M24,12.1c-6.6,0-11.9,5.3-11.9,11.9c0,6.6,5.3,11.9,11.9,11.9
			S35.9,30.6,35.9,24C35.9,17.4,30.6,12.1,24,12.1L24,12.1z M24,15.1c3,0,5.6,1.4,7.2,3.7c-1.3-1.2-3-1.9-4.8-1.9
			c-3.9,0-7.1,3.2-7.1,7.1c0,3.9,3.2,7.1,7.1,7.1c1.9,0,3.6-0.7,4.8-1.9c-1.6,2.2-4.2,3.7-7.2,3.7c-4.9,0-8.9-4-8.9-8.9
			C15.1,19.1,19.1,15.1,24,15.1L24,15.1z M24.7,18.9l2.3,3.1l3.7-1.2L28.4,24l2.3,3.1L27,25.9l-2.3,3.1v-3.9L21,24l3.7-1.2V18.9
			L24.7,18.9z"/>
		<path class="st2" d="M24,12.1c-6.6,0-11.9,5.3-11.9,11.9c0,6.6,5.3,11.9,11.9,11.9S35.9,30.6,35.9,24C35.9,17.4,30.6,12.1,24,12.1
			L24,12.1z M24,15.1c3,0,5.6,1.4,7.2,3.7c-1.3-1.2-3-1.9-4.8-1.9c-3.9,0-7.1,3.2-7.1,7.1c0,3.9,3.2,7.1,7.1,7.1
			c1.9,0,3.6-0.7,4.8-1.9c-1.6,2.2-4.2,3.7-7.2,3.7c-4.9,0-8.9-4-8.9-8.9C15.1,19.1,19.1,15.1,24,15.1L24,15.1z M24.7,18.9l2.3,3.1
			l3.7-1.2L28.4,24l2.3,3.1L27,25.9l-2.3,3.1v-3.9L21,24l3.7-1.2V18.9L24.7,18.9z"/>
	</g>
</g>
</svg>
