<?xml version="1.0" encoding="utf-8"?>
<!-- Generator: Adobe Illustrator 22.0.1, SVG Export Plug-In . SVG Version: 6.00 Build 0)  -->
<svg version="1.1" id="Layer_1" xmlns="http://www.w3.org/2000/svg" xmlns:xlink="http://www.w3.org/1999/xlink" x="0px" y="0px"
	 viewBox="0 0 48 48" style="enable-background:new 0 0 48 48;" xml:space="preserve">
<style type="text/css">
	.st0{clip-path:url(#SVGID_2_);}
	.st1{fill-rule:evenodd;clip-rule:evenodd;fill:#F0F0F0;}
	.st2{fill-rule:evenodd;clip-rule:evenodd;fill:#0456BD;}
	.st3{fill-rule:evenodd;clip-rule:evenodd;fill:#FCD116;stroke:#000000;stroke-width:0.1579;stroke-miterlimit:2.4142;}
	.st4{fill-rule:evenodd;clip-rule:evenodd;fill:#FCD116;stroke:#000000;stroke-width:0.1554;stroke-miterlimit:2.4142;}
	.st5{fill-rule:evenodd;clip-rule:evenodd;}
</style>
<g>
	<defs>
		<path id="SVGID_1_" d="M47.8,24c0,13.1-10.6,23.8-23.8,23.8C10.9,47.8,0.2,37.1,0.2,24C0.2,10.9,10.9,0.2,24,0.2
			C37.1,0.2,47.8,10.9,47.8,24z"/>
	</defs>
	<clipPath id="SVGID_2_">
		<use xlink:href="#SVGID_1_"  style="overflow:visible;"/>
	</clipPath>
	<g class="st0">
		<path class="st1" d="M0.2,47.8h71.3v-5.3H0.2V47.8L0.2,47.8z M71.5,37.2v-5.3H0.2v5.3H71.5L71.5,37.2z M71.5,26.6v-5.3H26.6v-5.3
			h44.9v-5.3H26.6V5.5h44.9V0.2H0.2v26.4H71.5L71.5,26.6z"/>
		<path class="st2" d="M0.2,42.5h71.3v-5.3H0.2V42.5L0.2,42.5z M26.6,10.8h44.9V5.5H26.6V10.8L26.6,10.8z M26.6,21.4h44.9v-5.3H26.6
			V21.4L26.6,21.4z M0.2,31.9h71.3v-5.3H0.2V31.9L0.2,31.9z"/>
		<g>
			<g>
				<g>
					<g>
						<path class="st3" d="M14.1,8.9c0,0,0.5-0.2,0.9-1.1C15.5,7,15.5,6.4,15.7,6c0.2-0.4,0.6-0.9,1.3-1.1c0,0-0.5,0.4-0.7,1
							c-0.1,0.6,0.1,0.8,0.1,1.8c0,1.1-0.7,2.5-0.7,2.5l-0.9,0.9l-1-0.5L14.1,8.9L14.1,8.9z"/>
						<path d="M14.5,10.8c0,0,0.6-1.2,0.9-1.7c0.1-0.2,0.2-0.5,0.3-0.9c0.1-0.4,0.2-0.9,0.2-1.1c0,0,0-0.1,0-0.1
							c0-0.4,0.1-1.1,0.3-1.5C16.4,5.2,17,4.8,17,4.8L17,4.9c0,0-0.6,0.4-0.8,0.8c-0.2,0.4-0.3,1.1-0.3,1.4c0,0,0,0.1,0,0.1
							c0,0.2-0.1,0.6-0.2,1.1c-0.1,0.3-0.2,0.6-0.3,0.9c-0.2,0.6-0.9,1.7-0.9,1.7L14.5,10.8L14.5,10.8z"/>
					</g>
					<g>
						<path class="st3" d="M12.9,18c0,0-0.5,0.2-0.9,1.1c-0.5,0.8-0.5,1.5-0.7,1.9c-0.2,0.4-0.6,0.9-1.3,1.1c0,0,0.5-0.4,0.7-1
							c0.1-0.6-0.1-0.8-0.1-1.8c0-1.1,0.7-2.5,0.7-2.5l0.9-0.9l1,0.5L12.9,18L12.9,18z"/>
						<path d="M12.5,16c0,0-0.6,1.2-0.9,1.7c-0.1,0.2-0.2,0.5-0.3,0.9c-0.1,0.4-0.2,0.9-0.2,1.1c0,0,0,0.1,0,0.1
							c0,0.4-0.1,1.1-0.3,1.5c-0.2,0.4-0.8,0.8-0.8,0.8L10,21.9c0,0,0.6-0.4,0.8-0.8c0.2-0.4,0.3-1.1,0.3-1.4c0,0,0-0.1,0-0.1
							c0-0.2,0.1-0.6,0.2-1.1c0.1-0.3,0.2-0.6,0.3-0.9c0.2-0.6,0.9-1.7,0.9-1.7L12.5,16L12.5,16z"/>
					</g>
				</g>
				<g>
					<g>
						<path class="st3" d="M10.7,9.8c0,0,0.1-0.5-0.1-1.4C10.4,7.5,10,7,9.8,6.6c-0.2-0.4-0.2-1,0.2-1.7c0,0-0.1,0.7,0.3,1.2
							c0.3,0.5,0.6,0.4,1.3,1.2c0.7,0.8,1.2,2.3,1.2,2.3l0,1.3l-1,0.3L10.7,9.8L10.7,9.8z"/>
						<path d="M12.4,10.9c0,0-0.4-1.3-0.6-1.8c-0.1-0.2-0.3-0.5-0.4-0.8c-0.2-0.4-0.5-0.8-0.6-0.9c0,0,0,0,0-0.1
							C10.5,7,10,6.5,9.9,6c-0.1-0.5,0-1.1,0-1.1l0.1,0c0,0-0.1,0.6,0,1.1c0.1,0.4,0.6,1,0.8,1.2c0,0,0,0,0,0.1
							c0.1,0.1,0.4,0.5,0.6,0.9c0.2,0.3,0.3,0.6,0.4,0.8c0.2,0.5,0.6,1.8,0.6,1.8L12.4,10.9L12.4,10.9z"/>
					</g>
					<g>
						<path class="st3" d="M16.3,17c0,0-0.1,0.5,0.1,1.4c0.2,0.9,0.7,1.4,0.8,1.8c0.2,0.4,0.2,1-0.2,1.7c0,0,0.1-0.7-0.3-1.2
							c-0.3-0.5-0.6-0.4-1.3-1.2c-0.7-0.8-1.2-2.3-1.2-2.3l0-1.3l1-0.3L16.3,17L16.3,17z"/>
						<path d="M14.7,16c0,0,0.4,1.3,0.6,1.8c0.1,0.2,0.3,0.5,0.4,0.8c0.2,0.4,0.5,0.8,0.6,0.9c0,0,0,0,0,0.1
							c0.2,0.3,0.7,0.9,0.8,1.3c0.1,0.5,0,1.1,0,1.1l-0.1,0c0,0,0.1-0.6,0-1.1c-0.1-0.4-0.6-1-0.8-1.2c0,0,0,0,0-0.1
							c-0.1-0.1-0.4-0.5-0.6-0.9c-0.2-0.3-0.3-0.6-0.4-0.8c-0.2-0.5-0.6-1.8-0.6-1.8L14.7,16L14.7,16z"/>
					</g>
				</g>
				<g>
					<g>
						<path class="st3" d="M9,12.9c0,0-0.2-0.5-1.1-0.9c-0.8-0.5-1.5-0.5-1.9-0.7C5.7,11.1,5.2,10.7,5,9.9c0,0,0.4,0.5,1,0.7
							c0.6,0.1,0.8-0.1,1.8-0.1c1.1,0,2.5,0.7,2.5,0.7l0.9,0.9l-0.5,1L9,12.9L9,12.9z"/>
						<path d="M10.9,12.5c0,0-1.2-0.6-1.7-0.9c-0.2-0.1-0.5-0.2-0.9-0.3c-0.4-0.1-0.9-0.2-1.1-0.2c0,0-0.1,0-0.1,0
							c-0.4,0-1.1-0.1-1.5-0.3C5.3,10.6,4.9,10,4.9,10L5,9.9c0,0,0.4,0.6,0.8,0.8C6.1,10.9,6.9,11,7.2,11c0,0,0.1,0,0.1,0
							c0.2,0,0.6,0.1,1.1,0.2c0.3,0.1,0.6,0.2,0.9,0.3c0.6,0.2,1.7,0.9,1.7,0.9L10.9,12.5L10.9,12.5z"/>
					</g>
					<g>
						<path class="st3" d="M18,14c0,0,0.2,0.5,1.1,0.9c0.8,0.5,1.5,0.5,1.9,0.7c0.4,0.2,0.9,0.6,1.1,1.3c0,0-0.4-0.5-1-0.7
							s-0.8,0.1-1.8,0.1c-1.1,0-2.5-0.7-2.5-0.7l-0.9-0.9l0.5-1L18,14L18,14z"/>
						<path d="M16.1,14.4c0,0,1.2,0.6,1.7,0.9c0.2,0.1,0.5,0.2,0.9,0.3c0.5,0.1,0.9,0.2,1.1,0.2c0,0,0.1,0,0.1,0
							c0.4,0,1.1,0.1,1.5,0.3c0.4,0.2,0.8,0.8,0.8,0.8L22,16.9c0,0-0.4-0.6-0.8-0.8c-0.4-0.2-1.1-0.3-1.4-0.3c0,0-0.1,0-0.1,0
							c-0.2,0-0.6-0.1-1.1-0.2c-0.3-0.1-0.6-0.2-0.9-0.3c-0.6-0.2-1.7-0.9-1.7-0.9L16.1,14.4L16.1,14.4z"/>
					</g>
				</g>
				<g>
					<g>
						<path class="st3" d="M9.9,16.2c0,0-0.5-0.1-1.4,0.1c-0.9,0.2-1.4,0.7-1.8,0.8c-0.4,0.2-1,0.2-1.7-0.2c0,0,0.7,0.1,1.2-0.3
							c0.5-0.3,0.4-0.6,1.2-1.3c0.8-0.7,2.3-1.2,2.3-1.2l1.3,0l0.3,1L9.9,16.2L9.9,16.2z"/>
						<path d="M11,14.6c0,0-1.3,0.4-1.8,0.6c-0.2,0.1-0.5,0.3-0.8,0.4c-0.4,0.2-0.8,0.5-0.9,0.6c0,0,0,0-0.1,0
							c-0.3,0.2-0.9,0.7-1.3,0.8c-0.5,0.1-1.1,0-1.1,0L5,17c0,0,0.6,0.1,1.1,0c0.4-0.1,1-0.6,1.2-0.8c0,0,0,0,0.1,0
							c0.1-0.1,0.5-0.4,0.9-0.6c0.3-0.2,0.6-0.3,0.8-0.4c0.5-0.2,1.8-0.6,1.8-0.6L11,14.6L11,14.6z"/>
					</g>
					<g>
						<path class="st3" d="M17.1,10.6c0,0,0.5,0.1,1.4-0.1c0.9-0.2,1.4-0.7,1.8-0.8c0.4-0.2,1-0.2,1.7,0.2c0,0-0.7-0.1-1.2,0.3
							c-0.5,0.3-0.4,0.6-1.2,1.3c-0.8,0.7-2.3,1.2-2.3,1.2l-1.3,0l-0.3-1L17.1,10.6L17.1,10.6z"/>
						<path d="M16,12.3c0,0,1.3-0.4,1.8-0.6c0.2-0.1,0.5-0.3,0.8-0.4c0.4-0.2,0.8-0.5,0.9-0.6c0,0,0,0,0.1,0
							c0.3-0.2,0.9-0.7,1.3-0.8c0.5-0.1,1.1,0,1.1,0l0,0.1c0,0-0.6-0.1-1.1,0c-0.4,0.1-1,0.6-1.2,0.8c0,0,0,0-0.1,0
							c-0.1,0.1-0.5,0.4-0.9,0.6c-0.3,0.2-0.6,0.3-0.8,0.4c-0.5,0.2-1.8,0.6-1.8,0.6L16,12.3L16,12.3z"/>
					</g>
				</g>
			</g>
			<g>
				<g>
					<polygon class="st4" points="13.5,10.7 14.7,10.8 13.5,4.2 12.3,10.8 13.5,10.7 					"/>
					<polygon points="13.4,10.7 13.4,4.4 13.6,4.4 13.6,10.7 13.4,10.7 					"/>
				</g>
				<g>
					<polygon class="st4" points="13.5,16.2 14.7,16 13.5,22.7 12.3,16 13.5,16.2 					"/>
					<polygon points="13.4,16.2 13.4,22.5 13.6,22.5 13.6,16.2 13.4,16.2 					"/>
				</g>
				<g>
					<polygon class="st4" points="11.6,11.5 12.5,10.7 7,6.9 10.8,12.5 11.6,11.5 					"/>
					<polygon points="11.5,11.6 7.1,7.1 7.2,7 11.6,11.5 11.5,11.6 					"/>
				</g>
				<g>
					<polygon class="st4" points="15.4,15.4 16.2,14.4 20,20 14.5,16.2 15.4,15.4 					"/>
					<polygon points="15.4,15.4 19.8,19.9 19.9,19.8 15.5,15.3 15.4,15.4 					"/>
				</g>
				<g>
					<polygon class="st4" points="10.8,13.4 10.9,12.2 4.3,13.4 10.9,14.7 10.8,13.4 					"/>
					<polygon points="10.8,13.5 4.5,13.5 4.5,13.4 10.8,13.4 10.8,13.5 					"/>
				</g>
				<g>
					<polygon class="st4" points="16.2,13.4 16.1,12.2 22.7,13.4 16.1,14.7 16.2,13.4 					"/>
					<polygon points="16.2,13.5 22.5,13.5 22.5,13.4 16.2,13.4 16.2,13.5 					"/>
				</g>
				<g>
					<polygon class="st4" points="11.6,15.4 10.8,14.4 7,20 12.5,16.2 11.6,15.4 					"/>
					<polygon points="11.6,15.4 7.2,19.9 7.1,19.8 11.5,15.3 11.6,15.4 					"/>
				</g>
				<g>
					<polygon class="st4" points="15.4,11.5 14.5,10.7 20,6.9 16.2,12.5 15.4,11.5 					"/>
					<polygon points="15.5,11.6 19.9,7.1 19.8,7 15.4,11.5 15.5,11.6 					"/>
				</g>
			</g>
			<path class="st3" d="M13.5,10.3c1.7,0,3.1,1.4,3.1,3.1c0,1.7-1.4,3.1-3.1,3.1c-1.7,0-3.1-1.4-3.1-3.1
				C10.4,11.7,11.8,10.3,13.5,10.3z"/>
			<path class="st5" d="M13.9,12.2c0.2-0.2,0.6-0.5,0.8-0.5c0.2,0,0.7,0.2,0.9,0.3c0.2,0.1,0.2,0.2,0.2,0.2c-0.1,0-0.1,0-0.2,0
				c-0.1,0-0.4-0.2-0.8-0.2c-0.4,0-0.6,0.1-0.7,0.2c-0.1,0.1-0.2,0.2-0.2,0.1C13.8,12.4,13.8,12.3,13.9,12.2L13.9,12.2z M13.6,15.6
				c0.2,0,0-0.1-0.2-0.1c-0.2,0-0.4,0.1-0.2,0.1C13.4,15.6,13.6,15.6,13.6,15.6L13.6,15.6z M12.2,14.6c0,0-0.2,0.3-0.3,0.4
				c0,0,0-0.1,0.1-0.2C12,14.7,12.2,14.6,12.2,14.6L12.2,14.6z M14.8,14.6c0,0,0.2,0.3,0.3,0.4c0,0,0-0.1-0.1-0.2
				C15,14.7,14.8,14.6,14.8,14.6L14.8,14.6z M13.5,14.6c0,0,0.1,0,0.3,0c0.2,0,0.3,0,0.4,0c0.1,0,0.3,0.1,0.5,0.2c0.2,0,0.3,0,0.3,0
				s-0.3,0.1-0.5,0.2c-0.2,0.1-0.4,0.2-0.6,0.3c-0.2,0-0.4,0-0.4,0s-0.2,0-0.4,0c-0.2,0-0.4-0.1-0.6-0.3c-0.2-0.1-0.5-0.2-0.5-0.2
				s0.1,0,0.3,0c0.2,0,0.4-0.1,0.5-0.2c0.1,0,0.2-0.1,0.4,0C13.4,14.7,13.5,14.6,13.5,14.6L13.5,14.6z M13.5,15.1c0,0,0.3,0,0.4,0
				c0.1,0,0.4-0.1,0.5-0.1c0,0-0.2,0-0.4-0.1c-0.1,0-0.6,0-0.6,0s-0.4,0-0.6,0c-0.1,0-0.4,0.1-0.4,0.1c0.1,0,0.3,0.1,0.5,0.1
				C13.2,15.1,13.5,15.1,13.5,15.1L13.5,15.1z M13.1,12.2c-0.2-0.2-0.6-0.5-0.8-0.5c-0.2,0-0.7,0.2-0.9,0.3
				c-0.2,0.1-0.2,0.2-0.2,0.2c0.1,0,0.1,0,0.2,0c0.1,0,0.4-0.2,0.8-0.2c0.4,0,0.6,0.1,0.7,0.2c0.1,0.1,0.2,0.2,0.2,0.1
				C13.2,12.4,13.1,12.3,13.1,12.2L13.1,12.2z M12.9,12.6c0-0.1-0.1-0.2-0.3-0.3c-0.2-0.1-0.6,0-0.7,0c-0.1,0-0.4,0.3-0.4,0.3
				c-0.1,0-0.1,0.1,0,0.1c0.1,0,0.3-0.2,0.3-0.2c0,0-0.1,0.1,0,0.2c0,0-0.1,0-0.1-0.1c0,0,0,0,0,0c0,0,0.2,0.2,0.4,0.3
				c0.2,0.1,0.4,0.1,0.5,0c0.1,0,0.3-0.1,0.3-0.2c0.1-0.1,0-0.1,0-0.1c0,0-0.1,0.1-0.2,0.1c-0.1,0-0.2,0.1-0.3,0.1
				c0,0,0.4-0.2,0.3-0.5C12.6,12.5,12.8,12.5,12.9,12.6C13,12.8,12.9,12.6,12.9,12.6L12.9,12.6z M12,12.5c0,0-0.1,0.1-0.1,0.2
				c0,0.1,0.1,0.2,0.1,0.2s-0.3,0-0.3-0.2C11.8,12.5,12,12.5,12,12.5L12,12.5z M13.5,14.3c0,0,0.2,0,0.3-0.1c0.1-0.1,0.4,0,0.4,0
				c0.1,0,0.3,0.1,0.4,0.2c0,0-0.1-0.2-0.2-0.2c-0.1-0.1-0.2,0-0.2-0.1c-0.1-0.1-0.1-0.2-0.1-0.3c-0.1-0.1-0.1-0.1-0.1-0.1
				c0,0,0,0,0,0.1c0,0.1,0.1,0.1,0.1,0.2c0,0.1-0.1,0.1-0.2,0.1c-0.1,0-0.1-0.1-0.1-0.1c0,0,0,0,0,0.1c0,0,0,0.2-0.3,0.1
				c-0.3,0-0.3-0.1-0.3-0.1c0,0,0-0.1,0-0.1c0,0,0,0-0.1,0.1c-0.1,0-0.2,0-0.2-0.1c0-0.1,0-0.1,0.1-0.2c0,0,0-0.1,0-0.1
				c0,0,0,0-0.1,0.1c-0.1,0.1-0.1,0.2-0.1,0.3c-0.1,0.1-0.1,0.1-0.2,0.1c-0.1,0.1-0.2,0.2-0.2,0.2c0.1-0.1,0.4-0.2,0.4-0.2
				c0.1,0,0.3,0,0.4,0C13.3,14.3,13.5,14.3,13.5,14.3L13.5,14.3z M14,12.6c0-0.1,0.1-0.2,0.3-0.3c0.2-0.1,0.6,0,0.7,0
				c0.1,0,0.4,0.3,0.4,0.3c0.1,0,0.1,0.1,0,0.1c-0.1,0-0.3-0.2-0.3-0.2c0,0,0.1,0.1,0,0.2c0,0,0.1,0,0.1-0.1c0,0,0,0,0,0
				c0,0-0.2,0.2-0.4,0.3c-0.2,0.1-0.4,0.1-0.5,0c-0.1,0-0.3-0.1-0.3-0.2c-0.1-0.1,0-0.1,0-0.1c0,0,0.1,0.1,0.2,0.1
				c0.1,0,0.2,0.1,0.3,0.1c0,0-0.4-0.2-0.3-0.5C14.4,12.5,14.2,12.5,14,12.6C14,12.8,14,12.6,14,12.6L14,12.6z M15,12.5
				c0,0,0.1,0.1,0.1,0.2c0,0.1-0.1,0.2-0.1,0.2s0.3,0,0.3-0.2C15.2,12.5,15,12.5,15,12.5L15,12.5z"/>
		</g>
	</g>
</g>
</svg>
