<?xml version="1.0" encoding="UTF-8"?>
<svg width="108px" height="108px" viewBox="0 0 108 108" version="1.1" xmlns="http://www.w3.org/2000/svg" xmlns:xlink="http://www.w3.org/1999/xlink">
    <!-- Generator: Sketch 48.2 (47327) - http://www.bohemiancoding.com/sketch -->
    <title>icon</title>
    <desc>Created with Sketch.</desc>
    <defs></defs>
    <g id="exports" stroke="none" stroke-width="1" fill="none" fill-rule="evenodd">
        <g id="icon" fill="#FFFFFF">
            <path d="M37.8022315,37.6258538 C37.543008,38.0459389 37.3155693,38.5115474 37.1378437,39.0439413 C35.5572765,43.7699919 48.1002207,74.8429397 47.6417745,78.5784522 C46.8969271,84.6729428 40.6823779,87.9860347 41.8438089,90.0885252 C43.07416,92.3164771 50.2372537,93.0075267 53.156402,92.9999383 C56.0760608,92.9913381 63.2355809,92.2537464 64.4536795,90.0161826 C65.6013265,87.9086331 59.3668671,84.6344949 58.5862833,78.5455691 C58.1053743,74.8120802 70.4670842,43.6612249 68.8548648,38.9442804 C68.68238,38.436658 68.4633438,37.9927124 68.2158776,37.5897269 C69.3576147,35.305209 70,32.7276231 70,30 C70,20.6111593 62.3888407,13 53,13 C43.6111593,13 36,20.6111593 36,30 C36,32.7420128 36.649181,35.3324012 37.8022315,37.6258538 Z M54,108 C24.1766235,108 0,83.8233765 0,54 C0,24.1766235 24.1766235,0 54,0 C83.8233765,0 108,24.1766235 108,54 C108,83.8233765 83.8233765,108 54,108 Z" id="Combined-Shape"></path>
        </g>
    </g>
</svg>